<svg width="999" height="270" viewBox="0 0 999 270" fill="none" xmlns="http://www.w3.org/2000/svg">
<path fill-rule="evenodd" clip-rule="evenodd" d="M978.292 13.4083C985.419 13.4083 991.196 19.1028 991.196 26.1272V127.878C991.196 134.903 985.419 140.597 978.292 140.597C971.166 140.597 965.389 134.903 965.389 127.878V26.1272C965.389 19.1028 971.166 13.4083 978.292 13.4083Z" fill="#2C2C31"/>
<path fill-rule="evenodd" clip-rule="evenodd" d="M900.873 38.8461C872.368 38.8461 849.26 61.6238 849.26 89.722C849.26 117.819 872.368 140.597 900.873 140.597C910.75 140.597 919.979 137.863 927.823 133.12C929.849 137.529 934.352 140.597 939.583 140.597C946.709 140.597 952.486 134.903 952.486 127.878V51.565C952.486 44.5406 946.709 38.8461 939.583 38.8461C934.352 38.8461 929.849 41.9139 927.823 46.3238C919.979 41.5807 910.75 38.8461 900.873 38.8461ZM926.68 89.722C926.68 75.6728 915.125 64.2839 900.873 64.2839C886.621 64.2839 875.067 75.6728 875.067 89.722C875.067 103.77 886.621 115.16 900.873 115.16C915.125 115.16 926.68 103.77 926.68 89.722Z" fill="#2C2C31"/>
<path fill-rule="evenodd" clip-rule="evenodd" d="M752.486 89.712C752.486 89.715 752.486 89.719 752.486 89.722C752.486 89.725 752.486 89.728 752.486 89.731V127.878C752.486 134.903 758.263 140.597 765.389 140.597C772.516 140.597 778.292 134.903 778.292 127.878V102.441H797.647C822.589 102.441 842.809 82.5101 842.809 57.9245C842.809 33.3389 822.589 13.4083 797.647 13.4083H765.389C758.263 13.4083 752.486 19.1028 752.486 26.1272C752.486 26.1303 752.486 26.1334 752.486 26.1365V89.712ZM778.292 77.0029H797.647C808.337 77.0029 817.002 68.4612 817.002 57.9245C817.002 47.3878 808.337 38.8461 797.647 38.8461H778.292V77.0029Z" fill="#2C2C31"/>
<path fill-rule="evenodd" clip-rule="evenodd" d="M726.68 140.597C719.553 140.597 713.776 134.903 713.776 127.878V89.722C713.776 75.6728 702.222 64.2839 687.97 64.2839C673.717 64.2839 662.163 75.6728 662.163 89.722V127.878C662.163 134.903 656.386 140.597 649.26 140.597C642.134 140.597 636.357 134.903 636.357 127.878V89.722C636.357 61.6239 659.465 38.8461 687.97 38.8461C716.475 38.8461 739.583 61.6239 739.583 89.722V127.878C739.583 134.903 733.806 140.597 726.68 140.597Z" fill="#2C2C31"/>
<path d="M623.454 13.4083C623.454 20.4328 617.676 26.1272 610.551 26.1272C603.425 26.1272 597.647 20.4328 597.647 13.4083C597.647 6.38391 603.425 0.689514 610.551 0.689514C617.676 0.689514 623.454 6.38391 623.454 13.4083Z" fill="#2C2C31"/>
<path d="M623.454 51.565C623.454 44.5406 617.677 38.8461 610.551 38.8461C603.424 38.8461 597.647 44.5406 597.647 51.565V127.878C597.647 134.903 603.424 140.597 610.551 140.597C617.677 140.597 623.454 134.903 623.454 127.878V51.565Z" fill="#2C2C31"/>
<path fill-rule="evenodd" clip-rule="evenodd" d="M552.644 69.517C548.328 73.2099 546.034 77.5256 546.034 81.7724V127.878C546.034 134.903 540.257 140.597 533.131 140.597C526.005 140.597 520.228 134.903 520.228 127.878V81.7724C520.228 68.0008 527.656 57.2128 535.728 50.3066C543.486 43.6695 553.899 38.8461 563.239 38.8461H571.841C578.967 38.8461 584.744 44.5406 584.744 51.565C584.744 58.5895 578.967 64.2839 571.841 64.2839H563.239C561.916 64.2839 557.275 65.5551 552.644 69.517Z" fill="#2C2C31"/>
<path fill-rule="evenodd" clip-rule="evenodd" d="M455.712 38.8461C427.207 38.8461 404.099 61.6238 404.099 89.722C404.099 117.819 427.207 140.597 455.712 140.597C465.588 140.597 474.817 137.863 482.661 133.12C484.687 137.529 489.191 140.597 494.422 140.597C501.548 140.597 507.325 134.903 507.325 127.878V51.565C507.325 44.5406 501.548 38.8461 494.422 38.8461C489.191 38.8461 484.687 41.9139 482.661 46.3238C474.817 41.5807 465.588 38.8461 455.712 38.8461ZM481.518 89.722C481.518 75.6728 469.964 64.2839 455.712 64.2839C441.46 64.2839 429.905 75.6728 429.905 89.722C429.905 103.77 441.46 115.16 455.712 115.16C469.964 115.16 481.518 103.77 481.518 89.722Z" fill="#2C2C31"/>
<path fill-rule="evenodd" clip-rule="evenodd" d="M300.873 26.1272C300.873 19.1028 306.65 13.4083 313.776 13.4083H391.196C396.083 13.4083 400.551 16.1302 402.737 20.4392C404.922 24.7481 404.451 29.9045 401.518 33.7586L339.583 115.16H391.196C398.322 115.16 404.099 120.854 404.099 127.878C404.099 134.903 398.322 140.597 391.196 140.597H313.776C308.889 140.597 304.421 137.875 302.235 133.566C300.05 129.258 300.521 124.101 303.454 120.247L365.389 38.8461H313.776C306.65 38.8461 300.873 33.1517 300.873 26.1272Z" fill="#2C2C31"/>
<path d="M372.684 191.354C373.996 191.354 375.199 191.873 376.292 192.912C377.44 193.896 378.014 195.153 378.014 196.684C378.014 197.176 377.932 197.723 377.768 198.324L361.614 245.884C361.286 246.813 360.712 247.551 359.892 248.098C359.072 248.645 358.17 248.945 357.186 249C356.202 249 355.273 248.727 354.398 248.18C353.523 247.633 352.84 246.841 352.348 245.802L340.704 219.316L328.978 245.802C328.486 246.841 327.803 247.633 326.928 248.18C326.053 248.727 325.124 249 324.14 249C323.156 248.945 322.254 248.645 321.434 248.098C320.614 247.551 320.04 246.813 319.712 245.884L303.558 198.324C303.394 197.723 303.312 197.176 303.312 196.684C303.312 195.153 303.859 193.896 304.952 192.912C306.1 191.873 307.357 191.354 308.724 191.354C309.817 191.354 310.801 191.655 311.676 192.256C312.551 192.803 313.152 193.568 313.48 194.552L325.698 231.616L336.358 206.032C336.795 205.048 337.424 204.283 338.244 203.736C339.064 203.135 339.993 202.861 341.032 202.916C342.071 202.861 342.973 203.135 343.738 203.736C344.558 204.283 345.187 205.048 345.624 206.032L355.71 231.37L367.846 194.552C368.174 193.568 368.775 192.803 369.65 192.256C370.579 191.655 371.591 191.354 372.684 191.354ZM422.844 226.04C422.79 227.352 422.27 228.418 421.286 229.238C420.302 230.058 419.154 230.468 417.842 230.468H390.782C391.438 233.693 392.942 236.235 395.292 238.094C397.643 239.898 400.294 240.8 403.246 240.8C405.488 240.8 407.237 240.609 408.494 240.226C409.752 239.789 410.736 239.351 411.446 238.914C412.212 238.422 412.731 238.094 413.004 237.93C413.988 237.438 414.918 237.192 415.792 237.192C416.94 237.192 417.924 237.602 418.744 238.422C419.564 239.242 419.974 240.199 419.974 241.292C419.974 242.768 419.209 244.107 417.678 245.31C416.148 246.567 414.098 247.633 411.528 248.508C408.959 249.383 406.362 249.82 403.738 249.82C399.146 249.82 395.128 248.863 391.684 246.95C388.295 245.037 385.671 242.413 383.812 239.078C381.954 235.689 381.024 231.889 381.024 227.68C381.024 222.979 382.008 218.851 383.976 215.298C385.944 211.745 388.541 209.039 391.766 207.18C394.992 205.267 398.436 204.31 402.098 204.31C405.706 204.31 409.096 205.294 412.266 207.262C415.492 209.23 418.061 211.881 419.974 215.216C421.888 218.551 422.844 222.159 422.844 226.04ZM402.098 213.33C395.757 213.33 392.012 216.309 390.864 222.268H412.348V221.694C412.13 219.398 411.009 217.43 408.986 215.79C406.964 214.15 404.668 213.33 402.098 213.33ZM453.765 204.31C457.537 204.31 460.953 205.294 464.015 207.262C467.076 209.175 469.481 211.854 471.231 215.298C473.035 218.742 473.937 222.651 473.937 227.024C473.937 231.397 473.062 235.333 471.313 238.832C469.563 242.276 467.158 244.982 464.097 246.95C461.09 248.863 457.755 249.82 454.093 249.82C451.469 249.82 448.981 249.301 446.631 248.262C444.335 247.169 442.421 245.857 440.891 244.326V244.818C440.891 246.239 440.426 247.442 439.497 248.426C438.567 249.355 437.392 249.82 435.971 249.82C434.549 249.82 433.374 249.355 432.445 248.426C431.515 247.497 431.051 246.294 431.051 244.818V193.322C431.051 191.901 431.515 190.725 432.445 189.796C433.374 188.812 434.549 188.32 435.971 188.32C437.392 188.32 438.567 188.812 439.497 189.796C440.426 190.725 440.891 191.901 440.891 193.322V210.46C442.203 208.82 444.034 207.399 446.385 206.196C448.735 204.939 451.195 204.31 453.765 204.31ZM452.535 240.8C456.033 240.8 458.903 239.488 461.145 236.864C463.386 234.24 464.507 230.96 464.507 227.024C464.507 223.088 463.386 219.835 461.145 217.266C458.958 214.642 456.088 213.33 452.535 213.33C448.981 213.33 446.084 214.642 443.843 217.266C441.601 219.835 440.481 223.088 440.481 227.024C440.481 230.96 441.601 234.24 443.843 236.864C446.084 239.488 448.981 240.8 452.535 240.8ZM546.123 194.388C547.818 195.263 548.665 196.657 548.665 198.57C548.665 199.718 548.255 200.839 547.435 201.932C546.56 203.08 545.44 203.654 544.073 203.654C543.144 203.654 542.214 203.408 541.285 202.916C538.606 201.659 535.709 201.03 532.593 201.03C528.766 201.03 525.432 201.85 522.589 203.49C519.746 205.075 517.56 207.344 516.029 210.296C514.498 213.193 513.733 216.528 513.733 220.3C513.733 226.751 515.455 231.643 518.899 234.978C522.398 238.313 526.962 239.98 532.593 239.98C535.928 239.98 538.825 239.351 541.285 238.094C542.269 237.657 543.144 237.438 543.909 237.438C545.33 237.438 546.533 238.039 547.517 239.242C548.337 240.281 548.747 241.401 548.747 242.604C548.747 243.479 548.528 244.271 548.091 244.982C547.654 245.693 547.025 246.239 546.205 246.622C541.941 248.754 537.404 249.82 532.593 249.82C527.236 249.82 522.316 248.699 517.833 246.458C513.35 244.162 509.77 240.8 507.091 236.372C504.412 231.944 503.073 226.587 503.073 220.3C503.073 214.724 504.33 209.722 506.845 205.294C509.414 200.866 512.94 197.422 517.423 194.962C521.906 192.447 526.962 191.19 532.593 191.19C537.458 191.19 541.968 192.256 546.123 194.388ZM598.681 227.106C598.681 231.479 597.697 235.415 595.729 238.914C593.761 242.358 591.055 245.037 587.611 246.95C584.222 248.863 580.477 249.82 576.377 249.82C572.222 249.82 568.45 248.863 565.061 246.95C561.672 245.037 558.993 242.358 557.025 238.914C555.057 235.415 554.073 231.479 554.073 227.106C554.073 222.733 555.057 218.824 557.025 215.38C558.993 211.881 561.672 209.175 565.061 207.262C568.45 205.294 572.222 204.31 576.377 204.31C580.477 204.31 584.222 205.294 587.611 207.262C591.055 209.175 593.761 211.881 595.729 215.38C597.697 218.824 598.681 222.733 598.681 227.106ZM588.841 227.106C588.841 224.427 588.267 222.049 587.119 219.972C586.026 217.84 584.522 216.2 582.609 215.052C580.75 213.904 578.673 213.33 576.377 213.33C574.081 213.33 571.976 213.904 570.063 215.052C568.204 216.2 566.701 217.84 565.553 219.972C564.46 222.049 563.913 224.427 563.913 227.106C563.913 229.785 564.46 232.163 565.553 234.24C566.701 236.317 568.204 237.93 570.063 239.078C571.976 240.226 574.081 240.8 576.377 240.8C578.673 240.8 580.75 240.226 582.609 239.078C584.522 237.93 586.026 236.317 587.119 234.24C588.267 232.163 588.841 229.785 588.841 227.106ZM657.496 204.31C662.908 204.31 666.653 205.977 668.73 209.312C670.808 212.592 671.846 217.157 671.846 223.006V243.998C671.846 245.419 671.382 246.622 670.452 247.606C669.523 248.535 668.348 249 666.926 249C665.505 249 664.33 248.535 663.4 247.606C662.471 246.622 662.006 245.419 662.006 243.998V223.006C662.006 219.999 661.405 217.649 660.202 215.954C659.054 214.205 657.004 213.33 654.052 213.33C650.991 213.33 648.586 214.259 646.836 216.118C645.142 217.922 644.294 220.218 644.294 223.006V243.998C644.294 245.419 643.83 246.622 642.9 247.606C641.971 248.535 640.796 249 639.374 249C637.953 249 636.778 248.535 635.848 247.606C634.919 246.622 634.454 245.419 634.454 243.998V223.006C634.454 219.999 633.853 217.649 632.65 215.954C631.502 214.205 629.452 213.33 626.5 213.33C623.439 213.33 621.034 214.259 619.284 216.118C617.59 217.922 616.742 220.218 616.742 223.006V243.998C616.742 245.419 616.278 246.622 615.348 247.606C614.419 248.535 613.244 249 611.822 249C610.401 249 609.226 248.535 608.296 247.606C607.367 246.622 606.902 245.419 606.902 243.998V210.132C606.902 208.711 607.367 207.535 608.296 206.606C609.226 205.622 610.401 205.13 611.822 205.13C613.244 205.13 614.419 205.622 615.348 206.606C616.278 207.535 616.742 208.711 616.742 210.132V211.444C618.218 209.476 620.077 207.809 622.318 206.442C624.614 205.021 627.156 204.31 629.944 204.31C636.832 204.31 641.233 207.317 643.146 213.33C644.404 211.034 646.29 208.957 648.804 207.098C651.374 205.239 654.271 204.31 657.496 204.31ZM705.21 204.31C708.982 204.31 712.399 205.294 715.46 207.262C718.521 209.175 720.927 211.854 722.676 215.298C724.48 218.742 725.382 222.651 725.382 227.024C725.382 231.397 724.507 235.333 722.758 238.832C721.009 242.276 718.603 244.982 715.542 246.95C712.535 248.863 709.201 249.82 705.538 249.82C702.914 249.82 700.427 249.301 698.076 248.262C695.78 247.169 693.867 245.857 692.336 244.326V260.398C692.336 261.819 691.871 262.995 690.942 263.924C690.013 264.908 688.837 265.4 687.416 265.4C685.995 265.4 684.819 264.935 683.89 264.006C682.961 263.077 682.496 261.874 682.496 260.398V210.132C682.496 208.711 682.961 207.535 683.89 206.606C684.819 205.622 685.995 205.13 687.416 205.13C688.837 205.13 690.013 205.622 690.942 206.606C691.871 207.535 692.336 208.711 692.336 210.132V210.46C693.648 208.82 695.479 207.399 697.83 206.196C700.181 204.939 702.641 204.31 705.21 204.31ZM703.98 240.8C707.479 240.8 710.349 239.488 712.59 236.864C714.831 234.24 715.952 230.96 715.952 227.024C715.952 223.088 714.831 219.835 712.59 217.266C710.403 214.642 707.533 213.33 703.98 213.33C700.427 213.33 697.529 214.642 695.288 217.266C693.047 219.835 691.926 223.088 691.926 227.024C691.926 230.96 693.047 234.24 695.288 236.864C697.529 239.488 700.427 240.8 703.98 240.8ZM775.734 227.106C775.734 231.479 774.75 235.415 772.782 238.914C770.814 242.358 768.108 245.037 764.664 246.95C761.275 248.863 757.53 249.82 753.43 249.82C749.275 249.82 745.503 248.863 742.114 246.95C738.725 245.037 736.046 242.358 734.078 238.914C732.11 235.415 731.126 231.479 731.126 227.106C731.126 222.733 732.11 218.824 734.078 215.38C736.046 211.881 738.725 209.175 742.114 207.262C745.503 205.294 749.275 204.31 753.43 204.31C757.53 204.31 761.275 205.294 764.664 207.262C768.108 209.175 770.814 211.881 772.782 215.38C774.75 218.824 775.734 222.733 775.734 227.106ZM765.894 227.106C765.894 224.427 765.32 222.049 764.172 219.972C763.079 217.84 761.575 216.2 759.662 215.052C757.803 213.904 755.726 213.33 753.43 213.33C751.134 213.33 749.029 213.904 747.116 215.052C745.257 216.2 743.754 217.84 742.606 219.972C741.513 222.049 740.966 224.427 740.966 227.106C740.966 229.785 741.513 232.163 742.606 234.24C743.754 236.317 745.257 237.93 747.116 239.078C749.029 240.226 751.134 240.8 753.43 240.8C755.726 240.8 757.803 240.226 759.662 239.078C761.575 237.93 763.079 236.317 764.172 234.24C765.32 232.163 765.894 229.785 765.894 227.106ZM807.407 204.31C812.983 204.31 816.837 205.977 818.969 209.312C821.101 212.592 822.167 217.157 822.167 223.006V243.998C822.167 245.419 821.702 246.622 820.773 247.606C819.844 248.535 818.668 249 817.247 249C815.826 249 814.65 248.535 813.721 247.606C812.792 246.622 812.327 245.419 812.327 243.998V223.006C812.327 219.999 811.698 217.649 810.441 215.954C809.184 214.205 807.024 213.33 803.963 213.33C800.792 213.33 798.305 214.259 796.501 216.118C794.697 217.922 793.795 220.218 793.795 223.006V243.998C793.795 245.419 793.33 246.622 792.401 247.606C791.472 248.535 790.296 249 788.875 249C787.454 249 786.278 248.535 785.349 247.606C784.42 246.622 783.955 245.419 783.955 243.998V210.132C783.955 208.711 784.42 207.535 785.349 206.606C786.278 205.622 787.454 205.13 788.875 205.13C790.296 205.13 791.472 205.622 792.401 206.606C793.33 207.535 793.795 208.711 793.795 210.132V211.526C795.271 209.558 797.184 207.863 799.535 206.442C801.94 205.021 804.564 204.31 807.407 204.31ZM872.163 226.04C872.108 227.352 871.589 228.418 870.605 229.238C869.621 230.058 868.473 230.468 867.161 230.468H840.101C840.757 233.693 842.26 236.235 844.611 238.094C846.961 239.898 849.613 240.8 852.565 240.8C854.806 240.8 856.555 240.609 857.813 240.226C859.07 239.789 860.054 239.351 860.765 238.914C861.53 238.422 862.049 238.094 862.323 237.93C863.307 237.438 864.236 237.192 865.111 237.192C866.259 237.192 867.243 237.602 868.063 238.422C868.883 239.242 869.293 240.199 869.293 241.292C869.293 242.768 868.527 244.107 866.997 245.31C865.466 246.567 863.416 247.633 860.847 248.508C858.277 249.383 855.681 249.82 853.057 249.82C848.465 249.82 844.447 248.863 841.003 246.95C837.613 245.037 834.989 242.413 833.131 239.078C831.272 235.689 830.343 231.889 830.343 227.68C830.343 222.979 831.327 218.851 833.295 215.298C835.263 211.745 837.859 209.039 841.085 207.18C844.31 205.267 847.754 204.31 851.417 204.31C855.025 204.31 858.414 205.294 861.585 207.262C864.81 209.23 867.379 211.881 869.293 215.216C871.206 218.551 872.163 222.159 872.163 226.04ZM851.417 213.33C845.075 213.33 841.331 216.309 840.183 222.268H861.667V221.694C861.448 219.398 860.327 217.43 858.305 215.79C856.282 214.15 853.986 213.33 851.417 213.33ZM903.821 204.31C909.397 204.31 913.251 205.977 915.383 209.312C917.515 212.592 918.581 217.157 918.581 223.006V243.998C918.581 245.419 918.116 246.622 917.187 247.606C916.258 248.535 915.082 249 913.661 249C912.24 249 911.064 248.535 910.135 247.606C909.206 246.622 908.741 245.419 908.741 243.998V223.006C908.741 219.999 908.112 217.649 906.855 215.954C905.598 214.205 903.438 213.33 900.377 213.33C897.206 213.33 894.719 214.259 892.915 216.118C891.111 217.922 890.209 220.218 890.209 223.006V243.998C890.209 245.419 889.744 246.622 888.815 247.606C887.886 248.535 886.71 249 885.289 249C883.868 249 882.692 248.535 881.763 247.606C880.834 246.622 880.369 245.419 880.369 243.998V210.132C880.369 208.711 880.834 207.535 881.763 206.606C882.692 205.622 883.868 205.13 885.289 205.13C886.71 205.13 887.886 205.622 888.815 206.606C889.744 207.535 890.209 208.711 890.209 210.132V211.526C891.685 209.558 893.598 207.863 895.949 206.442C898.354 205.021 900.978 204.31 903.821 204.31ZM950.373 239.734C951.138 239.734 951.821 240.117 952.423 240.882C953.079 241.593 953.407 242.549 953.407 243.752C953.407 245.228 952.587 246.485 950.947 247.524C949.361 248.508 947.557 249 945.535 249C942.145 249 939.275 248.289 936.925 246.868C934.629 245.392 933.481 242.303 933.481 237.602V214.97H929.709C928.397 214.97 927.303 214.533 926.429 213.658C925.554 212.783 925.117 211.69 925.117 210.378C925.117 209.121 925.554 208.082 926.429 207.262C927.303 206.387 928.397 205.95 929.709 205.95H933.481V200.702C933.481 199.281 933.945 198.105 934.875 197.176C935.859 196.192 937.061 195.7 938.483 195.7C939.849 195.7 940.997 196.192 941.927 197.176C942.856 198.105 943.321 199.281 943.321 200.702V205.95H949.143C950.455 205.95 951.548 206.387 952.423 207.262C953.297 208.137 953.735 209.23 953.735 210.542C953.735 211.799 953.297 212.865 952.423 213.74C951.548 214.56 950.455 214.97 949.143 214.97H943.321V237.192C943.321 238.34 943.621 239.187 944.223 239.734C944.824 240.226 945.644 240.472 946.683 240.472C947.12 240.472 947.721 240.363 948.487 240.144C949.143 239.871 949.771 239.734 950.373 239.734ZM961.829 242.194C961.337 241.538 961.091 240.718 961.091 239.734C961.091 238.313 961.802 237.11 963.223 236.126C963.988 235.634 964.781 235.388 965.601 235.388C966.749 235.388 967.842 235.907 968.881 236.946C970.521 238.641 972.216 239.898 973.965 240.718C975.769 241.538 977.928 241.948 980.443 241.948C984.707 241.784 986.839 240.171 986.839 237.11C986.839 235.525 986.101 234.322 984.625 233.502C983.204 232.682 980.962 231.862 977.901 231.042C974.73 230.167 972.134 229.293 970.111 228.418C968.143 227.543 966.421 226.231 964.945 224.482C963.524 222.678 962.813 220.273 962.813 217.266C962.813 214.642 963.551 212.373 965.027 210.46C966.558 208.492 968.526 206.989 970.931 205.95C973.391 204.857 975.988 204.31 978.721 204.31C981.509 204.31 984.297 204.829 987.085 205.868C989.873 206.907 992.06 208.437 993.645 210.46C994.356 211.335 994.711 212.319 994.711 213.412C994.711 214.669 994.192 215.708 993.153 216.528C992.388 217.129 991.513 217.43 990.529 217.43C989.326 217.43 988.342 217.047 987.577 216.282C986.593 215.079 985.308 214.123 983.723 213.412C982.192 212.701 980.443 212.346 978.475 212.346C974.32 212.346 972.243 213.849 972.243 216.856C972.243 218.059 972.626 219.043 973.391 219.808C974.156 220.519 975.113 221.093 976.261 221.53C977.464 221.913 979.131 222.405 981.263 223.006C984.215 223.826 986.675 224.673 988.643 225.548C990.611 226.423 992.278 227.762 993.645 229.566C995.012 231.37 995.695 233.748 995.695 236.7C995.695 239.379 994.902 241.729 993.317 243.752C991.732 245.72 989.682 247.223 987.167 248.262C984.707 249.301 982.165 249.82 979.541 249.82C975.933 249.82 972.571 249.219 969.455 248.016C966.339 246.813 963.797 244.873 961.829 242.194Z" fill="#7D7D87"/>
<path d="M116.028 23.3847C118.557 17.1127 124.679 13 131.487 13H238.333C250.112 13 258.167 24.804 253.793 35.6554L171.971 238.617C169.442 244.888 163.32 249 156.513 249H49.6661C37.887 249 29.8326 237.197 34.2073 226.346L116.028 23.3847Z" fill="url(#paint0_linear_1_9)"/>
<path d="M71 155C110.212 155 142 123.212 142 83.9998C142 44.7878 110.212 13 71 13C31.7877 13 0 44.7878 0 83.9998C0 123.212 31.7877 155 71 155Z" fill="#0A33FF"/>
<path d="M142 84.054C142 123.236 110.016 155 70.5611 155C68.0073 155 65.4847 154.866 63 154.608L114.358 28C131.178 40.98 142 61.2619 142 84.054Z" fill="url(#paint1_linear_1_9)"/>
<defs>
<linearGradient id="paint0_linear_1_9" x1="188.012" y1="13" x2="104.625" y2="249.325" gradientUnits="userSpaceOnUse">
<stop stop-color="#FFD60A"/>
<stop offset="1" stop-color="#F0BA09"/>
</linearGradient>
<linearGradient id="paint1_linear_1_9" x1="113.837" y1="28.0874" x2="63.42" y2="154.622" gradientUnits="userSpaceOnUse">
<stop stop-color="#051A80"/>
<stop offset="1" stop-color="#0A33FF"/>
</linearGradient>
</defs>
</svg>
