<svg width="48" height="48" viewBox="0 0 48 48" fill="none" xmlns="http://www.w3.org/2000/svg">
<path fill-rule="evenodd" clip-rule="evenodd" d="M6.679 2.58347e-07H41.321C44.9811 2.58347e-07 48 3.01926 48 6.67871V41.3213C48 44.9807 44.9811 48 41.321 48H6.679C3.01896 48 1.07426e-05 44.9807 1.07426e-05 41.3213V6.67963C-0.00316788 4.90887 0.699159 3.20957 1.95211 1.95649C3.20506 0.703419 4.90571 -0.000492322 6.679 2.58347e-07ZM46 22C43.1113 27.7661 38.9043 33.2422 31.8438 33.2796C22.9654 33.2796 3.85414 12.8105 2.00001 33.027V40.9188C1.99731 42.2659 2.52588 43.5588 3.46908 44.5121C4.41228 45.4654 5.69258 46.0007 7.02745 46H40.9716C42.3068 46.001 43.5875 45.4656 44.5309 44.5121C45.4744 43.5586 46.003 42.2653 46 40.9178V22ZM7.05944 2C4.31575 2 2.03614 4.28903 2.00001 7.0433V26C4.92155 20.277 9.12601 14.6616 16.1446 14.6616C25.087 14.6616 44.4318 35.5851 46 14.6263V7.0433C46 4.25374 43.7547 2 40.9758 2H7.05944Z" fill="white"/>
</svg>
