<svg width="48" height="48" viewBox="0 0 48 48" fill="none" xmlns="http://www.w3.org/2000/svg">
<path fill-rule="evenodd" clip-rule="evenodd" d="M31.1885 18.3721H31.5111C31.6628 18.3721 31.7987 18.2629 31.9187 18.0445C32.1921 18.3146 32.4663 18.4496 32.7414 18.4496C32.8981 18.3346 33.0498 18.0979 33.1965 17.7395C33.1965 17.3977 33.1282 17.1493 32.9915 16.9943C32.8448 16.8309 32.603 16.7492 32.2663 16.7492C32.1663 16.8509 32.0354 17.0468 31.8737 17.3369C31.7436 17.5702 31.647 17.6869 31.5836 17.6869H31.1885C31.1435 17.3919 31.0393 17.1651 30.8759 17.0068C30.7409 16.8751 30.5909 16.8092 30.4258 16.8092C30.2858 16.8859 30.1616 17.0109 30.0532 17.1843C29.8915 17.4444 29.8106 17.762 29.8106 18.1371C29.979 18.2938 30.3383 18.3721 30.8884 18.3721C30.7517 18.6305 30.5883 18.8389 30.3983 18.9973C30.1866 19.174 29.8832 19.3424 29.4881 19.5024C29.6098 19.5841 29.7648 19.655 29.9532 19.715C30.1482 19.7783 30.3158 19.81 30.4558 19.81C30.8743 19.3199 31.1185 18.8406 31.1885 18.3721ZM30.6534 17.5019C30.7301 17.5836 30.7917 17.6753 30.8384 17.777C30.7701 17.812 30.6834 17.8295 30.5783 17.8295C30.4967 17.8295 30.4141 17.8178 30.3308 17.7945C30.2174 17.7628 30.1516 17.7195 30.1332 17.6644C30.1449 17.6078 30.1741 17.5444 30.2208 17.4744C30.2758 17.391 30.3266 17.3494 30.3733 17.3494C30.465 17.3494 30.5583 17.4002 30.6534 17.5019ZM32.8214 17.8545C32.8214 17.8845 32.8198 17.9162 32.8164 17.9495C32.483 17.8728 32.2513 17.7445 32.1212 17.5644C32.1563 17.436 32.2213 17.3394 32.3163 17.2743C32.6531 17.346 32.8214 17.5394 32.8214 17.8545Z" fill="white"/>
<path d="M12.6053 17.1083L12.9182 16.4301C12.7769 16.3725 12.6424 16.3437 12.5148 16.3437C11.9908 16.3437 11.6055 16.7755 11.359 17.6391C11.2883 17.8864 11.2529 18.0557 11.2529 18.1472C11.3288 18.2589 11.4874 18.341 11.7287 18.3935C12.0252 18.4579 12.2459 18.54 12.3907 18.6399C12.2183 18.7466 11.9511 18.8423 11.5891 18.9269C11.2529 19.0048 10.9719 19.0438 10.7461 19.0438C10.1996 19.0438 9.9264 18.8389 9.9264 18.4291C9.9264 18.1819 9.9954 17.9321 10.1333 17.6798C10.0919 17.6121 10.0272 17.5816 9.9393 17.5883C9.8359 17.7594 9.7454 17.9566 9.6678 18.1802C9.5747 18.446 9.5282 18.6729 9.5282 18.8609C9.5282 19.1555 9.6239 19.3782 9.8152 19.5289C9.991 19.6661 10.2324 19.7347 10.5392 19.7347C11.2029 19.7347 11.8503 19.5501 12.4812 19.1809C12.6277 18.7932 12.701 18.4799 12.701 18.2411C12.701 18.1395 12.6105 18.054 12.4295 17.9846L11.9227 17.8423C11.7365 17.7899 11.6391 17.7331 11.6305 17.6722C11.8063 17.2607 12.039 17.0549 12.3286 17.0549C12.4148 17.0549 12.5071 17.0727 12.6053 17.1083Z" fill="white"/>
<path d="M14.0969 19.0229C14.278 18.6707 14.3685 18.393 14.3685 18.1898C14.3685 18.0222 14.3189 17.8283 14.2198 17.6081C14.1206 17.388 14.0073 17.2237 13.8797 17.1154L13.5229 17.7936C13.7642 17.9527 13.9237 18.1382 14.0013 18.3498C13.9478 18.5259 13.7772 18.7232 13.4893 18.9416C13.2445 19.1279 12.9661 19.2913 12.654 19.4319C12.7402 19.5149 12.8833 19.597 13.0833 19.6783C13.2833 19.7595 13.4427 19.8002 13.5617 19.8002C13.7444 19.6207 13.9228 19.3616 14.0969 19.0229Z" fill="white"/>
<path d="M15.9554 19.5721L16.3717 19.186L15.9709 18.7898L15.5468 19.1708L15.9554 19.5721Z" fill="white"/>
<path d="M17.6801 18.1903C17.8008 18.3106 17.931 18.3707 18.0706 18.3707C18.1689 18.3707 18.3861 18.3292 18.7222 18.2462C19.2825 18.1074 19.7324 18.0007 20.072 17.9262L20.372 17.2861L19.3971 17.535C19.0455 17.3877 18.8515 17.1489 18.8153 16.8187C19.0032 16.6782 19.2549 16.6079 19.5704 16.6079C19.7186 16.6079 19.8428 16.6257 19.9427 16.6612C19.9755 16.6731 19.9988 16.679 20.0126 16.679C20.0384 16.679 20.0358 16.6528 20.0048 16.6003C19.8169 16.2853 19.5756 16.1278 19.2808 16.1278C19.0946 16.1278 18.8843 16.2303 18.6498 16.4352C18.3947 16.657 18.2671 16.8848 18.2671 17.1184C18.2671 17.3504 18.3706 17.5282 18.5774 17.6518C18.4326 17.6671 18.3369 17.6747 18.2904 17.6747H18.099C17.9232 17.6747 17.7905 17.607 17.7008 17.4715C17.6232 17.3564 17.5845 17.2082 17.5845 17.027H17.3647C17.3647 17.1828 17.3242 17.3225 17.2431 17.4461C17.1431 17.5985 17.0061 17.6747 16.832 17.6747H16.6794C16.5036 17.6747 16.3708 17.607 16.2812 17.4715C16.2036 17.3564 16.1648 17.2082 16.1648 17.027H15.945C15.945 17.1828 15.9045 17.3225 15.8235 17.4461C15.7235 17.5985 15.5865 17.6747 15.4124 17.6747C15.2365 17.6747 15.1193 17.5841 15.0607 17.4029C15.0279 17.3013 15.0116 17.1388 15.0116 16.9152V16.1659C15.0116 15.8645 15.0081 15.6672 15.0012 15.5741C14.9822 15.3167 14.9331 15.1262 14.8538 15.0026L14.3806 15.4903C14.4616 15.6715 14.5168 15.8789 14.5461 16.1126C14.5616 16.2328 14.5745 16.4479 14.5849 16.7578C14.6073 17.3843 14.6521 17.7882 14.7194 17.9693C14.8193 18.2369 15.034 18.3707 15.3632 18.3707H15.4382C15.5692 18.3707 15.7002 18.3089 15.8313 18.1853C15.9571 18.0667 16.0304 17.9423 16.0511 17.8119C16.0786 17.9524 16.1485 18.0786 16.2605 18.1903C16.3812 18.3106 16.5113 18.3707 16.651 18.3707H16.8578C16.9889 18.3707 17.1199 18.3089 17.2509 18.1853C17.3767 18.0667 17.45 17.9423 17.4707 17.8119C17.4983 17.9524 17.5681 18.0786 17.6801 18.1903Z" fill="white"/>
<path d="M17.7939 16.3767L18.1508 16.0262L17.7706 15.6909L17.4397 16.0237L17.0776 15.7062L16.7208 16.0643L17.1009 16.392L17.4319 16.0643L17.7939 16.3767Z" fill="white"/>
<path d="M20.9327 15.9322C20.9327 15.5275 20.9103 15.2168 20.8655 15L20.2526 15.5233C20.4061 15.9907 20.4828 16.668 20.4828 17.5553L20.4854 18.5104L20.7465 18.1243C20.8707 17.3301 20.9327 16.5994 20.9327 15.9322Z" fill="white"/>
<path fill-rule="evenodd" clip-rule="evenodd" d="M26.3293 18.3721H26.462C26.7038 18.3721 26.9105 18.2029 27.0822 17.8645C27.2172 18.2029 27.4023 18.3721 27.6373 18.3721C27.9574 18.3721 28.1641 18.2021 28.2575 17.862C28.2792 17.997 28.3375 18.1137 28.4326 18.2121C28.5326 18.3188 28.6484 18.3721 28.7801 18.3721C28.9018 18.3721 29.0235 18.3288 29.1452 18.2421C29.2586 18.1621 29.3445 18.0645 29.4028 17.9495C29.4678 17.7911 29.5137 17.6711 29.5403 17.5894C29.5987 17.411 29.6279 17.2902 29.6279 17.2268C29.6279 17.1168 29.5945 16.9801 29.5278 16.8167C29.4678 16.6683 29.4078 16.5625 29.3478 16.4991L28.9627 17.0043C29.1761 17.3127 29.2828 17.4894 29.2828 17.5344C29.1644 17.6361 29.006 17.6869 28.8076 17.6869C28.5392 17.6869 28.405 17.4819 28.405 17.0718H28.18C28.18 17.2168 28.1491 17.3435 28.0875 17.4519C27.9974 17.6103 27.8507 17.6894 27.6473 17.6894C27.3406 17.6894 27.1872 17.4836 27.1872 17.0718H26.9647C26.9647 17.2035 26.9372 17.326 26.8821 17.4394C26.8021 17.6044 26.6779 17.6869 26.5096 17.6869H26.257L26.3968 17.6919H26.3218C26.0334 17.6919 25.8892 17.4844 25.8892 17.0693H25.6642C25.6642 17.2077 25.6316 17.3344 25.5666 17.4494C25.4749 17.6111 25.3374 17.6919 25.154 17.6919C24.9923 17.6919 24.8831 17.6244 24.8264 17.4894C24.7898 17.4027 24.7714 17.2643 24.7714 17.0743H24.5464C24.5464 17.2143 24.518 17.3394 24.4613 17.4494C24.3797 17.6094 24.2505 17.6894 24.0737 17.6894C23.8087 17.6894 23.6761 17.4844 23.6761 17.0743H23.4511C23.4511 17.2193 23.4144 17.3519 23.341 17.4719C23.2527 17.6169 23.1318 17.6894 22.9785 17.6894H22.8809V17.6869H22.8409C22.6942 17.6869 22.5891 17.5769 22.5258 17.3569C22.5091 17.2985 22.4708 17.0626 22.4108 16.6492C22.3658 16.3374 22.2991 16.1174 22.2107 15.989L21.9131 16.4341C21.9565 16.5508 21.9848 16.6408 21.9982 16.7042C21.6181 16.8459 21.3263 17.0076 21.1229 17.1893C21.0713 17.3344 21.0112 17.5344 20.9429 17.7895C21.1129 18.0245 21.4605 18.1421 21.9857 18.1421C22.0823 18.0087 22.1574 17.8436 22.2107 17.6469C22.3157 18.1304 22.5133 18.3721 22.8034 18.3721H22.9359C23.196 18.3721 23.3944 18.2129 23.5311 17.8945C23.5628 18.0112 23.6153 18.1121 23.6886 18.1971C23.7887 18.3121 23.9095 18.3696 24.0512 18.3696C24.2913 18.3696 24.4797 18.2021 24.6164 17.867C24.6897 18.2037 24.8598 18.3721 25.1265 18.3721C25.2932 18.3721 25.4374 18.3088 25.5591 18.1821C25.6625 18.0737 25.7283 17.9487 25.7567 17.807C25.7817 17.952 25.8459 18.0804 25.9492 18.1921C26.0626 18.3121 26.1893 18.3721 26.3293 18.3721ZM22.0782 16.9943L22.1882 17.5494C22.1215 17.5577 22.049 17.5619 21.9707 17.5619C21.6606 17.5619 21.4564 17.5011 21.358 17.3794C21.5814 17.1776 21.8214 17.0493 22.0782 16.9943Z" fill="white"/>
<path d="M14.9642 30.7284H16.5318V31.1852C16.5318 31.7417 16.9829 32.1927 17.5394 32.1928H17.5413C17.6666 32.1927 17.7682 32.0912 17.7681 31.9659V29.6224C17.7681 29.4847 17.6565 29.373 17.5187 29.373H14.0614C13.9368 29.373 13.8358 29.4741 13.8358 29.5987V29.6C13.8358 30.2232 14.341 30.7284 14.9642 30.7284Z" fill="white"/>
<path d="M28.7263 27.1192C28.1239 27.4597 27.4778 27.0251 27.5172 25.9632C28.1735 24.3354 28.8416 22.338 29.1281 21.462C29.162 21.3579 29.144 21.2438 29.0796 21.1553C29.0153 21.0667 28.9124 21.0143 28.8029 21.0143L27.4976 21.0144C27.187 21.0144 26.9157 21.2245 26.838 21.5252C26.7255 21.9593 26.5514 22.6261 26.3573 23.3514C25.9321 24.9408 25.3806 26.8103 24.8341 27.1192C24.2949 27.4239 23.7206 27.1077 23.6344 26.2766C24.3565 24.6091 25.0715 22.3903 25.3629 21.4574C25.3951 21.3536 25.376 21.2406 25.3114 21.1532C25.2469 21.0657 25.1446 21.0142 25.0358 21.0143L23.7232 21.0144C23.4126 21.0144 23.1413 21.2245 23.0636 21.5252C22.9511 21.9593 22.777 22.6261 22.583 23.3514C22.1577 24.9408 21.6171 26.8868 20.8267 27.0965C19.4681 27.4568 18.8107 26.5819 18.8365 25.4467C19.4232 23.9333 19.9865 22.2472 20.2434 21.462C20.2773 21.3579 20.2592 21.2438 20.1949 21.1553C20.1305 21.0667 20.0276 21.0143 19.9181 21.0143L18.6128 21.0144C18.3022 21.0144 18.0309 21.2245 17.9532 21.5252C17.8407 21.9593 17.6666 22.6261 17.4725 23.3514C17.0473 24.9408 16.4958 26.8103 15.9493 27.1192C15.3687 27.4473 14.6622 26.9797 14.6334 25.7041C15.2554 24.1288 15.8694 22.292 16.1409 21.462C16.1748 21.3579 16.1568 21.2438 16.0924 21.1553C16.0281 21.0667 15.9252 21.0143 15.8157 21.0143L14.5104 21.0144C14.1997 21.0144 13.9285 21.2245 13.8507 21.5252C13.7382 21.9593 13.5641 22.6261 13.3701 23.3514C12.9449 24.9408 12.3934 26.8103 11.8469 27.1192C11.2102 27.479 10.422 26.8819 10.5423 25.3117C11.1093 23.8355 11.6463 22.2279 11.8952 21.4669C11.9291 21.3628 11.9111 21.2487 11.8467 21.1601C11.7823 21.0715 11.6794 21.0191 11.5699 21.0192H10.0609C9.7503 21.0192 9.479 21.2293 9.4013 21.5301C9.2888 21.9642 9.1147 22.631 8.9207 23.3562C8.4955 24.9456 7.7662 26.4702 7.4011 27.0717C6.8263 28.0185 6.0483 28.7971 5.1644 29.1864C3.7232 29.821 1.7764 29.6022 1.3734 28.7038C0.431931 26.6051 1.84876 24.4733 2.74143 23.1302C3.0793 22.6218 3.34209 22.2265 3.3735 21.9886C3.3735 21.9886 2.4628 21.7727 2.1838 22.1465C0.729397 24.095 -0.157603 26.3648 0.0232966 27.9478C0.362997 30.9192 3.8908 32.6127 7.1906 30.3425C8.6952 29.3072 9.1934 28.4198 9.827 27.0387C9.927 26.8208 10.0297 26.5846 10.1334 26.3362C10.1623 26.9376 10.365 27.7168 10.7342 28.1303C11.0908 28.5297 11.6481 28.6169 11.7278 28.6182C12.6696 28.6332 13.4391 28.415 14.0728 27.0339C14.1343 26.8998 14.1968 26.7589 14.2599 26.6124C14.3282 27.1597 14.5219 27.7779 14.8366 28.1303C15.1932 28.5297 15.7505 28.6169 15.8302 28.6182C16.772 28.6332 17.5415 28.415 18.1752 27.0339C18.2792 26.8071 18.3862 26.5606 18.4941 26.301C18.5732 26.9135 18.9154 27.7506 19.2989 28.1064C19.904 28.668 20.7143 28.6287 20.9049 28.6195C20.922 28.6187 20.9341 28.6181 20.9406 28.6182C21.8824 28.6332 22.7174 28.1817 23.2856 27.0339C23.2998 27.0052 23.3141 26.9761 23.3283 26.9467C23.3245 27.3626 23.4855 27.8056 23.7214 28.1303C24.0361 28.5634 24.6353 28.6169 24.715 28.6182C25.6568 28.6332 26.4263 28.415 27.06 27.0339C27.1396 26.8603 27.2209 26.6751 27.3031 26.4815C27.2965 26.5026 27.2897 26.5236 27.283 26.5444C27.1175 27.0536 27.299 27.6972 27.6137 28.1303C27.9283 28.5634 28.5276 28.6169 28.6072 28.6182C29.549 28.6332 30.3186 28.415 30.9522 27.0339C31.7294 25.34 32.6663 22.5446 33.0204 21.462C33.0543 21.3579 33.0362 21.2438 32.9719 21.1553C32.9075 21.0667 32.8046 21.0143 32.6951 21.0143L31.3898 21.0144C31.0792 21.0144 30.8079 21.2245 30.7302 21.5252C30.6177 21.9593 30.4436 22.6261 30.2496 23.3514C29.8243 24.9408 29.2729 26.8103 28.7263 27.1192Z" fill="white"/>
<path d="M13.076 29.373C13.2138 29.373 13.3254 29.4847 13.3254 29.6224V30.4791C13.3254 30.6168 13.2138 30.7284 13.076 30.7284H10.2617C9.6385 30.7284 9.1333 30.2232 9.1333 29.6V29.5987C9.1333 29.5389 9.157 29.4815 9.1994 29.4391C9.2417 29.3968 9.2991 29.373 9.359 29.373H13.076Z" fill="white"/>
<path d="M47.5207 17.853C47.3464 18.0866 47.0477 18.1909 46.7659 18.1165C45.872 17.9673 44.207 17.9706 42.453 18.2969C40.4697 18.6658 39.0622 19.7127 38.2419 20.893C43.5903 20.333 42.5574 24.1552 41.4567 25.8887C39.9637 28.2398 37.649 28.6969 36.3663 28.7097C36.0252 28.713 33.8085 28.4893 33.2168 26.6355C32.6151 24.7505 33.1489 22.9146 33.7632 21.0777C34.3106 19.4409 34.9041 18.2114 36.096 16.261C36.3384 15.8611 36.7758 15.6209 37.2434 15.6312L37.304 15.6325C37.8262 15.6436 38.4866 15.6577 38.9158 15.667C38.9966 15.6687 39.0691 15.7169 39.1019 15.7908C39.1347 15.8646 39.1219 15.9507 39.0691 16.0118C36.9836 18.4543 35.3071 21.1902 35.0183 23.1047C34.7408 24.9436 35.649 26.7668 37.6971 26.731C40.4529 26.6829 41.9153 24.4421 41.6051 23.7526C40.938 22.27 38.0753 22.3831 36.7299 22.5368C36.5828 22.5478 36.4409 22.4799 36.3571 22.3585C36.2733 22.2371 36.2601 22.0804 36.3224 21.9467C36.8579 20.8229 37.527 19.822 38.4119 18.9278C39.8148 17.5101 41.9182 16.7357 43.5197 16.2245C44.7366 15.8361 46.7684 15.8311 47.623 15.8501C47.7299 15.8525 47.831 15.8991 47.9021 15.9789C47.9733 16.0586 48.0082 16.1644 47.9984 16.2708C47.9441 16.8927 47.7978 17.4219 47.5207 17.853Z" fill="white"/>
<path d="M7.7888 21.1673C7.8928 21.3158 7.9178 21.5057 7.8558 21.6761L7.399 22.9313C7.1897 23.5064 6.643 23.8893 6.0309 23.8893H5.6933C5.3983 23.8893 5.1218 23.7454 4.9526 23.5037C4.7834 23.2621 4.7427 22.953 4.8436 22.6758L5.1104 21.9427C5.3316 21.3349 5.9093 20.9303 6.5561 20.9303H7.3336C7.5149 20.9303 7.6848 21.0188 7.7888 21.1673Z" fill="white"/>
</svg>
