<svg width="48" height="48" viewBox="0 0 48 48" fill="none" xmlns="http://www.w3.org/2000/svg">
<path fill-rule="evenodd" clip-rule="evenodd" d="M40.5 33C44.6394 33 48 36.3606 48 40.5C48 44.6394 44.6394 48 40.5 48C36.3606 48 33 44.6394 33 40.5C33 36.3606 36.3606 33 40.5 33ZM34.138 0.4193C34.1912 0.1745 34.4074 0 34.6575 0C36.7606 0 45.9644 0 47.7988 0C47.8678 0 47.9321 0.0355 47.9689 0.0939C48.0058 0.1524 48.0101 0.2257 47.9805 0.2882C46.18 4.0741 27.2139 43.9549 25.4254 47.7158C25.3428 47.8894 25.1679 48 24.9758 48C24.8142 48 24.6113 48 24.4199 48C24.2693 47.9999 24.1268 47.9317 24.0322 47.8142C23.9377 47.6968 23.9014 47.5427 23.9334 47.3953C25.0675 42.1745 33.1859 4.802 34.138 0.4193ZM26.5596 0.4193C26.6127 0.1745 26.829 0 27.0791 0C27.9665 0 30.0107 0 31.0677 0C31.2286 0 31.3808 0.0729 31.4817 0.1984C31.5826 0.3238 31.6214 0.4882 31.5872 0.6457C30.4178 6.0289 22.3078 43.3628 21.3858 47.6074C21.336 47.8365 21.1335 47.9999 20.8993 48C20.0156 48 17.8962 48 16.8415 48C16.6909 48.0001 16.5483 47.9317 16.4538 47.8142C16.3593 47.6968 16.323 47.5428 16.355 47.3953C17.4891 42.1745 25.6075 4.802 26.5596 0.4193ZM22.5655 0.3035C22.6536 0.1181 22.8404 0 23.0454 0C23.1708 0 23.3178 0 23.4623 0C23.6231 0 23.7753 0.0729 23.8762 0.1984C23.9772 0.3238 24.016 0.4882 23.9818 0.6457C22.8124 6.0289 14.7023 43.3628 13.7803 47.6074C13.7305 47.8365 13.528 47.9999 13.2938 48C11.2516 48 2.037 48 0.2012 48C0.1322 47.9999 0.0679 47.9645 0.0311 47.9061C-0.0058 47.8476 -0.0101 47.7743 0.0195 47.7118C1.817 43.9322 20.7223 4.1791 22.5655 0.3035ZM7.5 0C11.6394 0 15 3.3606 15 7.5C15 11.6394 11.6394 15 7.5 15C3.3606 15 0 11.6394 0 7.5C0 3.3606 3.3606 0 7.5 0Z" fill="white"/>
</svg>
