<svg fill="none" height="120" viewBox="0 0 134 120" width="134" xmlns="http://www.w3.org/2000/svg" xmlns:xlink="http://www.w3.org/1999/xlink"><linearGradient id="a"><stop offset="0" stop-color="#4a4a4a"/><stop offset="1" stop-color="#373737"/></linearGradient><linearGradient id="b" gradientUnits="userSpaceOnUse" x1="108.17" x2="103.424" xlink:href="#a" y1="70.2938" y2="69.0306"/><linearGradient id="c"><stop offset="0" stop-color="#dee0e8"/><stop offset=".1521" stop-color="#d4d6df"/><stop offset=".3982" stop-color="#b9bcc7"/><stop offset=".7108" stop-color="#a5a9b5"/><stop offset="1" stop-color="#a5a9b5"/></linearGradient><linearGradient id="d" gradientUnits="userSpaceOnUse" x1="7.17904" x2="106.698" xlink:href="#c" y1="45.6738" y2="125.241"/><linearGradient id="e" gradientUnits="userSpaceOnUse" x1="78.2683" x2="166.3" xlink:href="#c" y1="48.5027" y2="122.22"/><linearGradient id="f" gradientUnits="userSpaceOnUse" x1="107.317" x2="102.596" xlink:href="#a" y1="69.7845" y2="68.5082"/><linearGradient id="g" gradientUnits="userSpaceOnUse" x1="106.135" x2="71.7559" xlink:href="#a" y1="42.241" y2="37.155"/><linearGradient id="h" gradientUnits="userSpaceOnUse" x1="50.4367" x2="-4.74972" y1="45.5025" y2="36.6179"><stop offset="0" stop-color="#272727"/><stop offset="1" stop-color="#7f7f7f"/></linearGradient><linearGradient id="i" gradientUnits="userSpaceOnUse" x1="65.3032" x2="66.2746" xlink:href="#a" y1="57.0855" y2="62.8082"/><radialGradient id="j" cx="0" cy="0" gradientTransform="matrix(140.57366414 143.73917926 -79.16407487 77.42067354 5.89019 7.10661)" gradientUnits="userSpaceOnUse" r="1"><stop offset="0" stop-color="#dfe1e9"/><stop offset=".3982" stop-color="#ced1da"/><stop offset=".7108" stop-color="#a5a9b5"/><stop offset="1" stop-color="#a5a9b5"/></radialGradient><radialGradient id="k" cx="0" cy="0" gradientTransform="matrix(72.43456049 62.34667457 -46.41055421 53.91992628 -5.43779 -10.7119)" gradientUnits="userSpaceOnUse" r="1"><stop offset="0" stop-color="#a5a9b5"/><stop offset=".1521" stop-color="#dfe1e9"/><stop offset=".3982" stop-color="#ced1da"/><stop offset=".7108" stop-color="#a5a9b5"/><stop offset="1" stop-color="#a5a9b5"/></radialGradient><path d="m109.358 67.3862-13.3636 7.4088c-.7543.4182-1.7048.1455-2.1229-.6092-.1284-.2317-.1957-.4923-.1957-.7573 0-1.6365.8877-3.1441 2.3185-3.9376l13.3637-7.411c.755-.4185 1.706-.1457 2.124.6092.129.2318.196.4926.196.7577 0 1.6373-.888 3.1457-2.32 3.9394z" fill="url(#b)"/><path d="m69.8702 120-69.3702-38.2443v-45.3602l69.3702 38.2539z" fill="url(#d)"/><path d="m133.5 84.9493-63.6294 34.9587v-45.3508l63.6294-34.9681z" fill="url(#e)"/><path d="m108.475 66.8154-13.2459 7.4464c-.7534.4235-1.7074.1559-2.1308-.5978-.1315-.2342-.2006-.4983-.2006-.7669 0-1.6524.8912-3.1763 2.3312-3.986l13.2461-7.4486c.754-.4238 1.708-.1561 2.132.5978.132.2343.201.4985.201.7673 0 1.6533-.892 3.1779-2.333 3.9878z" fill="url(#f)"/><path d="m64.1294 1.42737-63.6294 34.96813 69.3802 38.2443 63.6198-34.9586z" fill="#dfe1e8"/><path d="m64.2294 2.73596-61.35904 33.71684 66.89984 36.888 61.3588-33.7169z" fill="url(#g)"/><path d="m64.2094 2.74548-61.33904 33.70732 57.45844 31.6824h3.8806z" fill="url(#h)"/><path d="m42.8326 30.5963-13.2461 7.4464c-.7534.4235-1.7074.1558-2.1307-.5978-.1316-.2342-.2007-.4983-.2007-.7669 0-1.6525.8913-3.1764 2.3312-3.9861l13.2464-7.4485c.7537-.4238 1.708-.1562 2.1316.5977.1317.2343.2008.4986.2008.7674 0 1.6532-.8917 3.1779-2.3325 3.9878z" fill="#e5e5e5"/><path d="m42.7163 58.4213 27.054 14.9195 21.5132-11.8248-27.054-14.9099z" fill="url(#i)"/><path d="m133.32 40.2627-58.7914-1.9514-2.4814 7.117-69.40755-38.30173 2.49135-7.12657 58.7918 1.95144z" fill="url(#j)"/><path d="m5.131 0 69.3976 38.3113-2.4814 7.117-69.40755-38.30173z" fill="url(#k)"/></svg>