<svg width="48" height="48" viewBox="0 0 48 48" fill="none" xmlns="http://www.w3.org/2000/svg">
<path d="M35.0839 7.8932C27.1874 6.7151 22.6112 6.1734 14.6313 6C33.1748 9.1427 35.1749 10.8772 47.3558 21.441L47.3861 21.4673C42.6802 15.1215 38.8135 11.2993 35.0839 7.8932Z" fill="white"/>
<path d="M9.7183 10.913C17.5511 9.8336 22.717 10.1331 30.6134 11.3112C35.2087 15.27 42.5295 23.1498 45.3133 30.4301C35.1028 19.5452 28.2771 14.0584 9.7183 10.913Z" fill="white"/>
<path d="M0 18.4603C7.6613 16.9797 16.1238 16.7229 25.8796 17.8508C34.0724 26.6222 37.9844 34.0111 40.7682 41.2914C30.5577 30.4065 17.7556 22.0332 0 18.4603Z" fill="white"/>
</svg>
