<svg width="48" height="48" viewBox="0 0 48 48" fill="none" xmlns="http://www.w3.org/2000/svg">
<path d="M9.29032 7.4184H36L27.8197 0H2.83491C0.478179 0 0 3.30658 0 3.30658V26.8124C0 26.8124 0.631878 38 16.0361 38C31.4402 38 29.5617 27.6005 29.5617 27.6005C29.5617 27.6005 28.1442 33.9053 19.6565 33.9053C11.1689 33.9053 9.29032 26.6583 9.29032 26.6583V7.4184Z" fill="#007D3D"/>
<path d="M36.7097 40.5816H10L18.1803 48H43.1651C45.5218 48 46 44.6934 46 44.6934V21.2047C46 21.2047 45.3681 10 29.9639 10C14.5598 10 16.4383 20.3995 16.4383 20.3995C16.4383 20.3995 17.8558 14.0947 26.3435 14.0947C34.8311 14.0947 36.7097 21.3417 36.7097 21.3417V40.5816Z" fill="#007D3D"/>
<path d="M23.4049 32.8229C28.3034 32.8229 32.2744 28.8419 32.2744 23.9309C32.2744 19.02 28.3034 15.0389 23.4049 15.0389C18.5064 15.0389 14.5354 19.02 14.5354 23.9309C14.5354 28.8419 18.5064 32.8229 23.4049 32.8229Z" fill="#FFF400"/>
</svg>
