<svg width="48" height="48" viewBox="0 0 48 48" fill="none" xmlns="http://www.w3.org/2000/svg">
<path fill-rule="evenodd" clip-rule="evenodd" d="M24.4049 32.823C19.5064 32.823 15.5354 28.8419 15.5354 23.931C15.5354 21.8681 16.2361 19.9693 17.4118 18.4608C17.7176 15.4518 19.8106 10 30.9639 10C46.3681 10 47 21.2047 47 21.2047V44.6934C47 44.6934 46.5218 48 44.1651 48H19.1803L11 40.5816H37.7097V21.3417C37.7097 21.3417 35.8311 14.0947 27.3435 14.0947C24.5516 14.0947 22.5247 14.7768 21.0616 15.6923C22.0934 15.2711 23.2221 15.039 24.4049 15.039C29.3034 15.039 33.2744 19.0201 33.2744 23.931C33.2744 26.4999 32.1878 28.8143 30.4503 30.4376C29.8136 33.5168 27.1501 38 17.0361 38C1.63188 38 1 26.8124 1 26.8124V3.30658C1 3.30658 1.47818 0 3.83491 0H28.8197L37 7.4184H10.2903V26.6583C10.2903 26.6583 12.1689 33.9053 20.6565 33.9053C23.1637 33.9053 25.0539 33.3552 26.4729 32.58C25.8094 32.7389 25.1169 32.823 24.4049 32.823Z" fill="white"/>
</svg>
