<svg width="48" height="48" viewBox="0 0 48 48" fill="none" xmlns="http://www.w3.org/2000/svg">
<path d="M31.2787 7.40398C31.2787 11.482 28.0311 14.808 24.0492 14.808C20.0672 14.808 16.8197 11.482 16.8197 7.40398C16.8197 3.32594 20.0672 0 24.0492 0C28.0311 0 31.2787 3.32594 31.2787 7.40398Z" fill="#324C88"/>
<path d="M16.7213 16.571C16.7213 19.5946 14.3131 22.0609 11.3608 22.0609C8.40821 22.0609 6 19.5946 6 16.571C6 13.5471 8.40821 11.0808 11.3608 11.0808C14.3131 11.0808 16.7213 13.5471 16.7213 16.571Z" fill="#324C88"/>
<path d="M42 16.6717C42 19.6953 39.592 22.1616 36.6395 22.1616C33.6869 22.1616 31.2787 19.6953 31.2787 16.6717C31.2787 13.6478 33.6869 11.1815 36.6395 11.1815C39.592 11.1815 42 13.6478 42 16.6717Z" fill="#324C88"/>
<path d="M24.0492 29.4145C27.0018 29.4145 29.4097 26.9482 29.4097 23.9246C29.4097 20.9008 27.0018 18.4344 24.0492 18.4344C21.0966 18.4344 18.6886 20.9008 18.6886 23.9246C18.6886 26.9482 21.0966 29.4145 24.0492 29.4145Z" fill="#324C88"/>
<path d="M13.2295 33.041C15.1527 33.041 16.7213 31.4345 16.7213 29.4649C16.7213 27.4952 15.1527 25.8888 13.2295 25.8888C11.3063 25.8888 9.73766 27.4952 9.73766 29.4649C9.73766 31.4345 11.3063 33.041 13.2295 33.041Z" fill="#324C88"/>
<path d="M38.4098 29.4649C38.4098 31.4345 36.8412 33.041 34.9182 33.041C32.995 33.041 31.4264 31.4345 31.4264 29.4649C31.4264 27.4952 32.995 25.8888 34.9182 25.8888C36.8412 25.8888 38.4098 27.4952 38.4098 29.4649Z" fill="#324C88"/>
<path d="M24 40.4953C25.9232 40.4953 27.4918 38.8889 27.4918 36.9192C27.4918 34.9495 25.9232 33.3431 24 33.3431C22.0768 33.3431 20.5082 34.9495 20.5082 36.9192C20.5082 38.8889 22.0768 40.4953 24 40.4953Z" fill="#324C88"/>
<path d="M16.918 42.4595C16.918 43.4859 16.1007 44.3232 15.0985 44.3232C14.0962 44.3232 13.2787 43.4859 13.2787 42.4595C13.2787 41.4331 14.0962 40.596 15.0985 40.596C16.1007 40.596 16.918 41.4331 16.918 42.4595Z" fill="#324C88"/>
<path d="M33.1476 44.3232C34.1498 44.3232 34.9672 43.4859 34.9672 42.4595C34.9672 41.4331 34.1498 40.596 33.1476 40.596C32.1454 40.596 31.3281 41.4331 31.3281 42.4595C31.3281 43.4859 32.1454 44.3232 33.1476 44.3232Z" fill="#324C88"/>
<path d="M25.9181 46.1363C25.9181 47.1627 25.1005 48 24.0983 48C23.0961 48 22.2788 47.1627 22.2788 46.1363C22.2788 45.1099 23.0961 44.2728 24.0983 44.2728C25.1005 44.2728 25.9181 45.1099 25.9181 46.1363Z" fill="#324C88"/>
</svg>
