<svg width="48" height="48" viewBox="0 0 48 48" fill="none" xmlns="http://www.w3.org/2000/svg">
<path fill-rule="evenodd" clip-rule="evenodd" d="M6.12245 41.8776H22.322L25.5216 48H0V0H48V48H35.963L32.7634 41.8776L23.0152 23.1715H31.2075L41.8776 43.5371V26.1087C41.4998 29.3399 40.2648 32.3108 38.4065 34.7877L31.8132 22.1715H21.3642L30.99 40.5903C30.6619 40.7288 30.3288 40.8579 29.9912 40.9772L20.1633 22.1715H12L22.322 41.8776C13.8696 41.0947 7.10372 34.5024 6.12245 26.1087V41.8776ZM6.12245 21.8913C7.087 13.6407 13.6407 7.087 21.8913 6.12245H6.12245V21.8913ZM26.1087 6.12245C34.3593 7.087 40.913 13.6407 41.8775 21.8913V6.12245H26.1087ZM13.6509 23.1715H19.5575L32.5155 48H26.6159L13.6509 23.1715Z" fill="white"/>
</svg>
