<svg width="48" height="48" viewBox="0 0 48 48" fill="none" xmlns="http://www.w3.org/2000/svg">
<path d="M12.8162 30.6037C-3.64892 7.6279 25.5846 -11.5966 42.7142 8.30929C23.2501 -1.86357 6.77522 12.7371 12.8162 30.6037Z" fill="white"/>
<path d="M31.5192 34.5659C9.96166 52.8208 -11.4402 25.1039 7.01292 6.4251C-1.57987 26.6761 14.2264 42.0018 31.5192 34.5659Z" fill="white"/>
<path d="M34.4906 16.1951C53.0539 37.5024 25.7697 59.4188 6.83516 41.2307C27.1734 49.5079 42.1936 33.4072 34.4906 16.1951Z" fill="white"/>
<path d="M16.4018 13.314C37.8413 -5.08003 59.4213 22.4975 41.089 41.2956C49.551 20.9892 33.6463 5.7664 16.4018 13.314Z" fill="white"/>
<path d="M33 24.0001C33 28.9571 28.957 33 24 33C19.043 33 15 28.9571 15 24.0001C15 19.043 19.043 15 24 15C28.957 15 33 19.043 33 24.0001Z" fill="white"/>
</svg>
