<svg width="48" height="48" viewBox="0 0 48 48" fill="none" xmlns="http://www.w3.org/2000/svg">
<path fill-rule="evenodd" clip-rule="evenodd" d="M37.1744 37.7057C33.8627 40.8919 29.4415 42.6735 24.8459 42.6735C17.5069 42.6735 10.8889 38.1299 8.25192 31.2811C8.20182 31.1458 8.08592 31.045 7.94502 31.0143C7.80512 30.9789 7.65642 31.0172 7.55122 31.1159L0.142316 37.8772C0.0544163 37.9553 0.0030163 38.0666 0.000416301 38.1841C-0.0047837 38.3014 0.0389163 38.4157 0.121116 38.4995C4.88082 43.5252 11.506 46.3756 18.4279 46.3756C26.0847 46.3756 33.339 42.8878 38.1206 36.9076C38.1301 36.8964 38.1353 36.8821 38.1353 36.8674C38.1353 36.8332 38.1072 36.8051 38.073 36.8051C38.0547 36.8051 38.0372 36.8132 38.0254 36.8272C37.753 37.1236 37.4693 37.4164 37.1744 37.7057ZM27.7481 14.2129C35.3329 16.4055 40.5915 23.3996 40.5915 31.295C40.5915 35.3625 39.1958 39.3095 36.6388 42.4728C36.5461 42.5839 36.5165 42.7351 36.5605 42.8729C36.5999 43.0119 36.7079 43.1215 36.8463 43.1629L46.406 46.1964C46.4483 46.2096 46.4924 46.2163 46.5367 46.2163C46.7296 46.2163 46.9008 46.089 46.9564 45.9042C47.6485 43.5737 48 41.1553 48 38.7242C48 26.3166 38.8436 15.66 26.5775 13.7917C26.5463 13.7862 26.5158 13.8056 26.5076 13.8361C26.5061 13.8415 26.5054 13.8471 26.5054 13.8527C26.5054 13.882 26.5257 13.9076 26.5542 13.9144C26.955 13.9991 27.3529 14.0986 27.7481 14.2129ZM12.1173 34.124C11.7725 32.7285 11.5982 31.2963 11.5982 29.8588C11.5982 20.1042 19.625 12.0773 29.3797 12.0773C30.3042 12.0773 31.2273 12.1494 32.1405 12.2929C32.1618 12.2961 32.1833 12.2976 32.2047 12.2976C32.4463 12.2976 32.645 12.0989 32.645 11.8573C32.645 11.8273 32.642 11.7974 32.6359 11.768L30.483 1.97327C30.459 1.85857 30.3885 1.75887 30.2883 1.69807C30.1894 1.63397 30.0681 1.61397 29.9538 1.64307C18.6456 4.34577 10.6028 14.5373 10.6028 26.1641C10.6028 29.3048 11.1897 32.4181 12.3332 35.3433C12.3449 35.3725 12.3767 35.3889 12.4073 35.3814C12.4343 35.3744 12.4533 35.3499 12.4533 35.322C12.4533 35.3148 12.4521 35.3077 12.4496 35.301C12.3268 34.9157 12.2146 34.5198 12.1173 34.124Z" fill="#832D6A"/>
<path d="M31.8124 11.2111L29.9221 2.61671C29.9086 2.55041 29.8679 2.49281 29.8099 2.45801C29.7526 2.42171 29.6824 2.41161 29.6172 2.43041C19.0726 5.18171 11.5667 14.6459 11.2896 25.5401C11.2883 25.5723 11.3126 25.6003 11.3446 25.6036C11.3759 25.6087 11.406 25.588 11.4124 25.557C13.5872 16.4987 22.2871 10.4285 31.5393 11.5138C31.5491 11.515 31.5589 11.5156 31.5687 11.5156C31.7057 11.5156 31.8185 11.4028 31.8185 11.2658C31.8185 11.2474 31.8164 11.2291 31.8124 11.2111Z" fill="url(#paint0_radial_2822_61218)"/>
<path d="M37.7417 42.7269L46.1287 45.3877C46.153 45.3954 46.1784 45.3992 46.2039 45.3992C46.3161 45.3992 46.4155 45.3242 46.4462 45.2163C49.329 34.7108 44.8863 23.4845 35.5952 17.7967C35.586 17.7918 35.5758 17.7892 35.5653 17.7892C35.5305 17.7892 35.5018 17.8179 35.5018 17.8528C35.5018 17.8689 35.508 17.8845 35.519 17.8962C42.2742 24.3098 43.1808 34.8775 37.6168 42.3479C37.5685 42.4129 37.5551 42.4977 37.5808 42.5744C37.6072 42.6479 37.667 42.7045 37.7417 42.7269Z" fill="url(#paint1_radial_2822_61218)"/>
<path d="M7.48556 32.1045L0.986865 38.0317C0.935165 38.0764 0.905165 38.1412 0.904218 38.2095C0.902965 38.2773 0.928965 38.3429 0.976265 38.3916C8.63306 46.1455 20.5811 47.9129 30.1549 42.7078C30.184 42.6928 30.1962 42.657 30.1824 42.6274C30.1707 42.5983 30.1385 42.5826 30.1084 42.5914C21.1759 45.2371 11.5686 40.7382 7.88146 32.1828C7.85086 32.1084 7.78466 32.0542 7.70576 32.0389C7.62596 32.0205 7.54226 32.0455 7.48556 32.1045Z" fill="url(#paint2_radial_2822_61218)"/>
<path fill-rule="evenodd" clip-rule="evenodd" d="M24.2645 20.0035C29.0545 19.2226 33.5773 22.4774 34.3583 27.2674C35.1392 32.0573 31.8844 36.5802 27.0945 37.3611C22.3045 38.1421 17.7816 34.8873 17.0007 30.0973C16.2197 25.3074 19.4745 20.7845 24.2645 20.0035Z" fill="#FAA61A"/>
<path fill-rule="evenodd" clip-rule="evenodd" d="M33.2944 25.8627C31.741 21.6589 27.0669 19.507 22.863 21.0604C18.6591 22.6138 16.5073 27.288 18.0607 31.4918C19.6141 35.6957 24.2882 37.8475 28.4921 36.2941C32.6959 34.7407 34.8478 30.0666 33.2944 25.8627Z" fill="url(#paint3_radial_2822_61218)"/>
<defs>
<radialGradient id="paint0_radial_2822_61218" cx="0" cy="0" r="1" gradientUnits="userSpaceOnUse" gradientTransform="translate(18.5001 11.9999) rotate(-27.4744) scale(14.089 15.191)">
<stop stop-color="#EC008C" stop-opacity="0.407843"/>
<stop offset="1" stop-color="#621A4F"/>
</radialGradient>
<radialGradient id="paint1_radial_2822_61218" cx="0" cy="0" r="1" gradientUnits="userSpaceOnUse" gradientTransform="translate(46 34) rotate(-92.7263) scale(10.5119 55.1984)">
<stop stop-color="#EC008C" stop-opacity="0.407843"/>
<stop offset="1" stop-color="#621A4F"/>
</radialGradient>
<radialGradient id="paint2_radial_2822_61218" cx="0" cy="0" r="1" gradientUnits="userSpaceOnUse" gradientTransform="translate(12.9999 43.5) rotate(19.179) scale(12.1758 11.458)">
<stop stop-color="#EC008C" stop-opacity="0.407843"/>
<stop offset="1" stop-color="#621A4F"/>
</radialGradient>
<radialGradient id="paint3_radial_2822_61218" cx="0" cy="0" r="1" gradientUnits="userSpaceOnUse" gradientTransform="translate(21.9704 24.4218) rotate(180) scale(11.9031)">
<stop stop-color="#FFE293"/>
<stop offset="1" stop-color="#FAA61A"/>
</radialGradient>
</defs>
</svg>
