<svg width="48" height="48" viewBox="0 0 48 48" fill="none" xmlns="http://www.w3.org/2000/svg">
<path fill-rule="evenodd" clip-rule="evenodd" d="M37.1744 37.7057C33.8627 40.8919 29.4415 42.6735 24.8459 42.6735C17.5069 42.6735 10.8889 38.1299 8.25192 31.281C8.20182 31.1457 8.08592 31.045 7.94502 31.0143C7.80512 30.9788 7.65642 31.0172 7.55122 31.1159L0.142316 37.8771C0.0544163 37.9553 0.0030163 38.0666 0.000416301 38.1841C-0.0047837 38.3013 0.0389163 38.4157 0.121116 38.4995C4.88082 43.5252 11.506 46.3756 18.4279 46.3756C26.0847 46.3756 33.339 42.8878 38.1206 36.9076C38.1301 36.8964 38.1353 36.8821 38.1353 36.8674C38.1353 36.8332 38.1072 36.8051 38.073 36.8051C38.0547 36.8051 38.0372 36.8132 38.0254 36.8272C37.753 37.1235 37.4693 37.4164 37.1744 37.7057ZM27.7481 14.2129C35.3329 16.4055 40.5915 23.3996 40.5915 31.295C40.5915 35.3625 39.1958 39.3094 36.6388 42.4728C36.5461 42.5839 36.5165 42.7351 36.5605 42.8729C36.5999 43.0119 36.7079 43.1214 36.8463 43.1629L46.406 46.1963C46.4483 46.2096 46.4924 46.2163 46.5367 46.2163C46.7296 46.2163 46.9008 46.0889 46.9564 45.9042C47.6485 43.5737 48 41.1553 48 38.7242C48 26.3166 38.8436 15.6599 26.5775 13.7916C26.5463 13.7862 26.5158 13.8056 26.5076 13.8361C26.5061 13.8415 26.5054 13.8471 26.5054 13.8526C26.5054 13.8819 26.5257 13.9076 26.5542 13.9144C26.955 13.9991 27.3529 14.0986 27.7481 14.2129ZM24.2645 20.0035C29.0545 19.2226 33.5773 22.4774 34.3583 27.2673C35.1392 32.0573 31.8844 36.5802 27.0945 37.3611C22.3045 38.1421 17.7816 34.8873 17.0007 30.0973C16.2197 25.3073 19.4745 20.7845 24.2645 20.0035ZM12.1173 34.124C11.7725 32.7285 11.5982 31.2963 11.5982 29.8588C11.5982 20.1041 19.625 12.0773 29.3797 12.0773C30.3042 12.0773 31.2273 12.1494 32.1405 12.2929C32.1618 12.296 32.1833 12.2976 32.2047 12.2976C32.4463 12.2976 32.645 12.0989 32.645 11.8573C32.645 11.8273 32.642 11.7973 32.6359 11.7679L30.483 1.97331C30.459 1.85861 30.3885 1.75891 30.2883 1.69811C30.1894 1.63401 30.0681 1.61401 29.9538 1.64301C18.6456 4.34581 10.6028 14.5373 10.6028 26.1641C10.6028 29.3048 11.1897 32.4181 12.3332 35.3433C12.3449 35.3725 12.3767 35.3889 12.4073 35.3814C12.4343 35.3744 12.4533 35.3498 12.4533 35.3219C12.4533 35.3148 12.4521 35.3077 12.4496 35.3009C12.3268 34.9157 12.2146 34.5198 12.1173 34.124Z" fill="white"/>
</svg>
