<svg width="48" height="48" viewBox="0 0 48 48" fill="none" xmlns="http://www.w3.org/2000/svg">
<path d="M24.0562 0L29.3514 5.30122L16.07 18.6517C12.1662 22.5775 5.51193 20.9559 2.98928 15.2263C3.16135 15.2417 3.33312 15.2578 3.50452 15.2738C5.96623 15.5044 8.34974 15.7276 10.3953 13.6423L24.0562 0Z" fill="#029A4C"/>
<path d="M5.29521 18.7098L0 24.0118L13.6269 37.6874C15.7102 39.7364 15.4868 42.1231 15.2561 44.5871C15.2401 44.7582 15.224 44.9297 15.2087 45.1014C20.9326 42.5767 22.5523 35.9156 18.6306 32.0063L5.29521 18.7098Z" fill="#029A4C"/>
<path d="M18.6822 42.6992L23.9782 48L37.6379 34.3581C39.6848 32.2721 42.0692 32.4958 44.5308 32.7267C44.7014 32.7427 44.8723 32.7588 45.0435 32.7741C42.5221 27.0441 35.8677 25.4225 31.9632 29.3483L18.6822 42.6992Z" fill="#029A4C"/>
<path d="M42.7048 29.2786L48 23.9766L34.3731 10.3014C32.29 8.25266 32.5132 5.86586 32.7435 3.40245C32.7595 3.23111 32.7756 3.05939 32.7909 2.88739C27.0678 5.4117 25.4481 12.0736 29.3694 15.9825L42.7048 29.2786Z" fill="#029A4C"/>
<path fill-rule="evenodd" clip-rule="evenodd" d="M16.5 24.0016C16.5 19.8599 19.8583 16.5 24.0006 16.5C28.1413 16.5 31.5 19.8599 31.5 24.0016C31.5 28.1443 28.1413 31.5 24.0002 31.5C19.8583 31.5 16.5 28.1424 16.5 24.0016" fill="#EB8C30"/>
</svg>
