<svg width="48" height="48" viewBox="0 0 48 48" fill="none" xmlns="http://www.w3.org/2000/svg">
<path d="M29.3514 5.30122L24.0562 0L10.3953 13.6423C8.34974 15.7276 5.96623 15.5044 3.50452 15.2738C3.33312 15.2578 3.16135 15.2417 2.98928 15.2263C5.51193 20.9559 12.1662 22.5775 16.07 18.6517L29.3514 5.30122Z" fill="white"/>
<path d="M5.29521 18.7098L18.6306 32.0063C22.5523 35.9156 20.9326 42.5767 15.2087 45.1014C15.224 44.9297 15.2401 44.7582 15.2561 44.5871C15.4868 42.1231 15.7102 39.7364 13.6269 37.6874L0 24.0118L5.29521 18.7098Z" fill="white"/>
<path d="M23.9782 48L18.6822 42.6992L31.9632 29.3483C35.8677 25.4225 42.5221 27.0441 45.0435 32.7741C44.8723 32.7588 44.7014 32.7427 44.5308 32.7267C42.0692 32.4958 39.6848 32.2721 37.6379 34.3581L23.9782 48Z" fill="white"/>
<path d="M48 23.9766L42.7048 29.2786L29.3694 15.9825C25.4481 12.0736 27.0678 5.4117 32.7909 2.88739C32.7756 3.05939 32.7595 3.23111 32.7435 3.40245C32.5132 5.86586 32.29 8.25266 34.3731 10.3014L48 23.9766Z" fill="white"/>
<path d="M24.0006 16.5C19.8583 16.5 16.5 19.8599 16.5 24.0016C16.5 28.1424 19.8583 31.5 24.0002 31.5C28.1413 31.5 31.5 28.1443 31.5 24.0016C31.5 19.8599 28.1413 16.5 24.0006 16.5Z" fill="white"/>
</svg>
