<svg width="48" height="48" viewBox="0 0 48 48" fill="none" xmlns="http://www.w3.org/2000/svg">
<path fill-rule="evenodd" clip-rule="evenodd" d="M48 6.72645C44.2222 8.25801 40.7496 10.2779 38.0695 13.5687C32.2512 19.7525 28.2295 28.371 25.938 39.303C25.892 39.5239 25.4116 39.1736 25.3533 39.3942C20.4047 37.2301 16.7788 30.3794 14.9909 22.9913C14.4049 20.5702 13.7435 17.9964 12.7254 15.5809C16.7115 14.4809 20.9373 16.9888 25.4527 23.8507C26.5463 20.0645 34.0037 9.00482 34.0037 9.00482L34.0826 8.71185C30.4651 5.47102 25.6909 3.5 20.4576 3.5C9.16124 3.5 0 12.6802 0 24.0001C0 35.3198 9.16124 44.5 20.4576 44.5C34.2479 44.5 39.3127 34.4384 42.8518 23.5629C44.5677 17.951 45.9549 11.9266 48 6.72645Z" fill="#209B1C"/>
</svg>
