<svg width="48" height="48" viewBox="0 0 48 48" fill="none" xmlns="http://www.w3.org/2000/svg">
<path d="M23.1843 0.256947C23.4792 0.0851568 23.729 0 23.9834 0H24.0007C24.2605 0.00393789 24.5192 0.095986 24.8305 0.273191L36.6622 7.06851C37.7409 7.74582 38.4574 8.94196 38.4574 10.3035V16.2832L23.9027 7.91368C23.783 7.84772 23.6558 7.81277 23.5361 7.81277C23.4445 7.81277 23.3574 7.83344 23.2817 7.8743C23.207 7.91466 23.1432 7.97717 23.0957 8.06135C23.0408 8.1593 23.0076 8.28974 23.0076 8.45317L23.0071 17.9307L23.0076 18.0183L22.92 18.0296L22.9131 18.0306L22.8176 18.0429L22.7216 18.0557L22.7092 18.0577L22.6157 18.0719L22.5237 18.0862L22.499 18.0907L22.4035 18.1074L22.3099 18.1241L22.3045 18.1256L22.207 18.1443L22.1115 18.1645L22.0957 18.1674L22.0027 18.1881L21.9087 18.2108L21.9012 18.2122C21.4757 18.3136 21.0616 18.4465 20.6613 18.6075C20.5796 18.64 20.5019 18.673 20.4287 18.705C20.352 18.7379 20.2758 18.7729 20.2006 18.8083L20.1981 18.8088L20.112 18.8502L20.0259 18.893L20.0131 18.8984L19.9369 18.9373L19.8597 18.9777L19.8255 18.9954L19.7508 19.0353L19.6776 19.0756L19.6524 19.0894C19.6202 19.1071 19.5841 19.1278 19.546 19.1499L19.5242 19.1623L19.5034 19.1746L19.4797 19.1883L19.4035 19.2331L19.3263 19.2804L19.3154 19.2868L19.2372 19.336L19.1585 19.3857L19.1496 19.3926C18.9141 19.5442 18.6865 19.7076 18.4663 19.8814C18.4188 19.9193 18.3763 19.9533 18.3391 19.9838C18.3015 20.0143 18.2585 20.0502 18.214 20.0886L18.2125 20.0896L18.2051 20.096L18.1343 20.1566L18.066 20.2176L18.0556 20.2265L17.9938 20.2826L17.9324 20.3387L17.9017 20.3677L17.8419 20.4239L17.783 20.4805L17.7612 20.5016L17.7038 20.5582L17.6469 20.6158L17.6128 20.6503L17.5633 20.7015L17.5143 20.7532L17.4663 20.8043L17.4233 20.8511L17.3802 20.8984L17.3243 20.9609L17.2832 21.0072L17.2437 21.0524L17.2016 21.1022L17.1551 21.1563L17.1101 21.2104L17.0774 21.2518L17.0299 21.3099L16.9844 21.367L16.9577 21.4019C16.8518 21.5378 16.7488 21.6781 16.6504 21.8223L16.5925 21.9074L16.5361 21.9916L16.5198 22.0172L16.4515 22.1235L16.4055 22.1979L16.3555 22.2801L16.3471 22.2939L16.3466 22.2953L16.3015 22.3716C16.2827 22.4028 16.2698 22.4257 16.2579 22.4468C16.2547 22.4524 16.2517 22.4578 16.2486 22.4632L16.2446 22.4706L16.1996 22.5508L16.1724 22.6005L16.1447 22.6507L16.1011 22.7339L16.0527 22.8279L16.0066 22.92L15.9586 23.0179L15.9181 23.1051L15.874 23.2015L15.8424 23.2734L15.7884 23.3974L15.7518 23.487L15.7137 23.5811C15.7015 23.6122 15.6924 23.636 15.6845 23.6565C15.6803 23.6675 15.6764 23.6776 15.6726 23.6874L15.6677 23.7012L15.6672 23.7031L15.639 23.7775C15.6177 23.836 15.5999 23.8862 15.5821 23.9374L15.5697 23.9734L15.54 24.0625L15.5108 24.1545L15.4822 24.247L15.4629 24.3125L15.4436 24.3765L15.4248 24.4444L15.4158 24.4759L15.3896 24.5744L15.3674 24.664L15.3372 24.7846L15.3184 24.8687C15.3109 24.9007 15.3035 24.9337 15.2926 24.9869L15.2728 25.0814L15.2506 25.199L15.2347 25.2911L15.215 25.4072L15.2001 25.5052L15.1833 25.6224L15.1709 25.7174L15.1576 25.833L15.1467 25.9344L15.1363 26.0516L15.1284 26.15L15.1214 26.2608L15.1204 26.2736L15.119 26.2903L15.1145 26.3661L15.1101 26.4902L15.1091 26.5113L15.1066 26.5852L15.1046 26.6944L15.1036 26.8042L15.1046 26.9174L15.1066 27.0316L15.1071 27.0351L15.1101 27.1453L15.1155 27.259V27.2605L15.116 27.264L15.1219 27.3718L15.1299 27.4845L15.1393 27.5977L15.1496 27.704L15.1501 27.7084C15.1645 27.8546 15.1838 28.0018 15.2065 28.1505L15.2234 28.2578L15.2427 28.3646V28.3671L15.2437 28.37L15.2442 28.374L15.263 28.4778L15.2842 28.5846L15.2847 28.5871C15.306 28.689 15.3283 28.7904 15.353 28.8908L15.3679 28.9499L15.3832 29.0094V29.0109L15.3842 29.0144L15.4124 29.1202L15.4411 29.224L15.4416 29.2255C15.4531 29.2664 15.4658 29.3073 15.4778 29.3476C15.4802 29.3558 15.4827 29.364 15.4851 29.3722L15.4935 29.4008L15.5024 29.4298L15.5034 29.4318L15.5039 29.4337L15.5371 29.5376L15.5702 29.6375L15.5717 29.6405L15.6063 29.7414L15.642 29.8398L15.643 29.8408L15.644 29.8443L15.6801 29.9412L15.7172 30.0372L15.7231 30.051L15.7607 30.1445L15.8008 30.2395L15.8028 30.2444L15.8394 30.3276L9.53659 33.9475V10.3035C9.53659 8.89913 10.2976 7.67199 11.4317 7.00698L11.497 6.97006L23.1843 0.256947Z" fill="white"/>
<path d="M24.9947 10.747L45.5781 22.569C46.8002 23.2709 47.488 24.5409 47.4999 25.8503V39.3503C47.5029 39.6983 47.4494 39.9597 47.3158 40.1822C47.1827 40.4042 46.9729 40.5809 46.6627 40.7606L34.8314 47.5564C33.7023 48.1471 32.3035 48.1668 31.1174 47.485L26.0635 44.5828L25.9116 44.4952L26.0635 44.4085L40.4757 36.1414C40.5929 36.071 40.6859 35.979 40.7463 35.8756C40.7918 35.7964 40.8186 35.7112 40.82 35.6261C40.822 35.5414 40.8002 35.4548 40.7508 35.3726C40.6924 35.2751 40.5959 35.1821 40.4534 35.1004L32.203 30.3616L32.1263 30.3178L32.1605 30.2366L32.163 30.2297L32.2006 30.1416L32.2367 30.0525L32.2758 29.953L32.3089 29.8664L32.3173 29.8433L32.351 29.7522L32.3831 29.6631L32.3846 29.6582L32.4163 29.5647L32.447 29.4726L32.4524 29.4574L32.4811 29.3663L32.5088 29.2747L32.5108 29.2679C32.6345 28.8504 32.7265 28.4266 32.7869 28.0013C32.7988 27.9147 32.8092 27.832 32.8181 27.7528C32.8275 27.6696 32.8354 27.5869 32.8428 27.5042V27.5017L32.8502 27.4072L32.8562 27.3112L32.8567 27.2974L32.8616 27.2123L32.8656 27.1256L32.8671 27.0877L32.8695 27.0031L32.8715 26.8913C32.872 26.8549 32.8725 26.8136 32.872 26.7693V26.6935L32.8705 26.6053L32.8685 26.5153L32.8681 26.5025L32.8651 26.4109L32.8606 26.3179L32.8596 26.3066C32.8443 26.0284 32.8161 25.7498 32.775 25.4737C32.7666 25.4136 32.7577 25.36 32.7498 25.3127C32.7419 25.2655 32.732 25.2104 32.7211 25.1528V25.1508L32.7191 25.1409L32.7013 25.0504L32.6825 24.9608L32.68 24.9475L32.6622 24.8658L32.6439 24.7846L32.634 24.7437L32.6157 24.665L32.5954 24.5852L32.588 24.5557L32.5459 24.4001L32.5326 24.3539L32.5128 24.2849L32.4722 24.1511L32.4529 24.0905L32.4331 24.029L32.4069 23.9502L32.3668 23.8346L32.3446 23.7735L32.3208 23.7066L32.2961 23.6406L32.2773 23.5914L32.25 23.522L32.2228 23.4541L32.206 23.4137C32.1407 23.2547 32.0699 23.0962 31.9937 22.9387L31.9037 22.7556L31.9027 22.7551L31.9022 22.7541L31.8893 22.729L31.8601 22.6724L31.8305 22.6168L31.7889 22.5395L31.7429 22.4558L31.7345 22.4415L31.734 22.4405L31.6899 22.3633C31.6672 22.3234 31.6518 22.2978 31.6365 22.2722L31.632 22.2648L31.585 22.1856L31.5558 22.1378L31.5247 22.0886L31.4747 22.0093L31.4173 21.9202L31.3599 21.8351L31.298 21.745L31.2436 21.6663L31.1813 21.5801L31.1343 21.5171L31.1224 21.5014L31.0531 21.4088L30.9937 21.332L30.9309 21.2523C30.8982 21.2124 30.8785 21.1878 30.8587 21.1642L30.8493 21.1524L30.8483 21.1519L30.7973 21.0898C30.7572 21.0421 30.7221 21.0017 30.6865 20.9609L30.6612 20.9323L30.5989 20.8619L30.5336 20.7906L30.4668 20.7197L30.3733 20.6217L30.3233 20.5715L30.3 20.5484L30.2283 20.4765L30.1615 20.4125L30.0714 20.3259L30.0076 20.2678C29.9834 20.2452 29.9581 20.2225 29.9175 20.1866L29.8453 20.1221L29.7538 20.0448L29.6815 19.9843L29.5905 19.9095L29.5128 19.8479L29.4188 19.7746L29.3426 19.7165L29.2486 19.6471L29.1654 19.587L29.069 19.5196L28.9868 19.4635L28.9072 19.4108L28.8938 19.402L28.8834 19.3946L28.87 19.3857L28.8057 19.3444L28.7003 19.2774L28.6192 19.2272L28.5247 19.1706L28.4302 19.115L28.3312 19.0594L28.2303 19.0037L28.2273 19.0033L28.1298 18.9501L28.0284 18.8979L28.0269 18.8969L28.0234 18.896L27.9265 18.8472L27.8245 18.7975L27.7216 18.7493L27.6236 18.7045L27.6192 18.7025C27.4851 18.6429 27.3475 18.5854 27.2065 18.5307L27.1051 18.4918L27.0022 18.4544L27.0002 18.4539L26.9967 18.4524L26.9937 18.451L26.8933 18.4155L26.7899 18.3806L26.7889 18.3801L26.7869 18.3796C26.688 18.3471 26.588 18.3161 26.4886 18.2866L26.4302 18.2698L26.3703 18.2536L26.3693 18.2526L26.3663 18.2516L26.26 18.2231L26.1546 18.196L26.1531 18.1955C26.1031 18.1832 26.0531 18.1709 26.0032 18.1596L25.9745 18.1532L25.9448 18.1463L25.9433 18.1458L25.9403 18.1453L25.8339 18.1222L25.73 18.1005L25.7271 18.1L25.6222 18.0798L25.5177 18.0611L25.5133 18.0606L25.4114 18.0429L25.3084 18.0276L25.2936 18.0252L25.1937 18.0114L25.0912 17.9981L25.0853 17.9971L24.9947 17.9873V10.747Z" fill="white"/>
<path d="M7.62467 19.5811L7.61577 36.3053C7.61824 36.4417 7.65189 36.5687 7.71176 36.6716C7.75827 36.7508 7.81913 36.8158 7.89187 36.8596C7.9651 36.9039 8.05169 36.928 8.14817 36.927C8.26148 36.9251 8.39112 36.8882 8.53313 36.8069L16.8602 32.0244L16.9141 32.0943L16.9186 32.0992L16.9765 32.1755L17.0358 32.2518L17.0433 32.2616L17.1026 32.335L17.1615 32.4068L17.1773 32.4265L17.2397 32.5004L17.301 32.5722L17.305 32.5767L17.3703 32.6505L17.4351 32.7233L17.446 32.7352L17.5108 32.8051L17.5771 32.875L17.5821 32.8804C17.8834 33.1959 18.206 33.4868 18.5465 33.7511C18.6157 33.8048 18.683 33.8555 18.7474 33.9027C18.8146 33.952 18.8829 34.0007 18.9517 34.048L18.9532 34.0489L19.0324 34.1026L19.1125 34.1558L19.1239 34.1636L19.1956 34.2104L19.2694 34.2567L19.302 34.2773L19.3738 34.3216L19.4455 34.3645L19.4703 34.3797C19.5014 34.3979 19.5376 34.4191 19.5766 34.4408L19.5974 34.4531L19.6187 34.4649L19.6425 34.4782L19.7196 34.522L19.7998 34.5648L19.8107 34.5712L19.8923 34.614L19.975 34.6564L19.9854 34.6613C20.2352 34.7878 20.4915 34.903 20.7528 35.0049C20.8097 35.0275 20.8602 35.0472 20.9057 35.0634C20.9507 35.0807 21.0032 35.0994 21.0591 35.1191L21.0606 35.12L21.0705 35.123L21.158 35.153L21.2456 35.1826L21.2585 35.1865L21.3381 35.2116L21.4178 35.2362L21.4584 35.249L21.5366 35.2717L21.6157 35.2943L21.6454 35.3022L21.7231 35.3233L21.8018 35.344L21.8488 35.3558L21.9186 35.3731L21.9868 35.3898L22.0556 35.405L22.1813 35.4326L22.2634 35.4493L22.3243 35.4612L22.3837 35.473L22.448 35.4843L22.5183 35.4971L22.5875 35.5089L22.6405 35.5168L22.7147 35.5281L22.7874 35.5389L22.8305 35.5448C23.0017 35.568 23.1754 35.5862 23.35 35.599L23.4529 35.6069L23.5549 35.6128L23.5559 35.6123H23.5573L23.585 35.6143L23.6489 35.6172L23.7122 35.6197L23.7998 35.6226L23.8958 35.6246H23.9141L24.0032 35.6256C24.0487 35.6256 24.0789 35.6256 24.1095 35.6251L24.1175 35.6246L24.21 35.6236L24.3243 35.6206L24.4188 35.6167L24.5247 35.6118L24.6276 35.6049L24.7374 35.597L24.8329 35.5891L24.9388 35.5788L25.0175 35.5699L25.0373 35.568L25.1521 35.5542L25.35 35.5271C25.3923 35.521 25.4212 35.5157 25.4471 35.5115C25.4524 35.5106 25.4577 35.5098 25.4628 35.5089L25.4777 35.506L25.4792 35.5055L25.5578 35.4927C25.6197 35.4823 25.6726 35.4725 25.7256 35.4617L25.7627 35.4548L25.8552 35.4361L25.9502 35.4154L26.0452 35.3932L26.112 35.3775L26.1773 35.3617L26.2461 35.344L26.2778 35.3356L26.3767 35.3091L26.4658 35.2845L26.586 35.2495L26.6682 35.2239C26.7003 35.2136 26.7325 35.2042 26.7844 35.187L26.8765 35.156L26.9898 35.1166L27.0779 35.0851L27.1887 35.0437L27.2812 35.0073L27.3926 34.963L27.4811 34.9261L27.588 34.8803L27.682 34.8385L27.7884 34.7893L27.879 34.7464L27.9646 34.7041L27.9794 34.6972L27.9903 34.6913L28.0051 34.6844L28.0734 34.6505L28.1847 34.5924L28.203 34.5825L28.2684 34.5481L28.3648 34.4954L28.4608 34.4408L28.5588 34.3837L28.6573 34.3241L28.6593 34.3226L28.7543 34.2645L28.8507 34.203L28.8522 34.2025L28.8547 34.2001L28.9453 34.1415L29.0398 34.078L29.1333 34.0135L29.2214 33.9515L29.2248 33.9485C29.3441 33.8629 29.4633 33.7733 29.5811 33.6793L29.6662 33.6108L29.7498 33.541L29.7513 33.5395L29.7543 33.5375L29.7567 33.535L29.8379 33.4666L29.9205 33.3948L29.9215 33.3943L29.922 33.3928C30.0007 33.3234 30.0774 33.254 30.1526 33.1826L30.1966 33.1403L30.2406 33.097L30.2416 33.0965L30.2441 33.0945L30.3223 33.0167L30.398 32.9399L30.3995 32.9389C30.4356 32.9015 30.4707 32.8651 30.5054 32.8282L30.5261 32.8065L30.5464 32.7844L30.5479 32.7824L30.5494 32.7809L30.6236 32.7007L30.6939 32.6219L30.6959 32.6195L30.7661 32.5393L30.8344 32.459L30.8349 32.458L30.8374 32.4551L30.9032 32.3763L30.968 32.2956L30.9774 32.2838L31.0398 32.2045L31.1026 32.1228L31.1061 32.1184L31.16 32.0455L31.2387 32.0903L37.4628 35.6649L37.3119 35.7526L16.88 47.4875C15.6578 48.1894 14.208 48.1471 13.0621 47.5027L12.9977 47.4653L1.30999 40.7527C1.00569 40.5804 0.804799 40.4042 0.678129 40.1778C0.551954 39.9523 0.502474 39.6831 0.50099 39.3262L0.5 25.7351C0.550965 24.4676 1.23379 23.2522 2.41934 22.571L7.62467 19.5811Z" fill="white"/>
<path d="M23.9994 33.7165C20.1345 33.7165 17 30.5817 17 26.7165C17 22.8513 20.1345 19.7165 23.9994 19.7165C27.8655 19.7165 31 22.8513 31 26.7165C31 30.5817 27.8655 33.7165 23.9994 33.7165Z" fill="white"/>
</svg>
