<svg width="48" height="48" viewBox="0 0 48 48" fill="none" xmlns="http://www.w3.org/2000/svg">
<path d="M30.0154 20.8864C30.0154 17.5123 27.32 14.7728 24 14.7728C20.68 14.7728 17.9846 17.5123 17.9846 20.8864C17.9846 24.2606 20.68 27 24 27C27.32 27 30.0154 24.2606 30.0154 20.8864Z" fill="white"/>
<path d="M40.8542 13.6908C38.2546 14.3964 33.4385 17.148 31.1295 18.519C31.2141 18.7817 31.285 19.0508 31.3413 19.3253C31.5676 19.3268 31.8146 19.3277 32.0784 19.3278H32.1777C35.0429 19.3264 39.795 19.2194 42.1476 18.5808C43.4796 18.2192 44.2713 16.8301 43.9144 15.4806C43.6174 14.3579 42.6183 13.614 41.5237 13.6041L41.5083 13.604C41.2923 13.6034 41.0727 13.6314 40.8542 13.6908Z" fill="white"/>
<path d="M5.85243 18.5808C8.4524 19.2865 13.9831 19.343 16.6587 19.3253C16.715 19.0508 16.7859 18.7817 16.8703 18.519C14.5614 17.148 9.74526 14.3964 7.14584 13.6908C5.81374 13.3292 4.44252 14.1312 4.08562 15.4806C3.72871 16.8301 4.52034 18.2192 5.85243 18.5808Z" fill="white"/>
<path d="M7.54752 12.7924C9.78438 14.3068 14.9994 16.1605 17.54 17.0157C17.6801 16.7748 17.833 16.5424 17.9976 16.3194C16.2452 14.2681 12.5606 10.0974 10.3242 8.58327C9.17762 7.80705 7.62469 8.11985 6.85838 9.28142C6.09218 10.443 6.40105 12.0162 7.54752 12.7924Z" fill="white"/>
<path d="M37.6177 8.49959C35.3828 10.0203 31.7033 14.2058 29.9575 16.2592C30.1238 16.4801 30.2786 16.7104 30.4208 16.9493C32.9593 16.0881 38.1704 14.222 40.4039 12.7023C41.5487 11.9233 41.8539 10.3494 41.085 9.18959C40.3161 8.0299 38.7625 7.72074 37.6177 8.49959Z" fill="white"/>
<path d="M11.03 7.82236C12.6594 9.98827 16.9928 13.4521 19.1239 15.0977C19.3336 14.9152 19.5532 14.7441 19.7819 14.5857C18.78 12.0665 16.6332 6.91865 15.0044 4.75362C14.1686 3.64248 12.5994 3.42789 11.5026 4.27479C10.4058 5.12158 10.194 6.71122 11.03 7.82236Z" fill="white"/>
<path d="M32.9759 4.70804C31.3405 6.87901 29.1819 12.0516 28.1827 14.5612C28.409 14.7161 28.6264 14.8833 28.8342 15.0616C30.9607 13.4222 35.3136 9.94962 36.9485 7.77942C37.7851 6.66883 37.5743 5.07908 36.478 4.23152C35.3818 3.38396 33.8125 3.59745 32.9759 4.70804Z" fill="white"/>
<path d="M15.8522 4.29769C16.7087 6.8756 19.7102 11.5564 21.2093 13.8109C21.4661 13.7062 21.7298 13.6153 21.9995 13.5396C21.8479 10.8249 21.4447 5.26008 20.5884 2.68273C20.1486 1.35865 18.7303 0.645523 17.4233 1.09121C16.1163 1.53679 15.4124 2.97361 15.8522 4.29769Z" fill="white"/>
<path d="M27.4083 2.68217C26.5525 5.25964 26.1502 10.8245 25.9992 13.5391C26.2689 13.615 26.5327 13.7057 26.7894 13.8104C28.2882 11.5557 31.2888 6.87439 32.1448 4.29626C32.5845 2.97207 31.8802 1.53547 30.5732 1.09C29.2661 0.644642 27.8481 1.35799 27.4083 2.68217Z" fill="white"/>
<path d="M21.5013 2.53134C21.5013 5.25062 22.8714 10.6546 23.5825 13.2765C23.7207 13.2688 23.8599 13.2649 24 13.2649C24.1401 13.2649 24.2793 13.2688 24.4176 13.2765C25.1287 10.6546 26.4986 5.25062 26.4986 2.53134C26.4986 1.13426 25.379 0 24 0C22.621 0 21.5013 1.13426 21.5013 2.53134Z" fill="white"/>
<path d="M31.3333 45.1454C31.5179 45.3303 31.6217 45.581 31.6217 45.8425V47.0141C31.6217 47.2756 31.5179 47.5263 31.3333 47.7113C31.1486 47.8962 30.8982 48.0001 30.637 48H17.9315C17.6704 48.0001 17.42 47.8962 17.2353 47.7113C17.0506 47.5263 16.9469 47.2756 16.9469 47.0141V45.8425C16.9469 45.581 17.0506 45.3303 17.2353 45.1454C17.42 44.9604 17.6704 44.8566 17.9315 44.8566H30.637C30.8982 44.8566 31.1486 44.9604 31.3333 45.1454Z" fill="white"/>
<path d="M24.7296 30.9934C24.7296 30.9934 29.3642 25.7711 33.7567 23.3035C38.9397 20.3919 46.75 21.068 46.75 21.068C46.75 21.068 40.5383 22.9404 36.7921 28.432C33.4356 33.3523 31.3535 43.5296 31.3535 43.5296C31.3535 43.5296 28.2178 35.8893 24.7296 30.9934Z" fill="white"/>
<path d="M16.9763 43.4203H29.5434C29.5389 43.4108 24.2936 33.0613 20.7146 28.5492C13.3368 19.2479 1.25 21.2491 1.25 21.2491C1.25 21.2491 7.66886 23.8986 10.993 28.1586C12.749 30.4091 13.8847 34.4949 14.5823 37.9352C15.2266 41.1121 16.9763 43.4203 16.9763 43.4203Z" fill="white"/>
</svg>
