<svg width="48" height="48" viewBox="0 0 48 48" fill="none" xmlns="http://www.w3.org/2000/svg">
<path fill-rule="evenodd" clip-rule="evenodd" d="M44.8427 48H24.7593V28.3586C25.0281 25.1931 25.5043 22.2777 26.6722 20.1967C27.3664 20.5863 28.6055 22.309 28.9751 25.6423C29.8811 24.0063 30.9844 22.1722 32.9862 21.009C33.1211 24.6194 32.9062 25.9932 31.8944 28.5066C30.474 32.0352 26.5651 32.8567 26.5651 32.8567V46.1942H43.0369C43.0369 35.3391 43.2417 24.482 43.0352 13.6288C43.0317 13.5199 43.0256 13.4114 43.0166 13.3028C42.9667 12.7787 42.8428 12.2655 42.6375 11.7802C42.1324 10.586 41.1671 9.61259 39.9817 9.09349L39.9801 9.09279C40.3379 8.54469 40.7036 8.05139 41.0654 7.60929C41.7132 7.93869 42.3084 8.37029 42.8228 8.88469C43.5497 9.61149 44.1112 10.4997 44.4528 11.4694C44.7124 12.2065 44.8378 12.9804 44.8427 13.7611V48ZM23.2409 48H3.15747V13.7611C3.16237 12.9804 3.28777 12.2065 3.54737 11.4694C3.88897 10.4997 4.45047 9.61149 5.17737 8.88469C5.69177 8.37029 6.28697 7.93869 6.93477 7.60929C7.29657 8.05139 7.66227 8.54469 8.02007 9.09279L8.01847 9.09349C6.83307 9.61259 5.86777 10.586 5.36267 11.7802C5.15737 12.2655 5.03347 12.7787 4.98357 13.3028C4.97457 13.4114 4.96847 13.5199 4.96497 13.6288C4.75847 24.482 4.96327 35.3391 4.96327 46.1942H21.4351V32.8567C21.4351 32.8567 17.5262 32.0352 16.1058 28.5066C15.094 25.9932 14.8791 24.6194 15.014 21.009C17.0158 22.1722 18.1191 24.0063 19.0251 25.6423C19.3947 22.309 20.6338 20.5863 21.328 20.1967C22.4959 22.2777 22.9721 25.1931 23.2409 28.3586V48ZM42.9817 4.55519C39.8093 6.84139 36.0986 11.8376 35.6613 17.095C35.3052 21.3773 34.5735 23.2484 34.0271 24.0496C34.2692 22.6058 34.2677 20.6425 33.9966 19.0596C33.3903 19.3279 32.3841 19.9462 31.4628 20.8622C31.3483 20.4876 30.4082 18.5632 27.3113 19.4166C27.4603 18.9371 27.6246 18.4628 27.8074 17.9947C28.2447 16.875 28.7741 15.7915 29.3831 14.7543C29.3872 14.7476 29.3911 14.7409 29.3949 14.7341C30.0505 13.6199 30.7979 12.5594 31.6214 11.565C32.3217 10.7192 33.0793 9.91889 33.8904 9.17739C33.9147 9.15859 33.9376 9.13769 33.959 9.11489C34.5499 8.57909 35.169 8.07449 35.8146 7.60629C37.6223 6.29539 39.6635 5.24999 41.8508 4.75539C42.2249 4.67089 42.602 4.60509 42.9817 4.55519ZM5.01847 4.55519C8.19087 6.84139 11.9016 11.8376 12.3389 17.095C12.695 21.3773 13.4267 23.2484 13.9731 24.0496C13.731 22.6058 13.7325 20.6425 14.0036 19.0596C14.6099 19.3279 15.6161 19.9462 16.5374 20.8622C16.6519 20.4876 17.592 18.5632 20.6889 19.4166C20.5399 18.9371 20.3756 18.4628 20.1928 17.9947C19.7555 16.875 19.2261 15.7915 18.6171 14.7543C18.613 14.7476 18.6091 14.7409 18.6053 14.7341C17.9497 13.6199 17.2023 12.5594 16.3788 11.565C15.6785 10.7192 14.9209 9.91889 14.1098 9.17739C14.0855 9.15859 14.0626 9.13769 14.0412 9.11489C13.4503 8.57909 12.8312 8.07449 12.1856 7.60629C10.3779 6.29539 8.33667 5.24999 6.14937 4.75539C5.77527 4.67089 5.39817 4.60509 5.01847 4.55519ZM25.9179 19.8861C25.5706 19.6322 25.0211 19.176 23.9874 19.1792C22.9536 19.1825 22.4174 19.6411 22.0823 19.8861C21.8243 18.2621 20.7576 16.314 19.8204 14.4305C20.2412 13.635 21.4993 10.869 21.835 9.82179C22.7265 7.04109 23.5044 3.63249 24.0001 1.79459C24.4765 3.63759 25.2549 7.16369 26.1652 9.82179C26.5215 10.8622 27.759 13.635 28.1798 14.4305C27.2426 16.314 26.1759 18.2621 25.9179 19.8861ZM31.5897 1.22859C31.5731 1.39289 31.5506 1.55669 31.5219 1.71979C31.4817 1.94829 31.4302 2.17459 31.3683 2.39809C30.8589 4.23769 29.6749 5.80259 28.3903 7.17789C28.1518 7.43319 27.9081 7.68359 27.6621 7.93159C27.4304 8.16509 27.1964 8.39639 26.9627 8.62779C27.3446 9.74839 27.7853 10.8487 28.2798 11.9243C28.4814 12.3627 28.6924 12.7964 28.9112 13.2262C29.5317 12.2664 30.2177 11.3488 30.9599 10.4814C31.5256 9.82039 32.1251 9.18709 32.7569 8.58789C32.2782 7.67899 32.0037 6.67229 31.829 5.66259C31.5763 4.20119 31.5272 2.71009 31.5897 1.22859ZM16.4105 1.22859C16.4271 1.39289 16.4496 1.55669 16.4783 1.71979C16.5185 1.94829 16.57 2.17459 16.6319 2.39809C17.1413 4.23769 18.3253 5.80259 19.6099 7.17789C19.8484 7.43319 20.0921 7.68359 20.3381 7.93159C20.5698 8.16509 20.8038 8.39639 21.0375 8.62779C20.6556 9.74839 20.2149 10.8487 19.7204 11.9243C19.5188 12.3627 19.3078 12.7964 19.089 13.2262C18.4685 12.2664 17.7825 11.3488 17.0403 10.4814C16.4746 9.82039 15.8751 9.18709 15.2433 8.58789C15.722 7.67899 15.9965 6.67229 16.1712 5.66259C16.4239 4.20119 16.473 2.71009 16.4105 1.22859ZM32.9308 3.22739C33.1707 1.32319 35.3219 1.18269 36.6484 1.62689C38.5546 2.26529 39.2121 4.04589 37.681 5.03469C36.9421 5.51189 36.1483 5.90119 35.4298 6.40259C34.8263 6.82379 34.2442 7.27519 33.6844 7.75299L33.6754 7.73329C33.0307 5.66069 32.7968 4.29069 32.9308 3.22739ZM15.0694 3.22739C14.8295 1.32319 12.6783 1.18269 11.3518 1.62689C9.44557 2.26529 8.78807 4.04589 10.3192 5.03469C11.0581 5.51189 11.8519 5.90119 12.5704 6.40259C13.1739 6.82379 13.756 7.27519 14.3158 7.75299L14.3248 7.73329C14.9695 5.66069 15.2034 4.29069 15.0694 3.22739ZM25.4582 2.33879C25.2373 0.834591 26.8116 -0.146709 27.9377 0.0179909C28.6778 0.126191 30.6864 0.639091 30.1218 2.36189C29.9017 3.03359 29.5742 3.66849 29.1898 4.26089C28.5168 5.29789 27.6729 6.20649 26.8075 7.08359C26.7225 7.16879 26.6373 7.25379 26.5521 7.33869C26.2174 6.21039 25.9413 5.06489 25.7214 3.90869C25.6222 3.38719 25.5353 2.86379 25.4582 2.33879ZM22.542 2.33879C22.7629 0.834591 21.1886 -0.146709 20.0625 0.0179909C19.3224 0.126191 17.3138 0.639091 17.8784 2.36189C18.0985 3.03359 18.426 3.66849 18.8104 4.26089C19.4834 5.29789 20.3273 6.20649 21.1927 7.08359C21.2777 7.16879 21.3629 7.25379 21.4481 7.33869C21.7828 6.21039 22.0589 5.06489 22.2788 3.90869C22.378 3.38719 22.4649 2.86379 22.542 2.33879Z" fill="white"/>
</svg>
