<svg width="48" height="48" viewBox="0 0 48 48" fill="none" xmlns="http://www.w3.org/2000/svg">
<path fill-rule="evenodd" clip-rule="evenodd" d="M44.8427 48H24.7593V28.3586C25.0281 25.1931 25.5043 22.2777 26.6722 20.1967C27.3664 20.5863 28.6055 22.309 28.9751 25.6423C29.8811 24.0063 30.9844 22.1722 32.9862 21.009C33.1211 24.6194 32.9062 25.9932 31.8944 28.5066C30.474 32.0352 26.5651 32.8567 26.5651 32.8567V46.1942H43.0369C43.0369 35.3391 43.2417 24.482 43.0352 13.6288C43.0317 13.5199 43.0256 13.4114 43.0166 13.3028C42.9667 12.7787 42.8428 12.2655 42.6375 11.7802C42.1324 10.586 41.1671 9.61264 39.9817 9.09354L39.9801 9.09284C40.3379 8.54474 40.7036 8.05144 41.0654 7.60934C41.7132 7.93874 42.3084 8.37034 42.8228 8.88474C43.5497 9.61154 44.1112 10.4997 44.4528 11.4694C44.7124 12.2065 44.8378 12.9804 44.8427 13.7611V48ZM23.2409 48H3.15747V13.7611C3.16237 12.9804 3.28777 12.2065 3.54737 11.4694C3.88897 10.4997 4.45047 9.61154 5.17737 8.88474C5.69177 8.37034 6.28697 7.93874 6.93477 7.60934C7.29657 8.05144 7.66227 8.54474 8.02007 9.09284L8.01847 9.09354C6.83307 9.61264 5.86777 10.586 5.36267 11.7802C5.15737 12.2655 5.03347 12.7787 4.98357 13.3028C4.97457 13.4114 4.96847 13.5199 4.96497 13.6288C4.75847 24.482 4.96327 35.3391 4.96327 46.1942H21.4351V32.8567C21.4351 32.8567 17.5262 32.0352 16.1058 28.5066C15.094 25.9932 14.8791 24.6194 15.014 21.009C17.0158 22.1722 18.1191 24.0063 19.0251 25.6423C19.3947 22.309 20.6338 20.5863 21.328 20.1967C22.4959 22.2777 22.9721 25.1931 23.2409 28.3586V48ZM31.5897 1.22864C31.5731 1.39294 31.5506 1.55674 31.5219 1.71984C31.4817 1.94834 31.4302 2.17464 31.3683 2.39814C30.8589 4.23774 29.6749 5.80264 28.3903 7.17794C28.1518 7.43324 27.9081 7.68364 27.6621 7.93164C27.4304 8.16514 27.1964 8.39644 26.9627 8.62784C27.3446 9.74844 27.7853 10.8487 28.2798 11.9243C28.4814 12.3627 28.6924 12.7964 28.9112 13.2262C29.5317 12.2664 30.2177 11.3488 30.9599 10.4814C31.5256 9.82044 32.1251 9.18714 32.7569 8.58794C32.2782 7.67904 32.0037 6.67234 31.829 5.66264C31.5763 4.20124 31.5272 2.71014 31.5897 1.22864ZM16.4105 1.22864C16.4271 1.39294 16.4496 1.55674 16.4783 1.71984C16.5185 1.94834 16.57 2.17464 16.6319 2.39814C17.1413 4.23774 18.3253 5.80264 19.6099 7.17794C19.8484 7.43324 20.0921 7.68364 20.3381 7.93164C20.5698 8.16514 20.8038 8.39644 21.0375 8.62784C20.6556 9.74844 20.2149 10.8487 19.7204 11.9243C19.5188 12.3627 19.3078 12.7964 19.089 13.2262C18.4685 12.2664 17.7825 11.3488 17.0403 10.4814C16.4746 9.82044 15.8751 9.18714 15.2433 8.58794C15.722 7.67904 15.9965 6.67234 16.1712 5.66264C16.4239 4.20124 16.473 2.71014 16.4105 1.22864Z" fill="#B27D53"/>
<path fill-rule="evenodd" clip-rule="evenodd" d="M42.9815 4.55519C39.8091 6.84139 36.0984 11.8376 35.6611 17.095C35.305 21.3773 34.5733 23.2484 34.0269 24.0496C34.269 22.6058 34.2675 20.6425 33.9964 19.0596C33.3901 19.3279 32.3839 19.9462 31.4626 20.8622C31.3481 20.4876 30.408 18.5632 27.3111 19.4166C27.4601 18.9371 27.6244 18.4628 27.8072 17.9947C28.2445 16.875 28.7739 15.7915 29.3829 14.7543C29.387 14.7476 29.3909 14.7409 29.3947 14.7341C30.0503 13.6199 30.7977 12.5594 31.6212 11.565C32.3215 10.7192 33.0791 9.91889 33.8902 9.17739C33.9145 9.15859 33.9374 9.13769 33.9588 9.11489C34.5497 8.57909 35.1688 8.07449 35.8144 7.60629C37.6221 6.29539 39.6633 5.24999 41.8506 4.75539C42.2247 4.67089 42.6018 4.60509 42.9815 4.55519ZM5.01831 4.55519C8.19071 6.84139 11.9014 11.8376 12.3387 17.095C12.6948 21.3773 13.4265 23.2484 13.9729 24.0496C13.7308 22.6058 13.7323 20.6425 14.0034 19.0596C14.6097 19.3279 15.6159 19.9462 16.5372 20.8622C16.6517 20.4876 17.5918 18.5632 20.6887 19.4166C20.5397 18.9371 20.3754 18.4628 20.1926 17.9947C19.7553 16.875 19.2259 15.7915 18.6169 14.7543C18.6128 14.7476 18.6089 14.7409 18.6051 14.7341C17.9495 13.6199 17.2021 12.5594 16.3786 11.565C15.6783 10.7192 14.9207 9.91889 14.1096 9.17739C14.0853 9.15859 14.0624 9.13769 14.041 9.11489C13.4501 8.57909 12.831 8.07449 12.1854 7.60629C10.3777 6.29539 8.33651 5.24999 6.14921 4.75539C5.77511 4.67089 5.39801 4.60509 5.01831 4.55519ZM25.9177 19.8861C25.5704 19.6322 25.0209 19.176 23.9872 19.1792C22.9534 19.1825 22.4172 19.6411 22.0821 19.8861C21.8241 18.2621 20.7574 16.314 19.8202 14.4305C20.241 13.635 21.4991 10.869 21.8348 9.82179C22.7263 7.04109 23.5042 3.63249 23.9999 1.79459C24.4763 3.63759 25.2547 7.16369 26.165 9.82179C26.5213 10.8622 27.7588 13.635 28.1796 14.4305C27.2424 16.314 26.1757 18.2621 25.9177 19.8861ZM32.9306 3.22739C33.1705 1.32319 35.3217 1.18269 36.6482 1.62689C38.5544 2.26529 39.2119 4.04589 37.6808 5.03469C36.9419 5.51189 36.1481 5.90119 35.4296 6.40259C34.8261 6.82379 34.244 7.27519 33.6842 7.75299L33.6752 7.73329C33.0305 5.66069 32.7966 4.29069 32.9306 3.22739ZM15.0692 3.22739C14.8293 1.32319 12.6781 1.18269 11.3516 1.62689C9.44541 2.26529 8.78791 4.04589 10.319 5.03469C11.0579 5.51189 11.8517 5.90119 12.5702 6.40259C13.1737 6.82379 13.7558 7.27519 14.3156 7.75299L14.3246 7.73329C14.9693 5.66069 15.2032 4.29069 15.0692 3.22739ZM25.458 2.33879C25.2371 0.834591 26.8114 -0.146709 27.9375 0.0179909C28.6776 0.126191 30.6862 0.639091 30.1216 2.36189C29.9015 3.03359 29.574 3.66849 29.1896 4.26089C28.5166 5.29789 27.6727 6.20649 26.8073 7.08359C26.7223 7.16879 26.6371 7.25379 26.5519 7.33869C26.2172 6.21039 25.9411 5.06489 25.7212 3.90869C25.622 3.38719 25.5351 2.86379 25.458 2.33879ZM22.5418 2.33879C22.7627 0.834591 21.1884 -0.146709 20.0623 0.0179909C19.3222 0.126191 17.3136 0.639091 17.8782 2.36189C18.0983 3.03359 18.4258 3.66849 18.8102 4.26089C19.4832 5.29789 20.3271 6.20649 21.1925 7.08359C21.2775 7.16879 21.3627 7.25379 21.4479 7.33869C21.7826 6.21039 22.0587 5.06489 22.2786 3.90869C22.3778 3.38719 22.4647 2.86379 22.5418 2.33879Z" fill="black"/>
</svg>
