<svg width="48" height="48" viewBox="0 0 48 48" fill="none" xmlns="http://www.w3.org/2000/svg">
<path fill-rule="evenodd" clip-rule="evenodd" d="M27.0228 0.207397C38.7799 1.69567 47.9221 11.7751 47.9221 23.9205C47.9221 37.0854 37.1806 47.8228 24.0106 47.8228C10.8408 47.8228 0.0991211 37.0854 0.0991211 23.9205C0.0991211 20.4976 0.825267 17.2388 2.13144 14.2901L3.36737 15.8788L3.43927 15.9674C3.43927 15.9674 3.67421 16.2445 3.9535 16.4859C4.20889 16.7037 4.53618 16.9 4.76667 16.9947C4.94267 17.0655 5.11745 17.1264 5.30115 17.1619C6.11026 17.3207 6.94044 17.3112 7.54135 17.2838C8.01932 17.2622 8.35998 17.2356 8.35998 17.2356C11.4844 17.0897 12.6798 18.4977 13.4925 19.4559C14.2377 20.332 21.5292 30.0433 21.5292 30.0433L25.1545 26.4146C25.1545 26.4146 22.1105 22.5349 20.76 20.7956C19.2503 18.8522 18.1566 17.4554 17.4893 16.8919C16.0315 15.6635 12.8074 15.5178 12.0693 15.391C12.0693 15.391 9.34773 15.0584 7.72363 13.3933C7.34125 13.0013 7.07613 12.655 7.07613 12.655L4.74384 9.79132C5.34114 8.9802 5.98835 8.20788 6.68087 7.47895L9.19623 10.7176C9.68697 11.3435 9.95492 11.7065 10.4507 12.2006C11.7135 13.4605 13.4976 13.6309 13.4976 13.6309C17.2187 14.3005 19.2507 14.477 20.4301 15.843C21.8453 17.481 22.1188 17.8557 23.3016 19.3802C23.7374 19.9419 27.1576 24.4122 27.1576 24.4122L30.6705 20.893C30.6705 20.893 28.4213 17.9963 27.115 16.2796C26.4758 15.4388 25.4632 14.1264 24.7166 13.5908C23.1772 12.4888 21.8071 12.6524 20.411 12.5045C19.2118 12.3765 18.1056 12.3521 16.6672 11.6676C16.6672 11.6676 16.0452 11.5292 14.7614 9.87603C13.4759 8.22426 13.1156 7.74527 13.1156 7.74527L10.36 4.31409C11.1712 3.74755 12.0189 3.22994 12.8988 2.7656L15.6143 6.28651L16.9704 8.05344C18.9242 10.5472 20.1874 10.5759 21.4895 10.7289C23.5553 10.9738 25.5004 10.8431 27.1827 12.1111C28.1562 12.8444 28.665 13.6224 29.3653 14.5242C30.4228 15.8849 32.7021 18.849 32.7021 18.849L36.218 15.3287C36.218 15.3287 34.1939 12.7133 33.4075 11.7196C33.1466 11.3911 32.6984 10.9748 32.0347 10.5442C30.9856 9.86191 29.9383 9.65216 27.2517 9.25566C24.566 8.85956 23.6928 8.39347 22.4238 7.00591C21.8172 6.34218 21.4812 5.87125 21.0727 5.34487L17.5556 0.905297C18.6523 0.596809 19.7806 0.364865 20.9341 0.215643L23.3305 3.52248C24.1348 4.49781 24.8521 5.76759 26.8941 6.67697C29.3514 7.77109 31.2074 7.51455 32.8896 7.94917C32.8896 7.94917 33.3479 8.0607 33.8526 8.28214C34.3879 8.51831 34.7363 8.87085 35.0711 9.2486C35.6272 9.87603 36.1143 10.4877 36.2257 10.6317C36.2486 10.6602 38.3114 13.231 38.3114 13.231L41.7862 9.75361C41.7862 9.75361 40.984 8.72887 40.3476 7.92456C39.9537 7.42702 39.7822 7.24772 39.4516 7.04584C39.1902 6.88672 38.8623 6.72819 38.4197 6.62352C37.9144 6.50574 37.2248 6.41841 36.0351 6.37041C32.9022 6.24577 31.7447 5.9967 29.751 3.61001L28.2717 1.81626L27.0228 0.207397Z" fill="#14763E"/>
</svg>
