<svg width="48" height="48" viewBox="0 0 48 48" fill="none" xmlns="http://www.w3.org/2000/svg">
<path d="M31.8103 47.9992H47.5V8.12359C42.014 -4.84106 22.5335 0.357977 21.1418 5.61712C25.9597 2.92621 29.9696 2.38214 31.8103 6.65234V47.9992Z" fill="#2D2A68"/>
<path d="M16.1897 0.000699788H0.5V39.8764C5.98602 52.8411 25.4665 47.642 26.8581 42.3829C22.0401 45.0738 18.0304 45.6179 16.1897 41.3475V0.000699788Z" fill="#2D2A68"/>
<path d="M31.6847 23.9999C31.6847 28.2042 28.2326 31.6332 23.9999 31.6332C19.7674 31.6332 16.3152 28.2042 16.3152 23.9999C16.3152 19.7958 19.7674 16.3667 23.9999 16.3667C28.2326 16.3667 31.6847 19.7958 31.6847 23.9999Z" fill="#2D2A68"/>
</svg>
