<svg width="48" height="48" viewBox="0 0 48 48" fill="none" xmlns="http://www.w3.org/2000/svg">
<path fill-rule="evenodd" clip-rule="evenodd" d="M15.1109 43.7199C15.229 43.6337 15.3452 43.5453 15.4584 43.4531C15.6995 43.2566 15.9282 43.0445 16.1395 42.8162C16.2379 42.7099 16.3325 42.6002 16.4229 42.4869C16.4952 42.3963 16.5646 42.3031 16.6333 42.2095C16.7498 42.0507 16.8626 41.8889 16.9714 41.7245C17.276 41.2643 17.5501 40.784 17.7937 40.2887C17.9108 40.0507 18.0203 39.8091 18.1238 39.5649C18.1443 39.5162 18.1646 39.4673 18.1846 39.4184C18.1913 39.4021 18.2045 39.3694 18.2045 39.3694C18.3989 39.569 18.5976 39.7642 18.8012 39.9544C19.3244 40.443 19.8768 40.8999 20.4512 41.3266C20.6643 41.4849 20.8804 41.639 21.0994 41.7891C21.2189 41.871 21.3389 41.9522 21.4607 42.0306C21.6244 42.1361 21.7913 42.2367 21.9607 42.3328C22.3363 42.5458 22.7241 42.7369 23.1192 42.9107C23.2825 42.9825 23.4473 43.0509 23.6128 43.1176C23.6687 43.1397 23.7247 43.1618 23.7808 43.1837C22.9629 44.9821 21.5448 46.5334 20.0993 47.75C18.2027 46.5681 16.3946 45.21 15.1109 43.7199ZM4.1528 35.6178C4.2662 35.6614 4.3802 35.7025 4.4956 35.74C4.7383 35.8186 4.9861 35.8824 5.2374 35.9271C5.3529 35.9478 5.4691 35.9644 5.5858 35.9767C5.6926 35.988 5.7997 35.9953 5.9069 36.0014C6.0495 36.0096 6.1923 36.0148 6.3351 36.017C6.7884 36.0242 7.2422 36.0014 7.6924 35.9484C7.8879 35.9253 8.0824 35.8959 8.2763 35.8622C8.3591 35.8472 8.359 35.8472 8.4417 35.8315C8.3995 36.0457 8.3609 36.2603 8.328 36.4761C8.256 36.9493 8.2083 37.4261 8.1842 37.9041C8.171 38.1652 8.1649 38.4265 8.1658 38.6879C8.1664 38.891 8.171 39.0938 8.1859 39.2965C8.2183 39.7372 8.2919 40.1731 8.3919 40.6031C8.4062 40.6631 8.4209 40.7229 8.436 40.7827C8.5621 40.7654 8.6878 40.746 8.8129 40.7224C9.0781 40.6722 9.3403 40.6057 9.5962 40.5193C9.7149 40.4793 9.8323 40.435 9.9478 40.3863C10.0402 40.3472 10.1315 40.3051 10.2223 40.2625C10.3488 40.2031 10.4742 40.1414 10.5983 40.0773C11.1759 39.7791 11.7255 39.4294 12.244 39.0372C12.3054 38.9905 12.3664 38.9432 12.427 38.8954C12.4874 38.8473 12.5474 38.7988 12.6071 38.7498C12.6803 39.013 12.7587 39.2747 12.845 39.5338C13.0355 40.106 13.2595 40.6669 13.5141 41.2134C13.5993 41.3965 13.688 41.5779 13.7801 41.7577C13.8359 41.8667 13.8924 41.9756 13.9517 42.0828C14.0279 42.2209 14.1082 42.3567 14.1922 42.4901C14.4272 42.8635 14.6909 43.2172 14.9722 43.5568C15.0181 43.6114 15.0644 43.6659 15.1109 43.7199C13.7875 44.6706 12.1477 45.2287 10.6257 45.5448C9.6845 44.0376 8.8459 42.3854 8.436 40.7827C7.5641 40.8951 6.6481 40.846 5.7584 40.6993C5.2163 40.6113 4.6805 40.4877 4.1681 40.343C3.9591 38.7887 3.8854 37.1114 4.1528 35.6178ZM23.7808 43.1837C23.8526 43.0234 23.9212 42.8616 23.9838 42.6975C24.1173 42.3481 24.2272 41.9894 24.3081 41.6241C24.3485 41.4419 24.3817 41.2581 24.4071 41.0732C24.43 40.9066 24.446 40.739 24.4603 40.5714C24.4783 40.3611 24.4917 40.1505 24.5005 39.9397C24.5277 39.2942 24.5123 38.6468 24.4538 38.0033C24.4278 37.717 24.3927 37.4317 24.3502 37.1473C24.3378 37.0667 24.3248 36.9861 24.3114 36.9057L24.381 36.9245L24.4509 36.9433C24.7849 37.0316 25.1205 37.1133 25.4579 37.1871C26.3091 37.3735 27.17 37.514 28.0353 37.6151C28.342 37.6509 28.6492 37.6818 28.9568 37.7079C29.16 37.7252 29.3634 37.7413 29.567 37.7527C29.8208 37.767 30.075 37.7744 30.3291 37.7757C30.9138 37.7787 31.4985 37.7495 32.0806 37.6956C32.3536 37.6703 32.6258 37.6388 32.8978 37.604C33.3328 40.0194 32.8979 42.5891 32.1644 44.8508C30.9606 44.7507 29.7715 44.6126 28.6277 44.4261C26.8766 44.1423 25.2258 43.7422 23.7808 43.1837ZM12.9871 38.4179C13.2157 38.2087 13.4352 37.9898 13.6474 37.7636C13.9113 37.4825 14.1641 37.1907 14.4048 36.8894C14.5956 36.6503 14.7791 36.4052 14.9508 36.1519C15.1104 35.9164 15.2603 35.6739 15.3851 35.4179C15.3981 35.3903 15.4109 35.3627 15.4233 35.3349C15.5263 35.6013 15.6531 35.8578 15.7878 36.1094C15.9551 36.4219 16.1364 36.727 16.3271 37.0257C16.5742 37.4127 16.8378 37.7893 17.1188 38.1523C17.3409 38.4393 17.5741 38.7176 17.8218 38.9825L17.7219 39.2287L17.7025 39.2758C17.5915 39.5432 17.473 39.8074 17.3452 40.0672C17.1185 40.528 16.8646 40.9753 16.583 41.4046C16.4699 41.5771 16.3524 41.7467 16.2304 41.913C16.1321 42.0468 16.0318 42.1791 15.9241 42.3055C15.7257 42.5384 15.5074 42.7525 15.2764 42.9528C15.2468 42.978 15.2173 43.0033 15.1872 43.028C14.9291 42.7043 14.692 42.3624 14.4828 42.005C14.3916 41.8492 14.3072 41.6897 14.225 41.5291C14.1277 41.3392 14.0344 41.1473 13.9449 40.9537C13.7217 40.47 13.5231 39.9749 13.3514 39.4705C13.266 39.2197 13.1881 38.9664 13.1155 38.7115L13.0674 38.5385L12.9871 38.4179ZM18.4061 38.8599L18.4086 38.8529C18.549 38.4568 18.6702 38.0539 18.7712 37.6458C18.9374 36.9746 19.0489 36.2894 19.0989 35.5995C19.1206 35.3004 19.1297 35.001 19.1285 34.7011C19.128 34.6517 19.1273 34.6023 19.1265 34.5528C19.4426 34.763 19.7635 34.9657 20.0911 35.1575C20.5933 35.4514 21.1101 35.7204 21.64 35.9605C22.1862 36.208 22.746 36.4247 23.3157 36.6114C23.4695 36.6618 23.6241 36.7098 23.7793 36.7557L23.8282 37.0476L23.8376 37.1059C23.8779 37.3598 23.912 37.6147 23.9386 37.8704C24.007 38.5302 24.0284 39.1949 24.0034 39.8577C23.9942 40.1021 23.9786 40.3463 23.9568 40.5898C23.9382 40.7974 23.9154 41.0044 23.8801 41.2097C23.8026 41.6621 23.6763 42.1064 23.5108 42.5341L23.4776 42.5201C23.3212 42.453 23.1656 42.3841 23.0116 42.3117C22.69 42.1608 22.3745 41.9968 22.0682 41.8166C21.9544 41.7498 21.842 41.6808 21.7311 41.6094C21.595 41.5216 21.461 41.4305 21.3277 41.3386C21.0626 41.1556 20.8017 40.9665 20.5456 40.7712C19.8894 40.2704 19.2653 39.7279 18.683 39.1425C18.5902 39.0487 18.498 38.9544 18.4061 38.8599ZM8.9746 35.7144C9.4761 35.5878 9.9672 35.4188 10.4446 35.2204C10.6867 35.1197 10.9255 35.0108 11.1598 34.8929C11.4788 34.7324 11.789 34.5549 12.0842 34.3535C12.1281 34.3229 12.128 34.323 12.1716 34.2919C12.1363 34.5807 12.1247 34.8717 12.1243 35.1626C12.1238 35.4959 12.1381 35.8293 12.1628 36.1616C12.1914 36.546 12.2342 36.9292 12.2924 37.3102C12.3389 37.615 12.3956 37.918 12.4658 38.218L12.2549 38.3913C12.0603 38.55 11.861 38.7026 11.6562 38.8479C11.2703 39.1217 10.8666 39.3704 10.4481 39.5909C10.3038 39.667 10.1579 39.7396 10.0103 39.8088C9.8815 39.8692 9.752 39.9277 9.6192 39.9788C9.3595 40.0786 9.0904 40.1558 8.8177 40.2108L8.8166 40.2053C8.7511 39.8748 8.7027 39.5413 8.6808 39.2049C8.6695 39.0322 8.6663 38.8592 8.6657 38.6862C8.6651 38.4966 8.6683 38.3068 8.6753 38.1173C8.6914 37.6843 8.7274 37.252 8.7839 36.8224C8.8116 36.6124 8.8448 36.4033 8.8816 36.1947C8.8924 36.1358 8.9034 36.077 8.9146 36.0181L8.9746 35.7144ZM15.7234 34.7245C16.1532 33.7715 16.4213 32.7806 16.5049 31.7976C17.0162 32.6587 17.7309 33.4582 18.6198 34.17L18.6278 34.6339C18.6291 34.7523 18.6291 34.8708 18.6268 34.9893C18.6211 35.2774 18.6038 35.5653 18.5755 35.8521C18.5126 36.4908 18.3954 37.1238 18.2297 37.7437C18.1659 37.9825 18.0944 38.2192 18.0168 38.4539L17.9966 38.431C17.923 38.3469 17.8502 38.2622 17.7789 38.1763C17.5804 37.937 17.3912 37.69 17.2099 37.4375C17.0041 37.1507 16.8084 36.8567 16.6231 36.5563C16.4737 36.314 16.331 36.0675 16.1982 35.8156C16.0911 35.6127 15.9902 35.4063 15.9047 35.1932L15.7234 34.7245ZM12.7249 33.8866C13.476 33.293 14.1234 32.5922 14.6336 31.804C14.6405 32.7523 14.8233 33.7211 15.1661 34.6829L14.9584 35.1493L14.9511 35.1655C14.8607 35.3581 14.7522 35.5414 14.6368 35.72C14.5091 35.9177 14.3726 36.1096 14.231 36.2974C14.0266 36.5684 13.8113 36.8312 13.5871 37.0859C13.3641 37.3395 13.1322 37.5853 12.8905 37.8211L12.8888 37.8131C12.7685 37.2082 12.691 36.5952 12.6514 35.9797C12.6353 35.7292 12.6255 35.4781 12.6244 35.227C12.6233 34.9813 12.6306 34.7357 12.6526 34.491C12.6572 34.445 12.6571 34.4451 12.6622 34.3991L12.7249 33.8866ZM38.6892 26.7607C41.0905 28.7479 42.7487 31.5257 43.866 34.3129C40.0817 35.9049 36.2746 37.1644 32.8978 37.604L32.8897 37.559C32.8446 37.3196 32.7919 37.0819 32.7294 36.8465C32.6048 36.378 32.4433 35.9189 32.2418 35.4779C32.1725 35.3261 32.0984 35.1764 32.0196 35.0291C31.9428 34.8857 31.8617 34.7446 31.7794 34.6043C31.6005 34.2991 31.4123 33.9996 31.215 33.7061C30.814 33.1096 30.376 32.5381 29.9044 31.9959C29.6812 31.7392 29.4501 31.4897 29.2128 31.2461C29.1622 31.1945 29.1113 31.1432 29.0602 31.0921C29.4672 30.9869 29.8723 30.8743 30.2749 30.7531C31.1965 30.4759 32.1056 30.1577 33.001 29.8048C33.478 29.6168 33.9512 29.4188 34.4204 29.2118C34.6418 29.1141 34.8628 29.015 35.0819 28.9119C35.3041 28.8074 35.5242 28.6985 35.7423 28.5857C36.6642 28.1088 37.5474 27.5606 38.3986 26.9667C38.4957 26.8986 38.5926 26.8299 38.6892 26.7607ZM28.4919 31.2313L28.7571 31.4968L28.8065 31.5466L28.8557 31.5968C29.0863 31.8333 29.3107 32.0756 29.5275 32.3249C30.0174 32.8883 30.4702 33.4843 30.8814 34.1077C31.0436 34.3536 31.1993 34.6038 31.3483 34.8579C31.4273 34.9927 31.5053 35.1282 31.579 35.266C31.6394 35.3788 31.6968 35.4932 31.7513 35.609C31.9865 36.109 32.1656 36.6339 32.2957 37.1709L32.261 37.1746C32.0363 37.1972 31.8115 37.2176 31.5862 37.2331C31.0804 37.2682 30.5731 37.2826 30.0661 37.2711C29.8917 37.2672 29.7174 37.26 29.5432 37.2496C29.3617 37.2387 29.1803 37.2243 28.9991 37.2088C28.5891 37.174 28.1797 37.1305 27.7716 37.078C27.0066 36.9796 26.2455 36.8492 25.4925 36.6819C25.1866 36.6139 24.8823 36.5393 24.5794 36.4592C24.4646 36.4284 24.3499 36.3975 24.2353 36.3663C24.1668 35.9917 24.0683 35.6224 23.9542 35.2592C23.7703 34.6735 23.5443 34.1009 23.2911 33.5419C23.137 33.2018 22.9725 32.8661 22.7939 32.5383C22.7299 32.421 22.664 32.3046 22.595 32.1902C22.5297 32.0818 22.462 31.9744 22.3857 31.8735C22.3728 31.8568 22.3597 31.8404 22.3461 31.8243L22.4161 31.8289L22.4864 31.8333C22.8245 31.8527 23.1631 31.8631 23.5018 31.8622C24.1264 31.8604 24.7509 31.8244 25.3722 31.7617C26.203 31.6777 27.0288 31.5454 27.8461 31.3748C28.0621 31.3297 28.2773 31.2817 28.4919 31.2313ZM19.0961 33.9318C19.0064 32.7949 18.7324 31.7285 18.2745 30.7934C19.225 31.2771 20.3557 31.6022 21.6329 31.7567L21.9714 32.1561L21.9762 32.1621C21.9824 32.1698 21.9824 32.1698 21.9884 32.1776C22.043 32.2499 22.0919 32.3266 22.1394 32.4038C22.2028 32.5068 22.263 32.6117 22.3215 32.7175C22.4779 32.9999 22.6224 33.2891 22.7589 33.5816C22.9435 33.9774 23.1132 34.3805 23.2649 34.7901C23.4361 35.2528 23.5847 35.7245 23.6927 36.2061L23.6426 36.1904C23.3881 36.1094 23.1352 36.0236 22.8846 35.9309C22.4803 35.7813 22.0821 35.6152 21.6913 35.433C21.2567 35.2303 20.8315 35.0077 20.4164 34.7676C20.1958 34.6398 19.9784 34.5069 19.7631 34.3704C19.6909 34.3243 19.619 34.2778 19.5473 34.231C19.3966 34.1317 19.2462 34.0318 19.0961 33.9318ZM2.4061 29.0028C2.6822 29.3206 2.9797 29.6192 3.3081 29.8827C3.4042 29.9598 3.5027 30.0338 3.6037 30.1045C3.6808 30.1583 3.7594 30.21 3.8384 30.261C3.9616 30.3405 4.0864 30.4175 4.2127 30.4922C4.5834 30.711 4.967 30.9078 5.3614 31.0803C5.5668 31.1702 5.7753 31.2524 5.9858 31.3296C6.0642 31.3576 6.0642 31.3576 6.1428 31.385C5.9994 31.576 5.8604 31.7702 5.7276 31.9688C5.4568 32.374 5.2098 32.795 4.9868 33.2284C4.9016 33.394 4.8199 33.5614 4.7417 33.7304C4.7002 33.8201 4.6593 33.9101 4.6209 34.0013C4.5782 34.1026 4.5382 34.205 4.5007 34.3084C4.366 34.6797 4.2649 35.0618 4.1855 35.4485C4.1743 35.5048 4.1634 35.5612 4.1528 35.6178C2.8771 35.1279 1.6494 34.219 0.5926 33.249C0.9916 31.7794 1.5686 30.2355 2.4061 29.0028ZM6.6357 31.5618C6.7938 31.6097 6.9541 31.6506 7.1156 31.6859C7.3538 31.7381 7.5945 31.7785 7.8362 31.8099C8.1153 31.8462 8.3959 31.8705 8.6769 31.8844C9.0172 31.9012 9.3582 31.9025 9.6986 31.8864C9.7463 31.8839 9.794 31.881 9.8417 31.8779C9.886 31.8747 9.9303 31.8712 9.9746 31.8673L9.9413 31.9215C9.8302 32.1044 9.7238 32.2899 9.6233 32.4788C9.3864 32.9245 9.1802 33.3865 9.0033 33.8592C8.8606 34.2405 8.7369 34.629 8.6316 35.0223C8.6069 35.1143 8.5834 35.2064 8.5609 35.2989L8.2678 35.3547C8.0575 35.393 7.8464 35.4258 7.634 35.4509C7.2058 35.5013 6.7741 35.523 6.343 35.5162C6.2071 35.5141 6.0712 35.5091 5.9355 35.5013C5.8063 35.4939 5.6772 35.4844 5.5488 35.4682C5.2721 35.4332 4.9983 35.372 4.7319 35.2894L4.7331 35.2843C4.8101 34.9624 4.9039 34.6448 5.0246 34.3364C5.0878 34.1747 5.1595 34.0165 5.2334 33.8594C5.3097 33.6975 5.3893 33.5373 5.4722 33.3789C5.6623 33.0158 5.87 32.662 6.0952 32.3197C6.19 32.1756 6.2883 32.0339 6.3888 31.8938C6.4392 31.8246 6.4392 31.8247 6.4901 31.7557L6.6357 31.5618ZM10.6125 31.7842C11.4956 31.6334 12.3447 31.3364 13.1205 30.8947C12.6948 31.7243 12.4064 32.6449 12.2544 33.6188L11.8409 33.9128C11.4689 34.1719 11.0688 34.3885 10.6582 34.5794C10.1588 34.8116 9.6417 35.0052 9.1128 35.1585L9.1145 35.1521C9.2556 34.6306 9.4274 34.1179 9.6362 33.6195C9.7732 33.2925 9.9255 32.9719 10.0937 32.66C10.1712 32.5163 10.2523 32.375 10.3362 32.235C10.4276 32.0843 10.5199 31.9342 10.6125 31.7842ZM9.729 28.8284C10.5609 29.1562 11.4246 29.3278 12.2866 29.3236C11.5472 29.8579 10.8875 30.5424 10.3271 31.3342L9.8904 31.3719L9.8493 31.3751C9.6025 31.3931 9.3549 31.3991 9.1074 31.3964C8.85 31.3936 8.5927 31.3814 8.3363 31.3597C8.0654 31.3369 7.7952 31.3034 7.5274 31.2565C7.3436 31.2243 7.1604 31.1863 6.9799 31.1385L6.9854 31.132C7.082 31.0191 7.1802 30.9076 7.2808 30.7983C7.5207 30.5379 7.7729 30.2886 8.0371 30.053C8.2792 29.837 8.5312 29.6323 8.7929 29.4408C8.9212 29.3469 9.052 29.2568 9.1845 29.1691C9.234 29.1368 9.2836 29.1049 9.3334 29.0733C9.4649 28.9911 9.5969 28.9096 9.729 28.8284ZM23.2856 27.9596L23.8168 28.1702C23.9803 28.2363 24.1427 28.3046 24.3036 28.3769C24.6601 28.5368 25.0095 28.7125 25.3509 28.9025C26.0362 29.2838 26.6897 29.722 27.3064 30.2066C27.5575 30.4037 27.8019 30.609 28.041 30.8206L28.0157 30.8262C27.019 31.0437 26.0105 31.2077 24.9937 31.2938C24.4972 31.3359 23.9988 31.3599 23.5004 31.3613C23.2409 31.362 22.9815 31.3557 22.7223 31.3442C22.6536 31.3408 22.5848 31.3372 22.5161 31.3333C22.3339 31.322 22.1517 31.31 21.9696 31.2978C21.2353 30.3337 20.3761 29.5509 19.4326 28.9955C20.6267 28.8938 21.9275 28.5457 23.2856 27.9596ZM6.334 26.455L6.3501 26.4722C6.6368 26.7753 6.9398 27.063 7.2591 27.3314C7.5966 27.6152 7.9523 27.8775 8.3253 28.1126C8.4973 28.2211 8.6731 28.3231 8.8519 28.4199C8.905 28.4483 8.9583 28.4762 9.0119 28.5038C9.0653 28.5308 9.1189 28.5575 9.1728 28.5838L9.12 28.6163C8.9434 28.7267 8.7698 28.8416 8.6002 28.9625C8.2008 29.2471 7.8223 29.561 7.466 29.8982C7.1789 30.1699 6.9062 30.4567 6.6483 30.7563C6.588 30.8264 6.5287 30.8972 6.4701 30.9686L6.2303 30.8852C6.0298 30.8135 5.8312 30.737 5.6354 30.6533C5.259 30.4923 4.8927 30.3079 4.5384 30.1027C4.3933 30.0185 4.2502 29.9309 4.1092 29.8399C3.9817 29.7576 3.8562 29.6727 3.7352 29.581C3.5241 29.421 3.3267 29.2445 3.1389 29.0579C3.1086 29.0273 3.0785 28.9967 3.0487 28.9657C3.2417 28.7116 3.4508 28.4695 3.6802 28.2476C3.8046 28.1272 3.9357 28.0143 4.0691 27.9041C4.2168 27.7821 4.3676 27.6639 4.5214 27.5496C4.8233 27.3253 5.1364 27.1161 5.4596 26.9239C5.6306 26.8222 5.8045 26.7259 5.9804 26.6331C6.0556 26.5943 6.0555 26.5943 6.131 26.556L6.334 26.455ZM29.6159 23.7814L30.0993 23.8574L30.1824 23.8708C30.5743 23.9353 30.9646 24.0086 31.3529 24.0925C32.2691 24.2902 33.1735 24.5426 34.0605 24.846C34.4024 24.963 34.7418 25.0877 35.0783 25.2198C35.2422 25.2841 35.4059 25.3495 35.5678 25.4191C35.718 25.4835 35.8667 25.5513 36.0138 25.6224C36.4037 25.811 36.7821 26.0228 37.1476 26.2553C37.3299 26.3713 37.5087 26.4927 37.6847 26.6181C37.7397 26.6578 37.7945 26.6977 37.849 26.7379L37.8262 26.7535L37.7689 26.7923C37.0239 27.2947 36.2541 27.7605 35.4545 28.1708C35.2611 28.27 35.0661 28.366 34.8694 28.4585C34.6539 28.5598 34.4366 28.6573 34.2188 28.7534C33.8164 28.931 33.411 29.1018 33.0027 29.2653C32.2304 29.5745 31.4476 29.8577 30.6552 30.1109C30.2536 30.2391 29.8495 30.359 29.4432 30.4717C29.3304 30.5027 29.2174 30.5331 29.1042 30.5631C28.9482 30.604 28.792 30.6444 28.6359 30.6847C28.6038 30.6549 28.5715 30.6251 28.5391 30.5956C28.1428 30.2339 27.7292 29.8915 27.2994 29.5707C26.6049 29.0525 25.8677 28.5908 25.0946 28.1996C24.7648 28.0327 24.4284 27.8801 24.0868 27.7392C24.0306 27.7165 23.9743 27.6939 23.9179 27.6716C24.202 27.5346 24.4831 27.3919 24.7605 27.2418C25.4869 26.8491 26.1896 26.4127 26.8694 25.9439C27.6469 25.4077 28.3949 24.8289 29.1147 24.2172C29.2834 24.0737 29.4504 23.9284 29.6159 23.7814ZM2.4061 29.0028C1.4261 27.8619 0.6306 26.3158 0 24.7622C0.9779 23.5193 2.1835 22.2827 3.5183 21.5103L3.5076 21.4677C3.0575 19.6634 2.9467 17.488 3.0065 15.339C3.5968 15.0509 4.2168 14.7916 4.8565 14.5753C5.9099 14.223 7.0016 14.0013 8.0606 14.0201C7.9437 14.6701 7.8571 15.3258 7.8258 15.9859C7.818 16.1493 7.8136 16.3129 7.8129 16.4765C7.8123 16.6231 7.8151 16.7697 7.8186 16.9164C7.8242 17.155 7.8335 17.3936 7.8466 17.632C7.8967 18.5445 8.004 19.4535 8.1787 20.3506C8.1973 20.4443 8.2165 20.5379 8.2363 20.6312C7.9888 20.6114 7.7408 20.5996 7.4925 20.5974C6.9724 20.5927 6.452 20.6279 5.9371 20.7017C5.7626 20.7267 5.5887 20.7562 5.4156 20.7899C5.3157 20.8095 5.2159 20.8298 5.1168 20.8534C5.0072 20.8796 4.8986 20.9096 4.791 20.9431C4.5162 21.0286 4.2486 21.1367 3.9892 21.2611C3.865 21.3206 3.743 21.3844 3.6222 21.4505C3.5701 21.4796 3.5702 21.4796 3.5183 21.5089C3.6452 22.0022 3.8004 22.4881 4.0013 22.9564C4.0592 23.0914 4.1207 23.2247 4.1863 23.3561C4.2356 23.4548 4.2872 23.5524 4.3394 23.6497C4.4201 23.7997 4.5034 23.9485 4.5892 24.0958C4.8375 24.5215 5.1076 24.9346 5.3998 25.3313C5.5494 25.5344 5.7054 25.7323 5.8659 25.9268C5.9068 25.9755 5.9444 26.0208 5.9859 26.0689C5.7738 26.1744 5.5644 26.2849 5.3589 26.4028C4.9263 26.6511 4.5101 26.928 4.1133 27.2302C3.9784 27.3331 3.8457 27.4388 3.7153 27.5474C3.6398 27.6102 3.5648 27.6736 3.4917 27.7391C3.4107 27.8119 3.3318 27.8868 3.255 27.9639C2.979 28.2409 2.7318 28.5443 2.5041 28.862C2.4711 28.9087 2.4384 28.9556 2.4061 29.0028ZM10.2912 25.523C10.8763 26.3225 11.5561 26.9739 12.312 27.444C11.428 27.5488 10.5443 27.8403 9.7001 28.284L9.3397 28.1081L9.2892 28.083L9.2389 28.0576C8.9834 27.9259 8.7345 27.7824 8.4933 27.6258C7.8848 27.2305 7.3269 26.7598 6.8208 26.2399L6.8592 26.2242C7.0918 26.1297 7.3274 26.043 7.5664 25.966C8.1135 25.79 8.6769 25.6627 9.2476 25.594C9.3755 25.5785 9.5041 25.5697 9.6325 25.5606C9.7224 25.5546 9.8124 25.5491 9.9024 25.5439L10.2912 25.523ZM22.6123 24.0155L23.1891 23.9132C23.3958 23.877 23.6027 23.8415 23.8099 23.8079C23.971 23.7817 24.1323 23.7563 24.294 23.7343C24.4566 23.7122 24.62 23.6945 24.7833 23.678C26.1658 23.5395 27.5629 23.5568 28.9439 23.7045L28.8875 23.753C28.5717 24.0224 28.2517 24.2868 27.9253 24.5434C27.021 25.2542 26.0731 25.9112 25.0787 26.4893C24.7166 26.6998 24.3481 26.8985 23.974 27.0868C23.9136 27.1167 23.8532 27.1465 23.7926 27.1761L23.2582 27.4339C22.0033 27.0211 20.7529 26.8348 19.5673 26.8811C20.6303 26.1665 21.6599 25.1998 22.6123 24.0155ZM8.0606 14.0201C8.5033 11.5663 9.5184 8.81059 10.733 6.11875C12.723 6.37902 14.8222 7.01446 16.4367 8.35257C18.301 5.61084 20.9577 2.84947 23.844 0.25C25.515 2.25711 26.9759 4.77223 27.4994 7.67525C29.5678 6.48461 31.8978 5.49423 34.3542 4.66884C35.9713 4.12557 37.6397 3.65452 39.32 3.24368C39.1121 7.00765 38.3996 11.0048 36.7703 14.5936C40.6102 14.6728 44.4792 15.8024 48 17.3391C45.1883 20.9596 42.0343 24.3492 38.6892 26.7607L38.6457 26.7248L38.602 26.6891C38.3539 26.4884 38.0995 26.2955 37.8375 26.1133C37.374 25.7908 36.8885 25.5001 36.384 25.2467C36.1975 25.1531 36.0084 25.0644 35.8171 24.9812C35.6333 24.9013 35.4472 24.8267 35.2607 24.7535C34.889 24.6075 34.5137 24.4704 34.1354 24.3425C33.3412 24.074 32.5334 23.8457 31.7159 23.6599C31.3467 23.5759 30.9755 23.5014 30.6029 23.4344C30.5178 23.4194 30.4327 23.4047 30.3476 23.3904C30.2627 23.3764 30.1779 23.3628 30.0929 23.3494L30.1638 23.2836C30.4999 22.9698 30.8303 22.6502 31.1541 22.3237C31.9084 21.5628 32.6281 20.7677 33.3134 19.9439C33.6377 19.5541 33.9542 19.1578 34.263 18.7556C34.4087 18.5658 34.5533 18.3752 34.6941 18.1817C34.8427 17.9775 34.9871 17.7702 35.1274 17.5602C35.5114 16.9855 35.8645 16.3902 36.1879 15.7792C36.3505 15.4721 36.505 15.1609 36.6533 14.8466C36.6927 14.7625 36.7317 14.678 36.7703 14.5936L36.7029 14.5923L36.6356 14.5912C36.2774 14.5863 35.9192 14.5896 35.5612 14.6035C34.8718 14.6302 34.1838 14.6939 33.5018 14.798C33.2384 14.8382 32.976 14.8844 32.7148 14.9368C32.4756 14.9848 32.2375 15.0381 31.9997 15.0927C31.5578 15.1943 31.1177 15.3041 30.6798 15.4221C29.8054 15.6578 28.9399 15.9266 28.0867 16.2303C27.693 16.3706 27.3023 16.5187 26.9141 16.6734C26.8262 16.7088 26.7385 16.7444 26.6508 16.7802C26.5639 16.8162 26.4771 16.8522 26.3904 16.8887L26.4182 16.8048C26.548 16.4093 26.6698 16.0113 26.7818 15.6104C27.0437 14.6728 27.2552 13.721 27.4155 12.7607C27.4819 12.3629 27.5395 11.9637 27.5883 11.5633C27.6125 11.3644 27.6354 11.1651 27.6532 10.9655C27.6715 10.7603 27.6845 10.5546 27.6922 10.3488C27.7134 9.77933 27.6939 9.20861 27.6359 8.64189C27.6045 8.33594 27.5614 8.03139 27.5088 7.72845C27.5057 7.71071 27.5025 7.69298 27.4994 7.67525C27.2252 7.83494 26.953 7.99773 26.6841 8.16613C26.1385 8.50785 25.6053 8.8698 25.0898 9.25569C24.846 9.43822 24.6062 9.62606 24.3711 9.81971C24.2014 9.95936 24.0348 10.1027 23.8685 10.2464C23.6113 10.4685 23.3568 10.6938 23.1052 10.9224C22.387 11.5749 21.6923 12.2536 21.0262 12.9597C20.7331 13.2704 20.446 13.5868 20.1641 13.9079C20.0859 13.9975 20.008 14.0875 19.9304 14.1777C19.854 14.2672 19.778 14.357 19.7024 14.447L19.6858 14.3795C19.6072 14.0642 19.521 13.751 19.4252 13.4405C19.2059 12.7296 18.9397 12.0331 18.6255 11.3588C18.4978 11.0847 18.3622 10.8144 18.2185 10.5484C18.1482 10.4182 18.0767 10.2885 18.001 10.1615C17.9313 10.0446 17.8581 9.9298 17.7814 9.8173C17.5631 9.49692 17.317 9.19568 17.0478 8.91678C16.8917 8.75509 16.7278 8.60151 16.5578 8.45455C16.5177 8.42019 16.4773 8.38623 16.4367 8.35257C16.2867 8.57477 16.1392 8.79847 15.9961 9.02508C15.6796 9.52618 15.382 10.0395 15.1101 10.5663C14.9951 10.7892 14.8847 11.0145 14.7796 11.2422C14.7021 11.41 14.6275 11.5792 14.5537 11.7487C14.4418 12.0058 14.333 12.2644 14.2276 12.5243C13.937 13.2409 13.6717 13.9679 13.4359 14.7044C13.336 15.0162 13.2419 15.3299 13.1526 15.645C13.126 15.7396 13.0998 15.8345 13.074 15.9294C13.0551 16 13.0362 16.0705 13.0178 16.1412C13.0117 16.1646 12.9995 16.2115 12.9995 16.2115L12.9584 16.1767C12.7521 16.0036 12.5406 15.8369 12.3228 15.6785C11.9007 15.3716 11.4569 15.0944 10.9952 14.8512C10.755 14.7245 10.5099 14.6071 10.2606 14.4994C10.1452 14.4495 10.029 14.4007 9.9111 14.3568C9.8019 14.3159 9.6911 14.279 9.5793 14.246C9.2732 14.1555 8.9588 14.0941 8.6417 14.0582C8.4918 14.0413 8.3415 14.0308 8.1908 14.024C8.1258 14.0217 8.1256 14.0218 8.0606 14.0201ZM9.96 25.0392C9.7308 25.0515 9.5013 25.0645 9.2729 25.0874C9.1357 25.1011 8.999 25.1205 8.8628 25.142C8.2158 25.244 7.5801 25.4152 6.9666 25.6446C6.7969 25.7079 6.629 25.776 6.4629 25.8481L6.3599 25.7363C6.2059 25.5551 6.0561 25.3705 5.9122 25.181C5.6076 24.78 5.3272 24.3605 5.0705 23.9273C4.97 23.7577 4.873 23.5859 4.7797 23.4122C4.6929 23.2508 4.6091 23.0881 4.5328 22.9214C4.3612 22.5468 4.2204 22.1574 4.1056 21.7617L4.1074 21.7608C4.4067 21.6124 4.7158 21.4845 5.0372 21.3921C5.208 21.343 5.3819 21.3062 5.5564 21.2729C5.751 21.2358 5.9467 21.2046 6.1432 21.1791C6.5743 21.1233 7.009 21.0961 7.4436 21.0979C7.6504 21.0988 7.857 21.1068 8.0634 21.1204C8.1605 21.1274 8.2577 21.1348 8.3548 21.1427C8.3774 21.2358 8.4009 21.3288 8.4253 21.4217C8.6728 22.3631 9.0062 23.285 9.4505 24.1518C9.586 24.4159 9.7325 24.674 9.8887 24.9265C9.9123 24.964 9.9361 25.0016 9.96 25.0392C9.9467 25.0186 9.9206 25.0214 9.8848 25.0417L9.96 25.0392ZM10.5554 25.0423L10.3465 24.7148C10.2085 24.4951 10.0782 24.2708 9.9569 24.0413C9.6396 23.4407 9.3796 22.8106 9.1666 22.1658C9.063 21.8522 8.9697 21.535 8.8882 21.215L8.9207 21.2202C9.0931 21.2491 9.2649 21.2816 9.4356 21.3197C9.7928 21.3995 10.1453 21.501 10.4899 21.6245C10.8282 21.7456 11.1589 21.888 11.479 22.0514C11.6279 22.1273 11.774 22.2084 11.9182 22.2928C11.9718 22.3248 11.9717 22.3247 12.0251 22.3571L12.3916 22.5835C12.5134 23.748 12.7927 24.7928 13.2235 25.6808C12.4096 25.2924 11.5052 25.0824 10.5554 25.0423ZM19.8952 21.4151L20.4181 20.9817C20.6834 20.7641 20.9533 20.5525 21.229 20.3483C21.9681 19.8008 22.7429 19.302 23.5414 18.8458C23.9512 18.6118 24.3675 18.3891 24.7891 18.177C24.9698 18.0862 25.1517 17.9976 25.3342 17.9103C25.3975 17.8803 25.4608 17.8503 25.5242 17.8206C25.15 18.7855 24.7182 19.7284 24.2315 20.6417C23.812 21.4288 23.3521 22.1966 22.8248 22.9164C22.7737 22.9849 22.7738 22.9849 22.7221 23.0531L22.305 23.5961C20.9134 23.9416 19.6624 24.4535 18.5959 25.1133C19.1949 24.0203 19.6339 22.7687 19.8952 21.4151ZM12.862 22.3162L12.8372 21.8595C12.8271 21.6512 12.8208 21.4428 12.8196 21.2342C12.8159 20.5895 12.8554 19.9447 12.9276 19.3042C13.0089 18.5829 13.1319 17.8665 13.2879 17.1577L13.2942 17.164C13.4554 17.3259 13.6123 17.4918 13.7635 17.6631C14.0467 17.9842 14.3109 18.3222 14.554 18.6748C14.7946 19.024 15.0146 19.3875 15.2119 19.763C15.3155 19.9603 15.4121 20.1612 15.5036 20.3644L15.7271 20.8705C15.2288 22.1422 14.9359 23.3602 14.8604 24.488C14.3587 23.6467 13.6764 22.9133 12.862 22.3162ZM16.2293 20.8265L16.4748 20.3928L16.5297 20.2948C16.7895 19.8286 17.0489 19.3622 17.3157 18.8999C17.6264 18.3617 17.9456 17.8283 18.2776 17.3031C18.6376 16.7336 19.013 16.1739 19.4114 15.6306C19.4226 15.6154 19.4338 15.6002 19.445 15.5851L19.4463 15.5928C19.5848 16.4079 19.6519 17.2347 19.6695 18.0609C19.6771 18.4232 19.6747 18.7857 19.6606 19.1479C19.6448 19.5528 19.6136 19.9568 19.5606 20.3587C19.5553 20.3961 19.5501 20.4337 19.5446 20.4712C19.509 20.7052 19.4713 20.9389 19.433 21.1725C18.3524 22.1544 17.48 23.1907 16.8426 24.2448C16.8498 23.1034 16.6401 21.9446 16.2293 20.8265ZM23.0663 23.4263C23.139 23.3317 23.2107 23.2368 23.2808 23.1404C23.5362 22.7892 23.7744 22.4255 24.001 22.0551C24.2574 21.636 24.4988 21.2079 24.7279 20.7732C25.2285 19.8234 25.6724 18.8424 26.0531 17.8383C26.0926 17.734 26.1313 17.6294 26.1693 17.5246L26.6694 17.3147L26.7549 17.2791C27.1612 17.1114 27.5705 16.9512 27.9832 16.8002C28.9755 16.4369 29.9854 16.1222 31.0071 15.8532C31.4075 15.7478 31.8097 15.6493 32.2135 15.5576C32.3919 15.5171 32.5704 15.4775 32.7496 15.4408C32.9396 15.4019 33.1303 15.3664 33.3216 15.3342C34.1991 15.1865 35.0887 15.1073 35.9784 15.0928L35.9635 15.1225C35.5694 15.9064 35.1296 16.6669 34.6369 17.3929C34.524 17.5594 34.4084 17.724 34.29 17.8866C34.1518 18.0766 34.0097 18.2639 33.8667 18.4502C33.6049 18.7912 33.3374 19.1279 33.0643 19.4599C32.3481 20.3309 31.5931 21.17 30.7993 21.9708C30.5027 22.2699 30.2003 22.5631 29.8933 22.8514C29.747 22.9881 29.6004 23.1242 29.4537 23.2603C29.1947 23.2271 28.9351 23.1983 28.675 23.1743C27.3085 23.0485 25.9285 23.0479 24.5638 23.1975C24.4514 23.2098 24.339 23.2227 24.2269 23.2379C23.9936 23.2696 23.7612 23.308 23.5289 23.3465C23.3747 23.3726 23.2203 23.399 23.0663 23.4263ZM8.7599 20.6895L8.7137 20.4721L8.7024 20.4179C8.5248 19.552 8.4131 18.6739 8.3569 17.7918C8.3381 17.4964 8.3254 17.2006 8.3184 16.9045C8.3127 16.6588 8.3106 16.4131 8.3188 16.1672C8.3342 15.7053 8.3798 15.2454 8.4428 14.7876C8.4544 14.7067 8.4664 14.6258 8.4789 14.545C8.832 14.5793 9.1815 14.6445 9.52 14.7516C9.705 14.81 9.8846 14.8824 10.0626 14.9593C10.2527 15.0415 10.4402 15.1296 10.6249 15.2233C11.0538 15.4409 11.467 15.6893 11.8615 15.9645C12.0585 16.1019 12.2502 16.2465 12.4378 16.3964C12.4912 16.4395 12.5443 16.483 12.597 16.5269C12.6871 16.6024 12.7769 16.6783 12.8666 16.7544C12.8477 16.835 12.8293 16.9158 12.8113 16.9966C12.6593 17.6805 12.5371 18.3713 12.452 19.0668C12.3741 19.7042 12.3273 20.3457 12.3203 20.9879C12.3173 21.2606 12.3224 21.5331 12.334 21.8055C12.3366 21.8585 12.3393 21.9115 12.3422 21.9645C12.1348 21.8364 11.9231 21.7159 11.706 21.605C11.2055 21.3495 10.6806 21.1428 10.1415 20.9848C9.745 20.8686 9.3409 20.7787 8.9327 20.7148C8.8752 20.7058 8.8176 20.6974 8.7599 20.6895ZM20.0244 20.6394L20.0271 20.6227C20.1027 20.1413 20.1412 19.6544 20.1602 19.1675C20.1802 18.6554 20.1778 18.1423 20.156 17.6303C20.1336 17.1052 20.0909 16.5807 20.0224 16.0595C19.9778 15.7205 19.9224 15.3826 19.8507 15.0483L20.141 14.7028L20.1969 14.6366C20.4649 14.3212 20.738 14.0103 21.0171 13.7048C21.6973 12.9606 22.4102 12.2465 23.1494 11.5611C23.4923 11.2432 23.841 10.9314 24.1949 10.6258C24.3265 10.5122 24.4581 10.3985 24.5915 10.2871C24.7536 10.1518 24.9179 10.0193 25.0844 9.88953C25.4918 9.57216 25.9117 9.27102 26.341 8.9842C26.5785 8.82542 26.8192 8.67174 27.0617 8.52077C27.0797 8.50975 27.0977 8.49863 27.1157 8.48761L27.1215 8.5369C27.149 8.78034 27.1703 9.02428 27.1835 9.26892C27.2055 9.67575 27.2062 10.0838 27.1854 10.4908C27.1771 10.6524 27.1654 10.8138 27.1503 10.9749C27.1337 11.1511 27.1133 11.327 27.0919 11.5027C27.0514 11.8354 27.0047 12.1675 26.9517 12.4985C26.8004 13.444 26.5986 14.3814 26.3472 15.3053C26.2322 15.7283 26.1059 16.1481 25.9706 16.565C25.9059 16.7621 25.8406 16.9589 25.7752 17.1558C25.5933 17.2368 25.4123 17.3197 25.2322 17.4044C23.921 18.0222 22.6528 18.7364 21.4622 19.5647C21.0801 19.8305 20.7073 20.1089 20.3427 20.3983C20.2885 20.4418 20.2344 20.4855 20.1805 20.5293C20.1272 20.5729 20.074 20.6168 20.0209 20.6608C20.0266 20.656 20.0275 20.6488 20.0244 20.6394ZM13.4185 16.5876L13.5015 16.268C13.5816 15.9633 13.6664 15.6597 13.7568 15.3579C13.9864 14.5915 14.2495 13.8353 14.5406 13.0903C14.6802 12.7328 14.8264 12.378 14.9787 12.0258C15.1304 11.6746 15.2876 11.326 15.4589 10.984C15.7817 10.3396 16.1455 9.71722 16.5347 9.11103L16.5583 9.13397C16.6636 9.23766 16.7659 9.34435 16.8643 9.45465C17.0627 9.67735 17.2455 9.91378 17.4105 10.1622C17.5444 10.3638 17.6638 10.5739 17.7788 10.7867C17.8963 11.0044 18.0084 11.2251 18.1149 11.4485C18.4446 12.1399 18.7217 12.8564 18.9475 13.5885C19.0339 13.8683 19.1122 14.1505 19.1841 14.4344C19.226 14.602 19.2672 14.7697 19.3082 14.9374C18.917 15.4417 18.5513 15.9658 18.2007 16.499C17.6113 17.3953 17.0662 18.3196 16.5385 19.2534C16.3556 19.579 16.1755 19.9061 15.9915 20.2311C15.8656 19.946 15.7296 19.6658 15.5808 19.392C15.2552 18.793 14.8742 18.2244 14.4453 17.6949C14.1783 17.3651 13.8927 17.0504 13.5904 16.7529C13.5337 16.6972 13.4764 16.6421 13.4185 16.5876Z" fill="white"/>
</svg>
