<svg width="48" height="48" viewBox="0 0 48 48" fill="none" xmlns="http://www.w3.org/2000/svg">
<path d="M14.1858 16.416V23.2809C20.0284 19.0359 26.2096 17.0655 33.0137 16.9369L33.727 16.9234V23.3708C36.1924 21.4425 38.6578 19.0482 41.1234 16.1047L41.085 0.0666504C32.9508 9.84575 24.1383 16.0947 14.1858 16.416Z" fill="white"/>
<path d="M21.2283 41.971C21.2283 45.2917 23.9367 48.0001 27.2574 48.0001C30.5784 48.0001 33.2868 45.2917 33.2868 41.971C33.2868 38.65 30.5784 35.9416 27.2574 35.9416C23.9367 35.9416 21.2283 38.65 21.2283 41.971Z" fill="white"/>
<path d="M33.027 31.6507V17.6368C24.048 17.8066 15.069 21.2413 6.08936 31.9621L6.12776 48.0001C14.262 38.221 23.0748 31.972 33.027 31.6507Z" fill="white"/>
</svg>
