<svg width="48" height="48" viewBox="0 0 48 48" fill="none" xmlns="http://www.w3.org/2000/svg">
<path fill-rule="evenodd" clip-rule="evenodd" d="M23.9469 44.518C21.6988 44.5283 19.5197 45.0552 17.3833 46.0232C17.2884 47.1159 16.4515 47.7753 14.87 48C13.6658 47.9839 12.4579 47.7129 11.2437 47.1872C10.4843 46.9574 9.86095 45.681 9.09148 44.1088C8.32426 42.5408 7.43535 40.677 6.64681 39.2571C6.47197 38.9474 6.46348 38.5709 6.62422 38.2537C7.09418 37.3181 7.86538 36.9443 8.76404 37.1719C8.99703 37.2304 9.19367 37.3861 9.30399 37.5995C9.43618 37.8548 9.60612 38.1834 9.60612 38.1834C10.568 38.4993 11.5485 38.7541 12.5703 38.8778L12.6965 38.7729C12.669 38.7567 12.6428 38.738 12.6166 38.7217C6.8018 35.0591 2.88324 28.6791 2.75333 21.38C2.54723 9.81499 11.9233 0.211917 23.6253 0.00337169C23.7504 0.0011239 23.8754 0 24 0L24.0936 0.000249755C24.1871 0.000624387 24.2808 0.00174828 24.3748 0.00337169C36.0767 0.211917 45.4528 9.81499 45.2467 21.38C45.1168 28.6791 41.1982 35.0591 35.3834 38.7217C35.3572 38.738 35.331 38.7567 35.3035 38.7729L35.4297 38.8778C36.4515 38.7541 37.432 38.4993 38.3939 38.1834C38.3939 38.1834 38.5638 37.8548 38.6959 37.5995C38.8063 37.3861 39.003 37.2304 39.2359 37.1719C40.1346 36.9443 40.9058 37.3181 41.3757 38.2537C41.5365 38.5709 41.528 38.9474 41.3532 39.2571C40.5646 40.677 39.6757 42.5408 38.9085 44.1088C38.1391 45.681 37.5157 46.9574 36.7563 47.1872C35.5421 47.7129 34.3342 47.9839 33.13 48C31.5486 47.7753 30.7117 47.1159 30.6167 46.0232C28.4635 45.0476 26.2668 44.52 24 44.5178L23.9469 44.518ZM9.91591 39.0113C9.91591 39.0113 10.4789 40.564 10.7817 41.3322C11.1733 42.3259 12.2655 44.973 12.2655 44.973C12.5216 45.6 13.0413 46.0733 11.7022 46.7775C11.7184 46.8249 11.7347 46.8711 11.7521 46.9335C12.5728 47.2022 13.3148 47.4555 14.0843 47.4419C14.1767 47.3931 14.2704 47.3595 14.3491 47.327L10.6804 39.762C10.2944 38.9665 10.1907 38.924 9.91591 39.0113ZM38.0841 39.0113C38.0841 39.0113 37.5211 40.564 37.2183 41.3322C36.8267 42.3259 35.7345 44.973 35.7345 44.973C35.4784 45.6 34.9587 46.0733 36.2978 46.7775C36.2816 46.8249 36.2653 46.8711 36.2479 46.9335C35.4272 47.2022 34.6852 47.4555 33.9157 47.4419C33.8233 47.3931 33.7296 47.3595 33.6509 47.327L37.3196 39.762C37.7056 38.9665 37.8093 38.924 38.0841 39.0113ZM33.1004 38.1606C30.5225 36.7614 27.2708 36.2099 24 36.3021L23.8892 36.2992C19.2032 36.188 14.5714 37.4031 11.9208 40.5448C11.8708 40.9569 14.2792 45.5412 14.7838 46.2055C15.0074 46.4217 15.0861 46.4515 15.276 46.4791C17.4979 44.5948 20.742 43.7973 24 43.8422L24.0763 43.8413C27.3086 43.8098 30.5194 44.6095 32.724 46.4791C32.9139 46.4515 32.9926 46.4217 33.2162 46.2055C33.7208 45.5412 36.1292 40.9569 36.0792 40.5448C35.2734 39.5897 34.2846 38.8127 33.1667 38.1969C33.1491 38.2233 33.1121 38.2635 33.0554 38.3177C32.9081 38.457 32.745 38.586 32.5668 38.7035C32.3874 38.8223 32.2043 38.9171 32.0175 38.9902L31.5526 39.1814C31.3956 39.2286 31.2362 39.277 31.0755 39.3252C30.916 39.3746 30.7558 39.4157 30.5946 39.4497C30.5831 39.4529 30.5723 39.4559 30.562 39.4585C30.5573 39.4668 30.5516 39.4753 30.5451 39.4839C30.518 39.5267 30.4912 39.5659 30.4656 39.6027C30.4401 39.6395 30.4145 39.6775 30.3888 39.7168C30.3127 39.8382 30.2391 39.9595 30.1665 40.0822L30.0482 40.2976C29.9627 40.4471 29.8861 40.6017 29.8201 40.7627C29.7541 40.9238 29.6929 41.0839 29.6351 41.2441L29.634 41.2464C29.5614 41.4479 29.5331 41.6073 29.5487 41.725C29.5643 41.843 29.6308 41.9233 29.7481 41.9656C29.7907 41.981 29.8304 41.9823 29.8672 41.9694C29.904 41.9565 29.9382 41.9367 29.9699 41.91C30.0016 41.8834 30.0306 41.8526 30.0572 41.8182C30.0838 41.7835 30.1064 41.7515 30.1251 41.7221C30.1585 41.6739 30.1844 41.6551 30.2026 41.6657C30.221 41.6762 30.2225 41.7029 30.2071 41.7456C30.1653 41.8389 30.1097 41.9454 30.0406 42.0651C29.9713 42.1847 29.8936 42.2942 29.8074 42.3936C29.7213 42.4929 29.6313 42.5699 29.5373 42.6245C29.4434 42.6788 29.3502 42.6896 29.2579 42.6561C29.1583 42.6203 29.0901 42.5644 29.053 42.4889C29.0162 42.4133 28.9972 42.3292 28.9965 42.2366C28.9958 42.144 29.0083 42.0511 29.0338 41.9579C29.0594 41.8648 29.0844 41.7845 29.1088 41.7169L29.1095 41.7161C29.1514 41.6104 29.1993 41.5013 29.2522 41.3863C29.3054 41.2711 29.3572 41.1582 29.4054 41.0463C29.4303 40.9998 29.4414 40.9671 29.4398 40.9504C29.437 40.9335 29.4042 40.9486 29.3401 40.9932C29.1648 41.1228 28.9917 41.2335 28.8218 41.3276C28.6519 41.4207 28.4698 41.4941 28.278 41.5492C27.9943 41.632 27.7031 41.6728 27.4044 41.6716C27.1058 41.6704 26.8061 41.637 26.5033 41.5724C26.2688 41.5232 26.0315 41.4594 25.7938 41.379C25.5548 41.2998 25.3106 41.2 25.0605 41.0821C24.9499 41.0304 24.8537 40.9746 24.7696 40.917C24.6867 40.8585 24.6197 40.791 24.57 40.7125C24.5202 40.6339 24.4877 40.5418 24.4737 40.4365C24.4597 40.3311 24.4704 40.2067 24.5058 40.0631C24.5304 39.9716 24.5648 39.8781 24.6075 39.7824C24.6488 39.688 24.696 39.5976 24.7478 39.5119C24.7942 39.4356 24.8316 39.4029 24.8583 39.4125C24.884 39.4221 24.8852 39.4733 24.8607 39.5637C24.8387 39.6484 24.8326 39.7266 24.8422 39.7985C24.8519 39.8703 24.882 39.9373 24.9326 40.0003C25.0587 40.1504 25.2103 40.2671 25.3872 40.3505C25.5641 40.4339 25.7424 40.5103 25.9224 40.5796C26.5733 40.8345 27.2926 40.9736 28.0795 40.9958C28.2387 41.0011 28.3951 40.9932 28.5483 40.9731C28.7029 40.952 28.8524 40.9115 28.9993 40.852C29.2238 40.7639 29.4117 40.6421 29.5621 40.4862C29.7123 40.3291 29.7502 40.299 29.8745 40.0909C29.9007 40.0409 29.9301 39.9983 29.9628 39.963C29.9953 39.9288 30.0266 39.8959 30.0592 39.8629C30.1343 39.7855 30.2093 39.7106 30.282 39.6357C30.3367 39.5809 30.3932 39.5269 30.4523 39.4737C30.4422 39.466 30.4637 39.4353 30.517 39.3805C30.5866 39.3208 30.6561 39.2599 30.7246 39.1965C30.7943 39.1332 30.8718 39.0822 30.9567 39.0447C31.0286 39.0147 31.1231 38.9765 31.242 38.9311C31.3463 38.8907 31.8644 38.7069 32.0184 38.6452C32.3268 38.5207 32.6322 38.3831 32.9356 38.2322C32.9699 38.216 33.0075 38.1988 33.0513 38.1794C33.0692 38.1717 33.0855 38.1655 33.1004 38.1606ZM11.5124 46.3764C11.6924 46.2909 11.9583 46.1457 11.952 45.8321C11.5573 45.7136 11.0551 45.691 10.8615 46.3216C11.0548 46.4636 11.3704 46.4438 11.5124 46.3764ZM36.4876 46.3764C36.3076 46.2909 36.0417 46.1457 36.048 45.8321C36.4427 45.7136 36.9449 45.691 37.1385 46.3216C36.9451 46.4636 36.6296 46.4438 36.4876 46.3764ZM8.63554 37.6527C7.72675 37.3655 7.04289 38.0797 7.22526 38.8054L10.6374 45.8472C10.9773 45.4293 11.3131 45.3868 11.646 45.3665L8.63554 37.6527ZM39.3645 37.6527C40.2732 37.3655 40.9571 38.0797 40.7747 38.8054L37.3626 45.8472C37.0227 45.4293 36.6868 45.3868 36.354 45.3665L39.3645 37.6527ZM30.0243 44.003C30.0435 43.9497 30.1278 43.8556 30.2767 43.7206C30.426 43.5856 30.5148 43.5234 30.5431 43.5336C30.6356 43.567 30.7087 43.6424 30.7626 43.7604C30.8165 43.8782 30.8281 43.9797 30.7972 44.065C30.7691 44.143 30.6934 44.2273 30.5705 44.3176C30.4476 44.4076 30.363 44.4444 30.3168 44.4277C30.2956 44.4201 30.2381 44.3512 30.1444 44.2211C30.1121 44.1772 30.0796 44.1334 30.0472 44.0896C30.0229 44.0569 30.0154 44.0278 30.0243 44.003ZM16.9795 44.0909C16.9766 44.0721 17.0127 43.9681 17.0878 43.7783C17.163 43.5886 17.2116 43.4918 17.234 43.4883C17.2974 43.4783 17.3782 43.5056 17.4765 43.5704C17.5754 43.6388 17.6304 43.7083 17.6416 43.7794C17.6546 43.8613 17.6283 43.9727 17.5626 44.1132C17.4962 44.2498 17.4444 44.3212 17.4072 44.3271C17.3884 44.33 17.3581 44.3185 17.3156 44.2928C17.2734 44.267 17.2309 44.2402 17.1882 44.2127C17.1392 44.1936 17.0933 44.1751 17.0502 44.157C17.0072 44.1389 16.9836 44.1168 16.9795 44.0909ZM16.46 43.4561C16.4552 43.4263 16.4941 43.3091 16.5764 43.1048C16.6588 42.9006 16.7112 42.7967 16.7335 42.7931C16.7821 42.7855 16.8583 42.8079 16.9622 42.8602C17.0624 42.9131 17.1341 42.9668 17.1771 43.0213C17.2163 42.9309 17.2574 42.8401 17.3004 42.7493C17.3605 42.621 17.3979 42.556 17.4128 42.5535C17.48 42.5429 17.5686 42.571 17.6786 42.6376C17.7898 42.7118 17.8516 42.788 17.8641 42.8663C17.8784 42.956 17.8454 43.0738 17.7654 43.2205C17.6872 43.3552 17.6276 43.4259 17.5867 43.4325C17.5567 43.4372 17.5056 43.4166 17.4334 43.3706C17.3309 43.3027 17.2467 43.2549 17.1811 43.2271C17.0775 43.515 16.983 43.6658 16.897 43.6794C16.8822 43.6818 16.806 43.6479 16.6686 43.578C16.5313 43.5079 16.4617 43.4673 16.46 43.4561ZM31.9301 40.033C31.9347 40.0286 31.9393 40.0243 31.9439 40.0199C31.9622 40.0023 31.977 39.9917 31.9885 39.9878C31.9999 39.9839 32.0049 39.9897 32.0034 40.0052C32.0016 40.0208 31.9867 40.0514 31.958 40.0972C31.7848 40.3882 31.6223 40.6879 31.4708 40.9967C31.064 41.825 31.3598 41.2175 31.1502 41.7364C31.077 41.9389 31.0484 42.0992 31.064 42.2173C31.0797 42.3353 31.1461 42.4156 31.2635 42.458C31.306 42.4733 31.3457 42.4746 31.3826 42.4617C31.4194 42.4488 31.4535 42.429 31.4853 42.4024C31.517 42.3757 31.5461 42.3449 31.5727 42.3105C31.5993 42.2758 31.6218 42.2438 31.6404 42.2144C31.6739 42.1662 31.6999 42.1474 31.718 42.158C31.7363 42.1686 31.7378 42.1952 31.7225 42.2379C31.6806 42.3312 31.6252 42.4377 31.556 42.5574C31.4866 42.677 31.4089 42.7865 31.3229 42.8859C31.2367 42.9852 31.1466 43.0622 31.0528 43.1168C30.9587 43.1711 30.8656 43.1817 30.7732 43.1484C30.6737 43.1126 30.6055 43.0567 30.5685 42.9812C30.5315 42.9056 30.5127 42.8215 30.5119 42.7289C30.5113 42.6363 30.5237 42.5434 30.5491 42.4502C30.5749 42.3571 30.5997 42.2768 30.6242 42.2092L30.6331 42.2012C30.6947 42.0323 30.791 41.8187 30.9215 41.5605C31.2164 40.9773 30.7782 41.8179 31.355 40.717C31.4049 40.6226 31.4656 40.532 31.5373 40.4454C31.5791 40.3964 31.6298 40.3392 31.6892 40.2744C31.7488 40.2095 31.8153 40.1422 31.8887 40.0722C31.8933 40.0679 31.898 40.0635 31.9026 40.0591L31.9301 40.033ZM19.6148 40.5174C19.9331 40.4748 20.242 40.42 20.5413 40.3534C20.8406 40.2869 21.1355 40.1925 21.4259 40.0698C21.6839 39.9601 21.9323 39.8317 22.1712 39.6848C22.4097 39.5381 22.6386 39.3824 22.8573 39.2177C23.1647 38.9853 23.4523 38.7419 23.7198 38.4873C23.9874 38.2325 24.2613 37.976 24.5416 37.7174C24.6248 37.6391 24.7087 37.5645 24.7932 37.494C24.8775 37.4231 24.9685 37.3571 25.066 37.2958C25.1563 37.2394 25.2207 37.2225 25.2588 37.245C25.2966 37.2677 25.2979 37.324 25.2625 37.4138C25.2389 37.4825 25.2138 37.5534 25.1872 37.6265C25.1605 37.6995 25.1292 37.7676 25.0933 37.8307C25.0758 37.864 25.056 37.891 25.0344 37.9116C25.0128 37.9323 24.9846 37.953 24.9496 37.9739C24.9003 38.0009 24.8307 38.0559 24.7405 38.139C24.6504 38.2221 24.5357 38.3302 24.396 38.4632C24.2334 38.619 24.071 38.7777 23.9091 38.9391C23.7473 39.1005 23.5822 39.2596 23.4139 39.4162C23.2455 39.5731 23.0745 39.7254 22.901 39.8733C22.7274 40.0213 22.5476 40.1597 22.3615 40.2886C21.5801 40.8371 20.7079 41.1875 19.7452 41.3401C19.4984 41.3753 19.2868 41.4042 19.1105 41.4263C18.9341 41.4485 18.7842 41.4561 18.6607 41.4489C18.5253 41.4398 18.391 41.4248 18.2576 41.4038C18.1242 41.3828 17.9946 41.3499 17.8689 41.3048C17.82 41.2857 17.7812 41.2708 17.7528 41.26C17.7243 41.2493 17.6986 41.2438 17.6756 41.2437C17.6526 41.2435 17.6311 41.2526 17.6112 41.2709C17.591 41.2895 17.5653 41.3205 17.534 41.3635C17.5057 41.4024 17.4764 41.4473 17.4463 41.498C17.416 41.5487 17.3798 41.6099 17.3377 41.6814C17.2577 41.805 17.1568 41.8986 17.0349 41.9619C16.913 42.025 16.7776 42.0456 16.6287 42.0233C16.5461 42.0096 16.4712 41.9947 16.4035 41.9787C16.336 41.9626 16.2598 41.9651 16.1751 41.9862C16.098 42.0061 16.0239 42.0332 15.9528 42.0673C15.8817 42.1016 15.813 42.1506 15.7466 42.2148C15.6465 42.3071 15.5806 42.3491 15.5486 42.3409C15.5166 42.3324 15.5332 42.2677 15.598 42.1466C15.6712 42.0048 15.7574 41.867 15.8566 41.7327C15.9559 41.5984 16.0678 41.4775 16.1921 41.3697C16.256 41.3137 16.3253 41.2617 16.3997 41.2135C16.4744 41.1654 16.5553 41.1382 16.6422 41.132C16.7144 41.1283 16.7864 41.136 16.8583 41.1552C16.9301 41.1744 17.003 41.1877 17.0769 41.195C17.1587 41.2051 17.2309 41.1956 17.2933 41.1664C17.3556 41.1376 17.4109 41.0944 17.4593 41.0369C17.515 40.9785 17.5644 40.917 17.6079 40.8527C17.6513 40.7885 17.6945 40.7242 17.7381 40.66C17.8008 40.5736 17.8605 40.5154 17.9168 40.4853C17.9733 40.4555 18.0589 40.4525 18.1736 40.4762C18.4336 40.5231 18.6761 40.5506 18.9011 40.5589C19.1262 40.5673 19.3642 40.5534 19.6148 40.5174ZM30.6242 40.0049C30.6423 39.9552 30.7258 39.8628 30.8749 39.7278C31.0239 39.5929 31.1128 39.5305 31.1412 39.5407C31.2337 39.5741 31.3067 39.6496 31.3607 39.7675C31.4145 39.8854 31.4262 39.9868 31.3953 40.0721C31.3671 40.1502 31.2919 40.2335 31.1696 40.3219C31.0473 40.4104 30.963 40.4462 30.9169 40.4296C30.8955 40.422 30.8381 40.353 30.7444 40.2228C30.7107 40.1827 30.6777 40.1406 30.6453 40.0967C30.6222 40.0603 30.6153 40.0297 30.6242 40.0049ZM24.0985 1.14538C24.1971 1.14575 24.2958 1.14675 24.3947 1.1485C29.9372 1.24715 34.9288 3.57487 38.5113 7.25126C42.0926 10.9265 44.2648 15.949 44.1674 21.4375C44.1037 24.9726 43.1056 28.2832 41.4105 31.1392C39.723 33.9825 37.5382 36.294 34.7202 38.0048C34.6552 38.0449 34.5902 38.0861 34.524 38.1259L34.7503 38.3133C34.8101 38.2758 34.8688 38.2372 34.93 38.1996C40.6024 34.6643 44.4322 28.4656 44.5584 21.3674C44.7583 10.1773 35.6857 0.886255 24.3623 0.684078C24.2715 0.682455 24.1809 0.681456 24.0905 0.680956L24 0.680832C23.8795 0.680832 23.7587 0.681955 23.6378 0.684078C12.3143 0.886255 3.24175 10.1773 3.44161 21.3674C3.56777 28.4656 7.39764 34.6643 13.07 38.1996C13.1312 38.2372 13.1899 38.2758 13.2497 38.3133L13.476 38.1259C13.4098 38.0861 13.3448 38.0449 13.2799 38.0048C10.4618 36.294 8.27704 33.9825 6.58945 31.1392C4.89436 28.2832 3.8963 24.9726 3.83259 21.4375C3.73516 15.949 5.90742 10.9265 9.4887 7.25126C13.0712 3.57487 18.0629 1.24715 23.6053 1.1485C23.7371 1.14612 23.8687 1.14513 24 1.14525L24.0985 1.14538ZM36.2787 6.91833C36.2933 6.88761 36.3084 6.85714 36.3242 6.82717L36.3309 6.81456L36.4307 6.63399C36.4822 6.67957 36.5337 6.72527 36.5851 6.77098C36.6428 6.82343 36.6977 6.87937 36.7504 6.93694C36.8162 7.00899 36.8788 7.08405 36.9379 7.16172C37.1741 7.47266 37.3586 7.83056 37.4382 8.21431L37.4454 8.19932L37.4518 8.18659L37.5466 8.00339C37.5993 8.0476 37.6519 8.09181 37.7046 8.13601C37.7638 8.18696 37.8201 8.24128 37.8744 8.29735C37.9422 8.36766 38.0068 8.44096 38.068 8.51701C38.2778 8.77801 38.4505 9.07447 38.5523 9.39428L38.5484 9.39103L38.7087 9.52103C38.7687 9.57098 38.826 9.6243 38.8812 9.6795C38.9501 9.74855 39.0159 9.82073 39.0784 9.89578C39.3528 10.2253 39.5672 10.6142 39.6504 11.0378C39.6528 11.0495 39.6549 11.0613 39.657 11.073L39.6989 10.9985C39.7501 11.0444 39.8012 11.0904 39.8524 11.1364C39.9097 11.1894 39.9642 11.2455 40.0165 11.3035C40.082 11.376 40.1439 11.4514 40.2025 11.5294C40.4597 11.8726 40.6542 12.272 40.7157 12.6992C40.7543 12.9668 40.741 13.2393 40.6904 13.5046L40.6913 13.5031C40.7596 13.3921 40.8347 13.2852 40.9173 13.1847L40.9264 13.1737L41.061 13.0173C41.102 13.0725 41.1431 13.1277 41.1841 13.1829C41.2299 13.2461 41.2721 13.3119 41.312 13.3791C41.3618 13.463 41.4077 13.5493 41.4496 13.6374C41.6339 14.0246 41.7454 14.4544 41.7213 14.8853C41.7153 14.9919 41.7014 15.0976 41.6802 15.2018L41.8435 15.0548C41.8771 15.1148 41.9108 15.1747 41.9446 15.2347C41.9819 15.3032 42.0154 15.3739 42.0464 15.4456C42.085 15.5352 42.1196 15.6267 42.1499 15.7193C42.2833 16.1268 42.3393 16.5674 42.2603 16.9917C42.2385 17.1093 42.2068 17.2246 42.1665 17.337C42.1903 17.3181 42.2143 17.2996 42.2386 17.2815L42.2502 17.2732L42.4187 17.1542C42.4451 17.2176 42.4716 17.2812 42.4979 17.3446C42.527 17.4172 42.552 17.4912 42.5744 17.566C42.6022 17.6595 42.6258 17.7543 42.6451 17.85C42.7298 18.2703 42.7336 18.7144 42.6055 19.1265C42.5495 19.3063 42.4699 19.4775 42.3729 19.6385C42.4136 19.6112 42.4551 19.5851 42.4972 19.5603L42.5095 19.5531L42.6894 19.4522C42.7092 19.5181 42.7289 19.5839 42.7485 19.6498C42.77 19.7249 42.7872 19.8012 42.8016 19.878C42.8197 19.9739 42.8333 20.0705 42.8426 20.1677C42.8832 20.5945 42.8411 21.0367 42.6709 21.4333C42.5666 21.6763 42.4179 21.8975 42.2416 22.0942L42.2481 22.0906C42.3709 22.0201 42.4986 21.9577 42.6303 21.906L42.6436 21.901L42.8374 21.8301C42.8463 21.8983 42.8552 21.9664 42.8641 22.0346C42.8733 22.1122 42.878 22.1902 42.88 22.2684C42.8824 22.3659 42.8804 22.4636 42.874 22.5609C42.8459 22.9888 42.7335 23.4184 42.5021 23.7828C42.3557 24.0133 42.1659 24.2132 41.9522 24.3828C42.0696 24.3414 42.1895 24.3066 42.3112 24.2808L42.3252 24.278L42.5279 24.2397C42.5255 24.3085 42.5232 24.3772 42.5208 24.4459C42.5172 24.5239 42.509 24.6017 42.4983 24.679C42.4848 24.7757 42.4668 24.8717 42.4446 24.9667C42.3469 25.3842 42.1657 25.7898 41.8777 26.1114C41.6163 26.4035 41.2771 26.6187 40.9164 26.7673C40.8293 26.8033 40.7406 26.8358 40.6506 26.8639C40.6504 26.8966 40.6496 26.9294 40.6482 26.9622C40.8215 26.8757 41.0046 26.8082 41.1908 26.7575C41.3655 26.71 41.5446 26.6758 41.7251 26.6606L41.7393 26.6596L41.9453 26.647C41.9343 26.7149 41.9233 26.7827 41.9123 26.8506C41.899 26.9276 41.8812 27.0037 41.8609 27.0792C41.8353 27.1733 41.8054 27.2664 41.7714 27.3578C41.6223 27.7597 41.3918 28.1394 41.0659 28.4225C40.77 28.6796 40.4066 28.8509 40.0301 28.9533C39.9138 28.985 39.7954 29.0108 39.676 29.0289C39.6664 29.0849 39.655 29.1406 39.6419 29.196C39.8283 29.1439 40.0206 29.1122 40.2134 29.0977C40.2803 29.0926 40.3473 29.0899 40.4145 29.0888C40.4397 29.0886 40.465 29.0884 40.4902 29.0887C40.5791 29.0898 40.6678 29.0942 40.7563 29.1036L40.7704 29.1053L40.9751 29.1319C40.9499 29.201 40.9253 29.2703 40.8992 29.3389C40.8331 29.5075 40.7493 29.6695 40.6538 29.8232C40.4406 30.1669 40.1604 30.4761 39.8126 30.687C39.465 30.898 39.0613 31.0038 38.6579 31.0343C38.5894 31.0395 38.5204 31.0426 38.4513 31.0435C38.4451 31.0604 38.4386 31.0771 38.4319 31.0938C38.5359 31.0806 38.6413 31.0737 38.7461 31.0719C38.7694 31.0716 38.7925 31.0716 38.8156 31.0717C38.8599 31.0722 38.9043 31.0734 38.9485 31.0756C39.0618 31.0814 39.1748 31.0931 39.2868 31.1107C39.3746 31.1244 39.4618 31.1419 39.5478 31.164L39.5617 31.1678L39.7602 31.2238C39.7252 31.2884 39.6909 31.3535 39.6551 31.4177C39.5653 31.5749 39.4588 31.7229 39.3421 31.8612C39.0813 32.1702 38.7591 32.4355 38.3844 32.5938C38.0965 32.7154 37.7849 32.7707 37.4729 32.7769C37.5938 32.7869 37.7142 32.8039 37.8333 32.8276C37.9538 32.8517 38.0733 32.8822 38.1899 32.9216L38.2034 32.9263L38.3972 32.9966C38.3576 33.0585 38.3187 33.1209 38.2783 33.1823C38.1773 33.3325 38.0604 33.4724 37.9338 33.6019C37.6513 33.8911 37.3107 34.1322 36.9256 34.2629C36.7594 34.3193 36.5872 34.3543 36.413 34.3711C36.4075 34.3699 36.5733 34.4121 36.6596 34.4412L36.6731 34.4459L36.8671 34.5162C36.8275 34.5782 36.7884 34.6405 36.748 34.7019C36.6469 34.8522 36.53 34.992 36.4036 35.1214C36.1209 35.4107 35.7804 35.6518 35.3953 35.7825C35.0101 35.9131 34.593 35.929 34.1926 35.8714C34.1084 35.8592 34.0245 35.844 33.9413 35.8253C33.9277 35.8562 33.9136 35.8869 33.8988 35.9173C33.9308 35.9156 33.9629 35.9144 33.9949 35.9137C34.0198 35.9133 34.0447 35.9132 34.0696 35.9134C34.2646 35.9156 34.459 35.9364 34.6503 35.9745C34.7709 35.9985 34.8903 36.0291 35.0068 36.0683L35.0203 36.0731L35.2143 36.1433C35.1747 36.2053 35.1357 36.2676 35.0954 36.3291C34.9943 36.4793 34.8774 36.6192 34.7509 36.7486C34.4683 37.0379 34.1277 37.2791 33.7426 37.4097C33.5528 37.474 33.3553 37.5105 33.1559 37.5241C33.452 37.6667 33.7559 37.8181 34.0706 37.9786C34.1905 37.9088 34.3081 37.8364 34.4266 37.7639C37.1785 36.0767 39.4894 33.744 41.1332 30.9743C42.7996 28.167 43.7814 24.9102 43.8439 21.4312C43.9401 16.0314 41.8029 11.0912 38.2791 7.47479C34.7551 3.85971 29.8435 1.56933 24.3885 1.47205C24.2912 1.47031 24.194 1.46931 24.097 1.46893L24 1.46881C23.8707 1.46868 23.7412 1.46968 23.6115 1.47205C18.1565 1.56933 13.2449 3.85971 9.72092 7.47479C6.19709 11.0912 4.05994 16.0314 4.15612 21.4312C4.21858 24.9102 5.2004 28.167 6.86676 30.9743C8.51063 33.744 10.8215 36.0767 13.5734 37.7639C13.6919 37.8364 13.8095 37.9088 13.9294 37.9786C14.1839 37.8488 14.4315 37.7249 14.6735 37.6068C14.5117 37.5726 14.3524 37.5266 14.1972 37.4676C13.6495 37.2591 13.1688 36.8991 12.7703 36.4737C12.682 36.3794 12.5975 36.2816 12.5171 36.1806C12.4355 36.078 12.3582 35.9721 12.2868 35.8621L12.2043 35.7273C12.0188 35.6694 11.8382 35.5963 11.6654 35.5061C11.1975 35.2623 10.7991 34.9001 10.4745 34.4869C10.4208 34.4186 10.3691 34.3488 10.3193 34.2776C10.2365 34.1592 10.1589 34.0371 10.0871 33.9117C10.0301 33.8119 9.97644 33.71 9.9288 33.6055L9.92352 33.5935L9.84536 33.4128C9.8798 33.4058 9.9142 33.3987 9.94864 33.3916C9.66086 33.258 9.3897 33.0896 9.14906 32.882C8.74951 32.5373 8.44468 32.0936 8.22344 31.617C8.18686 31.5382 8.15252 31.4584 8.12036 31.3777C8.06686 31.2435 8.01936 31.1068 7.97826 30.9683C7.94557 30.8582 7.91672 30.7468 7.8943 30.6341L7.8919 30.6213L7.85708 30.4271C7.92278 30.4293 7.98847 30.4312 8.05418 30.4334C8.06942 30.4339 8.08465 30.4346 8.09986 30.4355C7.71567 30.1899 7.36829 29.8835 7.10111 29.5128C6.7926 29.0848 6.59927 28.5823 6.49486 28.0674C6.4776 27.9823 6.46275 27.8967 6.45023 27.8107C6.42939 27.6677 6.41495 27.5239 6.40717 27.3796C6.40099 27.2649 6.39882 27.1497 6.40321 27.035L6.40385 27.022L6.41512 26.8253C6.47851 26.8424 6.54191 26.8596 6.6053 26.8769C6.7097 26.9061 6.81226 26.9423 6.91335 26.9814C7.003 27.016 7.09159 27.0534 7.17896 27.0935C7.14532 27.0713 7.11198 27.0488 7.07892 27.0257C7.00761 26.9761 6.93762 26.9247 6.86917 26.8712C6.455 26.5478 6.09183 26.1505 5.84656 25.6833C5.60129 25.2161 5.48047 24.6916 5.44949 24.167C5.44437 24.0804 5.44171 23.9936 5.4414 23.9067C5.44089 23.7622 5.44683 23.6177 5.45941 23.4737C5.46943 23.3592 5.48347 23.2451 5.50398 23.1319L5.50643 23.1192L5.54528 22.9259C5.60564 22.9518 5.66599 22.9778 5.72635 23.0038C5.82556 23.0475 5.92197 23.0977 6.01654 23.1506C6.13461 23.2166 6.34585 23.3485 6.33792 23.3408C6.27538 23.2805 6.21446 23.2186 6.15533 23.1549C5.79767 22.7699 5.50212 22.32 5.33409 21.8198C5.16604 21.3197 5.12994 20.7827 5.18253 20.26C5.19123 20.1736 5.20238 20.0873 5.21584 20.0015C5.23824 19.8588 5.26703 19.717 5.30228 19.5769C5.33031 19.4655 5.36229 19.355 5.40048 19.2465L5.40492 19.2342L5.4739 19.0499C5.52938 19.085 5.58484 19.1201 5.6403 19.1552C5.73134 19.2141 5.8186 19.2789 5.90361 19.3463C6.01961 19.4379 6.13124 19.5352 6.2382 19.6372C6.28235 19.6794 6.3257 19.7224 6.36819 19.7662L6.37395 19.7532C6.29165 19.6463 6.21396 19.5358 6.14103 19.4223C6.09409 19.3493 6.04912 19.2748 6.00629 19.1993C5.7472 18.7422 5.56347 18.2362 5.5154 17.7109C5.46734 17.1854 5.55622 16.6545 5.72811 16.158C5.75653 16.076 5.78726 15.9947 5.82018 15.9143C5.87494 15.7806 5.93567 15.6493 6.00233 15.5211C6.05534 15.4191 6.11196 15.319 6.17416 15.2223L6.18132 15.2113L6.29108 15.0477C6.33691 15.0948 6.38275 15.1418 6.4286 15.1888C6.50359 15.267 6.57351 15.3503 6.6407 15.4353C6.64949 15.4465 6.65823 15.4576 6.66689 15.4688C6.54324 15.0561 6.48133 14.6239 6.51113 14.1933C6.54754 13.667 6.72003 13.1571 6.96892 12.6943C7.01007 12.6179 7.05339 12.5426 7.09871 12.4684C7.1741 12.3451 7.25502 12.2252 7.34127 12.1092C7.40987 12.0171 7.48177 11.9272 7.55859 11.8416L7.56734 11.8321L7.70176 11.6879C7.73954 11.7416 7.77733 11.7954 7.81512 11.8492C7.87665 11.9385 7.93239 12.0318 7.98515 12.1265L7.98715 12.1301C7.96696 11.7294 8.00414 11.3255 8.11858 10.9403C8.26883 10.4345 8.54826 9.97433 8.89208 9.57697C8.9489 9.51129 9.0076 9.44723 9.06797 9.38479C9.16842 9.28089 9.27353 9.18149 9.38299 9.08708C9.47004 9.01203 9.55982 8.93997 9.65343 8.87329L9.66406 8.8658L9.8267 8.75428C9.85184 8.8151 9.87699 8.87579 9.90213 8.93648C9.91066 8.95771 9.91891 8.97893 9.92688 9.00029C9.97913 8.68922 10.0689 8.38489 10.2041 8.0993C10.4299 7.62239 10.7764 7.21042 11.1768 6.87013C11.243 6.81394 11.3108 6.75961 11.38 6.70704C11.4952 6.61975 11.6142 6.53758 11.7368 6.46103C11.8343 6.40009 11.934 6.34265 12.0367 6.29095L12.0484 6.28533L12.2262 6.20004C12.2417 6.26385 12.2573 6.32766 12.2728 6.39148C12.2976 6.497 12.3155 6.60427 12.3301 6.71154C12.3501 6.85802 12.3631 7.0055 12.3694 7.15323C12.372 7.21429 12.3734 7.27523 12.3736 7.3363C12.3806 7.33355 12.3876 7.33068 12.3946 7.32781L12.4023 7.32481C12.4846 7.11876 12.5916 6.92295 12.7268 6.74675C12.7662 6.69543 12.8079 6.64585 12.8519 6.59827C13.1039 6.32566 13.4232 6.12074 13.7631 5.97488C13.9299 5.90333 14.103 5.84439 14.28 5.80418L14.294 5.80118L14.4963 5.7601C14.4949 5.82878 14.4934 5.89759 14.492 5.96627C14.4895 6.04457 14.4825 6.12261 14.4727 6.20029C14.4605 6.29744 14.4439 6.39397 14.423 6.4895C14.334 6.89536 14.167 7.29097 13.8992 7.6119C13.7217 7.82457 13.504 7.99965 13.2658 8.14013L13.2624 8.15212C13.3186 8.14638 13.3748 8.14176 13.4311 8.13801C13.5183 8.13227 13.6056 8.12927 13.6929 8.1279C13.7285 8.12765 13.7285 8.12765 13.7641 8.12765C13.8904 8.12864 14.0166 8.13339 14.1422 8.14638L14.1551 8.14788L14.3507 8.17185C14.328 8.23816 14.3058 8.30447 14.2825 8.37053C14.2432 8.47855 14.1978 8.58432 14.1487 8.68822C14.0902 8.8121 14.0262 8.93348 13.9573 9.05186C13.914 9.12629 13.8687 9.19947 13.8213 9.2714C13.528 9.71721 13.1547 10.1172 12.7004 10.4015C12.5331 10.5062 12.3564 10.5941 12.1736 10.6669C12.1569 10.7415 12.1372 10.8154 12.1161 10.8887C12.0751 11.0307 12.0274 11.1709 11.9733 11.3085C11.9419 11.3887 11.9083 11.468 11.8725 11.5463C11.642 12.0508 11.3182 12.5196 10.8889 12.8752C10.7377 13.0005 10.5753 13.1109 10.4048 13.2073C10.4038 13.229 10.4026 13.2506 10.4013 13.2722C10.3922 13.4198 10.3762 13.5671 10.3535 13.7132C10.3403 13.7982 10.3248 13.8829 10.3069 13.967C10.1919 14.5098 9.97807 15.0377 9.63663 15.4784C9.50108 15.6533 9.34743 15.8129 9.18058 15.9575C9.19237 16.0318 9.20135 16.1064 9.2088 16.1811C9.22344 16.3282 9.23106 16.4761 9.23194 16.6239C9.23247 16.71 9.23067 16.7961 9.22649 16.882C9.19949 17.4361 9.0727 17.9915 8.80599 18.4809C8.69269 18.6888 8.55613 18.8826 8.40231 19.062L8.45568 19.1764C8.5006 19.2751 8.53908 19.3767 8.57443 19.4791C8.62266 19.619 8.66422 19.761 8.69922 19.9047C8.71961 19.9884 8.73775 20.0725 8.75352 20.1571C8.8552 20.7024 8.86009 21.2721 8.71356 21.8098C8.64967 22.0444 8.55848 22.2701 8.44625 22.4852L8.50944 22.5785C8.56942 22.6687 8.62356 22.763 8.6747 22.8586C8.74448 22.9889 8.80805 23.1225 8.8654 23.2589C8.89879 23.3382 8.93005 23.4185 8.95906 23.4996C9.14593 24.0218 9.2411 24.5835 9.1817 25.1377C9.12775 25.641 8.95092 26.1254 8.70441 26.5654C8.66196 26.6411 8.61735 26.7156 8.57077 26.7891L8.56308 26.8011C8.58403 26.821 8.60477 26.8411 8.62534 26.8615C8.63878 26.83 8.65255 26.7987 8.66667 26.7676C8.72623 26.636 8.79171 26.507 8.86297 26.3812C8.91966 26.2813 8.97989 26.1832 9.04555 26.0889L9.05305 26.0783L9.16862 25.9187C9.21276 25.9673 9.25689 26.016 9.30102 26.0647C9.37312 26.1456 9.43996 26.2314 9.50404 26.3187C9.59147 26.4379 9.67322 26.5614 9.74916 26.6883C9.79338 26.7621 9.83562 26.8372 9.87573 26.9133C10.1342 27.4042 10.3073 27.9468 10.3264 28.5039C10.3314 28.6486 10.3262 28.7931 10.312 28.9368L10.3247 28.906C10.3789 28.9431 10.4332 28.9802 10.4874 29.0173C10.5763 29.0792 10.6613 29.1471 10.7439 29.2172C10.8567 29.313 10.9649 29.414 11.0682 29.5198C11.1284 29.5813 11.1869 29.6445 11.2436 29.7093C11.6091 30.1267 11.9036 30.6143 12.0517 31.1517C12.079 31.2509 12.1014 31.3513 12.119 31.4526C12.207 31.4891 12.2931 31.5303 12.3778 31.5736C12.5095 31.6409 12.638 31.7145 12.7628 31.7938C12.8355 31.8399 12.9069 31.8881 12.977 31.938C13.4198 32.2545 13.8118 32.6522 14.0788 33.1292C14.1342 33.2281 14.1839 33.3298 14.2284 33.4337C14.2938 33.4528 14.3586 33.474 14.4229 33.4964C14.5626 33.5449 14.7 33.6003 14.8345 33.6617C14.9129 33.6974 14.9902 33.7353 15.0665 33.7753C15.5578 34.033 16.0085 34.3816 16.3403 34.8296C16.6466 35.2429 16.8463 35.7278 16.9624 36.227C16.9818 36.3108 16.999 36.3952 17.0138 36.48C17.0203 36.5165 17.0262 36.553 17.0318 36.5896L17.0427 36.5857C18.9306 35.9064 20.8036 35.6076 23.5965 35.6035C23.731 35.5985 23.8655 35.5952 24 35.5936L24.1008 35.5951C24.2018 35.597 24.3026 35.5998 24.4035 35.6035C27.5341 35.6081 29.509 35.983 31.6445 36.8489C31.6189 36.7626 31.5973 36.675 31.5792 36.587C31.4972 36.191 31.4877 35.774 31.5947 35.3818C31.7016 34.9894 31.9217 34.6349 32.1933 34.3353C32.3148 34.2013 32.4473 34.076 32.5912 33.966L32.6026 33.9575L32.7694 33.836C32.7967 33.8991 32.8241 33.9623 32.8514 34.0253C32.8815 34.0974 32.9076 34.1711 32.9311 34.2456C32.9604 34.3388 32.9853 34.4332 33.006 34.5286C33.0399 34.6848 33.0625 34.8445 33.0714 35.005C33.1216 34.9767 33.1728 34.9499 33.2247 34.9247C33.1495 34.5393 33.1435 34.1352 33.2474 33.7545C33.3543 33.3622 33.5744 33.0077 33.846 32.7081C33.9675 32.574 34.1001 32.4488 34.244 32.3389L34.2555 32.3304L34.4222 32.2089C34.4495 32.2719 34.4768 32.335 34.5042 32.3982C34.5344 32.4702 34.5605 32.5439 34.5839 32.6185C34.6131 32.7116 34.6381 32.806 34.6587 32.9014C34.6925 33.0577 34.7153 33.2174 34.724 33.3777C34.7318 33.3734 34.7396 33.3691 34.7474 33.3647C34.6794 32.9916 34.6773 32.6024 34.7776 32.2349C34.8845 31.8426 35.1046 31.4881 35.3762 31.1885C35.4979 31.0544 35.6303 30.9291 35.7742 30.8192L35.7857 30.8108L35.9524 30.6892C35.9798 30.7523 36.0071 30.8154 36.0344 30.8786C36.0445 30.9025 36.054 30.9266 36.0632 30.951C36.0698 30.8759 36.0803 30.8011 36.095 30.727C36.1732 30.328 36.3668 29.9585 36.6158 29.6399C36.7274 29.4974 36.8504 29.3628 36.986 29.2427L36.9967 29.2333L37.1541 29.1001C37.1861 29.161 37.2179 29.2219 37.2498 29.2829C37.2583 29.2997 37.2665 29.3166 37.2746 29.3336C37.2731 29.28 37.2736 29.2262 37.2761 29.1725C37.2956 28.7663 37.4337 28.3725 37.6339 28.0212C37.7235 27.864 37.8258 27.713 37.9423 27.5747L37.9517 27.5638L38.0882 27.4091C38.1286 27.4648 38.1689 27.5205 38.2093 27.5761C38.2543 27.6399 38.2957 27.7063 38.3348 27.7739C38.3835 27.8584 38.4283 27.9453 38.4692 28.0339C38.5362 28.1791 38.5929 28.3302 38.6362 28.4848C38.6652 28.4588 38.6948 28.4335 38.7248 28.4086C38.523 28.0999 38.3735 27.753 38.3209 27.3867C38.2631 26.9841 38.324 26.5714 38.4542 26.1885C38.5124 26.0172 38.5842 25.8496 38.6726 25.6915L38.6797 25.6792L38.7845 25.5013C38.8346 25.5484 38.8848 25.5955 38.9349 25.6426C38.9912 25.6966 39.0444 25.754 39.0955 25.813C39.1593 25.8868 39.2198 25.9636 39.2768 26.0428C39.37 26.1728 39.4543 26.3104 39.5261 26.454L39.5283 26.4512C39.5391 26.437 39.5501 26.4229 39.5612 26.4089L39.5651 26.404C39.3207 26.1197 39.1244 25.7893 39.0247 25.4265C38.917 25.0345 38.9259 24.6173 39.0071 24.2212C39.0434 24.044 39.0938 23.8688 39.1616 23.7009L39.1671 23.6877L39.2488 23.4983C39.3045 23.5388 39.3601 23.5791 39.4158 23.6194C39.4784 23.6661 39.5385 23.7163 39.5965 23.7685C39.6691 23.8339 39.7387 23.9024 39.805 23.974C39.832 24.0031 39.8784 24.0558 39.8754 24.0524C39.7568 23.9054 39.6548 23.7457 39.5754 23.5739C39.4051 23.2046 39.3455 22.7916 39.3608 22.3875C39.3677 22.2067 39.3886 22.0256 39.4282 21.8489L39.4314 21.8351L39.481 21.6349C39.5425 21.6656 39.604 21.6963 39.6655 21.727C39.7286 21.7595 39.7898 21.7952 39.8499 21.8329C39.8143 21.7884 39.7804 21.7424 39.7486 21.695C39.5212 21.3578 39.3964 20.9597 39.3468 20.5584C39.3246 20.3789 39.3164 20.1967 39.327 20.016L39.328 20.0017L39.3448 19.7962C39.4105 19.8167 39.4761 19.8371 39.5418 19.8576C39.6162 19.8819 39.689 19.9103 39.7607 19.9412C39.8504 19.9799 39.9382 20.0227 40.024 20.0693C40.1645 20.1457 40.3003 20.2329 40.4276 20.331C40.4322 20.3082 40.4371 20.2855 40.4423 20.2627C40.1718 20.1156 39.9238 19.9259 39.7258 19.6894C39.4649 19.3776 39.2995 18.9945 39.2087 18.6006C39.1681 18.4243 39.1409 18.244 39.1327 18.0631L39.1322 18.0489L39.1277 17.8426C39.1952 17.8562 39.2627 17.8698 39.33 17.8834C39.3916 17.8967 39.4525 17.9127 39.5129 17.9306C39.4972 17.9168 39.4819 17.9027 39.4666 17.8883C39.1708 17.6092 38.9617 17.2481 38.8253 16.8676C38.7642 16.6972 38.7162 16.5214 38.6869 16.3427L38.6848 16.3286L38.6561 16.1242C38.7246 16.1299 38.7932 16.1355 38.8617 16.1412C38.9395 16.1484 39.0169 16.1601 39.0936 16.1746C39.1099 16.1776 39.1261 16.1809 39.1422 16.1841C39.116 16.1669 39.0903 16.149 39.0649 16.1305C38.7359 15.8914 38.4823 15.56 38.2984 15.1998C38.2161 15.0386 38.146 14.8704 38.0942 14.6968L38.0357 14.4842C38.1093 14.4808 38.1828 14.4767 38.2562 14.4742C38.2847 14.4735 38.3131 14.4733 38.3415 14.4735C38.3709 14.474 38.4002 14.4748 38.4296 14.476C38.4055 14.466 38.3815 14.4557 38.3577 14.4448C37.988 14.2754 37.674 14.0005 37.4225 13.6838C37.31 13.5422 37.2081 13.3911 37.123 13.2313L37.1164 13.2185L37.0237 13.0343C37.095 13.0165 37.1662 12.9979 37.2377 12.9809C37.3186 12.9626 37.4653 12.9314 37.4653 12.9314C37.4111 12.9124 37.3576 12.8911 37.3051 12.8677C36.9604 12.714 36.6602 12.471 36.4117 12.1889C36.2922 12.0532 36.1826 11.9074 36.0896 11.7522L36.0823 11.7398L35.9804 11.5605C36.0507 11.539 36.1208 11.5169 36.1914 11.4963C36.2202 11.4882 36.2492 11.4807 36.2783 11.4737C35.9221 11.315 35.6143 11.06 35.3627 10.7644C35.2454 10.6266 35.1382 10.4791 35.0478 10.3222L35.0408 10.3098L34.9419 10.1288C34.9861 10.1161 35.0302 10.1032 35.0744 10.0905L35.0995 10.0834C34.734 9.91576 34.4225 9.64553 34.1718 9.33396C34.0584 9.19297 33.9554 9.0425 33.8694 8.88315L33.8626 8.87054L33.7688 8.68685C33.7834 8.6831 33.7779 8.68447 33.789 8.6816C33.5147 8.53974 33.2693 8.34293 33.0578 8.11865C32.9336 7.98703 32.8192 7.84505 32.7209 7.69307L32.7133 7.68096L32.6052 7.50526C32.6748 7.48141 32.7441 7.45693 32.814 7.43395C32.9228 7.39949 33.0338 7.37251 33.146 7.35128C33.3165 7.31906 33.4894 7.30058 33.6629 7.29621C33.6932 7.29559 33.7236 7.29546 33.7539 7.29559C33.7676 7.29584 33.7812 7.29609 33.7948 7.29646C33.7342 7.16584 33.6837 7.03047 33.6425 6.89311C33.5906 6.71978 33.5517 6.5417 33.532 6.36175L33.5305 6.34752L33.5126 6.1421C33.5808 6.15121 33.649 6.16045 33.7171 6.16957C33.7944 6.18106 33.8711 6.19679 33.9469 6.21527C34.0419 6.23838 34.1356 6.26585 34.228 6.29732C34.4151 6.36138 34.598 6.4428 34.7694 6.5432C34.7741 6.34964 34.8001 6.15633 34.8426 5.96814C34.8824 5.79156 34.936 5.61736 35.0072 5.4509L35.0984 5.24997C35.1532 5.29143 35.2081 5.33301 35.2629 5.37447C35.3246 5.4223 35.3836 5.47363 35.4407 5.52695C35.512 5.59363 35.5802 5.66356 35.6451 5.73637C35.9304 6.05643 36.1582 6.43793 36.2556 6.85827C36.2615 6.88324 36.2787 6.91833 36.2787 6.91833ZM15.4534 37.2383C15.0711 37.1237 14.7049 36.9545 14.3817 36.7195C14.0082 36.448 13.7007 36.0949 13.4554 35.7049C13.1861 35.7238 12.9188 35.768 12.6574 35.8353L12.6485 35.8376C12.7684 36.0033 12.9009 36.16 13.0428 36.3071C13.0954 36.3617 13.1495 36.415 13.2049 36.4667C13.5537 36.7922 13.9612 37.0623 14.4157 37.2142C14.6634 37.297 14.9218 37.3445 15.1821 37.3635C15.1612 37.3733 15.3428 37.2886 15.4534 37.2383ZM32.4338 37.164C32.5026 37.1775 32.5716 37.1885 32.6411 37.1971C32.9933 37.2407 33.3596 37.2206 33.6942 37.0955C33.9754 36.9904 34.2274 36.817 34.4448 36.6118C34.4927 36.5666 34.539 36.5197 34.5836 36.4714C34.6313 36.4198 34.6769 36.3664 34.7209 36.3117L34.7219 36.3104C34.6617 36.2952 34.6009 36.2823 34.5398 36.2712C34.3838 36.2429 34.2256 36.2273 34.067 36.2255C34.056 36.2255 34.045 36.2255 34.034 36.2255C33.9237 36.2264 33.8133 36.2342 33.7043 36.2506C33.6456 36.3349 33.5812 36.4153 33.5106 36.4907C33.243 36.7772 32.8995 36.9852 32.5358 37.1263C32.504 37.1386 32.4722 37.1504 32.4402 37.1617L32.4338 37.164ZM16.5184 36.7837C16.3944 36.5093 16.2436 36.2468 16.0636 36.0052C15.8847 35.7652 15.6764 35.5461 15.4377 35.3649C15.1616 35.1554 14.8471 35.0004 14.5187 34.8916C14.3497 34.8357 14.1767 34.7916 14.0018 34.7583C13.7747 34.7149 13.5443 34.6897 13.3132 34.6818L13.3041 34.6816C13.3051 34.6844 13.3061 34.6873 13.3072 34.6902C13.3833 34.9005 13.4747 35.105 13.5813 35.3017C13.6656 35.4573 13.7594 35.6079 13.8632 35.7513C14.0654 36.0306 14.3069 36.2834 14.5885 36.4837C14.8475 36.6679 15.1372 36.8064 15.4385 36.9063C15.5953 36.9582 15.7553 37.0001 15.9172 37.0324L15.9558 37.0158C16.0071 36.9938 16.0582 36.9721 16.1093 36.9506C15.9128 36.8178 15.7206 36.6786 15.5296 36.5381C15.314 36.3756 15.1 36.2108 14.8921 36.0371C14.6836 35.8643 14.479 35.6857 14.2852 35.4918L14.286 35.4905C14.5365 35.6024 14.7761 35.73 15.0119 35.8633C15.2484 35.9956 15.4786 36.1367 15.7072 36.2803C15.9341 36.4264 16.1597 36.5746 16.379 36.7315C16.4112 36.7544 16.4435 36.7775 16.4757 36.8007L16.502 36.7902L16.5184 36.7837ZM32.4415 36.8279C32.453 36.8234 32.4643 36.8188 32.4758 36.8141C32.8041 36.6793 33.1134 36.4821 33.3435 36.2089C33.5367 35.9793 33.6712 35.7045 33.7598 35.4191C33.7794 35.3562 33.7967 35.2926 33.8119 35.2285C33.828 35.1602 33.8415 35.0913 33.853 35.0221L33.8532 35.0204C33.8527 35.0205 33.8522 35.0207 33.8516 35.0209C33.784 35.0398 33.7171 35.0607 33.6509 35.0843C33.5888 35.1064 33.5275 35.1305 33.4671 35.1569C33.1762 35.2835 32.9026 35.4602 32.6899 35.6976C32.4772 35.9349 32.3314 36.2261 32.2374 36.529C32.2339 36.5402 32.2305 36.5514 32.2271 36.5627C32.3148 36.4596 32.4062 36.3598 32.4989 36.2608C32.6237 36.1319 32.7509 36.0047 32.8862 35.8846C33.0207 35.7637 33.1603 35.6473 33.3145 35.5432L33.3156 35.5442C33.2374 35.7129 33.1449 35.8694 33.0471 36.0213C32.9499 36.1741 32.8447 36.3199 32.7373 36.4636C32.6415 36.5875 32.5444 36.7101 32.4415 36.8279ZM32.7625 35.2079C32.7664 35.05 32.7534 34.8914 32.7278 34.7359C32.717 34.671 32.704 34.6063 32.6889 34.5422C32.6728 34.4739 32.6539 34.4062 32.6332 34.3392L32.6326 34.3375C32.6322 34.3379 32.6318 34.3383 32.6313 34.3387C32.5794 34.3859 32.5289 34.4347 32.4803 34.4854C32.4347 34.5328 32.3908 34.5819 32.3485 34.6324C32.1452 34.8759 31.9798 35.1564 31.896 35.4638C31.8122 35.7713 31.8121 36.0969 31.8637 36.4098C31.8732 36.4676 31.8991 36.5764 31.8991 36.5764C31.9006 36.5709 31.9021 36.5655 31.9035 36.56C32.0076 36.1693 32.186 35.792 32.4573 35.4893C32.5485 35.3875 32.6492 35.2953 32.757 35.2122L32.7625 35.2079ZM16.682 36.4067C16.6402 36.2023 16.5836 36.0009 16.5108 35.8053C16.4064 35.5248 16.2677 35.2561 16.0893 35.0154C15.8831 34.7369 15.6247 34.5 15.3398 34.3037C15.1871 34.1983 15.0266 34.1043 14.8609 34.0206C14.6612 33.9198 14.4539 33.8345 14.2414 33.7647L14.2327 33.7619C14.2329 33.765 14.233 33.768 14.2332 33.771C14.2474 33.9941 14.2778 34.2162 14.325 34.4348C14.3308 34.4615 14.3368 34.4883 14.3431 34.5149C14.7323 34.6151 15.1085 34.7691 15.4455 34.9889C15.525 35.0406 15.6019 35.096 15.6762 35.1549C15.8882 35.3226 16.0778 35.5173 16.2453 35.7291C16.4121 35.9403 16.5573 36.1683 16.682 36.4067ZM34.0865 35.5368C34.1552 35.5503 34.2244 35.5613 34.2937 35.5699C34.646 35.6135 35.0122 35.5934 35.3468 35.4683C35.628 35.3633 35.8801 35.1898 36.0975 34.9847C36.1453 34.9394 36.1916 34.8925 36.2364 34.8442C36.284 34.7926 36.3295 34.7393 36.3735 34.6846L36.3745 34.6832C36.3059 34.6658 36.2366 34.6515 36.1669 34.6395C36.0191 34.614 35.8696 34.6 35.7197 34.5983C35.7087 34.5983 35.6977 34.5983 35.6867 34.5983C35.5763 34.5992 35.466 34.607 35.3571 34.6234C35.2983 34.7078 35.2338 34.7881 35.1633 34.8635C34.8958 35.15 34.5521 35.3582 34.1884 35.4991C34.1547 35.5123 34.1207 35.5248 34.0865 35.5368ZM12.6406 35.5175C12.7308 35.4953 12.9358 35.4552 12.9537 35.4519C12.565 35.2826 12.2008 35.0551 11.8947 34.7606C11.562 34.4406 11.3058 34.0486 11.1164 33.6287C11.0554 33.6246 10.9944 33.6219 10.9334 33.6201C10.8905 33.6191 10.8476 33.6186 10.8047 33.6187C10.6474 33.6196 10.4906 33.6284 10.3342 33.6452L10.308 33.6482L10.2989 33.6493C10.3134 33.6766 10.3283 33.7034 10.3433 33.7303C10.5356 34.0693 10.7692 34.3864 11.0459 34.6615C11.2649 34.8791 11.5118 35.0702 11.7846 35.216C12.0529 35.3595 12.3441 35.4572 12.6421 35.5171L12.6406 35.5175ZM13.7199 34.3992C13.5478 34.0588 13.3252 33.7437 13.0444 33.4845C12.8053 33.2637 12.5286 33.086 12.2352 32.9465C11.889 32.7818 11.519 32.6681 11.142 32.6002L11.1159 32.5956L11.1069 32.5942C11.1076 32.5971 11.1082 32.6001 11.1088 32.6031C11.1553 32.8219 11.2178 33.0372 11.2964 33.2465C11.3586 33.4122 11.4308 33.5742 11.5139 33.7305C11.6715 34.0265 11.8692 34.3028 12.1113 34.5357C12.3534 34.7686 12.6371 34.9557 12.939 35.1018C13.0198 35.1409 13.102 35.1771 13.1853 35.2106C13.1388 35.1118 13.0956 35.0115 13.0559 34.9097C13.0196 34.8167 12.9607 34.6382 12.9625 34.644C12.8033 34.4841 12.6462 34.3222 12.4941 34.1546C12.3112 33.9548 12.133 33.75 11.9676 33.5312L11.9686 33.5301C12.2013 33.6753 12.4213 33.8345 12.6365 33.9989C12.7952 34.1189 12.95 34.2433 13.1029 34.3696C13.1234 34.369 13.1438 34.3685 13.1643 34.3681C13.1839 34.368 13.2034 34.3679 13.223 34.368C13.389 34.3693 13.555 34.3799 13.7199 34.3992ZM34.1415 35.1815C34.4651 35.0468 34.769 34.8513 34.9961 34.5817C35.1895 34.3521 35.324 34.0773 35.4127 33.7918C35.4322 33.729 35.4495 33.6654 35.4646 33.6014C35.4809 33.533 35.4944 33.4641 35.5059 33.3948L35.5061 33.3932C35.5055 33.3933 35.505 33.3935 35.5044 33.3937C35.4368 33.4126 35.3698 33.4336 35.3036 33.4572C35.2415 33.4793 35.1802 33.5034 35.1199 33.5296C34.8291 33.6562 34.5554 33.8329 34.3428 34.0703C34.1846 34.2468 34.0634 34.4529 33.973 34.6716L34.1432 34.6427L34.1515 34.6336C34.2765 34.5046 34.4036 34.3775 34.5389 34.2574C34.6734 34.1365 34.8131 34.0201 34.9671 33.916L34.9684 33.917C34.8902 34.0858 34.7975 34.2421 34.6997 34.3941C34.6026 34.5468 34.4974 34.6927 34.39 34.8364C34.3118 34.9376 34.2327 35.0379 34.1504 35.1354C34.1475 35.1507 34.1447 35.1661 34.1415 35.1815ZM33.6043 34.7699C33.7121 34.4381 33.8767 34.1224 34.1102 33.8619C34.2029 33.7585 34.3054 33.6649 34.4152 33.5807C34.419 33.4227 34.4061 33.2642 34.3805 33.1086C34.3698 33.0437 34.3568 32.9791 34.3417 32.9151C34.3255 32.8466 34.3067 32.7791 34.2859 32.712L34.2854 32.7104C34.285 32.7108 34.2846 32.7111 34.2842 32.7115C34.2322 32.7587 34.1816 32.8074 34.1331 32.8581C34.0875 32.9057 34.0435 32.9548 34.0013 33.0052C33.7979 33.2486 33.6325 33.5292 33.5487 33.8367C33.4648 34.1441 33.4648 34.4697 33.5164 34.7826L33.5194 34.7998L33.525 34.7977C33.5513 34.7881 33.5777 34.7789 33.6043 34.7699ZM13.9163 33.4997C13.8749 33.4083 13.8289 33.3189 13.7779 33.2321C13.6083 32.9433 13.3869 32.687 13.1373 32.4646C12.8446 32.2038 12.513 31.9866 12.1612 31.8144L12.153 31.8105C12.1527 31.8135 12.1525 31.8165 12.1522 31.8196C12.135 32.0502 12.1352 32.2818 12.1538 32.5122C12.1554 32.5319 12.1571 32.5517 12.159 32.5715C12.5989 32.7523 13.011 33.0055 13.3477 33.3431C13.5957 33.5918 13.7994 33.8806 13.9635 34.1907L13.96 34.1667C13.9479 34.0819 13.938 33.9967 13.9305 33.9115C13.9204 33.7969 13.9163 33.4997 13.9163 33.4997ZM35.6633 34.026C35.7166 34.0356 35.7703 34.0437 35.824 34.0503C36.1763 34.0939 36.5425 34.0738 36.8772 33.9487C37.1584 33.8436 37.4104 33.6702 37.6278 33.465C37.6756 33.4198 37.722 33.3729 37.7666 33.3245C37.8143 33.273 37.8599 33.2196 37.9038 33.1648L37.9048 33.1636C37.8363 33.1462 37.7669 33.132 37.6971 33.1199C37.5493 33.0944 37.3999 33.0804 37.2499 33.0788C37.2389 33.0786 37.2279 33.0786 37.2169 33.0786C37.1066 33.0795 36.9963 33.0874 36.8874 33.1037C36.8286 33.1882 36.7641 33.2685 36.6937 33.3439C36.426 33.6304 36.0825 33.8385 35.7187 33.9795C35.7037 33.9853 35.6889 33.991 35.6737 33.9965C35.6703 34.0064 35.6668 34.0161 35.6633 34.026ZM35.7746 33.0192C35.8699 32.9228 35.9672 32.8283 36.0691 32.7377C36.2036 32.6169 36.3433 32.5005 36.4974 32.3963L36.4986 32.3973C36.4204 32.566 36.3277 32.7225 36.2299 32.8745C36.1328 33.0272 36.0276 33.1731 35.9202 33.3168C35.8846 33.3629 35.8488 33.4088 35.8125 33.4544C35.8038 33.5076 35.7937 33.5604 35.7822 33.6131C36.064 33.4814 36.3254 33.3008 36.5264 33.062C36.7198 32.8325 36.8542 32.5578 36.9429 32.2723C36.9624 32.2094 36.9797 32.1458 36.9948 32.0818C37.0111 32.0134 37.0246 31.9445 37.0361 31.8752L37.0363 31.8736C37.0357 31.8737 37.0352 31.8738 37.0347 31.8741C36.967 31.8929 36.9 31.9139 36.8338 31.9375C36.7717 31.9596 36.7104 31.9837 36.6501 32.0101C36.3591 32.1366 36.0857 32.3134 35.873 32.5508C35.7367 32.7028 35.6279 32.8768 35.5425 33.0619L35.5523 33.0598C35.5799 33.0535 35.7746 33.0192 35.7746 33.0192ZM10.6817 33.3087C10.2348 33.0225 9.83224 32.6564 9.54317 32.2088C9.29266 31.8208 9.13316 31.3804 9.04497 30.9283C8.79547 30.8513 8.53863 30.7978 8.27989 30.7657L8.25362 30.7625L8.24455 30.7615C8.24532 30.7644 8.2461 30.7674 8.24687 30.7703C8.30523 30.9862 8.37934 31.1977 8.46923 31.4025C8.54036 31.5646 8.62128 31.7225 8.7128 31.874C8.88623 32.161 9.09866 32.4262 9.35309 32.6456C9.60099 32.8595 9.88602 33.0276 10.1867 33.1558C10.3272 33.2158 10.6248 33.3107 10.6248 33.3107C10.6438 33.3098 10.6628 33.3092 10.6817 33.3087ZM35.1592 33.1774C35.2668 32.8723 35.424 32.5838 35.6404 32.3425C35.7331 32.239 35.8356 32.1453 35.9454 32.0611C35.9493 31.9032 35.9363 31.7446 35.9107 31.5891C35.9 31.5241 35.887 31.4595 35.8719 31.3954C35.8557 31.3271 35.8369 31.2594 35.8161 31.1924L35.8156 31.1908C35.8151 31.1911 35.8148 31.1915 35.8144 31.1919C35.7624 31.2391 35.7118 31.2878 35.6633 31.3385C35.6177 31.3861 35.5737 31.4351 35.5315 31.4856C35.3281 31.729 35.1627 32.0096 35.0789 32.317C34.9985 32.6117 34.9952 32.9232 35.0406 33.2241L35.0518 33.2194C35.0725 33.2109 35.0934 33.2025 35.1143 33.1944C35.1291 33.1887 35.1441 33.1829 35.1592 33.1774ZM11.4171 32.3374C11.4028 32.2741 11.387 32.2111 11.3696 32.1486C11.2894 31.8602 11.174 31.5809 11.0166 31.3257C10.8347 31.0308 10.5972 30.773 10.3301 30.5531C10.1868 30.4352 10.0349 30.3278 9.87689 30.2306C9.68638 30.1132 9.48707 30.0107 9.28123 29.923L9.27287 29.9195C9.27278 29.9225 9.27269 29.9255 9.2726 29.9285C9.26778 30.1521 9.27927 30.3759 9.30782 30.5978C9.3304 30.7733 9.36358 30.9476 9.4087 31.1187C9.4966 31.4521 9.63071 31.7751 9.82115 32.0633C10.0011 32.3356 10.2284 32.5746 10.4815 32.7801C10.6179 32.8907 10.908 33.0738 10.908 33.0738C10.8789 32.9787 10.8528 32.8828 10.8298 32.7862C10.8179 32.7362 10.8067 32.686 10.7966 32.6357C10.7573 32.5749 10.7182 32.5141 10.6793 32.4531C10.5368 32.224 10.3967 31.9931 10.2655 31.7562C10.1333 31.5198 10.0068 31.2797 9.89587 31.0288L9.89712 31.0279C10.0904 31.2227 10.2679 31.428 10.4398 31.6372C10.6068 31.8389 10.7656 32.046 10.9218 32.255L10.7383 32.2392L10.9348 32.2561C11.0427 32.2662 11.15 32.2834 11.2564 32.3038C11.3102 32.314 11.3637 32.3253 11.4171 32.3374ZM37.2388 32.3723C37.2314 32.3959 37.2237 32.4195 37.2157 32.4431L37.2106 32.458C37.2305 32.4595 37.2504 32.4606 37.2704 32.4616C37.6249 32.4796 37.9887 32.433 38.3133 32.2839C38.5861 32.1587 38.825 31.9674 39.0268 31.747C39.0713 31.6984 39.114 31.6483 39.1551 31.5967C39.1988 31.5419 39.2404 31.4853 39.2803 31.4275L39.2813 31.4261C39.1367 31.4007 38.9903 31.3878 38.8437 31.3843C38.818 31.3839 38.7922 31.3837 38.7665 31.3839C38.5971 31.3859 38.4274 31.403 38.2621 31.4404C38.2096 31.5288 38.1512 31.6136 38.0865 31.6939C37.8597 31.9751 37.5639 32.1945 37.2432 32.358L37.2388 32.3723ZM11.8443 31.7537C11.8279 31.5782 11.7974 31.4044 11.7506 31.2346C11.6563 30.8922 11.4952 30.571 11.2936 30.2795C11.1929 30.1339 11.0821 29.9954 10.9634 29.8641C10.8134 29.6981 10.6509 29.5439 10.4778 29.402L10.4707 29.3963C10.4698 29.3993 10.4689 29.4021 10.4679 29.405C10.4006 29.6183 10.3489 29.8363 10.3142 30.0572C10.3099 30.0843 10.3059 30.1113 10.3022 30.1384C10.6889 30.4153 11.0321 30.7561 11.2824 31.1619C11.5205 31.5478 11.6714 31.9822 11.7541 32.4272C11.7816 32.4355 11.8091 32.4441 11.8365 32.4531C11.8344 32.4189 11.8326 32.3847 11.8312 32.3506C11.8253 32.2061 11.8259 32.0615 11.8331 31.9173C11.8358 31.8626 11.8395 31.808 11.8443 31.7537ZM37.3718 31.6924C37.3665 31.7703 37.3567 31.848 37.3443 31.925L37.3416 31.9418C37.5558 31.8032 37.7491 31.6319 37.8991 31.425C38.0752 31.182 38.1894 30.8982 38.2571 30.6071C38.272 30.5429 38.2847 30.4783 38.2952 30.4133C38.3063 30.344 38.3148 30.2743 38.3212 30.2043L38.3213 30.2027C38.3208 30.203 38.3203 30.2031 38.3198 30.2033C38.2537 30.2271 38.1884 30.2529 38.1241 30.2811C38.0639 30.3077 38.0044 30.3362 37.9461 30.3668C37.6651 30.5142 37.4051 30.7103 37.2102 30.9625C37.0645 31.1508 36.9585 31.3665 36.8842 31.5922C36.9402 31.5754 36.9968 31.5601 37.0538 31.5468L37.0607 31.5382C37.1757 31.4004 37.2934 31.2644 37.4197 31.1348C37.5448 31.0046 37.6757 30.8782 37.8219 30.7632L37.8231 30.764C37.7574 30.9381 37.6764 31.1007 37.5898 31.2596C37.5227 31.3844 37.4503 31.5053 37.3756 31.6246L37.3718 31.6924ZM36.5218 31.7254C36.6047 31.3824 36.7468 31.0514 36.9631 30.7715C37.0467 30.6635 37.1404 30.5642 37.2418 30.4735L37.2469 30.4688C37.2393 30.311 37.2149 30.1538 37.178 30.0005C37.1626 29.9365 37.1449 29.873 37.1251 29.8102C37.1041 29.7432 37.0805 29.6771 37.0548 29.6118L37.0543 29.6103C37.0538 29.6107 37.0534 29.6111 37.053 29.6114C37.0047 29.6624 36.9579 29.7146 36.913 29.7686C36.871 29.8193 36.8307 29.8715 36.7924 29.925C36.6072 30.1825 36.4627 30.4743 36.4014 30.787C36.34 31.0997 36.3638 31.4246 36.438 31.733C36.4401 31.7421 36.4423 31.7512 36.4446 31.7603C36.4702 31.7482 36.4959 31.7366 36.5218 31.7254ZM25.7463 28.3382C27.129 28.8439 28.608 29.0725 30.097 29C28.3482 29.5682 26.5583 29.6357 24.8794 29.2822L24.8655 29.6282L24 30.8195L23.1342 29.6282L23.1205 29.2822C21.4418 29.6357 19.6516 29.5682 17.9028 29C19.3918 29.0725 20.8709 28.8439 22.2537 28.3382C19.989 27.1518 18.1678 25.1126 17.3146 22.4889C16.0504 18.6015 17.2459 14.3344 20.3463 11.6683C16.9773 16.6522 18.1903 23.383 23.0232 26.8909L22.6872 18.584V12.0492C23.2106 11.7982 23.6626 11.4185 24 10.9464C24.3373 11.4185 24.7895 11.7982 25.3127 12.0492V18.584L24.9768 26.8909C29.8097 23.383 31.0226 16.6522 27.6538 11.6683C30.7541 14.3344 31.9494 18.6015 30.6853 22.4889C29.8323 25.1126 28.011 27.1518 25.7463 28.3382ZM38.5491 30.7283C38.5966 30.7261 38.6441 30.7226 38.6913 30.7181C39.0447 30.6844 39.3977 30.5855 39.6974 30.3908C39.9491 30.2273 40.1575 30.0034 40.3253 29.7559C40.3623 29.7015 40.3972 29.6456 40.4305 29.5887C40.4658 29.528 40.4987 29.4661 40.5298 29.4031L40.5305 29.4016C40.5011 29.4008 40.4716 29.4006 40.4421 29.4008C40.3829 29.4013 40.3237 29.4031 40.2645 29.407C40.013 29.4236 39.7602 29.4721 39.5243 29.5632L39.5219 29.5695C39.4833 29.6625 39.4385 29.753 39.3871 29.8401C39.188 30.1777 38.8977 30.4553 38.5731 30.6719L38.5608 30.68C38.557 30.6961 38.5531 30.7122 38.5491 30.7283ZM7.45387 27.5885C7.42703 27.5728 7.40004 27.5572 7.37288 27.542C7.16465 27.4251 6.94698 27.3255 6.72282 27.2434L6.71425 27.2403C6.71431 27.2433 6.71439 27.2464 6.71445 27.2494C6.72104 27.4729 6.74394 27.6958 6.78376 27.916C6.81528 28.09 6.85729 28.2624 6.9111 28.431C7.01304 28.7505 7.15802 29.0577 7.35447 29.3303C7.5459 29.5958 7.784 29.8256 8.04667 30.0202C8.2035 30.1363 8.36907 30.2406 8.54101 30.3332C8.52107 30.3131 8.50131 30.2928 8.48173 30.2724C8.11845 29.8927 7.81625 29.4471 7.64087 28.9495C7.48741 28.514 7.43457 28.0488 7.45387 27.5885ZM9.42946 29.6466C9.45052 29.2084 9.40166 28.7651 9.25126 28.352C9.13666 28.0373 8.96526 27.7453 8.75994 27.4814C8.51923 27.1719 8.23228 26.8985 7.91741 26.6654L7.91005 26.6601C7.90927 26.6631 7.90848 26.6659 7.90769 26.6688C7.85101 26.8852 7.81015 27.1056 7.78635 27.328C7.76751 27.504 7.75926 27.6811 7.76338 27.858C7.77117 28.1933 7.82374 28.5289 7.93541 28.8457C8.0471 29.1626 8.21657 29.457 8.42075 29.7231C8.52396 29.8576 8.63612 29.9851 8.75521 30.1057C8.82364 30.175 8.89436 30.2419 8.96721 30.3065L8.96606 30.2866C8.9646 30.2595 8.96195 30.1939 8.96195 30.1939C8.86403 29.949 8.77552 29.7005 8.68915 29.4512C8.60371 29.1951 8.52114 28.938 8.44857 28.677C8.375 28.4165 8.30779 28.1535 8.2582 27.8837L8.25957 27.8831C8.40235 28.1174 8.52727 28.3584 8.64581 28.6018C8.76548 28.8448 8.87503 29.0917 8.98183 29.3396C9.0052 29.3956 9.02846 29.4517 9.05152 29.5079L9.1827 29.5509C9.26631 29.5791 9.34845 29.6117 9.42946 29.6466ZM38.6428 29.9977C38.6432 30.0758 38.6392 30.1539 38.6323 30.2317L38.6316 30.2398C38.8464 30.0619 39.0333 29.8489 39.1627 29.6012C39.3018 29.3352 39.3735 29.0377 39.3982 28.7399C39.4036 28.6742 39.4067 28.6084 39.4077 28.5426C39.4087 28.4724 39.4069 28.4022 39.4031 28.3322L39.4029 28.3306C39.4024 28.3308 39.4019 28.3311 39.4014 28.3313C39.3396 28.3644 39.2786 28.3994 39.2192 28.4367C39.1633 28.4718 39.1088 28.5086 39.0555 28.5473C38.799 28.7339 38.5701 28.9657 38.414 29.2434C38.2961 29.4531 38.2221 29.6844 38.1815 29.921C38.2296 29.9033 38.279 29.8865 38.3279 29.8715L38.3494 29.8348C38.4433 29.6817 38.54 29.5301 38.6461 29.3835C38.7511 29.2365 38.8623 29.0926 38.9902 28.9576L38.9915 28.9582C38.9517 29.1399 38.8952 29.3127 38.8327 29.4823C38.7755 29.6404 38.71 29.794 38.642 29.9462L38.6428 29.9977ZM37.8468 30.0669C37.8815 29.7262 37.9735 29.3896 38.1418 29.0904C38.2099 28.9694 38.2897 28.8558 38.3788 28.7498C38.3482 28.5947 38.3012 28.4427 38.2425 28.2965C38.2179 28.2354 38.1913 28.1752 38.1625 28.1159C38.1321 28.0527 38.099 27.9908 38.0642 27.9298L38.0634 27.9283C38.063 27.9287 38.0626 27.9292 38.0624 27.9297C38.0218 27.987 37.983 28.0456 37.9466 28.1055C37.9125 28.1619 37.8801 28.2192 37.8498 28.2777C37.704 28.5593 37.6034 28.869 37.5882 29.1873C37.5729 29.5037 37.6426 29.8197 37.7596 30.1124C37.7874 30.0973 37.8154 30.0827 37.8436 30.0685L37.8468 30.0669ZM9.78414 29.8176C9.83449 29.6822 9.87777 29.5442 9.9131 29.4043C9.98861 29.1048 10.027 28.7951 10.0132 28.4862C9.99819 28.1495 9.92066 27.8178 9.80099 27.5035C9.6586 27.1294 9.45814 26.7777 9.21829 26.4578L9.20229 26.4367L9.19672 26.4294C9.19513 26.4321 9.19356 26.4347 9.19197 26.4373C9.07694 26.6291 8.97598 26.8292 8.89082 27.036C8.88041 27.0612 8.87023 27.0867 8.8603 27.1121C9.17216 27.4712 9.42667 27.8824 9.57589 28.3352C9.72991 28.8026 9.77076 29.3016 9.73327 29.7908C9.72669 29.7874 9.76069 29.805 9.78414 29.8176ZM39.7995 28.6886C39.868 28.6737 39.9359 28.6562 40.003 28.6366C40.3437 28.5366 40.6716 28.3726 40.9289 28.1248C41.1451 27.9166 41.3075 27.6573 41.4254 27.3826C41.4513 27.3222 41.4751 27.2607 41.497 27.1985C41.5202 27.1324 41.5408 27.0652 41.5593 26.9975L41.5598 26.996C41.5592 26.996 41.5587 26.9961 41.5582 26.9962C41.4889 27.008 41.42 27.0218 41.3518 27.0385C41.2878 27.0539 41.2243 27.0715 41.1615 27.0914C40.9664 27.1531 40.7761 27.2364 40.6022 27.3452C40.5819 27.4459 40.5546 27.5455 40.5199 27.6427C40.3884 28.012 40.1559 28.3394 39.8782 28.6134C39.8524 28.6389 39.8263 28.664 39.7995 28.6886ZM39.4561 27.9589C39.4706 27.9172 39.4854 27.8755 39.5001 27.8339C39.5634 27.666 39.6295 27.4988 39.706 27.3347C39.7813 27.1704 39.8632 27.0081 39.9632 26.8513L39.9647 26.8518C39.9599 27.0376 39.9372 27.218 39.9078 27.3964C39.8796 27.5751 39.8411 27.7506 39.7997 27.9253C39.7717 28.0352 39.7427 28.145 39.7107 28.2538C39.7123 28.2739 39.7137 28.294 39.7148 28.314C39.7152 28.3204 39.7156 28.3268 39.716 28.3333C39.9561 28.0827 40.1542 27.785 40.2545 27.4506C40.3407 27.1631 40.3548 26.8575 40.3226 26.5603C40.3156 26.4949 40.3061 26.4297 40.2946 26.3649C40.2822 26.2957 40.2672 26.2271 40.2502 26.1591L40.2499 26.1574C40.2494 26.1578 40.249 26.1581 40.2485 26.1584C40.194 26.2028 40.1408 26.2486 40.0895 26.2966C40.0414 26.3414 39.9947 26.388 39.9497 26.436C39.7332 26.6678 39.5523 26.9388 39.4515 27.2411C39.3697 27.4868 39.3424 27.7474 39.3533 28.0056C39.3864 27.9898 39.4197 27.9745 39.4534 27.96L39.4665 27.9546L39.4561 27.9589ZM39.0519 28.173C39.0193 27.8268 39.0451 27.473 39.1554 27.1424C39.1992 27.0106 39.2562 26.884 39.3235 26.763C39.2642 26.6165 39.1892 26.4761 39.1038 26.3436C39.0682 26.2883 39.0306 26.2341 38.9912 26.1814C38.9492 26.1251 38.9051 26.0705 38.8593 26.0172L38.8583 26.016C38.8581 26.0165 38.8578 26.017 38.8576 26.0175C38.8286 26.0815 38.8016 26.1463 38.7772 26.2121C38.7543 26.2738 38.7334 26.3363 38.7148 26.3995C38.625 26.7037 38.5847 27.0268 38.6301 27.3423C38.6753 27.6573 38.8046 27.9558 38.9761 28.2222L38.9774 28.2213C39.002 28.2049 39.0268 28.1888 39.0519 28.173ZM14.0181 15.4508C11.6697 19.5118 13.06 24.7067 17.1222 27.0544C17.116 27.0469 17.1098 27.0382 17.1035 27.0295C13.4122 22.1218 14.4003 15.1511 19.3107 11.461C17.0785 12.0192 15.1698 13.459 14.0181 15.4508ZM30.8965 27.0295C30.8903 27.0382 30.884 27.0471 30.8778 27.0544C34.94 24.7067 36.3303 19.5118 33.9819 15.4508C32.8302 13.459 30.9215 12.0192 28.6893 11.461C33.5997 15.1511 34.5877 22.1218 30.8965 27.0295ZM7.90797 26.2807C7.97057 26.3198 8.0815 26.3985 8.0767 26.395C8.20823 25.8788 8.24862 25.3313 8.13252 24.8083C8.06385 24.4989 7.94254 24.2029 7.78712 23.9273C7.59471 23.5861 7.35084 23.2741 7.07388 22.9975L7.05505 22.9789L7.04852 22.9726C7.04733 22.9754 7.04613 22.9782 7.04493 22.9809C6.95841 23.1872 6.88699 23.3997 6.83216 23.6166C6.78879 23.7881 6.75572 23.9623 6.73492 24.1381C6.6955 24.4711 6.70038 24.8108 6.76641 25.1401C6.83246 25.4695 6.95884 25.7848 7.12358 26.077C7.21052 26.2311 7.3082 26.3792 7.41436 26.5208C7.46535 26.5889 7.51831 26.6553 7.57312 26.7203L7.57617 26.7073C7.58112 26.6863 7.5862 26.6653 7.59145 26.6445L7.59547 26.6286C7.53185 26.3692 7.47857 26.1075 7.42762 25.8454C7.3789 25.5799 7.33331 25.3138 7.29809 25.0452C7.26186 24.7768 7.23238 24.5071 7.22126 24.2331L7.22264 24.2327C7.33094 24.4847 7.42088 24.7407 7.50394 24.9985C7.58826 25.2558 7.66209 25.5157 7.73291 25.7761C7.77346 25.9322 7.81318 26.0884 7.85032 26.2452L7.90797 26.2807ZM6.46642 23.8275C6.26255 23.6645 6.04324 23.5205 5.81438 23.3958L5.79108 23.3833L5.78303 23.3789C5.78266 23.382 5.78231 23.385 5.78195 23.388C5.7562 23.6177 5.74779 23.8492 5.75774 24.0802C5.76505 24.2496 5.78216 24.4184 5.81048 24.5856C5.86811 24.9257 5.9727 25.2591 6.13648 25.5634C6.28711 25.8433 6.48548 26.0956 6.7114 26.3185C6.85036 26.4557 6.99965 26.5822 7.1569 26.6979C7.13996 26.6752 7.12323 26.6523 7.10672 26.6294C6.80044 26.2024 6.56391 25.7187 6.46021 25.2015C6.36947 24.7488 6.38264 24.2804 6.46642 23.8275ZM40.6548 26.5333C40.7208 26.5101 40.7859 26.4844 40.8499 26.4565C41.1753 26.3148 41.4804 26.1111 41.7046 25.8331C41.8931 25.5995 42.0218 25.322 42.1043 25.0347C42.1224 24.9715 42.1384 24.9075 42.1523 24.8431C42.167 24.7744 42.179 24.7054 42.189 24.6358L42.1893 24.6342C42.1886 24.6343 42.1881 24.6344 42.1876 24.6347C42.1204 24.655 42.0539 24.6774 41.9882 24.7024C41.9267 24.7257 41.8659 24.7512 41.806 24.7787C41.6202 24.8643 41.4419 24.9707 41.283 25.1004C41.2754 25.2029 41.2608 25.305 41.2385 25.4059C41.1542 25.7887 40.9645 26.1427 40.7233 26.4492C40.7009 26.4776 40.6782 26.5057 40.6548 26.5333ZM8.3644 26.5292C8.4721 26.3505 8.56691 26.1641 8.6459 25.9709C8.76275 25.6852 8.84429 25.3838 8.87408 25.076C8.90654 24.7407 8.87635 24.4013 8.80208 24.0732C8.7137 23.6829 8.56468 23.3065 8.37222 22.956L8.35934 22.9329L8.35486 22.925C8.35294 22.9274 8.351 22.9296 8.34908 22.932C8.20822 23.1058 8.08011 23.2896 7.9667 23.4824C7.95285 23.506 7.93921 23.5298 7.92579 23.5536C8.18408 23.9529 8.37827 24.3958 8.46234 24.8651C8.55304 25.3715 8.51647 25.8946 8.39864 26.3935C8.38791 26.4388 8.37649 26.4841 8.3644 26.5292ZM39.8445 26.0984C39.7721 25.7642 39.7552 25.4162 39.822 25.08C39.8491 24.9438 39.8897 24.811 39.9414 24.6826C39.8642 24.5447 39.7724 24.4148 39.6711 24.294C39.6288 24.2434 39.5847 24.1945 39.5391 24.147C39.4904 24.0965 39.4398 24.0479 39.3877 24.0007L39.3864 23.9996C39.3863 24.0001 39.3861 24.0007 39.3859 24.0012C39.3652 24.0682 39.3466 24.1359 39.3306 24.2044C39.3155 24.2684 39.3026 24.333 39.292 24.398C39.2409 24.711 39.2414 25.0367 39.3259 25.3439C39.4096 25.6483 39.5731 25.9263 39.7743 26.1678C39.7865 26.1554 39.7988 26.1431 39.8113 26.1308C39.8223 26.1199 39.8334 26.1091 39.8445 26.0984ZM40.5664 26.1375C40.7541 25.8717 40.8973 25.5706 40.9511 25.2485C41.0006 24.9524 40.9763 24.6476 40.9073 24.3567C40.892 24.2927 40.8745 24.2291 40.8551 24.1663C40.8342 24.0992 40.8107 24.033 40.7852 23.9676L40.7846 23.9661C40.7842 23.9665 40.7839 23.9668 40.7835 23.9672C40.7349 24.018 40.6879 24.0701 40.643 24.1241C40.6009 24.1746 40.5604 24.2266 40.5218 24.28C40.3359 24.537 40.1905 24.8284 40.1283 25.1409C40.081 25.3788 40.0828 25.6238 40.1188 25.8634C40.1549 25.8361 40.1916 25.8097 40.2291 25.7842L40.2386 25.7778C40.2426 25.7596 40.2466 25.7414 40.2507 25.7231C40.2926 25.5484 40.3372 25.3745 40.3926 25.2021C40.4467 25.0297 40.5077 24.8583 40.5872 24.6903L40.5887 24.6905C40.6074 24.8755 40.6072 25.0574 40.6006 25.238C40.5949 25.4188 40.5785 25.5979 40.5594 25.7763C40.5501 25.8499 40.5405 25.9234 40.5299 25.9967C40.538 26.0251 40.5456 26.0535 40.5529 26.0821C40.5575 26.1006 40.562 26.119 40.5664 26.1375ZM41.3646 24.3993C41.4258 24.3655 41.4859 24.3294 41.5446 24.2914C41.8424 24.0983 42.1099 23.8475 42.2857 23.5365C42.4335 23.2753 42.5149 22.9804 42.5494 22.6836C42.557 22.6182 42.5624 22.5525 42.5654 22.4867C42.5688 22.4166 42.5693 22.3464 42.5678 22.2763V22.2745C42.5673 22.2748 42.5668 22.275 42.5663 22.2753C42.5033 22.3063 42.4412 22.3393 42.3805 22.3747C42.3237 22.4079 42.2678 22.4428 42.2134 22.4798C42.044 22.5947 41.8855 22.7287 41.7499 22.8827C41.7592 22.9851 41.7616 23.0882 41.7561 23.1914C41.7355 23.5828 41.6062 23.963 41.4184 24.3049C41.4009 24.3366 41.3829 24.3681 41.3646 24.3993ZM39.9419 24.1316C39.9991 24.202 40.0534 24.2752 40.1038 24.3507C40.1099 24.3402 40.1161 24.3297 40.1223 24.3194C40.0594 24.2596 39.999 24.1969 39.9419 24.1316ZM40.8472 23.4889C40.8574 23.3688 40.8703 23.2487 40.888 23.1285C40.9133 22.9496 40.9454 22.7706 40.9965 22.5918H40.998C41.0467 22.7713 41.0763 22.9507 41.0991 23.13C41.1231 23.3094 41.1362 23.4886 41.1465 23.6678C41.152 23.805 41.1561 23.9421 41.155 24.0792C41.1587 24.0912 41.1623 24.1032 41.1658 24.1152L41.1716 24.1043C41.3364 23.79 41.4463 23.4401 41.4468 23.083C41.4472 22.7829 41.3735 22.4859 41.2577 22.2104C41.2322 22.1496 41.2046 22.0898 41.175 22.031C41.1435 21.9683 41.1095 21.9069 41.0737 21.8466L41.0728 21.8451C41.0725 21.8456 41.0722 21.8461 41.0719 21.8464C41.0323 21.9045 40.9945 21.9636 40.9589 22.0241C40.9256 22.0809 40.8942 22.1389 40.8648 22.1978C40.7235 22.4818 40.6277 22.793 40.6175 23.1116C40.6119 23.2889 40.6327 23.4656 40.6736 23.6379C40.688 23.6246 40.8472 23.4889 40.8472 23.4889ZM40.4224 23.901C40.3409 23.6427 40.2967 23.3728 40.3053 23.1016C40.3098 22.9627 40.3282 22.8251 40.3582 22.69C40.2593 22.5665 40.1475 22.4533 40.0278 22.3507C39.9778 22.3078 39.9263 22.2668 39.8735 22.2274C39.8171 22.1855 39.7593 22.1458 39.7002 22.1078L39.6989 22.1068C39.6987 22.1074 39.6986 22.1079 39.6986 22.1085C39.6891 22.1781 39.6817 22.2479 39.6771 22.318C39.6729 22.3837 39.6706 22.4495 39.6709 22.5154C39.6716 22.8325 39.7255 23.1536 39.859 23.443C39.9652 23.673 40.1193 23.8778 40.2991 24.0559L40.3052 24.0476C40.3187 24.0298 40.3324 24.0121 40.3463 23.9944C40.371 23.9628 40.3965 23.9318 40.4224 23.901ZM7.68566 23.0545C7.72974 23.0023 7.77258 22.9491 7.81412 22.8948C8.10408 22.5161 8.33315 22.0842 8.43996 21.6172C8.5106 21.3083 8.52802 20.9888 8.50583 20.6732C8.47836 20.2823 8.39187 19.8961 8.26032 19.5275L8.25127 19.5026L8.2481 19.4941C8.24582 19.4961 8.24355 19.4981 8.24126 19.5001C8.07464 19.6493 7.91898 19.8107 7.77643 19.983C7.75902 20.0041 7.74179 20.0253 7.72475 20.0468C7.91645 20.482 8.03796 20.9501 8.0465 21.4267C8.0557 21.9411 7.93662 22.4518 7.74116 22.9256C7.72332 22.9688 7.70481 23.0118 7.68566 23.0545ZM6.24035 20.0859C6.06495 19.8927 5.87137 19.7158 5.66512 19.5562L5.6441 19.5402L5.63683 19.5347C5.63599 19.5376 5.63517 19.5406 5.63433 19.5434C5.57447 19.759 5.53039 19.9786 5.50332 20.2007C5.48191 20.3764 5.47107 20.5533 5.47258 20.7303C5.47545 21.0657 5.52311 21.402 5.63012 21.7204C5.73712 22.039 5.90222 22.3358 6.10246 22.6048C6.20812 22.7468 6.32368 22.8814 6.44683 23.0085C6.45337 23.0153 6.46522 23.0263 6.46522 23.0263C6.45267 23.0022 6.44034 22.9779 6.42821 22.9537C6.19354 22.4837 6.03667 21.9687 6.01633 21.4416C5.99854 20.9803 6.08579 20.5199 6.24035 20.0859ZM7.41317 22.8989C7.49581 22.7113 7.56513 22.518 7.61849 22.3201C7.69888 22.022 7.74231 21.7129 7.73361 21.4039C7.72413 21.0671 7.65189 20.7341 7.53738 20.4178C7.47678 20.2505 7.40434 20.0874 7.32231 19.9294C7.21578 19.7241 7.09304 19.5277 6.95618 19.3414L6.95074 19.334C6.94913 19.3366 6.9475 19.3391 6.94588 19.3418C6.82376 19.5381 6.71652 19.7434 6.62612 19.9562C6.55651 20.12 6.49682 20.2882 6.44929 20.4598C6.35948 20.784 6.31316 21.1214 6.32964 21.4581C6.3456 21.784 6.41945 22.1054 6.53247 22.411C6.59292 22.5745 6.66432 22.7338 6.74519 22.8883L6.75172 22.8725C6.78228 22.7996 6.81493 22.7277 6.85036 22.657L6.8563 22.6454L6.88356 22.5936C6.87784 22.4726 6.87338 22.3516 6.86939 22.2306C6.86352 21.9607 6.86065 21.6907 6.86852 21.42C6.87526 21.1492 6.88888 20.8781 6.92136 20.6058H6.92286C6.98981 20.8716 7.0379 21.1389 7.07912 21.4065C7.12147 21.674 7.1532 21.9422 7.1818 22.2106C7.19762 22.3764 7.21253 22.5424 7.22452 22.7085C7.26275 22.7447 7.30013 22.7818 7.33693 22.8192C7.36265 22.8454 7.38807 22.872 7.41317 22.8989ZM41.6468 22.2237C41.7019 22.1806 41.7553 22.1354 41.8072 22.0884C42.0702 21.8503 42.2942 21.56 42.418 21.2249C42.5219 20.9434 42.5553 20.6394 42.5418 20.3407C42.5388 20.275 42.5335 20.2093 42.526 20.1438C42.5182 20.074 42.5074 20.0047 42.4947 19.9357L42.4944 19.9341C42.4939 19.9343 42.4934 19.9347 42.4931 19.9351C42.4359 19.9758 42.3799 20.0182 42.3257 20.0628C42.2748 20.1046 42.2252 20.1481 42.1774 20.1933C42.0285 20.3338 41.8936 20.4914 41.7844 20.665C41.81 20.7646 41.8288 20.866 41.8399 20.9688C41.8821 21.3584 41.8154 21.7544 41.6847 22.1219C41.6726 22.156 41.66 22.19 41.6468 22.2237ZM40.6573 21.9224C40.5248 21.6691 40.4301 21.396 40.3934 21.112C40.3756 20.9743 40.3716 20.8355 40.3796 20.6973C40.2625 20.5913 40.1338 20.4975 39.9993 20.4153C39.9431 20.381 39.8856 20.3486 39.8271 20.3183C39.7649 20.2858 39.7014 20.256 39.637 20.2279L39.6355 20.2273C39.6355 20.2278 39.6355 20.2284 39.6355 20.2289C39.6374 20.2991 39.6413 20.3691 39.6479 20.4391C39.6541 20.5046 39.6626 20.5699 39.6732 20.6349C39.7248 20.9478 39.8294 21.2563 40.0075 21.5205C40.157 21.7424 40.355 21.928 40.5749 22.0797C40.5972 22.0341 40.6206 21.9892 40.645 21.9447C40.6491 21.9373 40.6532 21.9298 40.6573 21.9224ZM41.3451 21.6921C41.3786 21.7483 41.4103 21.8056 41.4403 21.8638C41.5306 21.5558 41.5683 21.2294 41.5172 20.9113C41.4696 20.615 41.3492 20.3337 41.191 20.0802C41.1561 20.0243 41.1193 19.9696 41.0805 19.9163C41.0394 19.8595 40.9961 19.8043 40.9511 19.7504L40.95 19.7491C40.9497 19.7496 40.9495 19.7501 40.9492 19.7506C40.9195 19.8142 40.8915 19.8786 40.8662 19.944C40.8424 20.0055 40.8207 20.0677 40.8011 20.1306C40.707 20.4334 40.6623 20.756 40.7032 21.0721C40.7271 21.2585 40.7807 21.4396 40.8551 21.612L40.9926 21.439C40.9823 21.3085 40.9748 21.1775 40.9729 21.0457C40.9691 20.865 40.9721 20.6832 40.994 20.4985L40.9955 20.4983C41.0722 20.6676 41.1302 20.8399 41.1815 21.0134C41.2338 21.1865 41.2755 21.3614 41.3144 21.5366C41.325 21.5883 41.3352 21.6401 41.3451 21.6921ZM41.6688 20.0187C41.7191 19.9701 41.7676 19.9197 41.8143 19.8676C42.0512 19.6035 42.244 19.2914 42.3323 18.9454C42.4066 18.6547 42.4082 18.3487 42.3639 18.0532C42.3542 17.9881 42.342 17.9233 42.3278 17.859C42.3127 17.7904 42.2949 17.7226 42.2751 17.6553L42.2746 17.6537C42.2742 17.654 42.2737 17.6544 42.2733 17.6548C42.2207 17.7012 42.1694 17.7492 42.1202 17.7992C42.0738 17.846 42.0291 17.8944 41.9862 17.9443C41.8527 18.0995 41.7348 18.2703 41.6441 18.4543C41.6799 18.5507 41.7091 18.6496 41.7308 18.7506C41.8133 19.1337 41.7879 19.5346 41.696 19.9136C41.6875 19.9488 41.6784 19.9838 41.6688 20.0187ZM40.6076 19.75C40.4717 19.5312 40.3664 19.2938 40.3071 19.0429C40.2756 18.9099 40.2573 18.7747 40.2506 18.6387L40.2504 18.6318C40.1228 18.5385 39.9852 18.4585 39.8429 18.3908C39.7834 18.3625 39.723 18.3362 39.6616 18.312C39.5963 18.2863 39.5301 18.2631 39.4631 18.2418L39.4615 18.2413C39.4615 18.2418 39.4616 18.2425 39.4616 18.243C39.4708 18.3126 39.4819 18.382 39.4957 18.4508C39.5087 18.5153 39.524 18.5794 39.5413 18.6429C39.625 18.9488 39.7609 19.2447 39.9654 19.4891C40.1231 19.6774 40.3181 19.8312 40.5303 19.9542C40.5347 19.9414 40.539 19.9286 40.5435 19.9159C40.5625 19.8626 40.5827 19.8098 40.6045 19.7575L40.6076 19.75ZM40.7187 17.6313C40.6957 17.6976 40.6746 17.7646 40.6562 17.8322C40.6388 17.8958 40.6237 17.9599 40.6107 18.0244C40.5485 18.3354 40.5375 18.6609 40.611 18.971C40.6472 19.1244 40.7037 19.2717 40.775 19.4118L40.8833 19.2334L40.9323 19.2807C40.9104 19.1602 40.891 19.0392 40.8765 18.9168C40.8542 18.7374 40.8383 18.5563 40.8408 18.3703L40.8423 18.37C40.9361 18.5306 41.0117 18.6959 41.0807 18.863C41.1507 19.0298 41.2103 19.1994 41.267 19.3697C41.3139 19.5191 41.3592 19.6689 41.3972 19.8205C41.3999 19.8086 41.4027 19.7966 41.4054 19.7845C41.4821 19.438 41.4967 19.0717 41.4038 18.7269C41.3259 18.437 41.1771 18.1698 40.9932 17.934C40.9527 17.8821 40.9105 17.8315 40.8666 17.7825C40.8197 17.7302 40.7709 17.6798 40.7205 17.6308L40.7193 17.6297L40.7187 17.6313ZM8.894 16.1739C8.894 16.1739 8.62332 16.3642 8.48094 16.4434C8.40681 16.4846 8.33156 16.5238 8.25528 16.561C8.33733 17.0213 8.34542 17.4963 8.24538 17.9541C8.1356 18.4568 7.90181 18.9262 7.60225 19.342C7.5749 19.3801 7.54696 19.4176 7.51848 19.4548C7.57342 19.4141 7.6274 19.3722 7.68032 19.329C8.04991 19.0273 8.37248 18.6601 8.58425 18.2302C8.72431 17.946 8.81501 17.6392 8.86631 17.327C8.92884 16.9465 8.93472 16.557 8.894 16.1739ZM7.27836 19.2547L7.2819 19.2501C7.61153 18.8164 7.86749 18.3155 7.96233 17.7757C8.01863 17.4552 8.01827 17.1264 7.97682 16.8043C7.92792 16.4241 7.82327 16.0515 7.67631 15.6978L7.66601 15.6735L7.66238 15.6651C7.66021 15.6672 7.65805 15.6694 7.65588 15.6715C7.49707 15.8291 7.34984 15.998 7.21628 16.1775C7.11061 16.3195 7.01343 16.4678 6.92703 16.6223C6.76328 16.915 6.63799 17.2307 6.57307 17.5604C6.50817 17.8899 6.50442 18.2296 6.54497 18.5625C6.56636 18.7382 6.60003 18.9123 6.64399 19.0838C6.65308 19.1192 6.66262 19.1546 6.6726 19.1898C6.71462 19.1221 6.75861 19.0557 6.80516 18.991L6.81288 18.9805L6.81604 18.9762C6.84636 18.8053 6.87992 18.635 6.91442 18.4647C6.97101 18.2008 7.03059 17.9374 7.1008 17.6758C7.16987 17.414 7.24557 17.1534 7.34013 16.8959L7.34163 16.8962C7.34538 17.1704 7.33051 17.4414 7.30878 17.7112C7.28829 17.9813 7.25719 18.2496 7.22309 18.5173C7.19749 18.7011 7.17089 18.8847 7.14047 19.0677C7.18172 19.1201 7.22131 19.1739 7.25984 19.2284C7.26604 19.2371 7.27222 19.2459 7.27836 19.2547ZM6.33816 19.1482C6.33126 19.121 6.32463 19.0938 6.31823 19.0664C6.19358 18.5343 6.16244 17.9744 6.27956 17.438C6.37353 17.0076 6.55798 16.6017 6.79754 16.2326C6.66728 15.9964 6.5141 15.7726 6.34342 15.5642L6.3376 15.5571C6.33611 15.5598 6.33464 15.5625 6.33315 15.5651C6.22516 15.761 6.13152 15.9646 6.05393 16.1744C5.99253 16.3403 5.94111 16.5102 5.90172 16.6826C5.82708 17.0097 5.79579 17.3478 5.8264 17.6824C5.857 18.0169 5.94915 18.3439 6.08185 18.6519C6.15187 18.8144 6.23324 18.972 6.32373 19.1241C6.32851 19.1322 6.33332 19.1402 6.33816 19.1482ZM40.3349 17.8269C40.1809 17.6303 40.0537 17.413 39.9679 17.1781C39.9211 17.0498 39.8871 16.9175 39.8645 16.7833L39.8634 16.7765C39.7258 16.6987 39.5798 16.6354 39.4304 16.5848C39.3681 16.5636 39.305 16.5448 39.2413 16.5279C39.1733 16.5099 39.1049 16.4947 39.0359 16.4814L39.0342 16.4811C39.0343 16.4817 39.0346 16.4822 39.0347 16.4827C39.0518 16.5509 39.071 16.6183 39.0929 16.6851C39.1134 16.7477 39.1359 16.8095 39.1606 16.8706C39.2796 17.1645 39.4493 17.4426 39.681 17.6613C39.8574 17.8277 40.0659 17.9562 40.288 18.0532C40.3002 17.9807 40.3151 17.9088 40.3323 17.8376L40.3349 17.8269ZM41.4348 17.9876C41.479 17.9334 41.5214 17.8776 41.5616 17.8205C41.7659 17.5303 41.9206 17.1979 41.9678 16.8438C42.0074 16.5464 41.9732 16.2424 41.8945 15.9541C41.8771 15.8906 41.8575 15.8277 41.8359 15.7655C41.8128 15.6992 41.7872 15.6339 41.7596 15.5693L41.7589 15.5677C41.7586 15.5682 41.7582 15.5686 41.7578 15.569C41.711 15.6213 41.6657 15.675 41.6227 15.7304C41.5822 15.7824 41.5435 15.8356 41.5066 15.8903C41.3923 16.06 41.2953 16.2434 41.2268 16.4367C41.2735 16.5283 41.3142 16.6231 41.3476 16.7208C41.4745 17.0917 41.4962 17.4927 41.4495 17.8799C41.4452 17.9159 41.4403 17.9518 41.4348 17.9876ZM41.1567 17.6402C41.1716 17.3332 41.1347 17.0218 41.0202 16.7356C40.9087 16.457 40.7295 16.209 40.5194 15.9963C40.4731 15.9495 40.4251 15.9044 40.3758 15.8608C40.3231 15.8143 40.2687 15.77 40.2129 15.7273L40.2116 15.7262C40.2115 15.7268 40.2114 15.7273 40.2113 15.7279C40.1961 15.7965 40.183 15.8654 40.1727 15.9349C40.1629 15.9999 40.1554 16.0654 40.1502 16.131C40.1248 16.4472 40.152 16.7717 40.2613 17.0711C40.3103 17.2051 40.375 17.3325 40.4516 17.4524L40.4531 17.4486C40.4695 17.4064 40.4868 17.3646 40.5052 17.3232L40.5112 17.3103L40.5996 17.1238L40.5708 17.1846C40.5523 17.1189 40.5348 17.0528 40.5188 16.9861C40.4754 16.8106 40.4386 16.6325 40.4192 16.4476L40.4206 16.4471C40.5327 16.5955 40.6271 16.7509 40.7152 16.9088C40.8042 17.0662 40.8834 17.2276 40.9596 17.3902C40.9697 17.4128 40.9798 17.4355 40.99 17.4581C41.0413 17.5101 41.0908 17.5638 41.1385 17.619C41.1446 17.6259 41.1506 17.6331 41.1567 17.6402ZM39.8619 15.9018C39.7077 15.7407 39.5741 15.5606 39.4714 15.3622C39.4086 15.2409 39.358 15.114 39.3185 14.9838L39.3165 14.9772C39.1701 14.9176 39.0172 14.8734 38.8626 14.8423C38.7981 14.8292 38.733 14.8185 38.6677 14.81C38.5981 14.8007 38.5282 14.7944 38.4581 14.79L38.4563 14.7899C38.4566 14.7905 38.4568 14.791 38.457 14.7915C38.4827 14.8568 38.5104 14.9214 38.5405 14.9847C38.5689 15.0441 38.5991 15.1027 38.6315 15.1601C38.787 15.4365 38.9907 15.6906 39.2485 15.878C39.426 16.007 39.6258 16.1021 39.8344 16.1691L39.8346 16.1644C39.8385 16.1021 39.8443 16.04 39.8517 15.9782C39.8547 15.9527 39.8581 15.9272 39.8619 15.9018ZM8.95512 15.7395C9.12177 15.5973 9.27464 15.4392 9.40707 15.2646C9.61075 14.9962 9.76317 14.6915 9.87214 14.3731C10.0018 13.9945 10.0725 13.5959 10.0926 13.1965L10.0938 13.1702L10.0941 13.1611C10.0912 13.1621 10.0884 13.1631 10.0855 13.1641C9.87436 13.2381 9.66879 13.3274 9.47105 13.4321C9.4469 13.4449 9.42285 13.4579 9.39892 13.4711C9.40918 13.9466 9.34199 14.4253 9.16725 14.869C8.99338 15.3103 8.71992 15.7071 8.39446 16.0506L8.41674 16.0363C8.48504 15.992 8.55447 15.9497 8.62495 15.9093C8.72459 15.8519 8.95512 15.7395 8.95512 15.7395ZM41.0293 15.9783C41.0664 15.9189 41.1011 15.8581 41.1339 15.7964C41.2996 15.4825 41.4107 15.1331 41.4123 14.776C41.4138 14.4759 41.341 14.1787 41.2262 13.9027C41.2008 13.8419 41.1735 13.7821 41.1441 13.7232C41.1128 13.6603 41.079 13.5988 41.0434 13.5383L41.0426 13.5368C41.0422 13.5373 41.0419 13.5378 41.0416 13.5382C41.0017 13.5962 40.9637 13.6551 40.928 13.7155C40.8945 13.7722 40.8629 13.83 40.8333 13.8889C40.7416 14.0717 40.6687 14.266 40.6255 14.4664C40.6837 14.5513 40.736 14.6401 40.7816 14.7329C40.9546 15.0847 41.0273 15.4796 41.0302 15.8695C41.0306 15.9058 41.0302 15.942 41.0293 15.9783ZM8.09079 15.9152C8.21166 15.7942 8.32514 15.6659 8.42958 15.5304C8.61807 15.2857 8.77662 15.0169 8.88698 14.728C9.00725 14.4132 9.06821 14.0781 9.08365 13.742C9.10201 13.3423 9.05816 12.9398 8.9656 12.5508L8.95932 12.5252L8.95708 12.5163C8.9546 12.5181 8.95212 12.5198 8.94964 12.5216C8.76771 12.6517 8.59541 12.7952 8.43492 12.951C8.30794 13.0743 8.18832 13.2053 8.07836 13.344C7.8641 13.6143 7.68616 13.9151 7.56947 14.2404C7.45926 14.5476 7.4043 14.8728 7.39156 15.1983C7.3877 15.2971 7.3876 15.396 7.39108 15.4948C7.4535 15.4315 7.51787 15.37 7.58448 15.3111L7.76124 15.1631L7.76694 15.1739L7.77192 15.1606C7.86985 14.9091 7.97079 14.6586 8.08183 14.4115C8.19163 14.1642 8.30818 13.919 8.44259 13.6798L8.44396 13.6803C8.40399 13.9516 8.3459 14.2168 8.28157 14.4798C8.21812 14.7432 8.14454 15.0029 8.06822 15.2619C8.03513 15.3695 8.00168 15.4769 7.96724 15.5841C7.97411 15.6006 7.98087 15.617 7.98755 15.6337C8.02495 15.7263 8.05936 15.8203 8.09079 15.9152ZM40.7145 15.7499C40.6978 15.4166 40.622 15.0822 40.4587 14.7892C40.3126 14.5271 40.1032 14.304 39.8677 14.1199C39.8158 14.0793 39.7624 14.0406 39.708 14.0038C39.6498 13.9643 39.5902 13.9273 39.5295 13.892L39.528 13.8912C39.5278 13.8917 39.5278 13.8924 39.5278 13.8929C39.5215 13.9628 39.5174 14.0328 39.516 14.103C39.5146 14.1688 39.5155 14.2348 39.5186 14.3005C39.5338 14.6173 39.6022 14.9357 39.7487 15.2187C39.8035 15.3246 39.8687 15.4245 39.9419 15.5181L40.0334 15.2379L40.0522 15.2493C40.0319 15.2005 40.0121 15.1513 39.9933 15.1017C39.9279 14.9331 39.8686 14.7613 39.8259 14.5802L39.8271 14.5796C39.9573 14.7124 40.0707 14.8545 40.1783 14.9999C40.2867 15.1448 40.3858 15.2949 40.4821 15.4462C40.5219 15.5113 40.5614 15.5765 40.6 15.6423C40.609 15.6503 40.6178 15.6584 40.6267 15.6665C40.6564 15.6937 40.6857 15.7214 40.7145 15.7499ZM8.01272 12.9387C7.92474 12.6929 7.81372 12.4554 7.68438 12.2291L7.6711 12.2061L7.66648 12.1984C7.66461 12.2008 7.66272 12.2031 7.66084 12.2055C7.51836 12.3876 7.38967 12.5803 7.27694 12.7821C7.19429 12.9301 7.1202 13.0829 7.05659 13.24C6.93073 13.5508 6.84586 13.8797 6.82267 14.2148C6.79949 14.55 6.83826 14.8874 6.92011 15.2127C6.96332 15.3843 7.01848 15.5529 7.08352 15.7174C7.08694 15.7261 7.0904 15.7347 7.09389 15.7434C7.09423 15.7472 7.08949 15.6915 7.08728 15.6597C7.04918 15.1145 7.1078 14.5568 7.30904 14.0458C7.4705 13.636 7.71732 13.2649 8.01272 12.9387ZM39.2031 14.1354C38.9772 13.9934 38.7716 13.8196 38.6044 13.6113C38.5188 13.5047 38.4442 13.3905 38.3796 13.2706C38.3796 13.2706 38.263 13.2454 38.2059 13.2388C38.1261 13.2296 38.0459 13.2249 37.9655 13.2226C37.9354 13.2221 37.9053 13.222 37.8751 13.2221C37.8191 13.223 37.7633 13.2249 37.7075 13.2288C37.6374 13.2335 37.5676 13.241 37.498 13.2506L37.4964 13.2509C37.5591 13.3495 37.6287 13.4441 37.7031 13.5341C37.9292 13.8076 38.2091 14.0445 38.5383 14.1832C38.7508 14.2727 38.9782 14.3212 39.2078 14.3389C39.2051 14.2882 39.2029 14.1524 39.2031 14.1354ZM39.7066 11.7091C39.6931 11.7478 39.5596 12.4262 39.5584 12.505C39.6323 12.5768 39.7012 12.6536 39.7643 12.7355C40.0035 13.0461 40.1529 13.4188 40.2329 13.8006C40.2404 13.8359 40.2472 13.8715 40.2535 13.9072C40.2781 13.8417 40.3001 13.7752 40.3199 13.7082C40.4204 13.3679 40.4601 13.0034 40.3911 12.653C40.3332 12.3585 40.203 12.0816 40.0359 11.8338C39.9991 11.7792 39.9604 11.7259 39.9199 11.6739C39.8767 11.6186 39.8315 11.5649 39.7847 11.5126L39.7835 11.5113C39.7833 11.5119 39.783 11.5124 39.7828 11.5129C39.7553 11.5775 39.7297 11.6428 39.7066 11.7091ZM39.903 13.7589C39.8213 13.4307 39.6799 13.1129 39.4589 12.8545C39.2638 12.6265 39.0144 12.449 38.7471 12.3152C38.6883 12.2857 38.6283 12.2582 38.5676 12.2329C38.5028 12.2058 38.4371 12.1812 38.3705 12.1587L38.3689 12.1581C38.369 12.1587 38.369 12.1592 38.3691 12.1598C38.3768 12.2296 38.3866 12.2991 38.3991 12.3682C38.4107 12.433 38.4246 12.4974 38.4407 12.5613C38.5183 12.8687 38.6482 13.1673 38.8478 13.4158C38.9572 13.5519 39.0859 13.671 39.2264 13.7741L39.265 13.5488C39.1957 13.4522 39.1282 13.3539 39.0645 13.2526C38.9671 13.1004 38.8749 12.9437 38.7972 12.7747L38.7983 12.7737C38.9521 12.8784 39.0915 12.9951 39.2257 13.1165C39.3606 13.2369 39.4874 13.3644 39.6118 13.4939C39.6683 13.5548 39.7245 13.6159 39.7795 13.6781C39.8214 13.704 39.8625 13.7309 39.903 13.7589ZM9.28311 12.5371C9.31184 12.6637 9.36186 12.9147 9.36186 12.9147C9.75864 12.6498 10.115 12.315 10.367 11.9076C10.5336 11.6381 10.6533 11.3412 10.7343 11.0354C10.8345 10.6568 10.8775 10.2632 10.8721 9.87193L10.8715 9.84546L10.8713 9.83634C10.8685 9.83759 10.8657 9.83872 10.8629 9.83984C10.657 9.92738 10.4575 10.0297 10.2669 10.1468C10.1161 10.2394 9.97087 10.3413 9.83333 10.4527C9.57271 10.6639 9.33923 10.9105 9.15668 11.1926C8.97412 11.4747 8.84467 11.7887 8.75883 12.1129C8.74176 12.1774 8.72637 12.2424 8.71263 12.3077L8.71355 12.307C8.78619 12.2537 8.8605 12.2026 8.93667 12.1544L9.13479 12.0366L9.16353 12.1213C9.30591 11.9099 9.45083 11.7001 9.60399 11.4953C9.76513 11.2778 9.93226 11.0639 10.1155 10.8598L10.1168 10.8606C10.0186 11.1167 9.90416 11.3628 9.78399 11.6055C9.6647 11.8487 9.53629 12.0863 9.40538 12.3223C9.36475 12.3936 9.32397 12.4646 9.28277 12.5356L9.28311 12.5371ZM10.3991 12.7504C10.4019 12.8159 10.4031 12.8439 10.4031 12.8439C10.5345 12.7595 10.6594 12.6652 10.776 12.5603C11.0241 12.3369 11.2307 12.0699 11.399 11.7822C11.5927 11.4511 11.7385 11.092 11.8382 10.722L11.8405 10.7132C11.8375 10.7136 11.8345 10.7139 11.8315 10.7142C11.6019 10.7413 11.3744 10.7858 11.1517 10.848C11.1325 10.8533 11.1135 10.8588 11.0944 10.8645C11.0008 11.3306 10.8309 11.7834 10.5637 12.1783C10.3811 12.448 10.1572 12.687 9.90773 12.896C10.0024 12.8611 10.0983 12.8294 10.1956 12.8026L10.3991 12.7504ZM38.1033 12.4844C37.913 12.366 37.7378 12.224 37.5884 12.0563C37.4961 11.9526 37.4147 11.8404 37.3433 11.722C37.2484 11.709 37.1526 11.702 37.0568 11.6999C37.0356 11.6996 37.0142 11.6995 36.993 11.6995C36.8157 11.7011 36.6392 11.7194 36.4651 11.7525L36.4635 11.7528C36.5312 11.848 36.6054 11.9389 36.6843 12.0251C36.924 12.2867 37.2158 12.509 37.5516 12.6307C37.7496 12.7025 37.9583 12.7395 38.1685 12.75L38.1678 12.7475C38.145 12.6697 38.1033 12.4844 38.1033 12.4844ZM9.8574 10.0431C9.85166 9.99719 9.84516 9.95148 9.83795 9.90578C9.80305 9.68487 9.75121 9.46683 9.68378 9.25354L9.68098 9.24492C9.67862 9.2468 9.67625 9.24867 9.67389 9.25067C9.37107 9.49905 9.09819 9.78664 8.87329 10.1076C8.67598 10.3893 8.51605 10.6989 8.41794 11.0292C8.32227 11.3512 8.28653 11.6889 8.29554 12.0242C8.3003 12.2011 8.31738 12.3777 8.34502 12.5524C8.34648 12.5617 8.34796 12.5709 8.3495 12.5801L8.34985 12.5775C8.35342 12.5506 8.35725 12.5237 8.3613 12.4969C8.43981 11.9774 8.6078 11.466 8.8945 11.0231C9.14537 10.6354 9.4813 10.3093 9.8574 10.0431ZM39.3621 11.7617C39.3928 11.5103 39.3856 11.2543 39.324 11.0082C39.251 10.7171 39.1071 10.4472 38.9275 10.2082C38.888 10.1555 38.8466 10.1043 38.8036 10.0545C38.7576 10.0013 38.7097 9.95011 38.6603 9.90016L38.6591 9.89903C38.6588 9.89953 38.6587 9.90003 38.6584 9.90065C38.6342 9.96647 38.612 10.033 38.5924 10.1005C38.5739 10.1636 38.5575 10.2275 38.5435 10.2919C38.4998 10.4918 38.4773 10.6981 38.4851 10.903L38.4898 10.9073C38.5654 10.974 38.6365 11.0457 38.7022 11.1226C38.9569 11.4205 39.1251 11.7853 39.2246 12.1624C39.2321 12.1909 39.2392 12.2195 39.2459 12.2482L39.2548 12.2545C39.2588 12.2416 39.2679 12.205 39.2679 12.205C39.2875 12.055 39.3197 11.9066 39.3621 11.7617ZM37.2795 10.6187C37.2908 10.688 37.304 10.7568 37.32 10.8252C37.335 10.8893 37.3521 10.953 37.3715 11.0159C37.4646 11.3191 37.6097 11.6106 37.8216 11.8486C37.891 11.9264 37.9668 11.9978 38.0476 12.063L38.0474 12.0582C38.0457 12.0299 38.0434 11.7527 38.0434 11.7527L38.094 11.7641C38.0722 11.7346 38.0506 11.7049 38.0295 11.6748C37.9246 11.5276 37.8246 11.3758 37.7383 11.211L37.7394 11.21C37.8983 11.3066 38.0436 11.4162 38.1836 11.5304C38.3245 11.6441 38.4576 11.7648 38.5885 11.8878L38.6177 11.9163C38.6598 11.9328 38.7015 11.9501 38.7429 11.9683C38.7802 11.9847 38.8173 12.0018 38.8542 12.0198C38.7549 11.7392 38.6085 11.4737 38.4032 11.2571C38.1968 11.0392 37.9388 10.8747 37.665 10.7546C37.6047 10.7281 37.5435 10.7037 37.4815 10.6815C37.4154 10.6577 37.3485 10.6366 37.2809 10.6175L37.2793 10.617L37.2795 10.6187ZM35.8891 10.285C35.8211 10.2863 35.7533 10.2891 35.6856 10.2949C35.5977 10.3023 35.5102 10.3139 35.4233 10.3289L35.4217 10.3292C35.4877 10.4256 35.5604 10.5177 35.6379 10.6052C35.8732 10.871 36.1612 11.098 36.4949 11.2256C36.7079 11.3069 36.9344 11.3477 37.1621 11.3581C37.1294 11.2778 37.1003 11.196 37.0747 11.1133L37.0715 11.1031C36.8744 10.9786 36.6938 10.8287 36.5414 10.6518C36.4522 10.5481 36.3738 10.4365 36.3053 10.3189L36.3021 10.3132C36.2567 10.3064 36.0215 10.2685 35.8891 10.285ZM26.236 10.8478C25.5114 11.3573 24.5097 11.1838 24 10.4582C23.4904 11.1838 22.4886 11.3573 21.7641 10.8478C21.1557 10.4208 20.9209 9.63154 21.1969 8.94097C21.3517 9.76391 22.145 10.3059 22.9682 10.1498C23.4017 10.0686 23.7789 9.80138 24 9.41925C24.221 9.80138 24.5984 10.0686 25.0317 10.1498C25.8549 10.3059 26.6482 9.76391 26.8031 8.94097C27.0792 9.63154 26.8442 10.4208 26.236 10.8478ZM38.3342 9.88017C38.3264 9.79726 38.3134 9.71484 38.2946 9.63342C38.2266 9.34108 38.0872 9.06885 37.9118 8.82671C37.8731 8.77339 37.8326 8.72144 37.7904 8.67099C37.7454 8.61704 37.6984 8.56497 37.6498 8.51427L37.6486 8.51302C37.6484 8.51364 37.6481 8.51414 37.648 8.51464C37.6227 8.5802 37.5992 8.64626 37.5784 8.71332C37.559 8.77626 37.5415 8.83982 37.5263 8.90388C37.4793 9.10306 37.4533 9.30899 37.4575 9.51391C37.5336 9.58309 37.605 9.65739 37.6709 9.73707C37.8903 10.0031 38.0421 10.3194 38.1388 10.6495C38.1512 10.657 38.1635 10.6647 38.1758 10.6725C38.187 10.4792 38.2196 10.2869 38.2685 10.1001C38.2871 10.029 38.3342 9.88017 38.3342 9.88017ZM36.2571 9.20908C36.2671 9.27864 36.2792 9.3477 36.2941 9.41638C36.3079 9.48069 36.3239 9.54463 36.3422 9.60782C36.4302 9.91252 36.5701 10.2066 36.7781 10.4481C36.8362 10.5157 36.8993 10.5786 36.9662 10.6372C36.9571 10.5746 36.95 10.5119 36.9452 10.449L36.9334 10.2288L36.9585 10.2331C36.8672 10.0981 36.7807 9.95885 36.7057 9.80912L36.7068 9.80812C36.8641 9.9074 37.0072 10.0194 37.1454 10.136C37.2136 10.193 37.2798 10.2514 37.3447 10.3111C37.3515 10.313 37.3582 10.3149 37.365 10.3167C37.459 10.3431 37.5518 10.3737 37.643 10.4084C37.6737 10.42 37.7043 10.4323 37.7348 10.4449C37.6448 10.234 37.525 10.036 37.3697 9.86644C37.167 9.64516 36.9119 9.47632 36.6402 9.35157C36.5802 9.3241 36.5194 9.29875 36.4578 9.27539C36.3923 9.25054 36.3257 9.22819 36.2585 9.20796L36.2568 9.20746L36.2571 9.20908ZM12.0307 10.3849L12.0383 10.3847C12.1931 10.3242 12.3433 10.2519 12.486 10.1666C12.7836 9.98882 13.0448 9.75505 13.2684 9.49118C13.3835 9.35532 13.489 9.21146 13.5853 9.06173C13.7103 8.86729 13.8198 8.663 13.9133 8.4517L13.917 8.44334C13.8656 8.44109 13.8143 8.44021 13.7629 8.43984C13.7296 8.43984 13.7297 8.43984 13.6964 8.44009C13.6147 8.44134 13.5331 8.44421 13.4516 8.44958C13.353 8.45595 13.2546 8.46569 13.1566 8.47868C12.9929 8.92524 12.7558 9.3467 12.4313 9.69611C12.1295 10.0212 11.7608 10.2782 11.3641 10.4747L11.3811 10.4712C11.4784 10.451 11.5763 10.4338 11.6747 10.4198C11.7885 10.4034 11.9029 10.3912 12.0177 10.3854L12.0307 10.3849ZM11.1768 10.2188C11.2883 10.1654 11.3973 10.107 11.5033 10.0433C11.7598 9.88904 11.9985 9.70335 12.2024 9.48369C12.4382 9.22981 12.6235 8.93223 12.7642 8.61629C12.8366 8.45358 12.8975 8.28587 12.948 8.11516C13.0136 7.8935 13.0614 7.66685 13.092 7.4377L13.0932 7.42871C13.0902 7.42946 13.0873 7.43021 13.0843 7.43095C12.8675 7.4859 12.6548 7.55658 12.4485 7.64325C12.2853 7.7118 12.1262 7.79023 11.9732 7.87926C11.6834 8.0481 11.4149 8.25627 11.1914 8.50715C10.9736 8.75166 10.801 9.03388 10.668 9.33246C10.6231 9.43324 10.5826 9.53589 10.5463 9.64004C10.574 9.6268 10.6018 9.61381 10.6298 9.60107C10.7345 9.55362 10.8409 9.50966 10.9495 9.47208L10.9618 9.46795L11.0418 9.44186C11.2194 9.24929 11.3995 9.05873 11.5872 8.87466C11.7798 8.68435 11.9777 8.49841 12.1899 8.32483L12.191 8.3257C12.0549 8.56384 11.9042 8.78962 11.7483 9.01103C11.5933 9.23319 11.4302 9.44835 11.2645 9.66164C11.2369 9.69636 11.2093 9.73107 11.1815 9.76579C11.1838 9.81973 11.1847 9.87368 11.1849 9.92763C11.1853 10.0248 11.1825 10.1219 11.1768 10.2188ZM36.0931 9.85433C35.8123 9.70098 35.5553 9.5023 35.3531 9.25391C35.2655 9.14615 35.1891 9.03026 35.123 8.90863C35.0664 8.89826 35.0095 8.89002 34.9522 8.8839C34.8723 8.87516 34.7922 8.87092 34.7118 8.86917C34.6814 8.86892 34.6816 8.86892 34.6511 8.86892C34.5941 8.86954 34.5372 8.87141 34.4803 8.87516C34.4014 8.88028 34.3228 8.8889 34.2445 8.90026L34.2429 8.90051C34.3062 8.99867 34.3763 9.09282 34.4513 9.18236C34.6792 9.45447 34.9607 9.68949 35.2908 9.82623C35.4856 9.9069 35.693 9.9531 35.9028 9.97283C35.9146 9.97271 35.9262 9.97258 35.9379 9.97271C36.0055 9.97321 36.0731 9.97571 36.1405 9.9807C36.1237 9.93899 36.1079 9.89691 36.0931 9.85433ZM12.0599 7.47791C12.0675 7.21704 12.0506 6.9553 12.0126 6.69755L12.0086 6.67145L12.0072 6.66246C12.0046 6.66396 12.0019 6.66546 11.9993 6.66708C11.8067 6.78084 11.6226 6.90859 11.4491 7.04983C11.3118 7.16159 11.1812 7.2816 11.0596 7.41022C10.8225 7.66073 10.619 7.94495 10.4743 8.25877C10.3377 8.5551 10.2545 8.87429 10.2134 9.19747C10.1898 9.38254 10.1796 9.56936 10.1815 9.75592L10.1825 9.75255C10.1901 9.72658 10.198 9.7006 10.2061 9.67463C10.3694 9.15314 10.6272 8.655 11.0009 8.25252C11.3007 7.92971 11.6659 7.67409 12.0599 7.47791ZM36.4998 8.95833C36.4224 8.79025 36.3243 8.63203 36.2028 8.49154C36.0063 8.26476 35.7558 8.08906 35.4877 7.95681C35.4287 7.92772 35.3686 7.90062 35.3076 7.87564C35.2427 7.84892 35.1767 7.82482 35.1101 7.80271L35.1085 7.80222C35.1085 7.80271 35.1086 7.80334 35.1086 7.80384C35.1168 7.87365 35.127 7.94308 35.1399 8.01201C35.152 8.07682 35.1663 8.14113 35.1828 8.20482C35.2623 8.51189 35.3942 8.8096 35.5954 9.05686C35.7051 9.1916 35.8336 9.30924 35.974 9.41101C35.9521 9.29762 35.9362 9.18286 35.9278 9.06772C35.8878 9.0104 35.8487 8.95146 35.8108 8.89227C35.7125 8.74054 35.6193 8.58445 35.5406 8.41599L35.5417 8.41499C35.6961 8.51864 35.8363 8.63452 35.9712 8.75503C36.0034 8.78338 36.0351 8.81222 36.0665 8.84132C36.0665 8.84132 36.0529 8.83882 36.1204 8.85143C36.197 8.86679 36.2727 8.8864 36.3477 8.90875C36.3987 8.92399 36.4496 8.9406 36.4998 8.95833ZM37.0955 9.24205C37.1736 8.92961 37.1981 8.60081 37.1336 8.28399C37.0739 7.99003 36.942 7.71393 36.7732 7.46717C36.7361 7.41285 36.697 7.35977 36.6562 7.30808C36.6127 7.253 36.5671 7.19956 36.5199 7.14761L36.5188 7.14636C36.5185 7.14686 36.5183 7.14736 36.518 7.14786C36.4909 7.21267 36.4657 7.2781 36.4431 7.34466C36.4219 7.40698 36.4027 7.46992 36.3859 7.5336C36.3333 7.73141 36.3017 7.93658 36.3003 8.14163C36.3003 8.14163 36.4451 8.29086 36.5073 8.37053C36.6846 8.59756 36.8135 8.85843 36.9022 9.13216C36.968 9.16625 37.0326 9.20284 37.0955 9.24205ZM34.9276 8.44633C34.6687 8.32008 34.4285 8.15499 34.2294 7.9462C34.1351 7.8473 34.0511 7.73965 33.9767 7.62576L33.9729 7.62002L33.9699 7.61977C33.9026 7.6129 33.8351 7.60928 33.7674 7.60803C33.7511 7.60778 33.7347 7.60778 33.7182 7.60778C33.5089 7.60915 33.3005 7.6345 33.0963 7.68058L33.0946 7.68096C33.1655 7.77387 33.2428 7.86228 33.3246 7.9457C33.5732 8.19908 33.8722 8.41112 34.212 8.52163C34.2697 8.54037 34.3282 8.55622 34.3873 8.56921C34.4635 8.56272 34.5399 8.55885 34.6162 8.5571C34.6497 8.55672 34.6832 8.55672 34.7167 8.5571C34.8016 8.55885 34.8864 8.56334 34.9709 8.57196C34.9567 8.534 34.9435 8.49566 34.931 8.4572L34.9276 8.44633ZM35.3455 7.55496C35.2557 7.39599 35.1469 7.24826 35.0166 7.11976C34.8028 6.90897 34.5394 6.75337 34.2617 6.6426C34.2005 6.61825 34.1386 6.59602 34.0758 6.57579C34.0089 6.55432 33.9413 6.53546 33.8731 6.5186L33.8715 6.51823C33.8716 6.51873 33.8717 6.51935 33.8719 6.51985C33.8853 6.58878 33.901 6.65709 33.9193 6.7249C33.9364 6.78846 33.9557 6.85152 33.9772 6.91371C34.0806 7.21354 34.2355 7.50001 34.4555 7.73079C34.566 7.84667 34.6913 7.94682 34.8262 8.03274L34.8247 8.02462C34.8072 7.92422 34.7945 7.82294 34.7874 7.72129L34.787 7.71418C34.7428 7.66035 34.6994 7.60578 34.6572 7.54996C34.5473 7.40635 34.4423 7.258 34.3505 7.09616L34.3515 7.09516C34.5137 7.18632 34.6624 7.29097 34.8063 7.40048L34.814 7.40623L34.982 7.44257C35.0582 7.46005 35.1332 7.48178 35.2074 7.50613C35.2539 7.52137 35.2999 7.5376 35.3455 7.55496ZM35.9533 7.86478C36.0185 7.52686 36.0238 7.17246 35.9283 6.83991C35.8456 6.55144 35.6925 6.28658 35.505 6.05381C35.4636 6.00248 35.4205 5.95266 35.3758 5.90433C35.3281 5.85275 35.2785 5.80318 35.2273 5.75497L35.2262 5.75385C35.2259 5.75448 35.2258 5.75498 35.2256 5.75547C35.2036 5.82216 35.1836 5.88947 35.1662 5.95753C35.15 6.02121 35.1359 6.08565 35.124 6.15034C35.0871 6.35164 35.0717 6.55869 35.0864 6.76324C35.1658 6.82842 35.241 6.89898 35.3107 6.97528C35.5195 7.20343 35.6759 7.47479 35.7877 7.76263C35.844 7.79472 35.8993 7.82881 35.9533 7.86478ZM13.4244 7.24351C13.4185 7.35178 13.4054 7.45968 13.3892 7.56682C13.3828 7.60903 13.3759 7.65111 13.3683 7.69307C13.4889 7.59804 13.5991 7.49027 13.6942 7.36889C13.8798 7.132 14.0048 6.8519 14.0836 6.56268C14.1009 6.49899 14.116 6.43456 14.129 6.36987C14.1428 6.30081 14.1538 6.23126 14.1629 6.16145L14.1632 6.1592C14.1624 6.15945 14.1616 6.15958 14.1609 6.15983C14.0938 6.18118 14.0274 6.20466 13.9619 6.23051C13.9005 6.25486 13.8399 6.28133 13.7803 6.30981C13.4932 6.44692 13.2254 6.63386 13.0205 6.87925C12.9422 6.97315 12.874 7.07455 12.8149 7.18108L12.8244 7.17833C12.9501 7.14111 13.0774 7.10915 13.2061 7.08429L13.265 7.07418C13.3915 6.95267 13.5233 6.83541 13.669 6.72914L13.6701 6.73002C13.5999 6.89635 13.5158 7.05183 13.4263 7.20293L13.4244 7.24351Z" fill="#1B5FC1"/>
</svg>
