<svg width="48" height="48" viewBox="0 0 48 48" fill="none" xmlns="http://www.w3.org/2000/svg">
<path fill-rule="evenodd" clip-rule="evenodd" d="M23.9469 44.518C21.6988 44.5283 19.5197 45.0552 17.3833 46.0232C17.2884 47.1159 16.4515 47.7753 14.87 48C13.6658 47.9839 12.4579 47.7129 11.2437 47.1872C10.4843 46.9574 9.86093 45.681 9.09153 44.1088C8.32433 42.5408 7.43543 40.677 6.64683 39.2571C6.47203 38.9474 6.46353 38.5709 6.62423 38.2537C7.09423 37.3181 7.86543 36.9443 8.76403 37.1719C8.99703 37.2304 9.19373 37.3861 9.30403 37.5995C9.43623 37.8548 9.60613 38.1834 9.60613 38.1834C10.568 38.4993 11.5485 38.7541 12.5703 38.8778L12.6965 38.7729C12.669 38.7567 12.6428 38.738 12.6166 38.7217C6.80183 35.0591 2.88323 28.6791 2.75333 21.38C2.54723 9.815 11.9233 0.2119 23.6253 0.0034C23.7504 0.0011 23.8753 0 24 0H24.0936C24.1871 0.0006 24.2808 0.0017 24.3748 0.0034C36.0767 0.2119 45.4528 9.815 45.2467 21.38C45.1168 28.6791 41.1982 35.0591 35.3834 38.7217C35.3572 38.738 35.331 38.7567 35.3035 38.7729L35.4297 38.8778C36.4515 38.7541 37.432 38.4993 38.3939 38.1834C38.3939 38.1834 38.5638 37.8548 38.6959 37.5995C38.8063 37.3861 39.003 37.2304 39.2359 37.1719C40.1345 36.9443 40.9058 37.3181 41.3757 38.2537C41.5365 38.5709 41.528 38.9474 41.3532 39.2571C40.5646 40.677 39.6757 42.5408 38.9085 44.1088C38.139 45.681 37.5157 46.9574 36.7562 47.1872C35.5421 47.7129 34.3342 47.9839 33.13 48C31.5486 47.7753 30.7117 47.1159 30.6167 46.0232C28.4634 45.0476 26.2668 44.52 24 44.5178L23.9469 44.518ZM9.91593 39.0113C9.91593 39.0113 10.4789 40.564 10.7817 41.3322C11.1733 42.3259 12.2656 44.973 12.2656 44.973C12.5216 45.6 13.0413 46.0733 11.7022 46.7775C11.7184 46.8249 11.7347 46.8711 11.7521 46.9335C12.5728 47.2022 13.3148 47.4555 14.0843 47.4419C14.1767 47.3931 14.2704 47.3595 14.3491 47.327L10.6804 39.762C10.2944 38.9665 10.1907 38.924 9.91593 39.0113ZM38.0841 39.0113C38.0841 39.0113 37.5211 40.564 37.2183 41.3322C36.8267 42.3259 35.7345 44.973 35.7345 44.973C35.4784 45.6 34.9587 46.0733 36.2978 46.7775C36.2816 46.8249 36.2653 46.8711 36.2479 46.9335C35.4272 47.2022 34.6852 47.4555 33.9157 47.4419C33.8233 47.3931 33.7296 47.3595 33.6509 47.327L37.3196 39.762C37.7056 38.9665 37.8093 38.924 38.0841 39.0113ZM33.1004 38.1606C30.5225 36.7614 27.2708 36.2099 24 36.3021L23.8892 36.2992C19.2032 36.188 14.5714 37.4031 11.9208 40.5448C11.8708 40.9569 14.2792 45.5412 14.7838 46.2055C15.0074 46.4217 15.0861 46.4515 15.276 46.4791C17.4979 44.5948 20.742 43.7973 24 43.8422L24.0763 43.8413C27.3086 43.8098 30.5194 44.6095 32.724 46.4791C32.9139 46.4515 32.9926 46.4217 33.2162 46.2055C33.7208 45.5412 36.1292 40.9569 36.0792 40.5448C35.2734 39.5897 34.2846 38.8127 33.1667 38.1969C33.1491 38.2233 33.1121 38.2635 33.0554 38.3177C32.9082 38.457 32.745 38.586 32.5668 38.7035C32.3874 38.8223 32.2043 38.9171 32.0175 38.9902L31.5526 39.1814C31.3956 39.2286 31.2362 39.277 31.0755 39.3252C30.916 39.3746 30.7558 39.4157 30.5946 39.4497C30.5831 39.4529 30.5723 39.4559 30.562 39.4585C30.5573 39.4668 30.5516 39.4753 30.5452 39.4839C30.518 39.5267 30.4912 39.5659 30.4656 39.6027C30.4401 39.6395 30.4145 39.6775 30.3888 39.7168C30.3127 39.8382 30.2391 39.9595 30.1665 40.0822L30.0482 40.2976C29.9627 40.4471 29.8861 40.6017 29.8201 40.7627C29.7541 40.9238 29.6929 41.0839 29.6352 41.2441L29.634 41.2464C29.5615 41.4479 29.5331 41.6073 29.5487 41.725C29.5643 41.843 29.6308 41.9233 29.7481 41.9656C29.7907 41.981 29.8304 41.9823 29.8672 41.9694C29.904 41.9565 29.9382 41.9367 29.9699 41.91C30.0016 41.8834 30.0306 41.8526 30.0572 41.8182C30.0838 41.7835 30.1065 41.7515 30.1251 41.7221C30.1585 41.6739 30.1844 41.6551 30.2026 41.6657C30.221 41.6762 30.2225 41.7029 30.2071 41.7456C30.1653 41.8389 30.1097 41.9454 30.0406 42.0651C29.9713 42.1847 29.8936 42.2942 29.8074 42.3936C29.7213 42.4929 29.6313 42.5699 29.5373 42.6245C29.4434 42.6788 29.3502 42.6896 29.2579 42.6561C29.1584 42.6203 29.0902 42.5644 29.0531 42.4889C29.0162 42.4133 28.9972 42.3292 28.9965 42.2366C28.9958 42.144 29.0083 42.0511 29.0338 41.9579C29.0594 41.8647 29.0844 41.7845 29.1088 41.7169L29.1095 41.7161C29.1514 41.6104 29.1993 41.5013 29.2522 41.3863C29.3054 41.2711 29.3572 41.1582 29.4054 41.0463C29.4303 40.9998 29.4414 40.9671 29.4398 40.9504C29.437 40.9335 29.4042 40.9486 29.3401 40.9932C29.1648 41.1228 28.9917 41.2335 28.8218 41.3276C28.652 41.4207 28.4698 41.4941 28.278 41.5492C27.9943 41.632 27.7031 41.6728 27.4044 41.6716C27.1058 41.6704 26.8061 41.637 26.5033 41.5724C26.2688 41.5232 26.0315 41.4594 25.7938 41.379C25.5548 41.2998 25.3106 41.2 25.0605 41.0821C24.9499 41.0304 24.8537 40.9746 24.7696 40.917C24.6867 40.8585 24.6197 40.791 24.57 40.7125C24.5202 40.6339 24.4877 40.5418 24.4737 40.4365C24.4597 40.3311 24.4705 40.2067 24.5058 40.0631C24.5304 39.9716 24.5648 39.8781 24.6075 39.7824C24.6488 39.688 24.696 39.5976 24.7478 39.5119C24.7942 39.4356 24.8316 39.4029 24.8583 39.4125C24.884 39.4221 24.8852 39.4733 24.8607 39.5637C24.8387 39.6484 24.8326 39.7266 24.8422 39.7985C24.8519 39.8703 24.882 39.9373 24.9326 40.0003C25.0587 40.1504 25.2103 40.2671 25.3872 40.3505C25.5641 40.4339 25.7425 40.5103 25.9225 40.5796C26.5733 40.8345 27.2926 40.9736 28.0795 40.9958C28.2387 41.0011 28.3951 40.9932 28.5483 40.9731C28.7029 40.952 28.8524 40.9115 28.9993 40.852C29.2238 40.7639 29.4117 40.6421 29.5621 40.4862C29.7123 40.3291 29.7502 40.299 29.8745 40.0909C29.9007 40.0409 29.9301 39.9983 29.9628 39.963C29.9953 39.9288 30.0266 39.8959 30.0592 39.863C30.1343 39.7855 30.2093 39.7106 30.282 39.6357C30.3367 39.5809 30.3933 39.5269 30.4523 39.4737C30.4422 39.466 30.4637 39.4353 30.517 39.3805C30.5866 39.3208 30.6561 39.2599 30.7247 39.1965C30.7944 39.1332 30.8718 39.0822 30.9567 39.0447C31.0286 39.0147 31.1231 38.9765 31.242 38.9311C31.3463 38.8907 31.8644 38.7069 32.0184 38.6452C32.3268 38.5207 32.6322 38.3831 32.9356 38.2322C32.9699 38.216 33.0075 38.1988 33.0513 38.1794C33.0692 38.1717 33.0855 38.1655 33.1004 38.1606ZM36.4876 46.3764C36.3076 46.2909 36.0417 46.1457 36.048 45.8321C36.4427 45.7136 36.9449 45.691 37.1385 46.3216C36.9451 46.4636 36.6296 46.4438 36.4876 46.3764ZM11.5124 46.3764C11.6924 46.2909 11.9583 46.1457 11.952 45.8321C11.5573 45.7136 11.0551 45.691 10.8615 46.3216C11.0548 46.4636 11.3704 46.4438 11.5124 46.3764ZM39.3645 37.6527C40.2732 37.3655 40.9571 38.0797 40.7747 38.8054L37.3626 45.8472C37.0227 45.4293 36.6868 45.3868 36.354 45.3665L39.3645 37.6527ZM8.63553 37.6527C7.72683 37.3655 7.04293 38.0797 7.22533 38.8054L10.6374 45.8472C10.9773 45.4293 11.3131 45.3868 11.646 45.3665L8.63553 37.6527ZM30.0243 44.003C30.0435 43.9497 30.1278 43.8556 30.2767 43.7206C30.426 43.5856 30.5148 43.5234 30.5432 43.5336C30.6356 43.567 30.7087 43.6424 30.7626 43.7604C30.8165 43.8782 30.8281 43.9797 30.7972 44.065C30.7691 44.143 30.6934 44.2273 30.5705 44.3176C30.4476 44.4076 30.363 44.4444 30.3168 44.4277C30.2956 44.4201 30.2381 44.3512 30.1444 44.2211C30.1121 44.1772 30.0796 44.1334 30.0472 44.0896C30.0229 44.0569 30.0154 44.0278 30.0243 44.003ZM16.9795 44.0909C16.9766 44.0721 17.0127 43.9681 17.0878 43.7783C17.163 43.5886 17.2116 43.4918 17.234 43.4883C17.2974 43.4783 17.3782 43.5055 17.4765 43.5704C17.5754 43.6388 17.6304 43.7084 17.6416 43.7794C17.6546 43.8613 17.6283 43.9727 17.5626 44.1132C17.4962 44.2498 17.4444 44.3212 17.4072 44.3271C17.3884 44.33 17.3581 44.3185 17.3156 44.2928C17.2734 44.2671 17.2309 44.2402 17.1882 44.2127C17.1392 44.1936 17.0933 44.1751 17.0502 44.157C17.0072 44.1389 16.9836 44.1168 16.9795 44.0909ZM16.46 43.4561C16.4552 43.4263 16.4941 43.3091 16.5764 43.1048C16.6588 42.9006 16.7112 42.7967 16.7335 42.7931C16.7821 42.7855 16.8583 42.8079 16.9622 42.8602C17.0624 42.9131 17.1341 42.9668 17.1771 43.0213C17.2163 42.9309 17.2574 42.8401 17.3004 42.7493C17.3605 42.621 17.3979 42.556 17.4128 42.5535C17.48 42.5429 17.5686 42.571 17.6786 42.6377C17.7898 42.7118 17.8516 42.788 17.8641 42.8663C17.8784 42.956 17.8454 43.0738 17.7654 43.2205C17.6872 43.3552 17.6277 43.4259 17.5867 43.4325C17.5567 43.4372 17.5056 43.4166 17.4334 43.3706C17.3309 43.3027 17.2467 43.2549 17.1811 43.2271C17.0775 43.515 16.983 43.6658 16.897 43.6794C16.8822 43.6818 16.806 43.6479 16.6686 43.578C16.5313 43.5079 16.4617 43.4673 16.46 43.4561ZM31.9301 40.033C31.9347 40.0286 31.9393 40.0243 31.9439 40.0199C31.9622 40.0023 31.977 39.9917 31.9885 39.9878C31.9999 39.9839 32.0049 39.9897 32.0034 40.0052C32.0016 40.0208 31.9867 40.0514 31.9581 40.0972C31.7848 40.3882 31.6223 40.6879 31.4708 40.9967C31.064 41.825 31.3598 41.2175 31.1502 41.7363C31.077 41.9388 31.0484 42.0992 31.064 42.2173C31.0797 42.3353 31.1461 42.4156 31.2635 42.458C31.306 42.4733 31.3457 42.4746 31.3826 42.4617C31.4194 42.4488 31.4535 42.429 31.4853 42.4024C31.517 42.3757 31.5461 42.3449 31.5727 42.3105C31.5993 42.2758 31.6218 42.2438 31.6404 42.2144C31.6739 42.1662 31.6999 42.1474 31.718 42.158C31.7363 42.1686 31.7378 42.1952 31.7225 42.2379C31.6806 42.3312 31.6252 42.4377 31.556 42.5574C31.4866 42.677 31.4089 42.7865 31.3229 42.8859C31.2367 42.9852 31.1466 43.0622 31.0528 43.1168C30.9587 43.1711 30.8656 43.1817 30.7732 43.1484C30.6737 43.1126 30.6055 43.0567 30.5685 42.9812C30.5315 42.9056 30.5127 42.8215 30.5119 42.7289C30.5113 42.6363 30.5237 42.5434 30.5491 42.4502C30.5749 42.3571 30.5997 42.2768 30.6242 42.2092L30.6331 42.2012C30.6947 42.0323 30.791 41.8187 30.9215 41.5605C31.2164 40.9773 30.7782 41.8179 31.355 40.717C31.4049 40.6226 31.4656 40.532 31.5373 40.4454C31.5791 40.3964 31.6298 40.3392 31.6892 40.2744C31.7488 40.2095 31.8153 40.1422 31.8887 40.0722C31.8933 40.0679 31.898 40.0635 31.9026 40.0591L31.9301 40.033ZM19.6148 40.5174C19.9331 40.4748 20.242 40.42 20.5413 40.3534C20.8406 40.2869 21.1355 40.1925 21.4259 40.0698C21.6839 39.9601 21.9323 39.8317 22.1712 39.6848C22.4097 39.5381 22.6386 39.3824 22.8573 39.2177C23.1647 38.9853 23.4523 38.7419 23.7198 38.4873C23.9874 38.2325 24.2613 37.976 24.5417 37.7174C24.6248 37.6391 24.7087 37.5645 24.7932 37.494C24.8775 37.4231 24.9685 37.3571 25.066 37.2958C25.1564 37.2394 25.2207 37.2225 25.2588 37.245C25.2966 37.2677 25.2979 37.324 25.2625 37.4138C25.2389 37.4825 25.2138 37.5534 25.1872 37.6265C25.1605 37.6995 25.1292 37.7676 25.0933 37.8307C25.0758 37.864 25.056 37.891 25.0344 37.9116C25.0128 37.9323 24.9846 37.953 24.9496 37.9739C24.9003 38.0009 24.8307 38.0559 24.7405 38.139C24.6505 38.2221 24.5357 38.3302 24.396 38.4632C24.2334 38.619 24.071 38.7777 23.9091 38.9391C23.7473 39.1005 23.5822 39.2596 23.4139 39.4162C23.2455 39.5731 23.0745 39.7254 22.901 39.8733C22.7274 40.0213 22.5476 40.1597 22.3615 40.2886C21.5801 40.8371 20.7079 41.1875 19.7452 41.3401C19.4984 41.3753 19.2868 41.4042 19.1105 41.4263C18.9341 41.4485 18.7842 41.4561 18.6607 41.4489C18.5253 41.4398 18.391 41.4248 18.2576 41.4038C18.1242 41.3828 17.9947 41.3499 17.8689 41.3048C17.82 41.2857 17.7812 41.2708 17.7528 41.26C17.7243 41.2493 17.6986 41.2438 17.6756 41.2437C17.6526 41.2435 17.6312 41.2526 17.6112 41.2709C17.5911 41.2896 17.5653 41.3205 17.534 41.3635C17.5057 41.4024 17.4764 41.4473 17.4463 41.498C17.416 41.5487 17.3798 41.6099 17.3377 41.6814C17.2577 41.805 17.1569 41.8986 17.0349 41.9619C16.913 42.025 16.7776 42.0456 16.6287 42.0233C16.5461 42.0096 16.4712 41.9947 16.4035 41.9787C16.336 41.9626 16.2598 41.9651 16.1752 41.9862C16.098 42.0061 16.0239 42.0332 15.9528 42.0673C15.8817 42.1016 15.813 42.1506 15.7466 42.2148C15.6465 42.3071 15.5806 42.3491 15.5486 42.3409C15.5166 42.3324 15.5332 42.2677 15.598 42.1466C15.6712 42.0048 15.7574 41.867 15.8566 41.7327C15.9559 41.5984 16.0679 41.4775 16.1921 41.3697C16.256 41.3137 16.3253 41.2617 16.3997 41.2135C16.4744 41.1654 16.5553 41.1382 16.6422 41.132C16.7144 41.1283 16.7864 41.136 16.8583 41.1552C16.9301 41.1744 17.003 41.1877 17.0769 41.195C17.1587 41.2051 17.2309 41.1956 17.2933 41.1664C17.3556 41.1376 17.4109 41.0944 17.4593 41.0369C17.515 40.9785 17.5644 40.917 17.6079 40.8527C17.6513 40.7885 17.6945 40.7242 17.7381 40.66C17.8008 40.5736 17.8605 40.5154 17.9168 40.4853C17.9733 40.4555 18.0589 40.4525 18.1737 40.4762C18.4336 40.5231 18.6761 40.5507 18.9012 40.5589C19.1262 40.5673 19.3642 40.5534 19.6148 40.5174ZM30.6242 40.0049C30.6423 39.9552 30.7258 39.8628 30.8749 39.7278C31.0239 39.5929 31.1128 39.5305 31.1412 39.5407C31.2337 39.5741 31.3068 39.6496 31.3607 39.7675C31.4146 39.8854 31.4262 39.9868 31.3953 40.0721C31.3671 40.1502 31.2919 40.2335 31.1696 40.322C31.0473 40.4104 30.963 40.4462 30.9169 40.4296C30.8955 40.422 30.8381 40.353 30.7444 40.2228C30.7107 40.1827 30.6777 40.1406 30.6453 40.0967C30.6222 40.0603 30.6154 40.0297 30.6242 40.0049ZM24.0905 0.6808H24C23.8792 0.6808 23.7586 0.682 23.6378 0.6841C12.3143 0.8862 3.24173 10.1773 3.44163 21.3674C3.56783 28.4655 7.39763 34.6643 13.07 38.1996C13.1312 38.2372 13.1899 38.2758 13.2497 38.3133L13.476 38.1259C13.4098 38.0861 13.3448 38.0449 13.2798 38.0048C10.4618 36.294 8.27703 33.9825 6.58943 31.1392C4.89443 28.2832 3.89633 24.9726 3.83263 21.4375C3.73523 15.949 5.90743 10.9265 9.48873 7.2513C13.0712 3.5749 18.0628 1.2471 23.6053 1.1485C23.7371 1.1461 23.8687 1.1451 24 1.1453L24.0984 1.1454C24.1971 1.1458 24.2958 1.1468 24.3947 1.1485C29.9372 1.2471 34.9288 3.5749 38.5113 7.2513C42.0926 10.9265 44.2648 15.949 44.1674 21.4375C44.1037 24.9726 43.1056 28.2832 41.4105 31.1392C39.723 33.9825 37.5382 36.294 34.7201 38.0048C34.6552 38.0449 34.5902 38.0861 34.524 38.1259L34.7503 38.3133C34.8101 38.2758 34.8688 38.2372 34.93 38.1996C40.6024 34.6643 44.4322 28.4655 44.5584 21.3674C44.7582 10.1773 35.6857 0.8862 24.3623 0.6841C24.2716 0.6825 24.1811 0.6815 24.0905 0.6808ZM15.4534 37.2383C15.0711 37.1237 14.7049 36.9545 14.3817 36.7195C14.0082 36.448 13.7007 36.0949 13.4554 35.7049C13.1861 35.7238 12.9188 35.768 12.6574 35.8353L12.6485 35.8376C12.7684 36.0033 12.9009 36.16 13.0428 36.3071C13.0954 36.3617 13.1495 36.415 13.2049 36.4667C13.5537 36.7922 13.9612 37.0623 14.4157 37.2142C14.6634 37.297 14.9218 37.3445 15.1821 37.3635C15.1612 37.3733 15.3428 37.2886 15.4534 37.2383ZM32.4338 37.164C32.5025 37.1775 32.5716 37.1885 32.6411 37.1971C32.9933 37.2407 33.3596 37.2206 33.6942 37.0955C33.9754 36.9904 34.2274 36.817 34.4448 36.6118C34.4927 36.5666 34.539 36.5198 34.5836 36.4714C34.6313 36.4198 34.6769 36.3664 34.7209 36.3117L34.7219 36.3104C34.6617 36.2952 34.6009 36.2823 34.5398 36.2712C34.3838 36.2429 34.2256 36.2273 34.067 36.2255C34.056 36.2255 34.045 36.2255 34.034 36.2255C33.9237 36.2264 33.8133 36.2342 33.7043 36.2506C33.6456 36.3349 33.5812 36.4153 33.5106 36.4907C33.243 36.7772 32.8995 36.9852 32.5358 37.1263C32.504 37.1386 32.4722 37.1504 32.4402 37.1617L32.4338 37.164ZM16.5184 36.7837C16.3944 36.5093 16.2436 36.2468 16.0636 36.0052C15.8847 35.7652 15.6764 35.5461 15.4376 35.3649C15.1616 35.1554 14.8471 35.0004 14.5187 34.8916C14.3497 34.8357 14.1767 34.7916 14.0018 34.7583C13.7747 34.7149 13.5443 34.6897 13.3132 34.6818L13.3041 34.6816C13.3051 34.6844 13.3061 34.6873 13.3072 34.6902C13.3833 34.9005 13.4747 35.105 13.5813 35.3017C13.6656 35.4573 13.7594 35.6079 13.8632 35.7513C14.0654 36.0306 14.3069 36.2834 14.5885 36.4837C14.8475 36.6679 15.1372 36.8064 15.4385 36.9063C15.5953 36.9582 15.7553 37.0001 15.9172 37.0324L15.9558 37.0158C16.0071 36.9938 16.0582 36.9721 16.1093 36.9506C15.9128 36.8178 15.7206 36.6786 15.5296 36.5381C15.314 36.3756 15.1 36.2108 14.8921 36.0371C14.6836 35.8642 14.479 35.6857 14.2852 35.4918L14.286 35.4905C14.5365 35.6024 14.7761 35.73 15.0119 35.8633C15.2484 35.9956 15.4786 36.1367 15.7072 36.2803C15.9341 36.4265 16.1597 36.5746 16.379 36.7315C16.4112 36.7544 16.4435 36.7775 16.4757 36.8007L16.502 36.7902L16.5184 36.7837ZM32.4415 36.8279C32.453 36.8234 32.4643 36.8188 32.4758 36.8141C32.8041 36.6793 33.1134 36.4821 33.3435 36.2089C33.5367 35.9793 33.6712 35.7045 33.7598 35.4191C33.7794 35.3562 33.7967 35.2926 33.8119 35.2285C33.828 35.1602 33.8415 35.0913 33.853 35.0221L33.8532 35.0204C33.8527 35.0205 33.8522 35.0207 33.8516 35.0209C33.784 35.0399 33.7171 35.0607 33.6509 35.0843C33.5888 35.1064 33.5275 35.1305 33.4671 35.1569C33.1762 35.2835 32.9026 35.4602 32.6899 35.6976C32.4772 35.9349 32.3314 36.2261 32.2374 36.529C32.2339 36.5402 32.2305 36.5514 32.2271 36.5627C32.3148 36.4596 32.4062 36.3598 32.4989 36.2609C32.6237 36.1318 32.7509 36.0047 32.8862 35.8846C33.0207 35.7637 33.1603 35.6473 33.3145 35.5432L33.3156 35.5442C33.2374 35.7129 33.1449 35.8694 33.047 36.0213C32.9499 36.1741 32.8447 36.3199 32.7373 36.4637C32.6414 36.5875 32.5444 36.7101 32.4415 36.8279ZM32.7625 35.2079C32.7664 35.05 32.7534 34.8914 32.7278 34.7359C32.717 34.671 32.704 34.6063 32.6889 34.5422C32.6728 34.4739 32.6539 34.4062 32.6332 34.3392L32.6326 34.3375C32.6322 34.3379 32.6318 34.3383 32.6313 34.3387C32.5794 34.3859 32.5289 34.4347 32.4803 34.4854C32.4347 34.5328 32.3907 34.5819 32.3485 34.6324C32.1452 34.8759 31.9798 35.1564 31.896 35.4638C31.8121 35.7713 31.8121 36.0969 31.8637 36.4098C31.8732 36.4676 31.8991 36.5764 31.8991 36.5764C31.9006 36.5709 31.9021 36.5655 31.9035 36.56C32.0076 36.1693 32.186 35.792 32.4573 35.4893C32.5485 35.3875 32.6492 35.2953 32.757 35.2122L32.7625 35.2079ZM16.682 36.4067C16.6402 36.2023 16.5836 36.0009 16.5108 35.8053C16.4064 35.5248 16.2677 35.2561 16.0893 35.0154C15.8831 34.7369 15.6246 34.5 15.3398 34.3037C15.1871 34.1983 15.0266 34.1043 14.8609 34.0206C14.6612 33.9198 14.4539 33.8345 14.2414 33.7647L14.2327 33.7619C14.2329 33.765 14.233 33.768 14.2332 33.771C14.2474 33.9941 14.2778 34.2162 14.325 34.4348C14.3308 34.4615 14.3368 34.4883 14.3431 34.5149C14.7323 34.6151 15.1085 34.7691 15.4455 34.9889C15.525 35.0406 15.6019 35.096 15.6762 35.1549C15.8882 35.3226 16.0778 35.5173 16.2453 35.7291C16.4121 35.9403 16.5573 36.1683 16.682 36.4067ZM35.7197 34.5983H35.6867C35.5763 34.5992 35.466 34.607 35.3571 34.6234C35.2982 34.7078 35.2338 34.7881 35.1633 34.8635C34.8958 35.15 34.5521 35.3582 34.1884 35.4992C34.1547 35.5123 34.1207 35.5248 34.0865 35.5368C34.1552 35.5504 34.2244 35.5613 34.2937 35.5699C34.6459 35.6135 35.0122 35.5934 35.3468 35.4683C35.628 35.3633 35.8801 35.1898 36.0974 34.9847C36.1453 34.9395 36.1916 34.8925 36.2364 34.8442C36.2839 34.7926 36.3295 34.7393 36.3735 34.6846L36.3745 34.6832C36.3059 34.6658 36.2366 34.6515 36.1669 34.6395C36.0192 34.614 35.8697 34.6 35.7197 34.5983ZM12.6421 35.5171C12.733 35.4948 12.9359 35.4552 12.9537 35.4519C12.565 35.2826 12.2008 35.0551 11.8947 34.7606C11.562 34.4406 11.3058 34.0486 11.1164 33.6287C11.0554 33.6246 10.9944 33.6219 10.9334 33.6201C10.8905 33.6191 10.8476 33.6186 10.8047 33.6187C10.6474 33.6196 10.4906 33.6284 10.3342 33.6452L10.308 33.6482L10.2989 33.6493C10.3134 33.6766 10.3283 33.7034 10.3433 33.7303C10.5356 34.0693 10.7692 34.3864 11.0459 34.6615C11.2649 34.8791 11.5118 35.0702 11.7846 35.2161C12.0529 35.3595 12.344 35.4572 12.6421 35.5171ZM13.7199 34.3992C13.5477 34.0588 13.3252 33.7437 13.0444 33.4845C12.8053 33.2637 12.5286 33.086 12.2351 32.9465C11.889 32.7818 11.519 32.6681 11.142 32.6002L11.1159 32.5956L11.1069 32.5943C11.1076 32.5971 11.1082 32.6001 11.1088 32.6031C11.1553 32.8219 11.2178 33.0372 11.2964 33.2465C11.3586 33.4122 11.4308 33.5742 11.5139 33.7305C11.6715 34.0265 11.8692 34.3028 12.1113 34.5357C12.3534 34.7686 12.637 34.9557 12.939 35.1018C13.0198 35.1409 13.102 35.1771 13.1853 35.2106C13.1388 35.1118 13.0956 35.0115 13.0559 34.9097C13.0196 34.8167 12.9607 34.6382 12.9625 34.644C12.8033 34.4841 12.6462 34.3222 12.4941 34.1546C12.3112 33.9548 12.133 33.75 11.9676 33.5312L11.9686 33.5301C12.2013 33.6753 12.4213 33.8345 12.6365 33.9989C12.7952 34.1189 12.95 34.2433 13.1029 34.3696C13.1234 34.369 13.1438 34.3685 13.1643 34.3681C13.1839 34.368 13.2034 34.3679 13.223 34.368C13.389 34.3693 13.555 34.3799 13.7199 34.3992ZM34.1415 35.1815C34.4651 35.0468 34.769 34.8513 34.9961 34.5817C35.1894 34.3522 35.324 34.0773 35.4127 33.7918C35.4322 33.729 35.4495 33.6654 35.4646 33.6014C35.4809 33.5329 35.4944 33.4642 35.5059 33.3948L35.5061 33.3932C35.5055 33.3933 35.505 33.3935 35.5044 33.3937C35.4368 33.4126 35.3698 33.4335 35.3036 33.4571C35.2415 33.4793 35.1802 33.5034 35.1199 33.5296C34.8291 33.6562 34.5554 33.8329 34.3428 34.0703C34.1846 34.2467 34.0633 34.4529 33.973 34.6716L34.1432 34.6427L34.1515 34.6336C34.2765 34.5046 34.4036 34.3775 34.5389 34.2574C34.6734 34.1365 34.8131 34.0201 34.9671 33.916L34.9684 33.9169C34.8902 34.0858 34.7975 34.2421 34.6997 34.3941C34.6026 34.5468 34.4974 34.6927 34.39 34.8364C34.3118 34.9376 34.2327 35.0378 34.1504 35.1354C34.1475 35.1507 34.1447 35.1661 34.1415 35.1815ZM33.6043 34.7699C33.7121 34.4381 33.8767 34.1224 34.1102 33.8619C34.2029 33.7585 34.3054 33.6649 34.4152 33.5807C34.419 33.4227 34.4061 33.2642 34.3805 33.1086C34.3698 33.0437 34.3568 32.9791 34.3417 32.9151C34.3255 32.8466 34.3067 32.7791 34.2859 32.712L34.2854 32.7104C34.2849 32.7108 34.2846 32.7111 34.2842 32.7115C34.2322 32.7587 34.1816 32.8074 34.133 32.8581C34.0875 32.9057 34.0435 32.9548 34.0013 33.0052C33.7979 33.2486 33.6325 33.5292 33.5487 33.8367C33.4648 34.1441 33.4648 34.4697 33.5163 34.7826L33.5193 34.7998L33.525 34.7977C33.5513 34.7881 33.5777 34.7789 33.6043 34.7699ZM13.9163 33.4997C13.8749 33.4083 13.8289 33.3189 13.7779 33.2321C13.6083 32.9433 13.3869 32.687 13.1373 32.4646C12.8446 32.2038 12.5129 31.9866 12.1612 31.8144L12.153 31.8105C12.1527 31.8135 12.1525 31.8165 12.1522 31.8196C12.135 32.0502 12.1352 32.2818 12.1538 32.5122C12.1554 32.5319 12.1571 32.5517 12.159 32.5715C12.5989 32.7523 13.011 33.0055 13.3477 33.3431C13.5957 33.5918 13.7994 33.8806 13.9634 34.1907L13.96 34.1667C13.9478 34.0819 13.938 33.9967 13.9305 33.9115C13.9204 33.7969 13.9163 33.4997 13.9163 33.4997ZM35.6632 34.026C35.7166 34.0356 35.7703 34.0437 35.824 34.0503C36.1763 34.0939 36.5425 34.0738 36.8772 33.9487C37.1583 33.8436 37.4104 33.6702 37.6278 33.465C37.6756 33.4198 37.722 33.3729 37.7666 33.3245C37.8143 33.273 37.8599 33.2196 37.9038 33.1648L37.9048 33.1636C37.8363 33.1462 37.7669 33.132 37.6971 33.1199C37.5493 33.0944 37.3999 33.0804 37.2499 33.0788C37.2389 33.0787 37.2279 33.0787 37.2169 33.0787C37.1066 33.0795 36.9963 33.0874 36.8874 33.1037C36.8286 33.1882 36.7641 33.2685 36.6937 33.3439C36.426 33.6304 36.0825 33.8385 35.7187 33.9795C35.7037 33.9853 35.6889 33.991 35.6737 33.9965C35.6702 34.0064 35.6667 34.0161 35.6632 34.026ZM35.7745 33.0192C35.8699 32.9228 35.9672 32.8283 36.0691 32.7377C36.2036 32.6168 36.3433 32.5005 36.4974 32.3963L36.4985 32.3973C36.4204 32.566 36.3277 32.7225 36.2299 32.8745C36.1328 33.0272 36.0276 33.1731 35.9202 33.3168C35.8846 33.3629 35.8487 33.4088 35.8125 33.4544C35.8038 33.5076 35.7937 33.5604 35.7822 33.6131C36.064 33.4814 36.3254 33.3008 36.5264 33.062C36.7198 32.8325 36.8542 32.5578 36.9429 32.2723C36.9624 32.2094 36.9797 32.1458 36.9948 32.0817C37.0111 32.0134 37.0246 31.9445 37.0361 31.8752L37.0363 31.8736C37.0357 31.8737 37.0352 31.8738 37.0347 31.8741C36.967 31.8929 36.9 31.9139 36.8338 31.9375C36.7717 31.9596 36.7104 31.9837 36.6501 32.0101C36.3591 32.1366 36.0857 32.3134 35.873 32.5508C35.7367 32.7028 35.6279 32.8769 35.5425 33.0619L35.5523 33.0598C35.5799 33.0536 35.7745 33.0192 35.7745 33.0192ZM10.6817 33.3087C10.2348 33.0224 9.83223 32.6564 9.54323 32.2088C9.29273 31.8208 9.13323 31.3804 9.04503 30.9283C8.79553 30.8513 8.53863 30.7978 8.27993 30.7657L8.25363 30.7625L8.24453 30.7615C8.24533 30.7644 8.24613 30.7674 8.24693 30.7703C8.30523 30.9862 8.37933 31.1977 8.46923 31.4025C8.54043 31.5646 8.62133 31.7225 8.71283 31.874C8.88623 32.1611 9.09873 32.4262 9.35313 32.6456C9.60103 32.8595 9.88603 33.0276 10.1867 33.1558C10.3272 33.2158 10.6248 33.3107 10.6248 33.3107C10.6438 33.3098 10.6628 33.3092 10.6817 33.3087ZM35.1592 33.1774C35.2668 32.8723 35.424 32.5838 35.6404 32.3425C35.7331 32.239 35.8356 32.1453 35.9454 32.0611C35.9493 31.9032 35.9363 31.7446 35.9107 31.5891C35.9 31.524 35.887 31.4595 35.8719 31.3954C35.8557 31.3271 35.8369 31.2594 35.8161 31.1924L35.8156 31.1907C35.8151 31.1911 35.8148 31.1915 35.8144 31.1919C35.7624 31.2391 35.7118 31.2878 35.6632 31.3385C35.6177 31.3861 35.5737 31.4351 35.5315 31.4856C35.3281 31.729 35.1627 32.0096 35.0789 32.317C34.9985 32.6117 34.9952 32.9232 35.0406 33.2241L35.0518 33.2194C35.0725 33.2109 35.0934 33.2025 35.1142 33.1944C35.1291 33.1887 35.1441 33.1829 35.1592 33.1774ZM11.4171 32.3374C11.4028 32.2741 11.387 32.2111 11.3696 32.1486C11.2894 31.8602 11.174 31.5809 11.0166 31.3257C10.8347 31.0308 10.5972 30.773 10.3301 30.5531C10.1868 30.4352 10.0349 30.3278 9.87693 30.2306C9.68643 30.1132 9.48713 30.0107 9.28123 29.923L9.27293 29.9195C9.27283 29.9225 9.27273 29.9255 9.27263 29.9285C9.26783 30.1521 9.27933 30.3759 9.30783 30.5978C9.33043 30.7733 9.36363 30.9476 9.40873 31.1187C9.49663 31.4521 9.63073 31.775 9.82123 32.0633C10.0011 32.3356 10.2284 32.5746 10.4815 32.7801C10.6179 32.8907 10.908 33.0738 10.908 33.0738C10.8789 32.9788 10.8528 32.8828 10.8298 32.7862C10.8179 32.7362 10.8067 32.686 10.7966 32.6357C10.7573 32.5749 10.7182 32.5141 10.6793 32.4531C10.5368 32.224 10.3967 31.9931 10.2655 31.7562C10.1333 31.5198 10.0068 31.2797 9.89593 31.0288L9.89713 31.0279C10.0904 31.2227 10.2679 31.428 10.4398 31.6372C10.6068 31.8389 10.7656 32.046 10.9218 32.255L10.7383 32.2392L10.9348 32.2561C11.0427 32.2662 11.15 32.2834 11.2564 32.3038C11.3102 32.314 11.3637 32.3253 11.4171 32.3374ZM37.2388 32.3723C37.2314 32.3959 37.2237 32.4196 37.2157 32.4432L37.2106 32.458C37.2305 32.4595 37.2504 32.4606 37.2704 32.4616C37.6249 32.4796 37.9886 32.433 38.3133 32.2839C38.5861 32.1587 38.8249 31.9674 39.0268 31.747C39.0713 31.6984 39.114 31.6483 39.1551 31.5967C39.1988 31.5419 39.2404 31.4853 39.2803 31.4275L39.2813 31.4261C39.1367 31.4007 38.9903 31.3878 38.8437 31.3843C38.818 31.3839 38.7922 31.3837 38.7665 31.3839C38.5971 31.3859 38.4273 31.403 38.2621 31.4404C38.2096 31.5288 38.1512 31.6136 38.0865 31.6939C37.8597 31.9751 37.5639 32.1945 37.2432 32.358L37.2388 32.3723ZM11.8443 31.7537C11.8279 31.5783 11.7974 31.4044 11.7506 31.2346C11.6563 30.8922 11.4952 30.571 11.2936 30.2795C11.1929 30.1339 11.0821 29.9954 10.9634 29.8641C10.8134 29.6981 10.6509 29.5439 10.4778 29.402L10.4707 29.3963C10.4698 29.3993 10.4689 29.4021 10.4679 29.405C10.4006 29.6183 10.3489 29.8363 10.3142 30.0572C10.3099 30.0843 10.3059 30.1113 10.3022 30.1384C10.6889 30.4153 11.0321 30.756 11.2824 31.1619C11.5205 31.5478 11.6714 31.9822 11.7541 32.4272C11.7816 32.4355 11.8091 32.4442 11.8365 32.4531C11.8344 32.4189 11.8326 32.3847 11.8312 32.3506C11.8253 32.2061 11.8259 32.0615 11.8331 31.9173C11.8358 31.8626 11.8395 31.808 11.8443 31.7537ZM37.3718 31.6924C37.3665 31.7703 37.3567 31.848 37.3443 31.925L37.3416 31.9418C37.5558 31.8031 37.7491 31.6319 37.8991 31.425C38.0752 31.182 38.1894 30.8982 38.2571 30.6071C38.272 30.5429 38.2847 30.4783 38.2952 30.4133C38.3063 30.344 38.3148 30.2743 38.3212 30.2044L38.3213 30.2027C38.3208 30.203 38.3203 30.2031 38.3198 30.2034C38.2537 30.2271 38.1884 30.2529 38.1241 30.2811C38.0638 30.3077 38.0044 30.3362 37.9461 30.3668C37.6651 30.5142 37.4051 30.7104 37.2102 30.9625C37.0645 31.1508 36.9585 31.3665 36.8842 31.5922C36.9402 31.5754 36.9968 31.5601 37.0538 31.5468L37.0607 31.5382C37.1757 31.4004 37.2934 31.2644 37.4197 31.1348C37.5448 31.0046 37.6757 30.8782 37.8219 30.7632L37.8231 30.764C37.7574 30.9381 37.6764 31.1007 37.5898 31.2596C37.5227 31.3844 37.4503 31.5053 37.3756 31.6246L37.3718 31.6924ZM36.5218 31.7253C36.6047 31.3824 36.7468 31.0514 36.9631 30.7715C37.0467 30.6635 37.1404 30.5642 37.2418 30.4735L37.2469 30.4688C37.2393 30.311 37.2149 30.1538 37.178 30.0006C37.1626 29.9365 37.1449 29.873 37.1251 29.8102C37.1041 29.7432 37.0805 29.6771 37.0548 29.6118L37.0543 29.6103C37.0538 29.6107 37.0534 29.611 37.053 29.6114C37.0047 29.6624 36.9579 29.7146 36.913 29.7686C36.871 29.8194 36.8307 29.8715 36.7923 29.925C36.6072 30.1825 36.4627 30.4743 36.4014 30.787C36.34 31.0997 36.3638 31.4246 36.438 31.733C36.4401 31.7421 36.4423 31.7512 36.4446 31.7603C36.4702 31.7482 36.4959 31.7366 36.5218 31.7253ZM25.7463 28.3382C27.129 28.8439 28.608 29.0725 30.0969 29C28.3482 29.5682 26.5583 29.6356 24.8794 29.2822L24.8655 29.6282L24 30.8195L23.1342 29.6282L23.1205 29.2822C21.4418 29.6356 19.6516 29.5682 17.9028 29C19.3918 29.0725 20.8709 28.8439 22.2537 28.3382C19.989 27.1518 18.1678 25.1126 17.3146 22.4889C16.0504 18.6015 17.2459 14.3344 20.3463 11.6683C16.9773 16.6521 18.1903 23.383 23.0232 26.8908L22.6872 18.584V12.0492C23.2106 11.7982 23.6626 11.4185 24 10.9464C24.3373 11.4185 24.7895 11.7982 25.3127 12.0492V18.584L24.9768 26.8908C29.8096 23.383 31.0226 16.6521 27.6538 11.6683C30.7541 14.3344 31.9494 18.6015 30.6853 22.4889C29.8323 25.1126 28.011 27.1518 25.7463 28.3382ZM38.5491 30.7283C38.5966 30.7261 38.6441 30.7226 38.6913 30.7181C39.0447 30.6844 39.3977 30.5855 39.6973 30.3908C39.9491 30.2273 40.1575 30.0034 40.3253 29.7559C40.3623 29.7015 40.3972 29.6456 40.4305 29.5887C40.4658 29.528 40.4987 29.4661 40.5298 29.4031L40.5305 29.4016C40.501 29.4008 40.4716 29.4006 40.4421 29.4008C40.3829 29.4013 40.3237 29.4031 40.2645 29.407C40.013 29.4236 39.7602 29.4721 39.5243 29.5632L39.5218 29.5695C39.4832 29.6625 39.4385 29.753 39.3871 29.8401C39.188 30.1777 38.8976 30.4553 38.5731 30.6719L38.5608 30.68C38.557 30.6961 38.5531 30.7122 38.5491 30.7283ZM7.45393 27.5885C7.42703 27.5728 7.40003 27.5572 7.37293 27.542C7.16473 27.4251 6.94703 27.3255 6.72283 27.2434L6.71423 27.2403C6.71433 27.2432 6.71443 27.2464 6.71443 27.2494C6.72103 27.4729 6.74393 27.6958 6.78383 27.916C6.81533 28.09 6.85733 28.2624 6.91113 28.431C7.01303 28.7505 7.15803 29.0577 7.35453 29.3303C7.54593 29.5958 7.78403 29.8256 8.04673 30.0201C8.20353 30.1363 8.36913 30.2406 8.54103 30.3332C8.52113 30.3131 8.50133 30.2928 8.48173 30.2724C8.11843 29.8926 7.81633 29.4471 7.64093 28.9494C7.48743 28.514 7.43463 28.0488 7.45393 27.5885ZM9.42953 29.6466C9.45053 29.2084 9.40173 28.7651 9.25133 28.352C9.13673 28.0374 8.96533 27.7453 8.75993 27.4814C8.51923 27.1719 8.23233 26.8985 7.91743 26.6654L7.91013 26.6601C7.90933 26.6631 7.90853 26.6659 7.90773 26.6688C7.85103 26.8852 7.81013 27.1056 7.78633 27.328C7.76753 27.504 7.75933 27.6811 7.76343 27.858C7.77123 28.1933 7.82373 28.5289 7.93543 28.8457C8.04713 29.1626 8.21663 29.457 8.42083 29.7231C8.52403 29.8576 8.63613 29.9851 8.75523 30.1057C8.82363 30.175 8.89443 30.2419 8.96723 30.3065L8.96613 30.2866C8.96463 30.2595 8.96203 30.1939 8.96203 30.1939C8.86403 29.949 8.77553 29.7005 8.68923 29.4512C8.60373 29.1951 8.52113 28.938 8.44863 28.677C8.37503 28.4165 8.30783 28.1535 8.25823 27.8837L8.25963 27.8831C8.40243 28.1174 8.52733 28.3584 8.64583 28.6018C8.76553 28.8448 8.87503 29.0917 8.98183 29.3396C9.00523 29.3956 9.02853 29.4517 9.05153 29.5079L9.18273 29.5509C9.26633 29.5791 9.34853 29.6117 9.42953 29.6466ZM38.6428 29.9977C38.6432 30.0758 38.6392 30.1539 38.6323 30.2317L38.6316 30.2398C38.8464 30.0619 39.0333 29.8489 39.1627 29.6012C39.3017 29.3352 39.3734 29.0377 39.3982 28.7399C39.4036 28.6742 39.4067 28.6084 39.4077 28.5426C39.4087 28.4724 39.4069 28.4022 39.4031 28.3322L39.4029 28.3306C39.4024 28.3308 39.4019 28.3311 39.4014 28.3313C39.3396 28.3644 39.2786 28.3994 39.2192 28.4367C39.1633 28.4718 39.1088 28.5086 39.0555 28.5474C38.799 28.7339 38.5701 28.9657 38.414 29.2434C38.2961 29.4531 38.2221 29.6844 38.1815 29.921C38.2296 29.9033 38.2789 29.8865 38.3279 29.8715L38.3494 29.8348C38.4433 29.6817 38.54 29.5301 38.6461 29.3835C38.7511 29.2366 38.8623 29.0926 38.9902 28.9576L38.9915 28.9582C38.9517 29.1399 38.8952 29.3127 38.8327 29.4823C38.7755 29.6404 38.71 29.794 38.642 29.9462L38.6428 29.9977ZM37.8467 30.0669C37.8815 29.7262 37.9735 29.3896 38.1418 29.0904C38.2099 28.9694 38.2897 28.8558 38.3788 28.7498C38.3482 28.5947 38.3012 28.4427 38.2425 28.2965C38.2179 28.2354 38.1913 28.1752 38.1625 28.1159C38.1321 28.0527 38.0989 27.9908 38.0642 27.9298L38.0633 27.9283C38.063 27.9287 38.0626 27.9292 38.0623 27.9297C38.0218 27.987 37.983 28.0456 37.9466 28.1055C37.9125 28.1618 37.8801 28.2192 37.8497 28.2777C37.704 28.5593 37.6034 28.869 37.5882 29.1873C37.5729 29.5037 37.6426 29.8197 37.7596 30.1124C37.7874 30.0973 37.8154 30.0827 37.8436 30.0685L37.8467 30.0669ZM9.78413 29.8176C9.83453 29.6822 9.87783 29.5442 9.91313 29.4043C9.98863 29.1048 10.027 28.7951 10.0132 28.4862C9.99823 28.1495 9.92073 27.8178 9.80103 27.5035C9.65863 27.1294 9.45813 26.7777 9.21833 26.4578L9.20233 26.4367L9.19673 26.4294C9.19513 26.432 9.19363 26.4347 9.19203 26.4373C9.07693 26.6291 8.97603 26.8292 8.89083 27.036C8.88043 27.0612 8.87023 27.0867 8.86033 27.1121C9.17223 27.4711 9.42673 27.8824 9.57593 28.3352C9.72993 28.8026 9.77083 29.3016 9.73333 29.7907C9.72673 29.7874 9.76073 29.805 9.78413 29.8176ZM39.7995 28.6886C39.868 28.6737 39.9359 28.6562 40.003 28.6366C40.3437 28.5366 40.6716 28.3726 40.9289 28.1248C41.1451 27.9166 41.3075 27.6574 41.4254 27.3826C41.4513 27.3222 41.4751 27.2607 41.497 27.1985C41.5202 27.1324 41.5408 27.0652 41.5593 26.9975L41.5598 26.996C41.5592 26.996 41.5587 26.9961 41.5582 26.9962C41.4889 27.008 41.42 27.0219 41.3518 27.0385C41.2878 27.0539 41.2243 27.0716 41.1615 27.0914C40.9664 27.1531 40.7761 27.2364 40.6022 27.3451C40.5819 27.4459 40.5546 27.5455 40.5199 27.6427C40.3884 28.012 40.1559 28.3394 39.8782 28.6134C39.8524 28.6389 39.8263 28.664 39.7995 28.6886ZM39.4562 27.9589C39.4706 27.9172 39.4854 27.8755 39.5001 27.8339C39.5634 27.666 39.6295 27.4987 39.706 27.3347C39.7813 27.1704 39.8632 27.0081 39.9632 26.8513L39.9647 26.8518C39.9599 27.0376 39.9372 27.218 39.9078 27.3963C39.8796 27.575 39.8411 27.7506 39.7997 27.9253C39.7717 28.0352 39.7427 28.145 39.7107 28.2538C39.7123 28.2739 39.7137 28.294 39.7148 28.3139C39.7152 28.3204 39.7156 28.3268 39.716 28.3333C39.956 28.0827 40.1542 27.785 40.2545 27.4505C40.3407 27.1631 40.3548 26.8575 40.3225 26.5603C40.3156 26.4949 40.3061 26.4297 40.2946 26.3649C40.2822 26.2957 40.2672 26.2271 40.2502 26.1591L40.2498 26.1574C40.2493 26.1578 40.249 26.1581 40.2485 26.1584C40.194 26.2028 40.1408 26.2486 40.0895 26.2966C40.0414 26.3414 39.9946 26.388 39.9497 26.436C39.7332 26.6678 39.5523 26.9388 39.4515 27.2411C39.3697 27.4868 39.3423 27.7474 39.3533 28.0056C39.3864 27.9898 39.4197 27.9745 39.4534 27.96L39.4562 27.9589ZM39.0519 28.173C39.0193 27.8268 39.045 27.473 39.1553 27.1423C39.1992 27.0106 39.2562 26.884 39.3235 26.763C39.2641 26.6165 39.1892 26.4761 39.1038 26.3436C39.0682 26.2883 39.0306 26.2341 38.9912 26.1814C38.9492 26.1251 38.9051 26.0705 38.8593 26.0172L38.8583 26.016C38.8581 26.0165 38.8578 26.017 38.8576 26.0175C38.8286 26.0815 38.8016 26.1463 38.7772 26.2121C38.7542 26.2738 38.7334 26.3363 38.7148 26.3995C38.625 26.7037 38.5847 27.0268 38.6301 27.3423C38.6753 27.6574 38.8046 27.9558 38.9761 28.2222L38.9773 28.2213C39.002 28.2049 39.0268 28.1888 39.0519 28.173ZM14.0181 15.4508C11.6697 19.5118 13.06 24.7067 17.1222 27.0544C17.116 27.0469 17.1097 27.0382 17.1035 27.0295C13.4122 22.1218 14.4003 15.1511 19.3107 11.461C17.0785 12.0192 15.1698 13.459 14.0181 15.4508ZM30.8965 27.0295C30.8903 27.0382 30.884 27.0471 30.8778 27.0544C34.94 24.7067 36.3303 19.5118 33.9819 15.4508C32.8302 13.459 30.9215 12.0192 28.6893 11.461C33.5997 15.1511 34.5877 22.1218 30.8965 27.0295ZM7.90803 26.2807C7.97063 26.3198 8.08153 26.3985 8.07673 26.395C8.20823 25.8788 8.24863 25.3313 8.13253 24.8083C8.06383 24.4989 7.94253 24.2029 7.78713 23.9273C7.59473 23.5861 7.35083 23.2741 7.07393 22.9976L7.05513 22.9789L7.04853 22.9726C7.04733 22.9754 7.04613 22.9782 7.04493 22.9809C6.95843 23.1872 6.88703 23.3996 6.83223 23.6166C6.78883 23.7881 6.75573 23.9623 6.73493 24.138C6.69553 24.4711 6.70043 24.8108 6.76643 25.1401C6.83253 25.4695 6.95883 25.7848 7.12363 26.077C7.21053 26.2311 7.30823 26.3792 7.41443 26.5208C7.46533 26.5889 7.51833 26.6553 7.57313 26.7203L7.57623 26.7073C7.58113 26.6863 7.58623 26.6653 7.59143 26.6445L7.59553 26.6286C7.53183 26.3692 7.47863 26.1075 7.42763 25.8454C7.37893 25.5799 7.33333 25.3138 7.29813 25.0452C7.26193 24.7768 7.23243 24.5071 7.22133 24.2331L7.22263 24.2327C7.33093 24.4847 7.42093 24.7407 7.50393 24.9985C7.58833 25.2558 7.66213 25.5157 7.73293 25.7761C7.77353 25.9322 7.81323 26.0884 7.85033 26.2452L7.90803 26.2807ZM6.46643 23.8275C6.26253 23.6645 6.04323 23.5205 5.81443 23.3958L5.79113 23.3833L5.78303 23.3789C5.78273 23.382 5.78233 23.385 5.78203 23.388C5.75623 23.6177 5.74783 23.8492 5.75773 24.0802C5.76513 24.2496 5.78223 24.4184 5.81053 24.5856C5.86813 24.9256 5.97273 25.2591 6.13653 25.5634C6.28713 25.8432 6.48553 26.0956 6.71143 26.3185C6.85043 26.4556 6.99973 26.5821 7.15693 26.6979C7.14003 26.6752 7.12323 26.6523 7.10673 26.6294C6.80043 26.2024 6.56393 25.7187 6.46023 25.2015C6.36953 24.7488 6.38273 24.2804 6.46643 23.8275ZM40.6548 26.5333C40.7208 26.5101 40.7859 26.4844 40.8499 26.4565C41.1753 26.3148 41.4804 26.1111 41.7046 25.8331C41.8931 25.5995 42.0218 25.322 42.1043 25.0347C42.1224 24.9715 42.1384 24.9076 42.1523 24.8431C42.167 24.7744 42.179 24.7054 42.189 24.6358L42.1893 24.6342C42.1886 24.6343 42.1881 24.6344 42.1876 24.6347C42.1204 24.655 42.0539 24.6774 41.9882 24.7024C41.9267 24.7257 41.8659 24.7512 41.806 24.7787C41.6202 24.8643 41.4419 24.9707 41.283 25.1004C41.2754 25.2029 41.2608 25.305 41.2385 25.4059C41.1542 25.7887 40.9645 26.1427 40.7233 26.4492C40.7009 26.4776 40.6782 26.5057 40.6548 26.5333ZM8.36443 26.5292C8.47213 26.3505 8.56693 26.1641 8.64593 25.9709C8.76283 25.6852 8.84433 25.3838 8.87413 25.076C8.90653 24.7407 8.87643 24.4013 8.80213 24.0732C8.71373 23.6829 8.56473 23.3065 8.37223 22.956L8.35933 22.9329L8.35493 22.925C8.35293 22.9274 8.35103 22.9296 8.34913 22.932C8.20823 23.1058 8.08013 23.2896 7.96673 23.4824C7.95283 23.506 7.93923 23.5298 7.92583 23.5536C8.18413 23.9529 8.37833 24.3958 8.46233 24.8651C8.55303 25.3715 8.51653 25.8946 8.39863 26.3935C8.38793 26.4388 8.37653 26.4841 8.36443 26.5292ZM39.8445 26.0984C39.772 25.7642 39.7552 25.4162 39.822 25.08C39.8491 24.9438 39.8897 24.811 39.9414 24.6826C39.8642 24.5447 39.7724 24.4148 39.6711 24.294C39.6288 24.2434 39.5847 24.1945 39.5391 24.147C39.4904 24.0965 39.4398 24.0479 39.3877 24.0007L39.3864 23.9996C39.3863 24.0001 39.3861 24.0007 39.3859 24.0012C39.3652 24.0682 39.3466 24.1359 39.3306 24.2044C39.3155 24.2684 39.3026 24.333 39.292 24.398C39.2409 24.711 39.2414 25.0367 39.3259 25.3439C39.4095 25.6483 39.5731 25.9263 39.7743 26.1678C39.7865 26.1554 39.7988 26.1431 39.8113 26.1308C39.8223 26.1199 39.8334 26.1091 39.8445 26.0984ZM40.7843 23.9664C40.7842 23.9665 40.7836 23.9671 40.7835 23.9672C40.7349 24.018 40.6879 24.0701 40.643 24.1241C40.6009 24.1746 40.5604 24.2266 40.5218 24.28C40.3359 24.537 40.1905 24.8284 40.1283 25.1409C40.081 25.3788 40.0828 25.6238 40.1188 25.8634C40.1549 25.8361 40.1916 25.8097 40.2291 25.7842L40.2386 25.7778C40.2426 25.7596 40.2466 25.7414 40.2507 25.7231C40.2926 25.5484 40.3372 25.3745 40.3926 25.2021C40.4467 25.0297 40.5077 24.8583 40.5872 24.6903L40.5887 24.6905C40.6073 24.8754 40.6072 25.0574 40.6006 25.238C40.5949 25.4188 40.5785 25.5979 40.5594 25.7763C40.5501 25.8499 40.5405 25.9234 40.5299 25.9967C40.538 26.0251 40.5456 26.0536 40.5529 26.0821C40.5575 26.1006 40.562 26.119 40.5664 26.1375C40.7541 25.8717 40.8973 25.5707 40.9511 25.2485C41.0006 24.9524 40.9763 24.6475 40.9073 24.3567C40.892 24.2926 40.8745 24.2291 40.8551 24.1663C40.8342 24.0992 40.8107 24.033 40.7852 23.9676L40.7843 23.9664ZM41.3646 24.3993C41.4258 24.3654 41.4859 24.3294 41.5446 24.2914C41.8424 24.0983 42.1099 23.8475 42.2857 23.5365C42.4335 23.2753 42.5149 22.9804 42.5494 22.6836C42.557 22.6182 42.5624 22.5525 42.5654 22.4867C42.5688 22.4166 42.5693 22.3464 42.5678 22.2763V22.2745C42.5673 22.2748 42.5668 22.275 42.5663 22.2753C42.5033 22.3063 42.4412 22.3393 42.3805 22.3747C42.3237 22.4079 42.2678 22.4428 42.2134 22.4798C42.044 22.5947 41.8855 22.7287 41.7499 22.8827C41.7592 22.9851 41.7616 23.0882 41.7561 23.1914C41.7354 23.5828 41.6062 23.963 41.4184 24.3049C41.4009 24.3366 41.3829 24.3681 41.3646 24.3993ZM39.9419 24.1316C39.9991 24.202 40.0534 24.2752 40.1038 24.3507C40.1099 24.3402 40.1161 24.3297 40.1223 24.3194C40.0594 24.2596 39.999 24.1969 39.9419 24.1316ZM40.8472 23.4889C40.8574 23.3688 40.8703 23.2487 40.888 23.1285C40.9133 22.9496 40.9454 22.7706 40.9965 22.5918H40.998C41.0467 22.7713 41.0763 22.9507 41.0991 23.13C41.1231 23.3094 41.1362 23.4886 41.1465 23.6678C41.152 23.805 41.1561 23.9421 41.155 24.0792C41.1587 24.0912 41.1623 24.1032 41.1658 24.1152L41.1716 24.1043C41.3363 23.79 41.4463 23.4401 41.4468 23.083C41.4471 22.7829 41.3734 22.4859 41.2577 22.2104C41.2322 22.1496 41.2046 22.0898 41.175 22.031C41.1435 21.9683 41.1095 21.9069 41.0737 21.8465L41.0728 21.845C41.0725 21.8455 41.0722 21.846 41.0719 21.8464C41.0323 21.9045 40.9945 21.9636 40.9589 22.0241C40.9256 22.0809 40.8942 22.1389 40.8648 22.1978C40.7235 22.4818 40.6277 22.793 40.6175 23.1116C40.6118 23.2889 40.6327 23.4656 40.6736 23.6379C40.688 23.6246 40.8472 23.4889 40.8472 23.4889ZM40.4224 23.901C40.3409 23.6427 40.2967 23.3728 40.3053 23.1016C40.3098 22.9627 40.3282 22.8251 40.3581 22.69C40.2593 22.5665 40.1475 22.4533 40.0277 22.3507C39.9778 22.3078 39.9263 22.2668 39.8735 22.2274C39.8171 22.1855 39.7593 22.1458 39.7002 22.1078L39.6988 22.1068C39.6987 22.1074 39.6986 22.1079 39.6986 22.1085C39.6891 22.1781 39.6817 22.2479 39.6771 22.318C39.6729 22.3836 39.6706 22.4495 39.6709 22.5154C39.6716 22.8325 39.7255 23.1536 39.859 23.443C39.9652 23.673 40.1193 23.8778 40.2991 24.0559L40.3052 24.0476C40.3187 24.0298 40.3324 24.012 40.3463 23.9944C40.371 23.9628 40.3965 23.9318 40.4224 23.901ZM7.68573 23.0545C7.72973 23.0023 7.77263 22.9491 7.81413 22.8948C8.10413 22.5161 8.33313 22.0842 8.44003 21.6171C8.51063 21.3083 8.52803 20.9888 8.50583 20.6732C8.47843 20.2823 8.39193 19.8961 8.26033 19.5275L8.25133 19.5026L8.24813 19.4941C8.24583 19.4961 8.24353 19.4981 8.24133 19.5001C8.07463 19.6493 7.91903 19.8107 7.77643 19.983C7.75903 20.0041 7.74183 20.0253 7.72483 20.0468C7.91643 20.482 8.03803 20.9501 8.04653 21.4267C8.05573 21.9411 7.93663 22.4518 7.74123 22.9256C7.72333 22.9688 7.70483 23.0118 7.68573 23.0545ZM6.24033 20.0859C6.06493 19.8927 5.87143 19.7158 5.66513 19.5562L5.64413 19.5402L5.63683 19.5347C5.63603 19.5376 5.63523 19.5406 5.63433 19.5434C5.57453 19.759 5.53043 19.9786 5.50333 20.2007C5.48193 20.3764 5.47113 20.5533 5.47263 20.7303C5.47553 21.0657 5.52313 21.402 5.63013 21.7204C5.73713 22.039 5.90223 22.3358 6.10253 22.6048C6.20813 22.7468 6.32373 22.8814 6.44683 23.0085C6.45343 23.0153 6.46523 23.0263 6.46523 23.0263C6.45273 23.0022 6.44033 22.9779 6.42823 22.9537C6.19353 22.4837 6.03673 21.9687 6.01633 21.4416C5.99853 20.9803 6.08583 20.5198 6.24033 20.0859ZM7.41323 22.8989C7.49583 22.7113 7.56513 22.518 7.61853 22.3201C7.69893 22.022 7.74233 21.7129 7.73363 21.4039C7.72413 21.0671 7.65193 20.7341 7.53743 20.4178C7.47683 20.2505 7.40433 20.0874 7.32233 19.9294C7.21583 19.7241 7.09303 19.5277 6.95623 19.3414L6.95073 19.334C6.94913 19.3366 6.94753 19.3391 6.94593 19.3418C6.82383 19.5381 6.71653 19.7434 6.62613 19.9562C6.55653 20.12 6.49683 20.2882 6.44933 20.4598C6.35953 20.784 6.31323 21.1214 6.32963 21.4581C6.34563 21.784 6.41953 22.1054 6.53253 22.411C6.59293 22.5745 6.66433 22.7338 6.74523 22.8883L6.75173 22.8725C6.78233 22.7996 6.81493 22.7277 6.85043 22.657L6.85633 22.6454L6.88363 22.5936C6.87783 22.4726 6.87343 22.3516 6.86943 22.2306C6.86353 21.9607 6.86063 21.6907 6.86853 21.42C6.87533 21.1492 6.88893 20.8781 6.92143 20.6058H6.92293C6.98983 20.8716 7.03793 21.1389 7.07913 21.4065C7.12153 21.674 7.15323 21.9422 7.18183 22.2106C7.19763 22.3764 7.21253 22.5424 7.22453 22.7085C7.26273 22.7447 7.30013 22.7818 7.33693 22.8192C7.36273 22.8454 7.38813 22.872 7.41323 22.8989ZM41.6468 22.2237C41.7018 22.1806 41.7553 22.1354 41.8071 22.0884C42.0702 21.8503 42.2942 21.56 42.418 21.2249C42.5219 20.9434 42.5553 20.6394 42.5418 20.3407C42.5388 20.275 42.5335 20.2093 42.526 20.1438C42.5182 20.074 42.5074 20.0047 42.4947 19.9357L42.4944 19.934C42.4939 19.9343 42.4934 19.9347 42.4931 19.935C42.4358 19.9758 42.3799 20.0182 42.3257 20.0628C42.2748 20.1046 42.2252 20.1481 42.1774 20.1933C42.0285 20.3338 41.8936 20.4914 41.7844 20.665C41.81 20.7646 41.8288 20.866 41.8399 20.9688C41.8821 21.3584 41.8154 21.7544 41.6847 22.1219C41.6726 22.156 41.66 22.19 41.6468 22.2237ZM40.6573 21.9223C40.5248 21.6691 40.4301 21.396 40.3934 21.112C40.3756 20.9743 40.3716 20.8355 40.3796 20.6973C40.2625 20.5913 40.1338 20.4975 39.9993 20.4153C39.9431 20.381 39.8856 20.3486 39.8271 20.3183C39.7649 20.2858 39.7013 20.256 39.637 20.2279L39.6355 20.2273C39.6355 20.2278 39.6355 20.2284 39.6355 20.2289C39.6374 20.2991 39.6413 20.3691 39.6479 20.4391C39.6541 20.5046 39.6626 20.5699 39.6732 20.6349C39.7248 20.9478 39.8294 21.2563 40.0075 21.5205C40.157 21.7424 40.355 21.928 40.5749 22.0797C40.5972 22.0341 40.6206 21.9892 40.6449 21.9447C40.6491 21.9373 40.6532 21.9298 40.6573 21.9223ZM41.3451 21.6921C41.3786 21.7483 41.4103 21.8056 41.4403 21.8638C41.5306 21.5558 41.5683 21.2294 41.5172 20.9113C41.4696 20.615 41.3492 20.3337 41.1909 20.0802C41.1561 20.0243 41.1192 19.9696 41.0805 19.9163C41.0394 19.8595 40.9961 19.8043 40.9511 19.7504L40.95 19.7491C40.9497 19.7496 40.9495 19.7501 40.9492 19.7506C40.9195 19.8142 40.8915 19.8786 40.8662 19.944C40.8424 20.0055 40.8207 20.0677 40.8011 20.1306C40.707 20.4334 40.6623 20.756 40.7032 21.0721C40.7271 21.2585 40.7807 21.4396 40.8551 21.612L40.9926 21.4389C40.9823 21.3084 40.9748 21.1775 40.9728 21.0457C40.9691 20.865 40.9721 20.6832 40.994 20.4985L40.9955 20.4982C41.0722 20.6676 41.1302 20.8399 41.1815 21.0134C41.2338 21.1864 41.2755 21.3614 41.3144 21.5366C41.325 21.5883 41.3352 21.6401 41.3451 21.6921ZM41.6687 20.0187C41.7191 19.9701 41.7676 19.9197 41.8143 19.8676C42.0512 19.6035 42.244 19.2914 42.3323 18.9454C42.4066 18.6547 42.4082 18.3487 42.3639 18.0531C42.3541 17.9881 42.342 17.9233 42.3278 17.859C42.3127 17.7904 42.2949 17.7226 42.2751 17.6553L42.2746 17.6537C42.2742 17.654 42.2737 17.6544 42.2733 17.6548C42.2207 17.7013 42.1694 17.7492 42.1202 17.7991C42.0738 17.846 42.0291 17.8944 41.9862 17.9443C41.8527 18.0995 41.7348 18.2703 41.6441 18.4543C41.6799 18.5507 41.7091 18.6496 41.7308 18.7506C41.8133 19.1337 41.7879 19.5346 41.696 19.9136C41.6875 19.9488 41.6784 19.9838 41.6687 20.0187ZM40.6076 19.75C40.4717 19.5312 40.3664 19.2938 40.3071 19.0429C40.2756 18.9099 40.2573 18.7747 40.2506 18.6387L40.2503 18.6318C40.1228 18.5386 39.9852 18.4585 39.8429 18.3908C39.7834 18.3625 39.723 18.3362 39.6616 18.312C39.5963 18.2863 39.5301 18.2631 39.4631 18.2418L39.4615 18.2413C39.4615 18.2418 39.4616 18.2425 39.4616 18.243C39.4708 18.3126 39.4819 18.3819 39.4957 18.4508C39.5087 18.5153 39.524 18.5794 39.5413 18.6429C39.625 18.9488 39.7609 19.2447 39.9654 19.4891C40.1231 19.6774 40.318 19.8312 40.5303 19.9542L40.5435 19.9159C40.5625 19.8626 40.5827 19.8098 40.6045 19.7575L40.6076 19.75ZM40.7186 17.6313C40.6957 17.6976 40.6746 17.7646 40.6562 17.8322C40.6388 17.8958 40.6237 17.9599 40.6107 18.0244C40.5485 18.3354 40.5375 18.6609 40.611 18.971C40.6472 19.1243 40.7037 19.2717 40.775 19.4118L40.8833 19.2334L40.9323 19.2807C40.9104 19.1602 40.891 19.0392 40.8765 18.9168C40.8542 18.7374 40.8383 18.5563 40.8408 18.3703L40.8423 18.37C40.9361 18.5306 41.0117 18.6959 41.0806 18.863C41.1507 19.0298 41.2103 19.1994 41.267 19.3697C41.3139 19.5191 41.3592 19.6689 41.3972 19.8205C41.3999 19.8085 41.4027 19.7966 41.4054 19.7844C41.4821 19.438 41.4967 19.0717 41.4038 18.7269C41.3259 18.437 41.1771 18.1698 40.9932 17.934C40.9527 17.8821 40.9105 17.8315 40.8665 17.7825C40.8197 17.7302 40.7709 17.6798 40.7205 17.6308L40.7193 17.6297L40.7186 17.6313ZM8.89403 16.1739C8.89403 16.1739 8.62333 16.3642 8.48093 16.4434C8.40683 16.4846 8.33163 16.5238 8.25533 16.561C8.33733 17.0213 8.34543 17.4963 8.24543 17.9541C8.13563 18.4567 7.90183 18.9262 7.60233 19.342C7.57493 19.3801 7.54703 19.4176 7.51853 19.4548C7.57343 19.4141 7.62743 19.3722 7.68033 19.329C8.04993 19.0273 8.37253 18.6601 8.58433 18.2302C8.72433 17.946 8.81503 17.6392 8.86633 17.327C8.92883 16.9465 8.93473 16.557 8.89403 16.1739ZM7.27843 19.2547L7.28193 19.2501C7.61153 18.8164 7.86753 18.3155 7.96233 17.7757C8.01863 17.4552 8.01833 17.1264 7.97683 16.8042C7.92793 16.4241 7.82333 16.0515 7.67633 15.6978L7.66603 15.6735L7.66243 15.6651C7.66023 15.6672 7.65813 15.6694 7.65593 15.6715C7.49713 15.8291 7.34983 15.998 7.21633 16.1775C7.11063 16.3195 7.01343 16.4678 6.92703 16.6223C6.76333 16.915 6.63803 17.2307 6.57313 17.5604C6.50823 17.8899 6.50443 18.2296 6.54503 18.5625C6.56643 18.7382 6.60003 18.9123 6.64403 19.0838C6.65313 19.1192 6.66263 19.1546 6.67263 19.1898C6.71463 19.1221 6.75863 19.0557 6.80523 18.991L6.81603 18.9762C6.84643 18.8053 6.87993 18.6349 6.91443 18.4647C6.97103 18.2008 7.03063 17.9374 7.10083 17.6758C7.16993 17.414 7.24563 17.1534 7.34013 16.8959L7.34163 16.8962C7.34543 17.1704 7.33053 17.4414 7.30883 17.7112C7.28833 17.9813 7.25723 18.2496 7.22313 18.5173C7.19753 18.7011 7.17093 18.8847 7.14053 19.0677C7.18173 19.1201 7.22133 19.1739 7.25983 19.2284C7.26603 19.2371 7.27223 19.2458 7.27843 19.2547ZM6.33703 15.5581C6.33573 15.5605 6.33443 15.5628 6.33313 15.5651C6.22523 15.761 6.13153 15.9646 6.05393 16.1744C5.99253 16.3403 5.94113 16.5102 5.90173 16.6826C5.82713 17.0097 5.79583 17.3478 5.82643 17.6824C5.85703 18.0169 5.94913 18.3439 6.08183 18.6519C6.15193 18.8144 6.23323 18.972 6.32373 19.1241L6.33823 19.1482C6.33133 19.121 6.32463 19.0937 6.31823 19.0664C6.19363 18.5343 6.16243 17.9744 6.27963 17.438C6.37353 17.0076 6.55803 16.6017 6.79753 16.2326C6.66733 15.9964 6.51413 15.7726 6.34343 15.5642L6.33763 15.5571L6.33703 15.5581ZM40.3349 17.8269C40.1809 17.6303 40.0537 17.413 39.9679 17.1781C39.9211 17.0498 39.8871 16.9175 39.8645 16.7833L39.8634 16.7765C39.7258 16.6987 39.5798 16.6354 39.4304 16.5848C39.3681 16.5636 39.305 16.5448 39.2413 16.5279C39.1733 16.5099 39.1049 16.4947 39.0359 16.4814L39.0342 16.4811C39.0343 16.4817 39.0346 16.4822 39.0347 16.4827C39.0518 16.5509 39.071 16.6183 39.0929 16.6851C39.1134 16.7477 39.1359 16.8095 39.1606 16.8706C39.2796 17.1645 39.4493 17.4426 39.681 17.6613C39.8574 17.8277 40.0658 17.9563 40.2879 18.0531C40.3002 17.9807 40.3151 17.9088 40.3323 17.8376L40.3349 17.8269ZM41.4348 17.9876C41.479 17.9334 41.5213 17.8776 41.5616 17.8205C41.7659 17.5303 41.9206 17.1979 41.9678 16.8438C42.0074 16.5464 41.9732 16.2424 41.8945 15.9541C41.8771 15.8906 41.8575 15.8277 41.8359 15.7655C41.8128 15.6992 41.7872 15.6339 41.7596 15.5693L41.7589 15.5677C41.7586 15.5682 41.7582 15.5686 41.7578 15.569C41.711 15.6213 41.6657 15.675 41.6227 15.7304C41.5822 15.7824 41.5435 15.8356 41.5066 15.8903C41.3923 16.06 41.2953 16.2434 41.2268 16.4367C41.2735 16.5283 41.3142 16.623 41.3476 16.7208C41.4745 17.0917 41.4962 17.4927 41.4495 17.8799C41.4451 17.9159 41.4403 17.9518 41.4348 17.9876ZM41.1567 17.6402C41.1716 17.3332 41.1347 17.0218 41.0202 16.7356C40.9086 16.457 40.7295 16.209 40.5194 15.9963C40.4731 15.9495 40.4251 15.9044 40.3758 15.8608C40.323 15.8143 40.2687 15.77 40.2129 15.7273L40.2116 15.7262C40.2115 15.7268 40.2114 15.7273 40.2112 15.7279C40.1961 15.7965 40.183 15.8654 40.1726 15.9349C40.1629 15.9999 40.1554 16.0653 40.1502 16.131C40.1248 16.4472 40.152 16.7717 40.2613 17.0711C40.3103 17.2051 40.375 17.3325 40.4516 17.4524L40.4531 17.4486C40.4694 17.4064 40.4868 17.3646 40.5052 17.3232L40.5112 17.3103L40.5996 17.1238L40.5707 17.1846C40.5523 17.1189 40.5348 17.0528 40.5188 16.9861C40.4754 16.8106 40.4386 16.6325 40.4192 16.4476L40.4206 16.4471C40.5327 16.5955 40.6271 16.7509 40.7152 16.9088C40.8042 17.0662 40.8834 17.2276 40.9596 17.3902C40.9697 17.4128 40.9798 17.4355 40.99 17.4581C41.0413 17.5101 41.0908 17.5638 41.1385 17.6189C41.1446 17.6259 41.1506 17.6331 41.1567 17.6402ZM39.8619 15.9018C39.7077 15.7407 39.5741 15.5606 39.4714 15.3622C39.4085 15.2409 39.358 15.114 39.3185 14.9838L39.3165 14.9772C39.1701 14.9176 39.0172 14.8734 38.8625 14.8423C38.7981 14.8292 38.733 14.8184 38.6677 14.81C38.5981 14.8007 38.5282 14.7943 38.4581 14.79L38.4563 14.7898C38.4566 14.7905 38.4568 14.791 38.457 14.7915C38.4827 14.8568 38.5104 14.9213 38.5405 14.9847C38.5689 15.0441 38.5991 15.1027 38.6315 15.1601C38.787 15.4365 38.9907 15.6906 39.2485 15.878C39.426 16.007 39.6258 16.1021 39.8344 16.1691L39.8346 16.1644C39.8385 16.1021 39.8442 16.04 39.8517 15.9782C39.8547 15.9527 39.8581 15.9272 39.8619 15.9018ZM8.95513 15.7395C9.12183 15.5973 9.27463 15.4392 9.40713 15.2646C9.61073 14.9962 9.76323 14.6914 9.87213 14.3731C10.0018 13.9945 10.0725 13.5959 10.0926 13.1965L10.0941 13.1611C10.0912 13.1621 10.0884 13.1631 10.0855 13.1641C9.87443 13.2381 9.66883 13.3274 9.47113 13.4321C9.44693 13.4449 9.42283 13.4579 9.39893 13.4711C9.40923 13.9466 9.34203 14.4253 9.16733 14.869C8.99343 15.3103 8.71993 15.7071 8.39453 16.0506L8.41673 16.0363C8.48503 15.992 8.55453 15.9497 8.62493 15.9093C8.72463 15.8519 8.95513 15.7395 8.95513 15.7395ZM41.0293 15.9783C41.0664 15.9189 41.1011 15.8581 41.1339 15.7964C41.2996 15.4826 41.4107 15.1331 41.4123 14.776C41.4138 14.4759 41.341 14.1787 41.2262 13.9027C41.2008 13.8419 41.1735 13.7821 41.1441 13.7231C41.1128 13.6603 41.079 13.5988 41.0434 13.5383L41.0426 13.5368C41.0422 13.5373 41.0419 13.5378 41.0416 13.5382C41.0017 13.5962 40.9637 13.6551 40.928 13.7155C40.8945 13.7722 40.8629 13.83 40.8333 13.8889C40.7416 14.0717 40.6687 14.266 40.6255 14.4664C40.6837 14.5513 40.736 14.6401 40.7816 14.7329C40.9546 15.0847 41.0273 15.4795 41.0302 15.8695C41.0306 15.9058 41.0302 15.942 41.0293 15.9783ZM8.09083 15.9153C8.21173 15.7942 8.32513 15.6659 8.42963 15.5304C8.61813 15.2857 8.77663 15.0169 8.88703 14.728C9.00723 14.4132 9.06823 14.078 9.08363 13.742C9.10203 13.3423 9.05823 12.9398 8.96563 12.5508L8.95933 12.5252L8.95713 12.5163C8.95463 12.5181 8.95213 12.5198 8.94963 12.5216C8.76773 12.6517 8.59543 12.7952 8.43493 12.951C8.30793 13.0743 8.18833 13.2053 8.07843 13.344C7.86413 13.6143 7.68623 13.9151 7.56953 14.2404C7.45933 14.5476 7.40433 14.8728 7.39163 15.1983C7.38773 15.2971 7.38763 15.396 7.39113 15.4948C7.45353 15.4315 7.51793 15.37 7.58453 15.3111L7.76123 15.1631L7.76693 15.1738L7.77193 15.1606C7.86993 14.9091 7.97083 14.6586 8.08183 14.4115C8.19163 14.1642 8.30823 13.919 8.44263 13.6798L8.44403 13.6803C8.40403 13.9515 8.34593 14.2168 8.28163 14.4798C8.21813 14.7431 8.14453 15.0029 8.06823 15.2619C8.03513 15.3695 8.00173 15.4769 7.96723 15.5841C7.97413 15.6006 7.98093 15.617 7.98753 15.6336C8.02493 15.7263 8.05943 15.8203 8.09083 15.9153ZM40.7145 15.7499C40.6978 15.4166 40.622 15.0822 40.4587 14.7892C40.3126 14.5271 40.1032 14.304 39.8677 14.1199C39.8158 14.0793 39.7624 14.0406 39.708 14.0037C39.6498 13.9643 39.5902 13.9273 39.5295 13.892L39.528 13.8912C39.5278 13.8917 39.5278 13.8924 39.5278 13.8929C39.5215 13.9628 39.5173 14.0328 39.516 14.103C39.5146 14.1688 39.5155 14.2348 39.5186 14.3005C39.5338 14.6173 39.6022 14.9357 39.7487 15.2187C39.8035 15.3246 39.8687 15.4245 39.9419 15.5181L40.0334 15.2379L40.0522 15.2493C40.0319 15.2004 40.0121 15.1512 39.9933 15.1017C39.9279 14.9331 39.8686 14.7613 39.8259 14.5802L39.8271 14.5796C39.9573 14.7124 40.0707 14.8545 40.1783 14.9999C40.2867 15.1448 40.3858 15.2949 40.4821 15.4462C40.5219 15.5113 40.5614 15.5765 40.6 15.6423C40.609 15.6503 40.6178 15.6584 40.6267 15.6665C40.6564 15.6937 40.6857 15.7214 40.7145 15.7499ZM8.01273 12.9387C7.92473 12.6929 7.81373 12.4554 7.68443 12.2291L7.67113 12.2061L7.66653 12.1984C7.66463 12.2008 7.66273 12.2031 7.66083 12.2055C7.51843 12.3876 7.38973 12.5803 7.27693 12.7821C7.19433 12.9301 7.12023 13.0829 7.05663 13.24C6.93073 13.5508 6.84593 13.8797 6.82273 14.2148C6.79953 14.55 6.83833 14.8874 6.92013 15.2127C6.96333 15.3843 7.01853 15.5529 7.08353 15.7174C7.08693 15.7261 7.09043 15.7347 7.09393 15.7434C7.09423 15.7472 7.08953 15.6915 7.08733 15.6598C7.04923 15.1145 7.10783 14.5568 7.30903 14.0458C7.47053 13.636 7.71733 13.2648 8.01273 12.9387ZM39.2031 14.1354C38.9772 13.9934 38.7716 13.8196 38.6044 13.6113C38.5188 13.5047 38.4442 13.3905 38.3796 13.2706C38.3796 13.2706 38.263 13.2454 38.2059 13.2387C38.1261 13.2296 38.0459 13.2249 37.9655 13.2226C37.9354 13.2221 37.9053 13.222 37.8751 13.2221C37.8191 13.223 37.7633 13.2249 37.7075 13.2288C37.6374 13.2335 37.5676 13.241 37.498 13.2506L37.4964 13.2509C37.5591 13.3495 37.6286 13.444 37.7031 13.5341C37.9292 13.8076 38.2091 14.0445 38.5383 14.1832C38.7508 14.2727 38.9782 14.3212 39.2078 14.3389C39.2051 14.2882 39.2029 14.1524 39.2031 14.1354ZM39.7066 11.7091C39.6931 11.7478 39.5596 12.4262 39.5584 12.505C39.6323 12.5768 39.7012 12.6536 39.7643 12.7355C40.0035 13.0461 40.1529 13.4188 40.2329 13.8006C40.2404 13.8359 40.2472 13.8715 40.2535 13.9072C40.2781 13.8417 40.3001 13.7752 40.3199 13.7082C40.4204 13.3679 40.4601 13.0034 40.3911 12.653C40.3332 12.3585 40.203 12.0816 40.0359 11.8338C39.9991 11.7792 39.9604 11.7259 39.9199 11.6739C39.8767 11.6186 39.8315 11.5649 39.7847 11.5126L39.7835 11.5113C39.7833 11.5119 39.783 11.5125 39.7828 11.513C39.7553 11.5775 39.7297 11.6428 39.7066 11.7091ZM39.903 13.7589C39.8213 13.4307 39.6799 13.1129 39.4589 12.8545C39.2638 12.6265 39.0144 12.449 38.7471 12.3152C38.6883 12.2857 38.6283 12.2582 38.5676 12.2329C38.5028 12.2058 38.4371 12.1812 38.3705 12.1587L38.3689 12.1581C38.369 12.1587 38.369 12.1592 38.3691 12.1598C38.3768 12.2296 38.3866 12.299 38.3991 12.3682C38.4107 12.433 38.4246 12.4974 38.4407 12.5613C38.5183 12.8687 38.6482 13.1673 38.8478 13.4158C38.9572 13.5519 39.0859 13.6709 39.2264 13.7741L39.265 13.5488C39.1957 13.4522 39.1282 13.3539 39.0645 13.2526C38.9671 13.1004 38.8749 12.9437 38.7972 12.7747L38.7983 12.7737C38.9521 12.8784 39.0915 12.9951 39.2257 13.1165C39.3606 13.2369 39.4874 13.3644 39.6118 13.4939C39.6682 13.5548 39.7245 13.6159 39.7795 13.6781C39.8214 13.704 39.8625 13.7309 39.903 13.7589ZM9.28313 12.5371C9.31183 12.6637 9.36193 12.9147 9.36193 12.9147C9.75863 12.6498 10.115 12.315 10.367 11.9076C10.5336 11.6381 10.6533 11.3412 10.7343 11.0354C10.8345 10.6568 10.8775 10.2632 10.8721 9.8719L10.8713 9.8363C10.8685 9.8376 10.8657 9.8387 10.8629 9.8398C10.657 9.9274 10.4575 10.0296 10.2669 10.1468C10.1161 10.2394 9.97093 10.3413 9.83333 10.4527C9.57273 10.6639 9.33923 10.9105 9.15673 11.1926C8.97413 11.4747 8.84473 11.7887 8.75883 12.1129C8.74183 12.1774 8.72643 12.2424 8.71263 12.3077L8.71353 12.307C8.78623 12.2537 8.86053 12.2026 8.93673 12.1544L9.13483 12.0366L9.16353 12.1213C9.30593 11.9099 9.45083 11.7001 9.60403 11.4953C9.76513 11.2778 9.93233 11.0639 10.1155 10.8598L10.1168 10.8606C10.0186 11.1167 9.90423 11.3628 9.78403 11.6055C9.66473 11.8487 9.53633 12.0863 9.40543 12.3223C9.36483 12.3936 9.32403 12.4646 9.28283 12.5356L9.28313 12.5371ZM10.3991 12.7504C10.4019 12.8159 10.4031 12.8439 10.4031 12.8439C10.5345 12.7595 10.6594 12.6652 10.776 12.5603C11.0241 12.3369 11.2307 12.0699 11.399 11.7822C11.5927 11.4511 11.7385 11.092 11.8382 10.722L11.8405 10.7132C11.8375 10.7136 11.8345 10.7139 11.8315 10.7142C11.6019 10.7413 11.3744 10.7858 11.1517 10.848C11.1325 10.8533 11.1135 10.8588 11.0944 10.8645C11.0008 11.3306 10.8309 11.7834 10.5637 12.1783C10.3811 12.448 10.1572 12.687 9.90773 12.896C10.0024 12.8611 10.0983 12.8294 10.1956 12.8026L10.3991 12.7504ZM38.1033 12.4844C37.913 12.366 37.7378 12.224 37.5884 12.0563C37.4961 11.9526 37.4147 11.8404 37.3433 11.722C37.2484 11.709 37.1526 11.702 37.0568 11.6999C37.0356 11.6996 37.0142 11.6995 36.993 11.6995C36.8157 11.7011 36.6392 11.7194 36.4651 11.7525L36.4634 11.7528C36.5312 11.848 36.6054 11.9389 36.6843 12.0251C36.924 12.2867 37.2158 12.509 37.5516 12.6307C37.7496 12.7025 37.9583 12.7395 38.1685 12.75L38.1678 12.7475C38.145 12.6697 38.1033 12.4844 38.1033 12.4844ZM9.85743 10.0431C9.85173 9.9972 9.84523 9.9515 9.83803 9.9058C9.80313 9.6849 9.75123 9.4668 9.68383 9.2535L9.68103 9.2449C9.67863 9.2468 9.67633 9.2487 9.67393 9.2507C9.37113 9.499 9.09823 9.7866 8.87333 10.1076C8.67603 10.3893 8.51603 10.6989 8.41793 11.0292C8.32233 11.3512 8.28653 11.6889 8.29553 12.0242C8.30033 12.2011 8.31743 12.3777 8.34503 12.5524C8.34653 12.5617 8.34803 12.5709 8.34953 12.5802L8.34983 12.5775C8.35343 12.5506 8.35723 12.5237 8.36133 12.4969C8.43983 11.9774 8.60783 11.466 8.89453 11.023C9.14543 10.6354 9.48133 10.3092 9.85743 10.0431ZM39.3621 11.7617C39.3928 11.5103 39.3856 11.2543 39.324 11.0082C39.251 10.7171 39.1071 10.4472 38.9275 10.2082C38.888 10.1555 38.8466 10.1043 38.8036 10.0545C38.7576 10.0013 38.7097 9.9501 38.6603 9.9002L38.6591 9.899C38.6588 9.8995 38.6587 9.9 38.6584 9.9006C38.6342 9.9665 38.612 10.033 38.5924 10.1005C38.5739 10.1636 38.5575 10.2275 38.5435 10.2919C38.4998 10.4918 38.4773 10.6981 38.4851 10.903L38.4898 10.9073C38.5654 10.974 38.6365 11.0457 38.7022 11.1226C38.9569 11.4205 39.1251 11.7853 39.2245 12.1624C39.232 12.1909 39.2392 12.2195 39.2459 12.2482L39.2548 12.2545C39.2588 12.2416 39.2679 12.205 39.2679 12.205C39.2875 12.055 39.3197 11.9066 39.3621 11.7617ZM37.2795 10.6187C37.2908 10.688 37.304 10.7568 37.32 10.8252C37.335 10.8893 37.3521 10.953 37.3714 11.0159C37.4646 11.3191 37.6097 11.6106 37.8216 11.8486C37.891 11.9264 37.9668 11.9978 38.0476 12.063L38.0474 12.0582C38.0457 12.0299 38.0434 11.7527 38.0434 11.7527L38.094 11.7641C38.0722 11.7346 38.0506 11.7049 38.0295 11.6748C37.9246 11.5276 37.8246 11.3758 37.7383 11.211L37.7394 11.21C37.8983 11.3066 38.0436 11.4162 38.1836 11.5304C38.3245 11.6441 38.4576 11.7648 38.5885 11.8878L38.6177 11.9163C38.6598 11.9328 38.7015 11.9501 38.7429 11.9682C38.7802 11.9847 38.8173 12.0018 38.8542 12.0198C38.7549 11.7392 38.6085 11.4737 38.4032 11.2571C38.1968 11.0392 37.9388 10.8747 37.665 10.7546C37.6047 10.7281 37.5435 10.7037 37.4815 10.6815C37.4154 10.6577 37.3485 10.6366 37.2809 10.6174L37.2793 10.617L37.2795 10.6187ZM35.8891 10.285C35.8211 10.2863 35.7533 10.2891 35.6856 10.2949C35.5977 10.3023 35.5102 10.3139 35.4233 10.3289L35.4217 10.3292C35.4877 10.4256 35.5604 10.5177 35.6379 10.6052C35.8732 10.8709 36.1612 11.098 36.4949 11.2256C36.7079 11.3069 36.9344 11.3477 37.1621 11.3581C37.1294 11.2778 37.1003 11.196 37.0747 11.1133L37.0715 11.1031C36.8744 10.9786 36.6938 10.8287 36.5414 10.6518C36.4522 10.5481 36.3738 10.4365 36.3053 10.3189L36.3021 10.3132C36.2567 10.3064 36.0215 10.2685 35.8891 10.285ZM26.236 10.8478C25.5113 11.3573 24.5097 11.1838 24 10.4582C23.4904 11.1838 22.4886 11.3573 21.7641 10.8478C21.1557 10.4208 20.9209 9.6315 21.1969 8.941C21.3517 9.7639 22.145 10.3059 22.9682 10.1498C23.4017 10.0686 23.7789 9.8014 24 9.4192C24.221 9.8014 24.5984 10.0686 25.0317 10.1498C25.8549 10.3059 26.6482 9.7639 26.8031 8.941C27.0791 9.6315 26.8442 10.4208 26.236 10.8478ZM38.3342 9.8802C38.3264 9.7973 38.3134 9.7148 38.2946 9.6334C38.2266 9.3411 38.0872 9.0688 37.9118 8.8267C37.8731 8.7734 37.8326 8.7214 37.7904 8.671C37.7454 8.617 37.6983 8.565 37.6498 8.5143L37.6486 8.513C37.6484 8.5136 37.6481 8.5141 37.648 8.5146C37.6227 8.5802 37.5992 8.6463 37.5784 8.7133C37.5589 8.7763 37.5415 8.8398 37.5263 8.9039C37.4792 9.1031 37.4533 9.309 37.4575 9.5139C37.5336 9.5831 37.605 9.6574 37.6709 9.7371C37.8903 10.003 38.0421 10.3194 38.1388 10.6495C38.1512 10.657 38.1635 10.6646 38.1758 10.6725C38.187 10.4792 38.2196 10.2869 38.2685 10.1001C38.2871 10.029 38.3342 9.8802 38.3342 9.8802ZM36.2571 9.2091C36.2671 9.2786 36.2792 9.3477 36.2941 9.4164C36.3079 9.4807 36.3239 9.5446 36.3422 9.6078C36.4302 9.9125 36.5701 10.2066 36.7781 10.4481C36.8362 10.5157 36.8993 10.5786 36.9662 10.6372C36.9571 10.5746 36.95 10.5119 36.9452 10.449L36.9334 10.2288L36.9585 10.2331C36.8672 10.0981 36.7807 9.9588 36.7057 9.8091L36.7068 9.8081C36.864 9.9074 37.0072 10.0194 37.1454 10.136C37.2136 10.193 37.2798 10.2514 37.3447 10.3111C37.3515 10.313 37.3582 10.3149 37.365 10.3167C37.459 10.3431 37.5518 10.3737 37.643 10.4084C37.6737 10.42 37.7043 10.4323 37.7348 10.4449C37.6448 10.2339 37.525 10.036 37.3697 9.8664C37.167 9.6452 36.9119 9.4763 36.6402 9.3516C36.5802 9.3241 36.5194 9.2987 36.4578 9.2754C36.3922 9.2505 36.3257 9.2282 36.2585 9.208L36.2568 9.2075L36.2571 9.2091ZM12.0307 10.3849L12.0383 10.3847C12.1931 10.3242 12.3433 10.2519 12.486 10.1666C12.7836 9.9888 13.0448 9.755 13.2684 9.4912C13.3835 9.3553 13.489 9.2115 13.5853 9.0617C13.7103 8.8673 13.8198 8.663 13.9133 8.4517L13.917 8.4433C13.8656 8.4411 13.8143 8.4402 13.7629 8.4398C13.7296 8.4398 13.7297 8.4398 13.6964 8.4401C13.6147 8.4413 13.5331 8.4442 13.4516 8.4496C13.353 8.456 13.2546 8.4657 13.1566 8.4787C12.9929 8.9252 12.7558 9.3467 12.4313 9.6961C12.1295 10.0212 11.7608 10.2782 11.3641 10.4747L11.3811 10.4712C11.4784 10.451 11.5763 10.4338 11.6747 10.4198C11.7885 10.4034 11.9029 10.3912 12.0177 10.3854L12.0307 10.3849ZM11.1768 10.2188C11.2883 10.1654 11.3973 10.1069 11.5033 10.0433C11.7598 9.889 11.9985 9.7033 12.2024 9.4837C12.4382 9.2298 12.6235 8.9322 12.7642 8.6163C12.8366 8.4536 12.8975 8.2859 12.948 8.1152C13.0136 7.8935 13.0614 7.6668 13.092 7.4377L13.0932 7.4287C13.0902 7.4295 13.0873 7.4302 13.0843 7.4309C12.8675 7.4859 12.6548 7.5566 12.4485 7.6433C12.2853 7.7118 12.1262 7.7902 11.9732 7.8793C11.6834 8.0481 11.4149 8.2563 11.1914 8.5071C10.9736 8.7517 10.801 9.0339 10.668 9.3325C10.6231 9.4332 10.5826 9.5359 10.5463 9.64C10.574 9.6268 10.6018 9.6138 10.6298 9.6011C10.7345 9.5536 10.8409 9.5097 10.9495 9.4721L10.9618 9.4679L11.0418 9.4419C11.2194 9.2493 11.3995 9.0587 11.5872 8.8747C11.7798 8.6844 11.9777 8.4984 12.1899 8.3248L12.191 8.3257C12.0549 8.5638 11.9042 8.7896 11.7483 9.011C11.5933 9.2332 11.4302 9.4484 11.2645 9.6616C11.2369 9.6964 11.2093 9.7311 11.1815 9.7658C11.1838 9.8197 11.1847 9.8737 11.1849 9.9276C11.1853 10.0248 11.1825 10.1219 11.1768 10.2188ZM36.0931 9.8543C35.8123 9.701 35.5553 9.5023 35.3531 9.2539C35.2655 9.1462 35.1891 9.0303 35.123 8.9086C35.0664 8.8983 35.0094 8.89 34.9522 8.8839C34.8723 8.8752 34.7922 8.8709 34.7118 8.8692C34.6814 8.8689 34.6815 8.8689 34.6511 8.8689C34.5941 8.8695 34.5371 8.8714 34.4803 8.8752C34.4014 8.8803 34.3228 8.8889 34.2445 8.9003L34.2428 8.9005C34.3062 8.9987 34.3763 9.0928 34.4513 9.1824C34.6792 9.4545 34.9607 9.6895 35.2908 9.8262C35.4856 9.9069 35.693 9.9531 35.9028 9.9728C35.9146 9.9727 35.9262 9.9726 35.9379 9.9727C36.0055 9.9732 36.0731 9.9757 36.1405 9.9807C36.1237 9.939 36.1079 9.8969 36.0931 9.8543ZM12.0599 7.4779C12.0675 7.217 12.0506 6.9553 12.0126 6.6975L12.0086 6.6714L12.0072 6.6625C12.0045 6.664 12.0019 6.6655 11.9993 6.6671C11.8067 6.7808 11.6226 6.9086 11.4491 7.0498C11.3118 7.1616 11.1812 7.2816 11.0596 7.4102C10.8225 7.6607 10.619 7.9449 10.4743 8.2588C10.3377 8.5551 10.2545 8.8743 10.2134 9.1975C10.1898 9.3825 10.1796 9.5694 10.1815 9.7559L10.1825 9.7525C10.1901 9.7266 10.198 9.7006 10.2061 9.6746C10.3694 9.1531 10.6272 8.655 11.0009 8.2525C11.3007 7.9297 11.6659 7.6741 12.0599 7.4779ZM36.4998 8.9583C36.4224 8.7902 36.3243 8.632 36.2028 8.4915C36.0063 8.2648 35.7558 8.0891 35.4877 7.9568C35.4287 7.9277 35.3686 7.9006 35.3076 7.8756C35.2427 7.8489 35.1767 7.8248 35.1101 7.8027L35.1085 7.8022C35.1085 7.8027 35.1086 7.8033 35.1086 7.8038C35.1167 7.8736 35.127 7.9431 35.1399 8.012C35.152 8.0768 35.1663 8.1411 35.1828 8.2048C35.2623 8.5119 35.3942 8.8096 35.5954 9.0569C35.7051 9.1916 35.8336 9.3092 35.974 9.411C35.952 9.2976 35.9362 9.1829 35.9278 9.0677C35.8878 9.0103 35.8487 8.9515 35.8108 8.8923C35.7125 8.7405 35.6193 8.5844 35.5406 8.416L35.5417 8.415C35.6961 8.5186 35.8363 8.6345 35.9712 8.755C36.0034 8.7834 36.0351 8.8122 36.0665 8.8413C36.0665 8.8413 36.0529 8.8388 36.1204 8.8514C36.197 8.8668 36.2727 8.8864 36.3477 8.9087C36.3987 8.924 36.4496 8.9406 36.4998 8.9583ZM37.0955 9.242C37.1736 8.9296 37.1981 8.6008 37.1336 8.284C37.0739 7.99 36.942 7.7139 36.7732 7.4672C36.7361 7.4128 36.697 7.3598 36.6562 7.3081C36.6127 7.253 36.5671 7.1996 36.5199 7.1476L36.5188 7.1464C36.5185 7.1469 36.5183 7.1474 36.518 7.1479C36.4909 7.2127 36.4657 7.2781 36.4431 7.3447C36.4219 7.407 36.4027 7.4699 36.3859 7.5336C36.3333 7.7314 36.3017 7.9366 36.3003 8.1416C36.3003 8.1416 36.4451 8.2909 36.5073 8.3705C36.6845 8.5976 36.8135 8.8584 36.9021 9.1322C36.968 9.1662 37.0326 9.2028 37.0955 9.242ZM34.9276 8.4463C34.6687 8.3201 34.4285 8.155 34.2294 7.9462C34.135 7.8473 34.0511 7.7396 33.9767 7.6258L33.9729 7.62L33.9699 7.6198C33.9026 7.6129 33.8351 7.6093 33.7674 7.608C33.7511 7.6078 33.7347 7.6078 33.7182 7.6078C33.5089 7.6091 33.3005 7.6345 33.0963 7.6806L33.0946 7.681C33.1655 7.7739 33.2428 7.8623 33.3246 7.9457C33.5732 8.1991 33.8722 8.4111 34.212 8.5216C34.2697 8.5404 34.3282 8.5562 34.3872 8.5692C34.4634 8.5627 34.5399 8.5588 34.6162 8.5571C34.6497 8.5567 34.6832 8.5567 34.7166 8.5571C34.8016 8.5588 34.8864 8.5633 34.9708 8.572C34.9567 8.534 34.9435 8.4957 34.931 8.4572L34.9276 8.4463ZM35.3455 7.555C35.2557 7.396 35.1469 7.2483 35.0166 7.1198C34.8028 6.909 34.5394 6.7534 34.2617 6.6426C34.2005 6.6183 34.1385 6.596 34.0758 6.5758C34.0089 6.5543 33.9413 6.5355 33.8731 6.5186L33.8715 6.5182C33.8716 6.5187 33.8717 6.5194 33.8719 6.5198C33.8853 6.5888 33.901 6.6571 33.9193 6.7249C33.9364 6.7885 33.9557 6.8515 33.9772 6.9137C34.0806 7.2135 34.2355 7.5 34.4555 7.7308C34.566 7.8467 34.6913 7.9468 34.8262 8.0327L34.8247 8.0246C34.8072 7.9242 34.7945 7.8229 34.7873 7.7213L34.787 7.7142C34.7428 7.6604 34.6994 7.6058 34.6572 7.55C34.5473 7.4063 34.4423 7.258 34.3505 7.0962L34.3515 7.0952C34.5137 7.1863 34.6624 7.291 34.8063 7.4005L34.814 7.4062L34.982 7.4426C35.0582 7.46 35.1332 7.4818 35.2074 7.5061C35.2539 7.5214 35.2999 7.5376 35.3455 7.555ZM35.9533 7.8648C36.0185 7.5269 36.0237 7.1725 35.9283 6.8399C35.8456 6.5514 35.6925 6.2866 35.505 6.0538C35.4636 6.0025 35.4205 5.9527 35.3758 5.9043C35.3281 5.8528 35.2785 5.8032 35.2273 5.755L35.2262 5.7538C35.2259 5.7545 35.2258 5.755 35.2255 5.7555C35.2036 5.8222 35.1836 5.8895 35.1662 5.9575C35.15 6.0212 35.1359 6.0857 35.124 6.1503C35.0871 6.3516 35.0717 6.5587 35.0864 6.7632C35.1658 6.8284 35.241 6.899 35.3107 6.9753C35.5195 7.2034 35.6759 7.4748 35.7877 7.7626C35.844 7.7947 35.8993 7.8288 35.9533 7.8648ZM13.4244 7.2435C13.4184 7.3518 13.4054 7.4597 13.3892 7.5668C13.3828 7.609 13.3759 7.6511 13.3683 7.6931C13.4889 7.598 13.5991 7.4903 13.6942 7.3689C13.8798 7.132 14.0048 6.8519 14.0836 6.5627C14.1009 6.499 14.116 6.4346 14.1289 6.3699C14.1428 6.3008 14.1538 6.2313 14.1629 6.1614L14.1631 6.1592C14.1624 6.1594 14.1616 6.1596 14.1609 6.1598C14.0938 6.1812 14.0274 6.2047 13.9619 6.2305C13.9005 6.2549 13.8399 6.2813 13.7803 6.3098C13.4932 6.4469 13.2254 6.6339 13.0205 6.8792C12.9422 6.9731 12.874 7.0745 12.8149 7.1811L12.8244 7.1783C12.9501 7.1411 13.0773 7.1091 13.2061 7.0843L13.265 7.0742C13.3915 6.9527 13.5233 6.8354 13.669 6.7291L13.6701 6.73C13.5999 6.8963 13.5158 7.0518 13.4263 7.2029L13.4244 7.2435Z" fill="white"/>
</svg>
