<svg width="48" height="48" viewBox="0 0 48 48" fill="none" xmlns="http://www.w3.org/2000/svg">
<path d="M35.6347 6.76623L34.3083 5.97032L24.0389 0L3.5 11.9406V35.8215L10.9503 40.2542L22.4974 33.3181L15.1518 29.0476V18.7144L35.6347 6.76623Z" fill="white"/>
<path d="M12.3653 41.2338L13.6918 42.0297L23.9611 48L44.5 36.0595V12.1785L37.0499 7.74575L25.5027 14.6819L32.8484 18.9524V29.2856L12.3653 41.2338Z" fill="white"/>
<path d="M31 24C31 27.8555 27.8555 31 23.9999 31C20.1445 31 17 27.8555 17 24C17 20.1445 20.1445 17 23.9999 17C27.8555 17 31 20.1445 31 24Z" fill="white"/>
</svg>
