<svg width="48" height="48" viewBox="0 0 48 48" fill="none" xmlns="http://www.w3.org/2000/svg">
<path fill-rule="evenodd" clip-rule="evenodd" d="M26.1324 0L13.8283 7.58904C13.4335 8.18399 13.1798 8.88961 13.1798 9.74722C13.1798 11.7878 14.8506 12.6283 16.5275 13.3737L22.2238 15.9034C21.2905 15.4553 20.2433 14.9187 20.2433 14.2228C20.2433 13.6116 20.7861 13.213 21.1897 12.9668L25.7468 10.1895C27.8162 8.9332 29.0419 7.29715 29.0419 4.84708C29.0419 2.55798 27.6075 0.844099 26.1324 0ZM27.482 27.225C28.3846 27.6384 28.6914 27.9644 28.6914 28.481C28.6914 28.9775 28.259 29.4339 26.9211 30.1792L25.3262 31.0814L34.6857 35.274C35.3245 34.7262 35.7724 33.9273 35.7724 33.1335C35.7724 31.7372 35.1216 30.626 33.0381 29.6839L27.482 27.225ZM8.5 41.9078L14.4593 38.3167L23.7487 42.5092L17.8245 46.2949C16.5802 47.043 15.4514 47.4801 14.2665 47.4801C11.2003 47.4801 8.6473 44.9553 8.5 41.9078Z" fill="#80B0D5"/>
<path fill-rule="evenodd" clip-rule="evenodd" d="M24.8879 15.6203L35.8074 8.98657C37.2828 9.84546 38.7344 11.5279 38.7344 13.816C38.7344 16.2658 37.5419 17.952 35.4218 19.1584L34.2825 19.8129L24.8879 15.6203ZM13.092 25.0491C13.092 23.9072 13.4267 23.3094 13.9684 22.7141L23.363 26.8889L21.0319 28.2334C20.3914 28.6312 19.9452 28.991 19.9452 29.4894C19.9452 30.0284 20.5598 30.4753 21.3824 30.8515L16.948 28.8879C16.8633 28.8497 16.7787 28.8117 16.6945 28.7739C14.8082 27.9274 13.092 27.1572 13.092 25.0491Z" fill="#A2D993"/>
<path d="M13.8284 7.58899C11.2533 9.1772 9.62183 11.3338 9.62183 14.6296C9.62183 18.209 11.8451 20.2577 15.4058 21.8472L33.0382 29.6839C35.12 30.6259 35.7725 31.739 35.7725 33.1334C35.7725 33.9281 35.3246 34.7262 34.6858 35.2739L35.7199 34.6194C37.9379 33.2266 39.3305 31.3355 39.3305 28.3394C39.3305 24.4974 36.8039 22.3908 33.6867 20.9981L16.5276 13.3736C14.8507 12.6283 13.1799 11.7878 13.1799 9.74718C13.1799 8.88956 13.4336 8.18394 13.8284 7.58899Z" fill="#086DA9"/>
<path d="M37.3927 47.9356C35.027 46.0968 32.5033 44.853 29.435 43.4481L15.2553 37.116C11.6928 35.5137 9.33057 33.3773 9.33057 29.7824C9.33057 26.288 11.0065 24.5962 13.185 23.2064L13.9724 22.7081C13.4308 23.3035 13.0874 23.9015 13.0874 25.0434C13.0874 27.2456 14.9595 27.9909 16.9427 28.8854L33.4394 36.2226C36.309 37.4661 38.9351 39.6053 38.9351 43.248C38.9351 45.2506 38.1802 47.0424 37.3927 47.9356" fill="#35AF3B"/>
</svg>
