<svg width="48" height="48" viewBox="0 0 48 48" fill="none" xmlns="http://www.w3.org/2000/svg">
<path fill-rule="evenodd" clip-rule="evenodd" d="M37.4957 48C35.1267 46.1587 32.5997 44.9132 29.5273 43.5064L15.3285 37.1658C11.7612 35.5614 9.39581 33.4221 9.39581 29.8224C9.39581 26.3233 11.074 24.6293 13.2555 23.2376L14.0439 22.7386C13.5015 23.3348 13.1577 23.9336 13.1577 25.0771C13.1577 27.2822 15.0323 28.0285 17.0182 28.9242L33.537 36.2713C36.4105 37.5164 39.0401 39.6585 39.0401 43.3061C39.0401 45.3113 38.2842 47.1055 37.4957 48ZM14.5315 38.3681L8.56421 41.964C8.71171 45.0156 11.2681 47.5438 14.3384 47.5438C15.5249 47.5438 16.6552 47.1062 17.9012 46.357L23.8334 42.5663L14.5315 38.3681ZM13.8996 7.5992C11.3211 9.1896 9.68741 11.3491 9.68741 14.6493C9.68741 18.2335 11.9137 20.2849 15.4792 21.8765L33.1353 29.7238C35.2199 30.667 35.8732 31.7816 35.8732 33.1779C35.8732 33.9737 35.4247 34.7728 34.7851 35.3213L35.8205 34.6659C38.0415 33.2713 39.436 31.3776 39.436 28.3775C39.436 24.5304 36.906 22.4209 33.7847 21.0263L16.6025 13.3916C14.9233 12.6452 13.2503 11.8036 13.2503 9.7603C13.2503 8.9015 13.5043 8.195 13.8996 7.5992ZM28.7609 28.2985C30.1841 28.9326 31.6046 29.5725 33.0208 30.2221C33.1371 30.2769 33.2528 30.3328 33.3669 30.3922C33.4723 30.447 33.5765 30.5042 33.679 30.5643C34.3119 30.9347 34.9167 31.4313 35.1921 32.1314C35.2747 32.3413 35.3257 32.5625 35.3513 32.7864C35.3746 32.9916 35.3845 33.2033 35.3565 33.4084C35.323 33.654 35.2396 33.8914 35.1251 34.1106C34.9799 34.3886 34.7847 34.6339 34.5594 34.8511C34.4692 34.934 34.3785 35.0164 34.2873 35.0984L25.4129 31.1231L27.0101 30.2197C28.3497 29.4733 28.7827 29.0164 28.7827 28.5192C28.7827 28.4417 28.7758 28.3684 28.7609 28.2985ZM14.518 22.9569L23.4472 26.925L21.113 28.2712C20.4716 28.6696 20.0249 29.0299 20.0249 29.5289C20.0249 29.5983 20.035 29.6661 20.0545 29.7324C18.9866 29.257 17.9193 28.7802 16.853 28.301C16.6146 28.1935 16.376 28.0861 16.1399 27.9735C15.9996 27.9067 15.86 27.8383 15.7219 27.767C15.6161 27.7124 15.5111 27.6562 15.4074 27.5978C14.8247 27.2694 14.243 26.8561 13.925 26.2499C13.8715 26.1479 13.8261 26.0417 13.7892 25.9325C13.724 25.7399 13.6856 25.5388 13.6688 25.3363C13.6432 25.0268 13.6577 24.7076 13.7126 24.4018C13.7509 24.1892 13.8142 23.9812 13.9087 23.7866C13.9789 23.6419 14.066 23.5078 14.1611 23.3784C14.2135 23.31 14.2677 23.2434 14.3236 23.1778C14.3882 23.104 14.453 23.0303 14.518 22.9569ZM35.9083 8.9986L24.9742 15.6413L34.3814 19.8395L35.5222 19.184C37.6451 17.976 38.8393 16.2876 38.8393 13.8345C38.8393 11.5434 37.3857 9.8587 35.9083 8.9986ZM14.8998 6.9824L26.2203 0C27.6973 0.8452 29.1337 2.5614 29.1337 4.8536C29.1337 7.3069 27.9063 8.9452 25.8342 10.2032L21.271 12.9842C20.8668 13.2307 20.3232 13.6298 20.3232 14.2419C20.3232 14.3442 20.3458 14.443 20.3874 14.5385C19.0885 13.9613 17.791 13.3808 16.496 12.7948C16.3443 12.725 16.1928 12.6548 16.0429 12.5812C15.8971 12.5096 15.7531 12.4349 15.6104 12.3573C15.4965 12.2955 15.3845 12.23 15.2744 12.1616C14.7539 11.8386 14.2604 11.4277 13.9885 10.8665C13.9311 10.7478 13.8841 10.6241 13.8481 10.4973C13.7798 10.2574 13.7516 10.0084 13.751 9.7594C13.7502 9.4734 13.7837 9.1865 13.8539 8.9091C13.9425 8.5587 14.0923 8.2308 14.2845 7.9256L14.8998 6.9824Z" fill="white"/>
</svg>
