<svg width="48" height="48" viewBox="0 0 48 48" fill="none" xmlns="http://www.w3.org/2000/svg">
<path d="M23.1957 35.8071C23.2306 35.2993 23.0106 34.8159 22.6232 34.5074C20.6298 34.2218 18.833 33.3241 17.4298 32.011C16.9452 31.8989 16.4275 32.029 16.0512 32.3747L15.9699 32.4494C14.3338 33.9524 10.7347 37.2589 9.08462 38.786C8.59762 39.2334 8.49452 39.9623 8.83842 40.5271C9.49117 41.5773 9.97058 42.5245 10.3938 43.3606C11.2784 45.1085 11.9173 46.3708 13.3804 47.0737C14.8435 47.7766 16.2287 47.4867 18.1467 47.0854C19.0643 46.8934 20.1039 46.6759 21.3322 46.5294C21.9883 46.445 22.4933 45.9092 22.5387 45.2496C22.7036 42.9698 23.0473 37.9675 23.1957 35.8071Z" fill="white"/>
<path d="M31.9526 32.3642C31.5758 32.0191 31.058 31.8896 30.5735 32.0024C29.1719 33.3174 27.3762 34.2174 25.3834 34.5056C24.9964 34.8146 24.7771 35.2983 24.8126 35.806L24.8133 35.8151C24.9649 37.9803 25.3144 42.9713 25.4821 45.2477C25.5283 45.9072 26.0341 46.4423 26.6902 46.5258C27.9187 46.6707 28.9585 46.8869 29.8763 47.0777C31.7949 47.4765 33.1807 47.7646 34.6428 47.0597C36.1049 46.3549 36.7422 45.0917 37.6245 43.3427C38.0466 42.506 38.5247 41.5582 39.1761 40.5071C39.5193 39.9419 39.4152 39.2131 38.9276 38.7663C37.2689 37.2354 33.6432 33.9133 32.0145 32.4209L31.9526 32.3642Z" fill="white"/>
<path d="M15.042 31.112C15.4614 30.8222 15.7024 30.3479 15.7014 29.8522C14.8637 28.4268 14.3833 26.7669 14.3833 24.9958C14.3833 24.7399 14.3933 24.4863 14.4131 24.2354C14.1979 23.789 13.7743 23.4673 13.2708 23.3891L13.2204 23.3813C11.0532 23.0447 6.15546 22.2842 3.91202 21.9441C3.25842 21.8425 2.62412 22.2165 2.39692 22.8375C1.98263 24.0025 1.5408 24.9678 1.15079 25.8199C0.335514 27.6011 -0.253311 28.8876 0.109316 30.4691C0.472143 32.0506 1.56281 32.9523 3.07287 34.2007C3.79526 34.7979 4.61364 35.4744 5.49422 36.3427C5.96932 36.8027 6.70332 36.8633 7.24742 36.4874C9.11661 35.2059 13.1873 32.3934 14.9944 31.1449L15.042 31.112Z" fill="white"/>
<path d="M34.7211 23.375C34.2177 23.4539 33.7946 23.776 33.58 24.2227C33.6004 24.4778 33.6108 24.7356 33.6108 24.9958C33.6108 26.7624 33.1328 28.4184 32.2991 29.8413C32.2987 30.3371 32.5404 30.8109 32.9601 31.1002L33.006 31.1318C34.8139 32.3774 38.8903 35.1858 40.7618 36.4653C41.3064 36.8405 42.0403 36.7789 42.5148 36.3184C43.3943 35.4488 44.2118 34.7711 44.9335 34.1729C46.4418 32.9226 47.5313 32.0196 47.8919 30.4376C48.2525 28.8556 47.662 27.57 46.8444 25.7899C46.4533 24.9383 46.0101 23.9736 45.5943 22.8091C45.3663 22.1885 44.7314 21.8152 44.078 21.9176C41.8175 22.2633 36.8615 23.0397 34.7211 23.375Z" fill="white"/>
<path d="M13.629 21.813C14.1161 21.9598 14.6362 21.8531 15.023 21.5446C15.7344 19.6996 16.9993 18.1286 18.6138 17.0352C18.8298 16.5882 18.8176 16.0557 18.5643 15.6128L18.5191 15.5337C17.4209 13.6133 14.9842 9.35226 13.858 7.39927C13.5298 6.82524 12.8416 6.56287 12.2143 6.77257C11.0449 7.1754 10.0144 7.43217 9.10477 7.65883C7.20328 8.13264 5.82992 8.47486 4.81922 9.74458C3.80863 11.0142 3.78363 12.4287 3.74901 14.3869C3.73244 15.3239 3.71368 16.3853 3.58372 17.615C3.52032 18.2731 3.93072 18.8844 4.56412 19.075C6.75132 19.7422 11.5545 21.1884 13.629 21.813Z" fill="white"/>
<path d="M29.4174 15.6057C29.1647 16.0489 29.1532 16.5814 29.3697 17.028C30.9858 18.1194 32.2527 19.6889 32.9665 21.5328C33.3538 21.8408 33.874 21.9467 34.3609 21.7994L34.5176 21.752C36.6674 21.1016 41.2893 19.7032 43.4222 19.0494C44.0553 18.8579 44.4649 18.2461 44.4006 17.5881C44.269 16.3586 44.2489 15.2972 44.2311 14.3603C44.1939 12.402 44.167 10.9876 43.1547 9.71929C42.1423 8.45094 40.7686 8.11053 38.8665 7.63921C37.9566 7.41374 36.9257 7.1583 35.7557 6.75698C35.1281 6.54817 34.4403 6.81145 34.1128 7.38588C32.9735 9.36775 30.49 13.7242 29.4174 15.6057Z" fill="white"/>
<path d="M20.0336 14.9047C20.222 15.3768 20.6291 15.7172 21.1113 15.8277C22.0223 15.5411 22.9918 15.3865 23.997 15.3865C25.0023 15.3865 25.9717 15.5411 26.8828 15.8277C27.365 15.7172 27.7721 15.3768 27.9605 14.9047C28.7631 12.8932 30.6213 8.23578 31.4608 6.10958C31.7058 5.49556 31.4828 4.79389 30.9281 4.43376C29.8845 3.76983 29.0418 3.12366 28.298 2.55327C26.7432 1.36108 25.6203 0.5 23.997 0.5C22.3737 0.500068 21.2508 1.36116 19.696 2.55336C18.9522 3.12372 18.1095 3.76986 17.066 4.43376C16.5113 4.79389 16.2882 5.49556 16.5333 6.10958C17.3727 8.23578 19.231 12.8932 20.0336 14.9047Z" fill="white"/>
<path d="M31.5177 25.0072C31.5177 20.8564 28.1478 17.4865 23.997 17.4865C19.8462 17.4865 16.4763 20.8564 16.4763 25.0072C16.4763 29.158 19.8462 32.5279 23.997 32.5279C28.1478 32.5279 31.5177 29.158 31.5177 25.0072Z" fill="white"/>
</svg>
