<svg width="48" height="48" viewBox="0 0 48 48" fill="none" xmlns="http://www.w3.org/2000/svg">
<path fill-rule="evenodd" clip-rule="evenodd" d="M31.2681 25.0021C31.2681 20.9686 27.9909 17.6913 24.0077 17.6913C19.9741 17.6913 16.6969 20.9181 16.6969 24.9517C16.6969 28.9853 19.9741 32.2121 23.9573 32.2625C28.0413 32.313 31.2681 29.0357 31.2681 25.0021Z" fill="#CDCCCC"/>
<path d="M21.6884 15.7249C21.033 15.9266 20.3775 15.5232 20.1254 14.9182L16.4952 5.7923C16.3439 5.3889 16.4952 4.9351 16.8481 4.683L21.4363 1.3553C22.9993 0.195696 25.1169 0.195696 26.6295 1.3553L31.2177 4.7334C31.5707 4.9351 31.6715 5.3889 31.5707 5.7923L27.9404 14.9182C27.6883 15.5737 27.0329 15.9266 26.327 15.7753C25.6211 15.5737 24.8144 15.4728 24.0077 15.4728C23.2514 15.4728 22.4447 15.5737 21.6884 15.7249Z" fill="#51B5D1"/>
<path d="M29.7556 17.4392C31.016 18.3972 32.0244 19.6576 32.6295 21.0694C32.932 21.6744 33.7387 22.0274 34.3437 21.8257L43.6714 19.0022C44.0747 18.9014 44.3268 18.4476 44.3268 18.0442L44.1251 12.3468C44.0243 10.4309 42.7134 8.8174 40.8983 8.3132L35.4025 6.8006C34.9488 6.6998 34.5454 6.8511 34.3437 7.204L29.4026 15.7249C29.1505 16.1787 29.2514 17.0358 29.7556 17.4392Z" fill="#51B5D1"/>
<path d="M13.6213 21.8761L4.24322 19.1534C3.83992 18.9518 3.58782 18.5988 3.63822 18.1955L3.83992 12.4981C3.89032 10.5821 5.20122 8.9687 6.96592 8.4141L12.4616 6.8511C12.865 6.7502 13.2683 6.9015 13.5204 7.2544L18.4616 15.7249C18.8145 16.2795 18.6632 17.0862 18.159 17.4896C16.8986 18.4476 15.9406 19.7081 15.2851 21.1702C14.9826 21.7753 14.2263 22.0778 13.6213 21.8761Z" fill="#51B5D1"/>
<path d="M47.6041 27.5231L45.3352 22.3299C45.184 21.9265 44.7806 21.6744 44.3772 21.7753L34.6967 23.3383C33.9908 23.4391 33.4866 24.0442 33.537 24.75V25.0525C33.537 26.5651 33.1841 28.0273 32.5286 29.2878C32.2261 29.8928 32.4278 30.6491 32.9824 31.0021L41.1 36.4978C41.4529 36.7499 41.9571 36.6995 42.2596 36.397L46.4949 32.6155C47.957 31.3046 48.4108 29.2878 47.6041 27.5231Z" fill="#51B5D1"/>
<path d="M14.428 25.0021C14.428 26.5147 14.8313 27.9769 15.4868 29.2374C15.7389 29.8928 15.5876 30.6491 14.9826 31.0525L6.91552 36.5482C6.51212 36.8003 6.10882 36.7499 5.75582 36.4474L1.52062 32.7163C0.0584186 31.4558 -0.395381 29.3886 0.360919 27.6239L2.62982 22.4307C2.78112 22.0778 3.18442 21.8761 3.58782 21.8761L13.2683 23.3887C13.9742 23.4895 14.4784 24.0946 14.428 24.8004V25.0021Z" fill="#51B5D1"/>
<path d="M31.974 32.2625C31.4698 31.8088 30.7135 31.8088 30.1589 32.2121C28.9993 33.2205 27.5875 33.9264 26.0245 34.2793C25.369 34.3802 24.8649 35.0356 24.9153 35.7415L25.722 45.5229C25.7724 45.9263 26.1253 46.2792 26.5287 46.3296L32.1757 47.2876C34.0412 47.6405 35.9067 46.6826 36.8143 44.9683L39.4361 39.9263C39.6378 39.5734 39.5874 39.0692 39.2849 38.7667L31.974 32.2625Z" fill="#51B5D1"/>
<path d="M22.0414 34.3298C20.4783 33.9768 19.0162 33.2709 17.8565 32.313C17.3523 31.8592 16.5456 31.96 16.0918 32.3634L8.83142 39.0692C8.52892 39.3717 8.47852 39.8255 8.68022 40.1784L11.3524 45.2204C12.2599 46.8842 14.1759 47.7918 16.0414 47.4388L21.6884 46.4305C22.0918 46.3296 22.3943 45.9767 22.4447 45.5733L23.1506 35.7919C23.201 35.086 22.6968 34.4306 22.0414 34.3298Z" fill="#51B5D1"/>
</svg>
