<svg width="144" height="32" fill="none" xmlns="http://www.w3.org/2000/svg"><path fill-rule="evenodd" clip-rule="evenodd" d="M27.429 0a2.286 2.286 0 0 1 2.285 2.286v11.428A2.286 2.286 0 0 0 32 16h6.857a2.286 2.286 0 0 0 2.286-2.286V11.43a2.286 2.286 0 1 1 4.571 0v2.285a6.857 6.857 0 0 1-6.857 6.857H32a6.857 6.857 0 0 1-6.857-6.857V2.286A2.286 2.286 0 0 1 27.429 0ZM32 25.143a2.286 2.286 0 0 1 2.286-2.286h6.857a2.286 2.286 0 0 1 2.286 2.286v2.286a2.286 2.286 0 0 1-4.572 0h-4.571A2.286 2.286 0 0 1 32 25.143ZM20.571 0a2.286 2.286 0 0 1 2.286 2.286v15.967c0 5.05-4.094 9.175-9.144 9.175s-9.142-4.125-9.142-9.175v-4.571a2.286 2.286 0 1 1 4.572 0v4.571c0 2.525 2.046 4.604 4.57 4.604 2.525 0 4.573-2.08 4.573-4.604V2.286A2.286 2.286 0 0 1 20.57 0ZM92.993 22.173c.383-.457.721-1.256.721-2.459V11.43a2.286 2.286 0 1 1 4.572 0v8.285c0 2.036-.576 3.95-1.793 5.399-1.246 1.483-3.036 2.316-5.064 2.316a2.286 2.286 0 0 1 0-4.572c.714 0 1.21-.263 1.564-.684ZM102.136 22.173c.383-.457.721-1.256.721-2.459V11.43a2.286 2.286 0 1 1 4.572 0v8.285c0 2.036-.576 3.95-1.793 5.399-1.246 1.483-3.036 2.316-5.065 2.316a2.286 2.286 0 0 1 0-4.572c.715 0 1.21-.263 1.565-.684ZM105.143 6.857a2.289 2.289 0 0 0 2.286-2.286 2.289 2.289 0 0 0-2.286-2.285 2.288 2.288 0 0 0-2.286 2.285 2.288 2.288 0 0 0 2.286 2.286ZM75.429 25.143a2.286 2.286 0 0 1 2.285-2.286h6.857a2.286 2.286 0 0 1 0 4.572h-6.857a2.286 2.286 0 0 1-2.285-2.286ZM64 9.143a2.286 2.286 0 0 1 2.286 2.286v2.514c0 1.11.866 2.057 2.285 2.057h13.715c1.419 0 2.285-.946 2.285-2.057v-2.514a2.286 2.286 0 0 1 4.572 0v2.514c0 3.938-3.227 6.628-6.857 6.628H68.57c-3.63 0-6.857-2.69-6.857-6.628v-2.514A2.286 2.286 0 0 1 64 9.143ZM57.143 6.857a2.288 2.288 0 0 0 2.286-2.286 2.288 2.288 0 0 0-2.286-2.285 2.288 2.288 0 0 0-2.286 2.285 2.288 2.288 0 0 0 2.286 2.286Z" fill="#2E2E38"/><path fill-rule="evenodd" clip-rule="evenodd" d="M50.286 9.143a2.286 2.286 0 0 1 2.285 2.286v6.857a4.571 4.571 0 0 0 9.143 0v-6.857a2.286 2.286 0 1 1 4.572 0v6.857a9.143 9.143 0 1 1-18.286 0v-6.857a2.286 2.286 0 0 1 2.286-2.286Z" fill="#2E2E38"/><path d="M126.893 5.577a1.611 1.611 0 0 1 1.496-1.006h10.341c1.14 0 1.919 1.144 1.496 2.195l-7.919 19.657a1.611 1.611 0 0 1-1.496 1.006H120.47c-1.14 0-1.919-1.144-1.496-2.195l7.919-19.657Z" fill="url(#a)"/><path d="M122.514 18.286a6.857 6.857 0 1 0 0-13.714 6.857 6.857 0 0 0 0 13.714Z" fill="#0A33FF"/><path d="M129.371 11.429a6.857 6.857 0 0 1-7.582 6.819l4.929-12.237a6.844 6.844 0 0 1 2.653 5.418Z" fill="url(#b)"/><defs><linearGradient id="a" x1="133.86" y1="4.571" x2="125.779" y2="27.456" gradientUnits="userSpaceOnUse"><stop stop-color="#FFD60A"/><stop offset="1" stop-color="#F0BA09"/></linearGradient><linearGradient id="b" x1="126.668" y1="6.019" x2="121.771" y2="18.226" gradientUnits="userSpaceOnUse"><stop stop-color="#051A80"/><stop offset="1" stop-color="#0A33FF"/></linearGradient></defs></svg>