<svg width="132" height="32" viewBox="0 0 132 32" fill="none" xmlns="http://www.w3.org/2000/svg">
<path fill-rule="evenodd" clip-rule="evenodd" d="M125.113 4.57142C126.381 4.57142 127.409 5.59477 127.409 6.85713V25.1428C127.409 26.4052 126.381 27.4286 125.113 27.4286C123.845 27.4286 122.817 26.4052 122.817 25.1428V6.85713C122.817 5.59477 123.845 4.57142 125.113 4.57142Z" fill="white"/>
<path fill-rule="evenodd" clip-rule="evenodd" d="M111.339 9.14285C106.268 9.14285 102.156 13.2362 102.156 18.2857C102.156 23.3351 106.268 27.4286 111.339 27.4286C113.096 27.4286 114.738 26.9371 116.134 26.0847C116.494 26.8772 117.295 27.4286 118.226 27.4286C119.494 27.4286 120.522 26.4052 120.522 25.1428V11.4286C120.522 10.1662 119.494 9.14285 118.226 9.14285C117.295 9.14285 116.494 9.69416 116.134 10.4867C114.738 9.63428 113.096 9.14285 111.339 9.14285ZM115.93 18.2857C115.93 15.761 113.875 13.7143 111.339 13.7143C108.803 13.7143 106.748 15.761 106.748 18.2857C106.748 20.8104 108.803 22.8571 111.339 22.8571C113.875 22.8571 115.93 20.8104 115.93 18.2857Z" fill="white"/>
<path fill-rule="evenodd" clip-rule="evenodd" d="M84.9391 18.284C84.9391 18.2846 84.9391 18.2851 84.9391 18.2857C84.9391 18.2863 84.9391 18.2869 84.9391 18.2874V25.1429C84.9391 26.4052 85.9669 27.4286 87.2347 27.4286C88.5026 27.4286 89.5304 26.4052 89.5304 25.1429V20.5714H92.9739C97.4114 20.5714 101.009 16.9897 101.009 12.5714C101.009 8.15314 97.4114 4.57142 92.9739 4.57142H87.2347C85.9669 4.57142 84.9391 5.59477 84.9391 6.85713C84.9391 6.85769 84.9391 6.85825 84.9391 6.85881V18.284ZM89.5304 16H92.9739C94.8757 16 96.4174 14.465 96.4174 12.5714C96.4174 10.6779 94.8757 9.14285 92.9739 9.14285L89.5304 9.14285V16Z" fill="white"/>
<path fill-rule="evenodd" clip-rule="evenodd" d="M80.3478 27.4286C79.0799 27.4286 78.0521 26.4052 78.0521 25.1428V18.2857C78.0521 15.761 75.9965 13.7143 73.4608 13.7143C70.9251 13.7143 68.8695 15.761 68.8695 18.2857V25.1428C68.8695 26.4052 67.8417 27.4286 66.5739 27.4286C65.306 27.4286 64.2782 26.4052 64.2782 25.1428V18.2857C64.2782 13.2362 68.3894 9.14285 73.4608 9.14285C78.5322 9.14285 82.6434 13.2362 82.6434 18.2857V25.1428C82.6434 26.4052 81.6156 27.4286 80.3478 27.4286Z" fill="white"/>
<path d="M61.9826 4.57142C61.9826 5.83378 60.9547 6.85713 59.6869 6.85713C58.4191 6.85713 57.3913 5.83378 57.3913 4.57142C57.3913 3.30906 58.4191 2.28571 59.6869 2.28571C60.9547 2.28571 61.9826 3.30906 61.9826 4.57142Z" fill="white"/>
<path d="M61.9826 11.4286C61.9826 10.1662 60.9548 9.14285 59.6869 9.14285C58.4191 9.14285 57.3913 10.1662 57.3913 11.4286L57.3913 25.1429C57.3913 26.4052 58.4191 27.4286 59.6869 27.4286C60.9548 27.4286 61.9826 26.4052 61.9826 25.1428L61.9826 11.4286Z" fill="white"/>
<path fill-rule="evenodd" clip-rule="evenodd" d="M49.3847 14.6547C48.6167 15.3184 48.2087 16.0939 48.2087 16.8571V25.1428C48.2087 26.4052 47.1809 27.4286 45.913 27.4286C44.6451 27.4286 43.6173 26.4052 43.6173 25.1428V16.8571C43.6173 14.3822 44.939 12.4435 46.375 11.2024C47.7552 10.0097 49.6078 9.14285 51.2695 9.14285H52.8C54.0678 9.14285 55.0956 10.1662 55.0956 11.4286C55.0956 12.6909 54.0678 13.7143 52.8 13.7143H51.2695C51.0341 13.7143 50.2085 13.9427 49.3847 14.6547Z" fill="white"/>
<path fill-rule="evenodd" clip-rule="evenodd" d="M32.1391 9.14285C27.0677 9.14285 22.9565 13.2362 22.9565 18.2857C22.9565 23.3351 27.0677 27.4286 32.1391 27.4286C33.8963 27.4286 35.5382 26.9371 36.9338 26.0847C37.2942 26.8772 38.0955 27.4286 39.026 27.4286C40.2939 27.4286 41.3217 26.4052 41.3217 25.1428V11.4286C41.3217 10.1662 40.2939 9.14285 39.026 9.14285C38.0955 9.14285 37.2942 9.69416 36.9338 10.4867C35.5382 9.63428 33.8963 9.14285 32.1391 9.14285ZM36.7304 18.2857C36.7304 15.761 34.6748 13.7143 32.1391 13.7143C29.6034 13.7143 27.5478 15.761 27.5478 18.2857C27.5478 20.8104 29.6034 22.8571 32.1391 22.8571C34.6747 22.8571 36.7304 20.8104 36.7304 18.2857Z" fill="white"/>
<path fill-rule="evenodd" clip-rule="evenodd" d="M4.59126 6.85713C4.59126 5.59477 5.61906 4.57142 6.88691 4.57142H20.6608C21.5304 4.57142 22.3253 5.06057 22.7141 5.83493C23.103 6.60929 23.0191 7.53595 22.4973 8.22856L11.4782 22.8571H20.6608C21.9287 22.8571 22.9565 23.8805 22.9565 25.1428C22.9565 26.4052 21.9287 27.4286 20.6608 27.4286H6.88691C6.01738 27.4286 5.22248 26.9394 4.83362 26.1651C4.44475 25.3907 4.52867 24.464 5.05039 23.7714L16.0695 9.14285H6.88691C5.61906 9.14285 4.59126 8.1195 4.59126 6.85713Z" fill="white"/>
</svg>
