<svg width="164" height="32" fill="none" xmlns="http://www.w3.org/2000/svg"><path d="M14.893 5.577a1.611 1.611 0 0 1 1.496-1.006h10.34c1.14 0 1.92 1.144 1.497 2.195l-7.919 19.657a1.612 1.612 0 0 1-1.496 1.006H8.471c-1.14 0-1.92-1.144-1.497-2.195l7.919-19.657Z" fill="url(#a)"/><path d="M10.514 18.286a6.857 6.857 0 1 0 0-13.714 6.857 6.857 0 0 0 0 13.714Z" fill="#0A33FF"/><path d="M17.371 11.429a6.857 6.857 0 0 1-7.582 6.819l4.93-12.237a6.846 6.846 0 0 1 2.652 5.418Z" fill="url(#b)"/><path fill-rule="evenodd" clip-rule="evenodd" d="M157.113 4.571a2.29 2.29 0 0 1 2.296 2.286v18.286a2.291 2.291 0 0 1-2.296 2.286 2.291 2.291 0 0 1-2.296-2.286V6.857a2.29 2.29 0 0 1 2.296-2.286ZM143.339 9.143c-5.071 0-9.183 4.093-9.183 9.143 0 5.05 4.112 9.143 9.183 9.143a9.172 9.172 0 0 0 4.795-1.344 2.295 2.295 0 0 0 2.092 1.344 2.291 2.291 0 0 0 2.296-2.286V11.429a2.29 2.29 0 0 0-2.296-2.286c-.931 0-1.732.551-2.092 1.344a9.172 9.172 0 0 0-4.795-1.344Zm4.591 9.143c0-2.525-2.055-4.572-4.591-4.572s-4.591 2.047-4.591 4.572c0 2.524 2.055 4.571 4.591 4.571s4.591-2.047 4.591-4.571ZM116.939 18.284v6.859a2.29 2.29 0 0 0 2.296 2.286 2.29 2.29 0 0 0 2.295-2.286V20.57h3.444c4.437 0 8.035-3.581 8.035-8 0-4.418-3.598-8-8.035-8h-5.739a2.29 2.29 0 0 0-2.296 2.286V18.284ZM121.53 16h3.444a3.435 3.435 0 0 0 3.443-3.429 3.436 3.436 0 0 0-3.443-3.428h-3.444V16ZM112.348 27.429a2.291 2.291 0 0 1-2.296-2.286v-6.857c0-2.525-2.055-4.572-4.591-4.572s-4.591 2.047-4.591 4.572v6.857a2.291 2.291 0 0 1-2.296 2.286 2.29 2.29 0 0 1-2.296-2.286v-6.857c0-5.05 4.111-9.143 9.183-9.143 5.071 0 9.182 4.093 9.182 9.143v6.857a2.29 2.29 0 0 1-2.295 2.286Z" fill="#2E2E38"/><path d="M93.983 4.571a2.29 2.29 0 0 1-2.296 2.286 2.29 2.29 0 0 1-2.296-2.286 2.29 2.29 0 0 1 2.296-2.285 2.29 2.29 0 0 1 2.296 2.285ZM93.983 11.429a2.29 2.29 0 0 0-2.296-2.286 2.29 2.29 0 0 0-2.296 2.286v13.714a2.29 2.29 0 0 0 2.296 2.286 2.29 2.29 0 0 0 2.296-2.286V11.429Z" fill="#2E2E38"/><path fill-rule="evenodd" clip-rule="evenodd" d="M81.385 14.655c-.768.663-1.176 1.439-1.176 2.202v8.286a2.29 2.29 0 0 1-2.296 2.286 2.29 2.29 0 0 1-2.296-2.286v-8.286c0-2.475 1.322-4.413 2.758-5.655 1.38-1.192 3.233-2.06 4.894-2.06h1.53a2.29 2.29 0 0 1 2.297 2.287 2.29 2.29 0 0 1-2.296 2.285h-1.53c-.236 0-1.061.229-1.885.94ZM64.14 9.143c-5.072 0-9.184 4.093-9.184 9.143 0 5.05 4.112 9.143 9.183 9.143 1.757 0 3.4-.492 4.795-1.344a2.297 2.297 0 0 0 2.092 1.344 2.29 2.29 0 0 0 2.296-2.286V11.429a2.29 2.29 0 0 0-2.296-2.286c-.93 0-1.732.551-2.092 1.344a9.168 9.168 0 0 0-4.795-1.344Zm4.59 9.143c0-2.525-2.055-4.572-4.59-4.572-2.537 0-4.592 2.047-4.592 4.572 0 2.524 2.055 4.571 4.591 4.571s4.591-2.047 4.591-4.571Z" fill="#2E2E38"/><path fill-rule="evenodd" clip-rule="evenodd" d="M36.591 6.857a2.29 2.29 0 0 1 2.296-2.286H52.66c.87 0 1.664.49 2.053 1.264a2.277 2.277 0 0 1-.217 2.394L43.478 22.857h9.183a2.29 2.29 0 0 1 2.295 2.286 2.29 2.29 0 0 1-2.295 2.286H38.887c-.87 0-1.665-.49-2.053-1.264a2.278 2.278 0 0 1 .216-2.394L48.07 9.143h-9.183a2.29 2.29 0 0 1-2.296-2.286Z" fill="#2E2E38"/><defs><linearGradient id="a" x1="21.86" y1="4.571" x2="13.779" y2="27.456" gradientUnits="userSpaceOnUse"><stop stop-color="#FFD60A"/><stop offset="1" stop-color="#F0BA09"/></linearGradient><linearGradient id="b" x1="14.668" y1="6.019" x2="9.771" y2="18.226" gradientUnits="userSpaceOnUse"><stop stop-color="#051A80"/><stop offset="1" stop-color="#0A33FF"/></linearGradient></defs></svg>