<svg width="112" height="32" viewBox="0 0 112 32" fill="none" xmlns="http://www.w3.org/2000/svg">
<path fill-rule="evenodd" clip-rule="evenodd" d="M27.4286 0C28.6909 0 29.7143 1.02335 29.7143 2.28571V13.7143C29.7143 14.9767 30.7376 16 32 16H38.8571C40.1195 16 41.1429 14.9767 41.1429 13.7143V11.4286C41.1429 10.1662 42.1662 9.14286 43.4286 9.14286C44.6909 9.14286 45.7143 10.1662 45.7143 11.4286V13.7143C45.7143 17.5014 42.6442 20.5714 38.8571 20.5714H32C28.2129 20.5714 25.1429 17.5014 25.1429 13.7143V2.28571C25.1429 1.02335 26.1662 0 27.4286 0Z" fill="#2E2E38"/>
<path fill-rule="evenodd" clip-rule="evenodd" d="M32 25.1429C32 23.8805 33.0233 22.8571 34.2857 22.8571H41.1429C42.4052 22.8571 43.4286 23.8805 43.4286 25.1429V27.4286C43.4286 28.6909 42.4052 29.7143 41.1429 29.7143C39.8805 29.7143 38.8571 28.6909 38.8571 27.4286H34.2857C33.0233 27.4286 32 26.4052 32 25.1429Z" fill="#2E2E38"/>
<path fill-rule="evenodd" clip-rule="evenodd" d="M20.5714 0C21.8338 0 22.8571 1.02335 22.8571 2.28571V18.2531C22.8571 23.3026 18.7628 27.4285 13.7133 27.4285C8.66387 27.4285 4.57143 23.3026 4.57143 18.2531V13.6817C4.57143 12.4193 5.59478 11.396 6.85714 11.396C8.11951 11.396 9.14286 12.4193 9.14286 13.6817V18.2531C9.14286 20.7778 11.1886 22.8571 13.7133 22.8571C16.2381 22.8571 18.2857 20.7778 18.2857 18.2531V2.28571C18.2857 1.02335 19.3091 0 20.5714 0Z" fill="#2E2E38"/>
<path fill-rule="evenodd" clip-rule="evenodd" d="M92.9927 22.1727C93.3759 21.7164 93.7143 20.917 93.7143 19.7143V11.4286C93.7143 10.1662 94.7376 9.14286 96 9.14286C97.2624 9.14286 98.2857 10.1662 98.2857 11.4286V19.7143C98.2857 21.7497 97.7098 23.6645 96.493 25.113C95.2471 26.5963 93.4569 27.4286 91.4286 27.4286C90.1662 27.4286 89.1429 26.4052 89.1429 25.1429C89.1429 23.8805 90.1662 22.8571 91.4286 22.8571C92.1431 22.8571 92.6386 22.5942 92.9927 22.1727Z" fill="#2E2E38"/>
<path fill-rule="evenodd" clip-rule="evenodd" d="M102.136 22.1727C102.519 21.7164 102.857 20.917 102.857 19.7143V11.4286C102.857 10.1662 103.88 9.14286 105.143 9.14286C106.405 9.14286 107.429 10.1662 107.429 11.4286V19.7143C107.429 21.7497 106.853 23.6645 105.636 25.113C104.39 26.5963 102.6 27.4286 100.571 27.4286C99.3091 27.4286 98.2857 26.4052 98.2857 25.1429C98.2857 23.8805 99.3091 22.8571 100.571 22.8571C101.286 22.8571 101.781 22.5942 102.136 22.1727Z" fill="#2E2E38"/>
<path fill-rule="evenodd" clip-rule="evenodd" d="M105.143 6.85714C106.403 6.85714 107.429 5.83171 107.429 4.5713C107.429 3.3109 106.403 2.28571 105.143 2.28571C103.882 2.28571 102.857 3.3109 102.857 4.5713C102.857 5.83171 103.882 6.85714 105.143 6.85714Z" fill="#2E2E38"/>
<path fill-rule="evenodd" clip-rule="evenodd" d="M75.4286 25.1429C75.4286 23.8805 76.4519 22.8571 77.7143 22.8571H84.5714C85.8338 22.8571 86.8571 23.8805 86.8571 25.1429C86.8571 26.4052 85.8338 27.4286 84.5714 27.4286H77.7143C76.4519 27.4286 75.4286 26.4052 75.4286 25.1429Z" fill="#2E2E38"/>
<path fill-rule="evenodd" clip-rule="evenodd" d="M64 9.14286C65.2624 9.14286 66.2857 10.1662 66.2857 11.4286V13.9429C66.2857 15.0539 67.1522 16 68.5714 16H82.2857C83.7049 16 84.5714 15.0539 84.5714 13.9429V11.4286C84.5714 10.1662 85.5948 9.14286 86.8571 9.14286C88.1195 9.14286 89.1429 10.1662 89.1429 11.4286V13.9429C89.1429 17.8813 85.916 20.5714 82.2857 20.5714H68.5714C64.9412 20.5714 61.7143 17.8813 61.7143 13.9429V11.4286C61.7143 10.1662 62.7376 9.14286 64 9.14286Z" fill="#2E2E38"/>
<path fill-rule="evenodd" clip-rule="evenodd" d="M57.143 6.85714C58.4031 6.85714 59.4286 5.83171 59.4286 4.5713C59.4286 3.3109 58.4031 2.28571 57.143 2.28571C55.8823 2.28571 54.8571 3.3109 54.8571 4.5713C54.8571 5.83171 55.8823 6.85714 57.143 6.85714Z" fill="#2E2E38"/>
<path fill-rule="evenodd" clip-rule="evenodd" d="M50.2857 9.14286C51.5481 9.14286 52.5714 10.1662 52.5714 11.4286V18.2857C52.5714 20.8104 54.6181 22.8571 57.1429 22.8571C59.6676 22.8571 61.7143 20.8104 61.7143 18.2857V11.4286C61.7143 10.1662 62.7376 9.14286 64 9.14286C65.2624 9.14286 66.2857 10.1662 66.2857 11.4286V18.2857C66.2857 23.3352 62.1923 27.4286 57.1429 27.4286C52.0934 27.4286 48 23.3352 48 18.2857V11.4286C48 10.1662 49.0233 9.14286 50.2857 9.14286Z" fill="#2E2E38"/>
</svg>
