<svg width="32" height="32" fill="none" xmlns="http://www.w3.org/2000/svg"><path d="M14.893 5.577a1.611 1.611 0 0 1 1.496-1.006h10.34c1.14 0 1.92 1.144 1.497 2.195l-7.919 19.657a1.612 1.612 0 0 1-1.496 1.006H8.471c-1.14 0-1.92-1.144-1.497-2.195l7.919-19.657Z" fill="url(#a)"/><path d="M10.514 18.286a6.857 6.857 0 1 0 0-13.714 6.857 6.857 0 0 0 0 13.714Z" fill="#0A33FF"/><path d="M17.371 11.429a6.857 6.857 0 0 1-7.582 6.819l4.93-12.237a6.846 6.846 0 0 1 2.652 5.418Z" fill="url(#b)"/><defs><linearGradient id="a" x1="21.86" y1="4.571" x2="13.779" y2="27.456" gradientUnits="userSpaceOnUse"><stop stop-color="#FFD60A"/><stop offset="1" stop-color="#F0BA09"/></linearGradient><linearGradient id="b" x1="14.668" y1="6.019" x2="9.771" y2="18.226" gradientUnits="userSpaceOnUse"><stop stop-color="#051A80"/><stop offset="1" stop-color="#0A33FF"/></linearGradient></defs></svg>