<svg width="48" height="48" viewBox="0 0 48 48" fill="none" xmlns="http://www.w3.org/2000/svg">
<path d="M24.6467 5C23.5513 5 22.5662 5.66221 22.1594 6.6721L21.8691 7.39294C24.5531 9.47863 26.2801 12.7376 26.2801 16.4C26.2801 22.696 21.1762 27.8 14.8801 27.8C14.4726 27.8 14.07 27.7786 13.6735 27.7369L8.9943 39.3521C8.29042 41.0994 9.58638 43 11.4816 43H28.6734C29.7688 43 30.7539 42.3378 31.1607 41.3279L44.3258 8.6479C45.0297 6.90064 43.7337 5 41.8385 5H24.6467Z" fill="white"/>
<path d="M21.869 7.393C19.9388 5.89311 17.5137 5 14.88 5C8.58394 5 3.47998 10.104 3.47998 16.4C3.47998 22.6453 8.50191 27.7176 14.7278 27.799C14.3722 27.7944 14.0205 27.7734 13.6735 27.7369L21.869 7.393Z" fill="white"/>
</svg>
